<?xml version="1.0" encoding="UTF-8" standalone="no"?>
<!-- Created with Inkscape (http://www.inkscape.org/) -->

<svg
   width="1024"
   height="1024"
   viewBox="0 0 270.93333 270.93334"
   version="1.1"
   id="svg1373"
   xmlns="http://www.w3.org/2000/svg"
   xmlns:svg="http://www.w3.org/2000/svg">
  <defs
     id="defs1370" />
  <g
     id="layer1">
    <path
       style="display:inline;fill:#1c8db6;fill-opacity:1;stroke:#177799;stroke-width:0.830006;stroke-miterlimit:4;stroke-dasharray:none;stroke-opacity:1"
       d="m 29.267445,65.845642 c -0.336192,-2.486021 0.701569,-3.737073 1.88217,-5.944077 0.261884,-0.489344 1.054721,-1.641798 0.312233,-2.082879 -1.016437,-0.60385 -2.731821,2.643362 -3.183226,3.306662 -1.302968,1.914853 -2.507341,1.859091 -4.255958,3.134101 -1.95174,1.423251 -3.407171,3.579371 -3.879726,5.956832 -0.283913,1.428508 0.611884,2.925015 0.278845,4.195821 -0.542658,2.069934 -2.090032,4.162243 -2.988465,6.118895 -2.060848,4.488128 -4.002108,9.090417 -5.469244,13.811243 -2.9659181,9.5446 -4.4722156,18.9906 -5.8243267,28.84624 -0.2624015,1.91277 -2.4954499,2.40646 -2.5489532,4.54547 -0.04754,1.90699 2.0008817,2.57867 2.0718638,4.19582 0.3430016,7.81994 0.3253501,15.47381 1.4765809,23.25182 1.6139793,10.90387 5.0050832,21.00529 8.8050882,31.29379 0.502617,1.36015 -0.67797,2.23952 -1.050171,3.4965 -0.540038,1.82346 -0.170457,3.76051 0.699293,5.41961 0.786373,1.50001 2.111544,2.80421 3.708923,3.41435 1.032519,0.3951 2.226757,-0.0245 2.953852,0.9668 2.393715,3.26398 4.197404,6.99652 6.561386,10.30421 6.273267,8.77975 13.460187,16.74307 21.603732,23.82527 4.237946,3.68532 8.684117,7.0979 13.286749,10.3147 2.033925,1.42133 4.572742,2.51399 6.435677,4.12938 0.82326,0.71504 0.240921,2.35491 0.520456,3.33918 0.591266,2.08393 2.266453,3.67133 4.232707,4.46679 1.595464,0.64337 3.456658,0.69058 5.069962,0.0577 0.648771,-0.25349 1.422026,-1.25524 2.113457,-1.18006 0.876231,0.0962 1.96172,0.87762 2.781654,1.22725 2.138469,0.91085 4.27904,1.86715 6.468548,2.65036 4.281487,1.52973 8.598615,2.79722 12.937108,4.13112 0.80717,0.24827 1.44353,0.81121 2.27274,1.01751 2.37395,0.59091 4.92815,0.66957 7.34267,1.07693 2.55491,0.43181 5.1236,0.77796 7.69233,1.11188 0.62116,0.0805 2.19948,0.54021 2.68147,0.0193 0.90106,-0.97377 -2.09336,-1.07868 -2.50666,-1.12588 -3.3173,-0.3724 -6.62151,-0.88112 -9.79023,-1.91435 0.8126,-1.27622 -0.25855,-2.33565 -0.87413,-3.49652 1.60981,-0.002 2.7612,1.30072 4.021,2.14164 1.53636,1.02447 4.4161,2.05593 6.2904,1.86014 1.32256,-0.13809 0.41067,-1.5507 1.41906,-1.97379 0.8757,-0.36537 1.86084,0.28673 2.76383,-0.0857 0.71012,-0.2937 1.08164,-1.07866 1.76712,-1.44929 2.77258,-1.4965 5.9607,-3.03846 9.08834,-3.56294 3.18356,-0.53673 7.20104,-0.66259 10.31469,0.22202 1.94582,0.55245 4.1154,2.30946 6.1189,2.29197 1.34615,-0.0126 1.95105,-1.50349 3.14686,-1.57343 0.88112,-0.0506 1.69405,0.71154 2.62238,0.71679 2.35665,0.0126 4.98954,-1.02449 7.16786,-1.82868 1.47552,-0.54546 2.79896,-2.14511 4.37063,-2.33392 1.81995,-0.21503 2.56819,1.99475 4.19583,2.22027 3.18008,0.44057 6.72554,-0.8409 9.96505,-0.8409 v 0.17483 c -3.04372,0.8304 -5.94581,2.37237 -8.74128,3.80421 -0.47551,0.24299 -2.87063,1.56642 -1.69056,2.26748 0.48251,0.28671 1.21329,-0.0367 1.69056,-0.18707 1.40386,-0.44755 2.79896,-0.93532 4.19583,-1.40034 5.96505,-1.98952 11.95108,-4.51925 17.48256,-7.51052 2,-1.08217 3.99301,-2.16611 5.94408,-3.33744 0.40209,-0.24124 1.85838,-0.89861 1.38285,-1.57517 -0.35838,-0.51224 -1.18531,0 -1.5577,0.2168 -1.46329,0.84964 -2.89683,1.74475 -4.37063,2.57866 -5.79371,3.27275 -12.72031,6.92312 -19.23082,8.46507 v -0.17479 c 1.7535,-0.50523 3.5682,-1.39685 5.24475,-2.1381 0.58043,-0.257 1.43008,-0.74127 1.03674,-1.51051 -0.42658,-0.83391 -1.97552,-0.84265 -2.78498,-0.87938 -2.51748,-0.11013 -5.99478,1.80596 -8.39162,0.92659 -1.52973,-0.56295 -2.18184,-2.09267 -4.021,-2.16086 -2.13113,-0.0768 -3.68533,1.79722 -5.59442,2.49302 -1.86015,0.68008 -4.28323,1.69931 -6.29373,1.63287 -0.9965,-0.0333 -1.76223,-0.87762 -2.79721,-0.76748 -1.22729,0.13289 -1.95804,1.60316 -3.14684,1.60665 -0.84792,0.003 -1.7133,-0.72379 -2.44757,-1.08043 -1.25526,-0.61013 -2.67133,-1.06293 -4.021,-1.41609 -3.02973,-0.79369 -7.23603,-0.44754 -10.31471,0.0489 -3.12065,0.50176 -6.52223,2.13463 -9.26558,3.66609 -0.61486,0.34441 -0.99407,1 -1.60332,1.31995 -1.22658,0.6416 -4.59549,-0.76575 -3.81645,2.10489 -3.07292,-0.25175 -5.65771,-1.77447 -8.02468,-3.64337 -0.6673,-0.52621 -0.26206,-1.47553 -1.07709,-1.82167 -1.67816,-0.70981 -3.75578,0.54895 -3.16349,2.49299 0.27327,0.89686 1.35474,1.27799 1.95055,1.92309 -1.68654,-0.57167 -3.81367,-0.85314 -5.59443,-0.87412 -0.79231,-0.009 -1.63567,-0.1661 -1.92309,0.69929 -4.924829,-0.66433 -10.096009,-3.0944 -14.685351,-4.93008 -1.765389,-0.70629 -4.483748,-1.42132 -5.902463,-2.70105 -0.701584,-0.63287 -0.380423,-2.15561 -0.643013,-3.03325 -0.498946,-1.66782 -1.736895,-3.08391 -3.244764,-3.92832 -1.5708,-0.87938 -3.520107,-1.1049 -5.24478,-0.62936 -1.268185,0.34964 -2.004726,1.53146 -3.321675,0.77972 -13.935707,-7.95633 -26.550072,-19.67489 -36.400452,-32.23613 -3.732882,-4.76051 -7.813143,-9.8724 -10.392865,-15.38466 -0.558912,-1.19405 0.872731,-2.18532 1.200876,-3.32169 0.522213,-1.80595 0.223082,-3.757 -0.608746,-5.41959 -0.817831,-1.63463 -2.188111,-3.05945 -3.973788,-3.59442 -0.730421,-0.21853 -1.954015,0.0245 -2.554193,-0.38636 -0.645115,-0.44231 -0.92851,-1.62238 -1.217835,-2.31294 -5.219599,-12.44935 -7.9209974,-25.61021 -9.1947836,-38.98614 -0.3052512,-3.20631 -0.3237812,-6.39162 -0.3199371,-9.61542 0.0014,-1.12936 -0.3491208,-2.95105 0.1054377,-3.99476 0.4185336,-0.9605 2.2968599,-1.007 2.9482669,-2.12677 1.3445791,-2.31082 -0.112185,-5.01451 -2.7040348,-5.24213 1.3377705,-5.16872 3.6839289,-10.52644 7.3426909,-14.51054 -0.12505,0.92815 -0.635152,1.86801 -0.634806,2.79722 3.61e-4,0.83198 0.5535,1.49213 0.737074,2.27272 0.199829,0.85 0.04032,1.75716 0.213809,2.62239 0.121755,0.60752 0.552104,2.37169 1.4313,2.26627 0.625344,-0.075 0.682692,-0.91748 0.697549,-1.39214 0.0488,-1.5778 -0.279549,-3.14808 -0.347033,-4.7203 h 0.174836 c 0.219222,2.68358 1.169227,5.32588 1.254377,8.04199 0.0488,1.55175 -0.849839,2.60614 -0.14435,4.19583 1.126222,2.53811 3.820104,6.58565 6.233401,8.00176 1.01697,0.59791 2.244768,-0.30769 3.088645,0.44579 1.006648,0.90036 1.218887,2.45282 2.192663,3.38114 1.81522,1.73077 4.059283,1.98603 5.399139,4.43009 0.836017,1.52446 0.401057,3.1521 1.087766,4.54546 0.485671,0.98428 1.638644,1.34792 2.375703,2.10492 0.884796,0.90908 3.973442,6.2238 5.337431,2.78845 0.155803,-0.39334 0.217136,-0.80769 0.273259,-1.22201 2.712585,2.01574 3.916441,7.48077 1.971338,10.31469 -0.411726,0.59966 -1.1563,2.1836 -1.978337,2.22031 -0.737591,0.0333 -1.668016,-0.83744 -2.265745,-1.20457 -1.933212,-1.18531 -3.804194,-2.49476 -5.59442,-3.88635 -0.63374,-0.49302 -1.742653,-1.75176 -2.596338,-1.73952 -1.555769,0.0228 1.472391,2.45455 1.722211,2.65035 2.581477,2.02099 5.413825,4.06644 8.391636,5.4563 -0.704548,1.82869 -1.345803,4.34442 -0.733575,6.29373 0.204207,0.65034 1.004905,1.13811 1.097743,1.77097 0.08269,0.56295 -0.692672,1.19233 -0.867145,1.72555 -0.297892,0.91259 0.07249,1.98077 0.500356,2.79722 1.143182,2.18007 3.283753,3.70631 4.494072,5.94406 1.247899,2.3077 2.587237,4.53499 3.873263,6.8182 0.702101,1.24651 1.171502,2.58393 2.177269,3.64163 2.729907,2.87063 6.5502,4.16959 8.898805,7.54723 0.509097,0.73251 1.263636,2.18881 1.033226,3.11715 -0.198779,0.80068 -1.046515,1.16957 -0.835326,2.12762 0.215032,0.97552 1.329548,1.25175 1.711195,2.11365 0.508391,1.15035 0.510494,2.60665 0.756641,3.83042 0.2841,1.41258 0.85682,2.77798 1.088469,4.19581 0.133052,0.8147 -0.01679,1.63987 0.189866,2.44757 0.366255,1.43182 1.177449,2.72728 1.430938,4.19581 0.208224,1.20631 -0.146232,2.45805 0.067,3.67135 0.159098,0.90558 0.743884,1.61363 1.08323,2.44755 0.662405,1.62763 0.960658,3.00701 1.857693,4.5245 0.828502,1.40385 0.579546,3.63811 2.595977,4.21679 -0.674989,1.89861 0.934095,1.64685 1.575366,2.99126 2.427448,5.08743 8.089179,8.20983 13.11,10.39688 1.151921,0.50002 2.377978,1.06821 3.670466,0.92835 0.700706,-0.0769 1.337944,-0.60841 1.002097,-1.3724 -0.559086,-1.26923 -2.99686,-1.86363 -4.147917,-2.4493 -1.056997,-0.53672 -1.862416,-1.65734 -2.519926,-2.62764 -0.754382,-1.11189 0.436012,-1.86888 0.55226,-2.97203 0.191436,-1.81644 -2.08462,-2.264 -3.452108,-2.44757 v -0.1748 c 2.20228,-0.66084 1.595293,-2.83045 0.699308,-4.37064 1.45507,-0.0141 2.186717,-0.63462 1.573436,-2.09791 2.142486,-0.39861 6.347217,-0.48428 4.671685,-3.84617 -0.278311,-0.55944 -0.660491,-1.05244 -1.000355,-1.57344 1.091798,0.16084 2.249665,0.64337 3.319071,0.0945 1.091263,-0.55943 1.482354,-1.88985 2.051749,-2.89161 1.150886,-2.02448 3.132703,-3.62589 3.678859,-5.94408 0.34826,-1.47902 -0.595626,-3.42833 0.24196,-4.70454 1.157873,-1.76401 4.495133,-2.4843 6.442683,-2.89688 0.89877,-0.19055 1.81365,0 2.61486,-0.56294 0.97903,-0.68881 1.16871,-1.96153 1.52275,-3.02448 0.85384,-2.56295 1.31626,-4.87764 1.80646,-7.5175 3.04494,1.44056 5.87363,3.67658 8.7413,5.45282 0.89439,0.55417 2.85349,1.31992 3.343,2.27622 0.34194,0.66783 -0.60857,2.18008 -0.71993,2.93532 -0.4049,2.74302 0.94912,5.40211 3.49582,6.58744 6.28673,2.92308 12.32521,-5.79898 6.81119,-10.3427 -1.65471,-1.36364 -3.87361,-1.85315 -5.93707,-1.23775 -0.72202,0.21503 -1.79058,1.15385 -2.52168,1.04196 -0.98778,-0.15031 -2.23689,-1.33393 -3.07274,-1.87239 -2.25333,-1.44756 -4.58515,-2.77974 -6.8182,-4.25876 -0.80909,-0.53495 -2.47694,-1.18007 -2.89232,-2.09792 -0.94283,-2.08217 1.57519,-2.96853 2.35491,-4.2535 0.75244,-1.24126 1.3159,-2.51399 2.22781,-3.67133 2.32062,-2.94583 5.57099,-5.92485 3.71014,-10.13991 -0.71539,-1.62062 -2.82745,-1.29545 -4.17676,-2.11888 -1.73689,-1.05944 -2.83463,-2.92832 -4.72029,-3.764 -1.3577,-0.60313 -2.92396,-0.15392 -4.37065,-0.50349 -1.60211,-0.38462 -2.56049,-1.28847 -4.19581,-0.43183 -0.25088,-2.85139 -3.697043,-3.77098 -6.11891,-3.32168 -0.789167,-2.3007 -3.701408,-1.18357 -5.419585,-0.69931 v -0.17482 c 2.95699,-1.47378 2.59808,-3.81294 1.573421,-6.46856 1.644762,-0.63287 3.124843,-2.08391 4.545472,-3.12064 2.560139,-1.86712 5.181132,-3.69056 7.867152,-5.37239 9.39234,-5.87937 18.92751,-11.29023 28.67141,-16.56124 3.34443,-1.80944 6.73953,-3.53323 10.13989,-5.23427 1.07868,-0.53847 2.98601,-2.0063 4.19582,-1.98114 0.87763,0.0184 1.93707,1.33778 2.7972,1.69617 1.0612,0.44406 2.73428,0.009 3.60315,0.51572 0.54722,0.31819 0.80072,1.20806 1.09268,1.73604 1.34614,2.43532 1.07517,5.09614 0.2972,7.69231 -0.29021,0.9703 -1.12587,2.10666 -0.87064,3.14689 0.16084,0.65559 0.73251,1.10663 0.9021,1.74825 0.30245,1.15036 -0.30243,2.01048 0.50876,3.14512 1.32516,1.85141 3.65559,2.8549 4.993,4.72203 0.9126,1.27098 0.71854,3.03498 1.75001,4.18009 1.06993,1.18356 2.73601,1.77272 3.98252,2.75525 1.56297,1.23077 3.05596,3.83218 5.24479,3.89336 1.97202,0.0558 3.87762,-1.67308 5.94407,-1.88287 1.66608,-0.16958 3.69931,0.47028 5.24477,-0.0472 2.98778,-1.00351 5.27623,-3.63812 8.74128,-3.10315 1.80594,0.27796 1.62062,2.74127 3.32169,3.29721 1.35664,0.44231 3.16609,-0.58042 4.35141,0.17657 1.08393,0.69232 1.13635,2.51748 0.45454,3.49302 -1.88112,2.69057 -4.69232,4.95979 -7.07869,7.18359 -0.40384,0.37588 -3.07694,2.49477 -2.16433,3.11539 0.743,0.50699 2.06644,-1.3007 2.51398,-1.71678 2.02449,-1.88637 5.28848,-4.1294 6.46856,-6.65913 h 0.17481 l -0.38636,4.37067 3.35841,7.51749 -7.69233,-2.62238 v -0.17482 c 0.81819,-0.10308 1.63463,-0.23077 2.44756,-0.36365 0.52446,-0.0857 1.04721,-0.1398 1.57342,-0.20977 0.34268,-0.0472 2.80071,-0.62764 1.5175,-1.24302 -0.56644,-0.27274 -1.45805,0.0472 -2.04198,0.13979 -1.45105,0.22902 -2.91608,0.37063 -4.37063,0.58043 -0.57168,0.0822 -1.57344,0.0769 -1.91085,0.64684 -0.35664,0.60141 0.32344,1.26225 0.67832,1.6731 l 3.15562,3.67133 c 0.34613,0.39861 1.02971,1.43181 1.6853,1.03323 0.57869,-0.34967 -0.0297,-1.0647 -0.30243,-1.38288 -0.96331,-1.12238 -1.9231,-2.26573 -2.95631,-3.32168 1.93707,0.6556 3.82519,1.45628 5.76923,2.09789 0.75352,0.24826 1.96156,0.35839 2.51925,0.96329 0.93531,1.01576 0.26399,2.90911 0.28671,4.10665 0.0262,1.27624 0.62762,2.56819 0.22728,3.84617 -0.31469,1.00001 -1.28321,1.58568 -1.82169,2.44931 -1.20804,1.93532 -2.44756,4.56994 -2.87936,6.81647 -0.66784,3.47202 1.88635,6.33217 1.30418,9.79024 -0.24824,1.47202 -0.73252,3.03847 -0.59266,4.54545 0.19756,2.12939 1.271,3.4668 0.91959,5.76926 -0.24651,1.60839 -2.04371,3.70281 0.21504,4.86366 1.56817,0.80768 4.09267,-1.06295 5.59092,-1.53673 1.22379,-0.38812 2.49301,-0.41435 3.67133,-0.96503 3.43533,-1.60316 6.92311,-4.93183 9.36542,-7.7815 1.25175,-1.45979 1.95454,-3.51225 3.27973,-4.83742 1.15385,-1.15385 2.67834,-1.43707 3.45629,-3.02974 0.91785,-1.88111 0.41085,-4.15735 1.78324,-5.76924 2.01399,-2.36888 5.90736,-4.02973 7.23252,-6.81821 0.90561,-1.9021 1.3252,-4.89861 1.67485,-6.99303 0.13979,-0.84615 0.0524,-1.97554 0.41084,-2.75874 0.47726,-1.04197 2.1521,-0.82169 2.46154,-2.13638 0.40383,-1.7203 -1.79021,-1.89685 -2.25526,-3.16261 -0.75174,-2.04195 0.97377,-5.74475 1.93707,-7.50176 2.76749,-5.03847 6.61016,-9.69409 9.05948,-14.86018 0.90034,-1.89861 1.27447,-3.95981 1.92132,-5.94408 0.80595,-2.47553 2.32869,-5.90736 1.55594,-8.55946 -0.34965,-1.19581 -1.486,-0.69755 -2.19756,-0.17484 -1.70978,1.25525 -5.4091,4.51052 -5.41959,0.69231 2.06996,-0.1136 4.63638,-3.52272 5.90912,-5.06995 4.53147,-5.5035 8.11192,-11.5995 7.1696,-19.05598 -0.27447,-2.17659 -2.84265,-2.91453 -3.46331,-5.06996 0.88638,0.2049 1.69756,0.53358 2.62238,0.52115 0.60316,-0.008 1.34091,-0.30577 1.86542,0.091 1.58566,1.19737 2.46678,4.10246 3.25874,5.8563 2.74826,6.09968 4.3077,12.40215 4.14336,19.05601 -0.58916,24.11197 -8.70106,47.66449 -22.02978,67.65756 -4.14512,6.21679 -8.88638,12.18185 -14.16088,17.48257 -1.22029,1.22728 -2.4598,2.43533 -3.67132,3.67134 -0.31295,0.31993 -1.27101,1.12063 -0.75876,1.63287 0.59092,0.59092 1.63288,-0.75874 1.98251,-1.10838 1.63113,-1.62764 3.29548,-3.22904 4.88813,-4.89514 6.67834,-6.98429 12.3532,-14.98081 17.31474,-23.25181 12.88816,-21.48085 18.57872,-47.14876 17.48957,-72.02822 -0.37588,-8.59739 -1.33568,-17.3796 -3.67834,-25.69936 2.95105,-1.53078 3.0944,-5.491969 1.89337,-8.21681 -0.60492,-1.371158 -1.6224,-2.563812 -2.94232,-3.289338 -0.75699,-0.415914 -1.94406,-0.384439 -2.47553,-1.107175 -1.00525,-1.368538 -1.40036,-3.636905 -2.03497,-5.218909 -1.33217,-3.321692 -2.84965,-6.590228 -4.44933,-9.790241 -9.98604,-19.974716 -25.64167,-37.228261 -44.18717,-49.59228 -3.77624,-2.518012 -7.75004,-4.655431 -11.71331,-6.852125 -2.40911,-1.335841 -5.30072,-3.223614 -8.04199,-3.695636 0,-1.391618 -0.0489,-2.735148 -1.10666,-3.788645 -1.60139,-1.594588 -4.70104,-1.148785 -5.53673,0.991426 C 174.94803,10.862632 167.41129,7.8647207 159.16303,6.4809778 134.21191,2.2952932 108.33631,5.3050973 85.036936,15.24744 c -0.914687,0.390198 -2.284794,1.348598 -3.271687,1.379712 -0.716788,0.02259 -1.609963,-0.816955 -2.322733,-1.031644 -2.077795,-0.625877 -4.372035,-0.07844 -6.118204,1.160852 -1.026227,0.728319 -1.958047,1.884617 -2.310321,3.110142 -0.254887,0.8869 0.181471,2.136194 -0.688278,2.726926 -6.55089,4.4495 -13.121376,8.859127 -19.204951,13.984666 -1.684976,1.419768 -3.318537,2.901936 -4.895126,4.439708 -0.551915,0.538281 -1.397033,1.043173 -1.740034,1.750705 -0.171148,0.35331 -0.139172,0.882161 0.367305,0.859268 0.600178,-0.02746 1.013127,-0.613294 1.547563,-0.812072 0.655596,-0.243888 1.11836,0.25909 1.74074,0.326055 0.71346,0.07673 1.938121,-1.427628 2.236186,0.154706 0.225876,1.198252 -1.810309,3.672381 -2.40349,4.716968 -2.009103,3.537242 -3.754393,7.357896 -5.123794,11.188842 -0.405606,1.134803 -0.874662,4.061372 -1.917835,4.715399 -0.908221,0.569582 -2.904914,0.41819 -3.972391,0.538124 -2.614868,0.293703 -5.126069,0.858735 -7.69233,1.389863 M 182.41484,14.097196 c 0.0419,2.005416 1.42657,4.195286 3.67134,4.112945 1.20454,-0.04409 2.0944,-1.360145 3.14685,-1.323602 0.63986,0.02244 1.34791,0.556465 1.92308,0.807867 2.13289,0.930424 4.07693,2.119234 5.94408,3.505958 6.18884,4.595118 11.44234,9.801602 16.25879,15.798994 -3.14336,-3.46e-4 -5.9668,-0.855065 -7.87941,-3.496513 -0.83741,-1.156645 -1.53495,-5.629033 -3.99125,-4.757699 -1.67833,0.595629 -0.48951,2.923429 0.0367,3.883572 1.61363,2.937942 3.58042,4.86593 6.93883,5.294772 1.12937,0.144034 2.14511,0.592663 2.97204,-0.39966 0.55243,0.08614 2.38111,0.614347 1.79196,1.498266 -0.33916,0.508735 -1.11539,0.351223 -1.59091,0.630602 -1.0577,0.6215 -1.69233,2.151225 -1.42483,3.290735 -0.68532,-0.0601 -4.7238,-1.840561 -4.01225,0.350361 0.27623,0.85384 1.3951,1.350526 1.47027,2.272023 0.0717,0.868715 -1.36014,2.212952 -0.9493,3.008926 0.18358,0.35455 0.74301,0.584268 1.0437,0.83724 l -4.1958,-1.048948 v -0.174833 c 2.62763,-0.623949 4.11539,-3.015564 1.04895,-4.488301 -3.40036,-1.633044 -7.30247,-1.330066 -10.83919,-2.210659 -1.87588,-0.467143 -2.20979,-1.505435 -4.37065,-0.990047 -0.85488,0.203674 -1.25174,0.776582 -1.97376,1.190032 -0.52274,0.299666 -1.16434,0.253852 -1.69058,0.570462 -1.32343,0.798611 -3.28323,3.341619 -3.59616,4.879564 -0.18881,0.934786 0.78671,1.702096 0.50349,2.622384 -0.52621,1.724313 -1.71503,3.643371 -3.10664,4.783761 -0.86015,0.704377 -2.72903,1.473773 -2.40734,2.908571 0.50173,2.234274 2.75523,6.893376 5.45278,6.794779 1.11541,-0.04095 2.34269,-1.854729 3.29199,-1.492837 2.13812,0.81504 3.00875,4.283921 5.1014,5.330436 1.24129,0.619933 3.6591,-0.800007 3.96332,-2.06609 0.2465,-1.028676 -0.35841,-2.096168 -0.18359,-3.146686 0.13808,-0.814519 0.88287,-1.624303 0.80596,-2.447563 -0.16783,-1.767132 -3.04023,-2.390218 -3.5717,-4.195821 -0.43006,-1.456813 1.07518,-1.785661 1.43358,-2.972211 0.28846,-0.953316 -0.50351,-2.146502 -0.52622,-3.146684 0.83915,-0.08928 3.11887,0.0031 2.73252,1.399307 -0.24826,0.898431 -1.24825,1.43742 -1.23952,2.446858 0.0157,1.679033 1.26576,3.479551 2.52799,4.452983 0.72902,0.561548 1.85839,1.357351 2.7972,1.438123 1.91435,0.164685 3.48253,-1.084091 5.41959,-0.471502 v 0.524473 c -0.92482,0.103083 -1.98426,-0.201572 -2.77448,0.439511 -0.40034,0.325869 -0.87762,1.247381 -0.0839,1.438816 1.17832,0.284618 2.43531,-0.859802 3.5577,-0.47745 1.84963,0.629895 3.53672,2.197386 5.24476,3.144582 -0.33218,1.868897 -1.264,3.275359 -0.6084,5.244783 1.61714,4.855951 7.34794,5.594249 10.74828,2.27273 h 0.17484 c 4.23776,3.699478 8.60491,7.205609 12.58745,11.188843 1.84441,1.844421 3.99477,3.280962 4.54545,5.944077 -4.67833,2.769244 -5.12937,8.325726 -0.34965,11.363674 l -5.24476,15.73432 h -0.34966 c -0.4423,-1.02712 -1.05071,-2.24546 -1.74125,-3.12641 -0.30771,-0.39005 -0.91784,-0.52274 -0.88813,0.16118 0.0945,2.26119 2.76051,3.10088 1.93008,5.58761 h -0.17482 c -0.93706,-1.78184 -1.7535,-3.62291 -2.66609,-5.4196 -0.13634,-0.26783 -0.82343,-1.77431 -1.28148,-1.12832 -0.42133,0.5944 0.47728,1.67814 0.74651,2.17728 0.71678,1.32605 2.76225,4.28585 2.58918,5.76923 -0.23601,2.03184 -1.87939,4.45319 -2.74828,6.29374 -2.10838,4.46366 -4.20106,8.94234 -6.55071,13.28675 -0.98427,1.81819 -1.79895,4.80771 -3.31295,6.22204 -0.61538,0.57519 -1.76399,-0.0979 -2.51049,-0.0805 -1.57692,0.0368 -3.03672,0.68706 -4.18009,1.75527 -0.50175,0.46852 -0.84615,1.02446 -1.58915,0.6958 -3.54721,-1.56647 -6.83569,-4.00002 -10.31472,-5.75177 -7.73954,-3.89687 -15.6399,-7.20108 -23.7763,-10.17486 -3.70629,-1.35385 -7.53672,-2.43917 -11.36366,-3.39564 -1.22553,-0.3063 -4.03847,-0.50403 -4.96155,-1.3313 -0.6451,-0.57761 -0.006,-1.88846 0.60141,-2.19791 2.21853,-1.12954 4.67133,-1.91486 6.98253,-2.83917 8.44758,-3.37903 16.98082,-6.53743 25.52455,-9.65964 2.10138,-0.76801 4.20281,-1.53829 6.29371,-2.33759 0.32345,-0.12411 2.04723,-0.76958 1.29721,-1.34844 -0.49125,-0.37798 -2.00351,0.48496 -2.52099,0.66942 -2.56993,0.91765 -5.12238,1.88234 -7.69232,2.7972 -7.39862,2.63339 -14.69059,5.55141 -22.02803,8.34478 -2.97904,1.13427 -6.12066,3.05562 -9.26577,3.59723 -0.59791,-1.47832 0.0174,-2.08551 0.86889,-3.32171 0.61013,-0.88514 1.13288,-2.17342 1.96504,-2.85858 1.53497,-1.26292 3.26749,-1.22518 4.28497,-3.26031 0.58393,-1.16819 0.0962,-2.32885 0.48777,-3.49651 0.76749,-2.29005 2.42658,-3.1605 3.87412,-4.89584 0.63462,-0.76065 0.86541,-2.05226 1.57868,-2.68828 0.55245,-0.49247 1.4196,0.0921 1.97553,0.30874 1.25701,0.48951 2.528,0.56976 3.84617,0.27973 2.08216,-0.45805 3.95631,-1.84791 5.94408,-2.60841 2.82867,-1.08199 6.46157,-1.42466 9.44058,-1.27169 0.90561,0.0464 2.23602,-0.57533 3.07868,-0.20507 2.51226,1.10282 0.77449,4.88481 2.11539,6.50493 1.72553,2.08566 4.58218,1.53672 6.8689,2.46591 1.53322,0.62308 2.35491,1.82798 4.021,2.26714 0.93182,0.24564 2.1591,1.35034 3.14336,0.97868 1.88637,-0.71242 0.0908,-3.13131 1.4423,-4.15299 1.37239,-1.03689 2.71679,0.5514 3.98079,0.85105 2.00699,0.47606 4.72729,1.60421 6.81821,1.2161 0.80419,-0.14922 1.31292,-0.89285 2.09791,-1.06522 1.15734,-0.2542 2.09091,0.5979 2.99824,-0.62605 1.33567,-1.80298 0.5105,-5.83849 0.0368,-7.8551 -0.18007,-0.7645 -0.37762,-2.05053 -1.2937,-2.273781 -0.84966,-0.206467 -1.62064,0.732689 -2.44057,0.839509 -1.02797,0.133692 -1.40735,-0.846493 -2.28846,-0.95069 -1.59093,-0.187937 -2.42485,1.193532 -4.16436,-0.02401 -0.98076,-0.686709 -2.6923,-2.607352 -3.16434,-3.70315 -0.38636,-0.901413 -0.0822,-2.392839 -0.92133,-3.040573 -0.75001,-0.579718 -2.93708,0.868715 -3.12938,1.665208 -0.15565,0.63829 0.507,1.362248 0.76224,1.899838 0.43006,0.905775 0.63986,1.992661 0.84265,2.972038 l -0.87412,0.874119 c -0.98078,-0.344238 -1.10839,-1.199641 -1.76749,-1.920446 -0.67658,-0.740401 -1.71679,-1.144766 -2.30594,-1.943896 -1.02275,-1.389689 -1.32869,-3.263294 -2.40211,-4.694593 -1.2465,-1.659967 -4.0577,-2.710155 -5.76227,-3.928335 -1.01748,-0.72675 -2.00699,-1.913301 -3.14684,-2.414521 -2.00177,-0.880781 -0.8007,2.207348 -0.26749,2.823263 2.19931,2.542319 5.00875,4.611547 7.78498,6.484116 l -0.6993,2.622383 h -0.17483 c -1.41259,-3.805952 -5.77974,-4.413646 -8.74127,-6.569249 -0.99476,-0.724836 -1.87588,-2.490744 -3.14686,-2.648963 -1.58394,-0.197381 -2.59267,1.655073 -4.021,1.974476 -1.27972,0.286377 -2.6591,-1.109605 -3.82343,-0.183213 -0.98953,0.788648 -0.0945,1.78952 -0.68357,2.649841 -0.90561,1.322724 -2.77973,1.816963 -3.68533,3.210497 -0.90385,1.393879 -0.33741,3.065394 -1.61539,4.333398 -0.84791,0.840224 -1.98428,1.749664 -3.12938,2.119414 -1.33741,0.43183 -2.69232,0.26382 -3.67135,1.40753 -0.75347,-0.57378 -1.30243,-1.36521 -2.27273,-1.60333 -0.82867,-0.20333 -1.81992,0.31417 -2.55418,-0.27465 -1.99477,-1.601595 -0.34966,-4.607531 -0.45456,-6.513661 -0.0664,-1.224473 -1.36539,-3.450368 0.056,-4.250359 2.53849,-1.42868 6.58743,0.775343 9.05423,-1.108571 3.77799,-2.88742 -1.65909,-7.403005 -4.17834,-8.452314 v -0.349638 c 0.89512,-0.251403 2.19056,-0.0047 2.96155,-0.387766 0.68182,-0.338985 0.6993,-1.232693 1.42833,-1.495457 1.12062,-0.403675 2.49649,-0.254023 3.40911,-1.157695 1.20977,-1.198615 1.68879,-3.228869 2.93356,-4.401424 1.06993,-1.008042 3.18008,-0.248248 3.88113,-1.830941 0.65384,-1.47379 -0.7972,-3.976772 -0.80246,-5.586907 3.20106,0.241251 0.81995,3.553152 3.3217,4.713468 1.21154,0.561723 2.79371,-0.150939 4.021,-0.117519 0.76573,0.02056 1.49999,0.590921 2.27272,0.337243 1.03322,-0.339329 1.70456,-1.374657 2.79722,-1.674135 1.1014,-0.301563 2.35315,0.862077 3.19231,-0.310492 0.93707,-1.311365 -0.33216,-3.444765 -0.39512,-4.871688 0.45281,0.01569 1.78324,0.03311 1.38811,-0.811886 -0.64685,-1.388826 -2.11537,-1.70211 -2.479,-0.06229 -0.41259,1.865916 1.12064,3.546863 0.56643,5.419587 -0.80595,-0.219757 -1.59266,-0.638635 -2.44755,-0.426222 -1.10317,0.274121 -1.75175,1.370469 -2.79722,1.678859 -0.8042,0.237579 -1.61189,-0.430428 -2.44756,-0.339173 -0.82342,0.0899 -2.90735,0.664523 -3.58569,0.02746 -0.52271,-0.491257 0.0368,-2.011882 -0.57343,-2.863996 -0.59963,-0.837586 -2.00523,-2.420452 -3.15035,-1.617824 -2.27448,1.595277 1.50526,4.911902 -0.11533,6.383227 -0.83039,0.752984 -2.29719,0.380251 -3.23251,1.216094 -1.3444,1.202099 -1.88287,3.706477 -3.36539,4.658397 -1.58218,1.014867 -3.54022,-0.07343 -4.15911,2.297222 -0.91608,-0.09665 -4.8077,0.125207 -3.43707,1.906819 1.34616,1.749998 7.16435,3.542501 4.68533,6.969425 -0.61539,0.850892 -1.9056,0.708394 -2.82169,0.745988 -2.21329,0.09069 -6.23428,-0.537763 -7.49477,1.735153 -0.58393,1.051395 0.35665,2.41242 0.47203,3.502805 0.26923,2.553503 -1.53848,5.165918 0.59441,7.499141 1.14161,1.24879 4.55945,0.20752 4.71329,2.29127 0.17832,2.41103 -3.03673,3.7313 -4.13113,5.42205 -0.52097,0.80542 -1.14335,2.01609 -1.28497,2.96941 -0.16958,1.15367 0.18358,2.06295 -0.47028,3.14616 -0.93706,1.55351 -2.68531,1.52046 -3.92134,2.66032 -1.3584,1.25455 -2.18357,3.22711 -3.33742,4.68307 h -0.17482 c -3.56644,-2.7196 -8.94058,-1.67887 -10.30772,2.97204 -0.25701,0.87586 -0.26225,1.90752 -0.0629,2.7972 0.10669,0.47622 0.51049,1.16714 0.21852,1.6369 -0.56643,0.91364 -2.71328,1.51871 -3.65908,1.99073 -11.38465,5.69233 -22.80199,11.59619 -33.56654,18.40916 -4.00805,2.53847 -8.00457,5.08392 -11.888156,7.80946 -2.003311,1.40734 -4.042664,3.46854 -6.293709,4.41958 -1.241795,-5.23953 -6.049841,-4.69755 -10.139893,-5.98253 -1.887944,-0.59267 -2.697916,-2.14336 -4.036548,-3.42832 -1.454899,-1.39511 -3.002114,-1.98078 -3.655781,-4.05072 1.339513,-1.29721 -0.458402,-1.75349 -1.573435,-1.74824 -1.835665,0.009 -3.359615,1.32866 -5.244768,0.99125 -1.247378,-0.22203 -2.115042,-1.20106 -3.146856,-1.84268 -0.941265,-0.58567 -2.443546,-0.53147 -3.210321,-1.32167 -0.890571,-0.91784 -1.334978,-2.61015 -1.833406,-3.77099 -1.033398,-2.40561 -2.387061,-4.85842 -3.173089,-7.34267 h 0.174834 c 1.386708,2.16258 2.303497,0.61713 4.195819,0.37237 0.662578,-0.0857 2.330076,0.27798 2.46137,-0.73253 0.116578,-0.89685 -1.358747,-1.50526 -1.930087,-1.94055 -1.622201,-1.23759 -3.201756,-2.35228 -5.387248,-1.4778 -0.479191,0.19177 -0.704015,0.82605 -1.111361,1.13794 -0.591958,0.45349 -1.788641,0.8521 -1.788641,1.76468 0,1.33917 2.200882,1.20281 3.035675,1.0507 -0.517664,2.92834 2.384787,7.11716 3.49651,9.79024 -1.741273,-0.61188 -1.857349,0.42658 -3.146871,1.3986 h -0.17482 l -0.349654,-0.69929 c 0.78165,-0.41259 0.976584,-1.48953 -0.175698,-1.55596 -0.919409,-0.0524 -1.683047,0.82517 -2.446685,1.20629 -0.674659,0.33743 -1.464861,0.39162 -2.095289,0.82169 -1.596861,1.09266 -2.693883,3.24827 -3.499131,4.94757 h -0.174819 c -0.609279,-0.95804 -1.536204,-2.31644 -2.797218,-2.39161 -1.269236,-0.0751 -2.132004,1.37415 -3.231127,0.10842 -2.027634,-2.33569 -1.828495,-4.47555 -1.223781,-7.3322 0.253848,-1.19931 0.906997,-2.44407 0.394056,-3.67135 -0.545624,-1.30594 -1.733052,-2.02798 -3.107003,-2.09091 -0.560483,-0.0262 -2.071331,0.26747 -2.424311,-0.28671 -0.354895,-0.5577 0.481294,-1.66085 0.698258,-2.16784 0.802281,-1.87343 1.72588,-3.8862 2.426239,-5.76926 0.229186,-0.61643 0.137603,-1.23008 -0.376406,-1.67237 -0.657164,-0.56574 -1.48794,-0.41435 -2.246854,-0.19056 -0.627104,0.18496 -1.512418,0.19127 -2.038476,0.59406 -1.015731,0.77815 -1.208389,2.39948 -2.055593,3.32746 -0.542314,0.59405 -2.075535,1.22395 -2.785498,0.60822 -1.03619,-0.8988 -1.117481,-3.16085 -1.323257,-4.41506 -0.576218,-3.51366 0.384095,-6.15001 1.777282,-9.26576 0.399815,-0.89424 0.200003,-1.90911 0.642307,-2.78969 0.407864,-0.81206 2.843189,-2.23884 3.701062,-2.50893 1.607687,-0.50629 2.699484,1.5084 4.179202,1.54372 1.431127,0.0343 0.437942,-1.57168 1.280251,-1.89862 0.734093,-0.28497 1.2792,0.80001 1.870104,1.03411 0.999133,0.39579 1.802449,-0.84092 2.776242,-0.0446 1.280234,1.04687 0.466246,2.28411 0.384438,3.61505 -0.08159,1.32885 0.33252,2.80071 0.826744,4.02099 0.307353,0.75944 1.065044,2.33008 2.109801,1.63935 0.8063,-0.53305 0.930943,-1.82379 1.129014,-2.6883 0.616449,-2.69092 -0.688104,-6.12117 0.67571,-8.56646 1.889687,-3.38864 5.575185,-4.03131 8.126774,-6.52555 1.002268,-0.97953 0.790562,-1.94195 1.291955,-3.089169 0.448957,-1.02691 1.529206,-1.852791 2.159446,-2.797902 0.416432,-0.62431 0.636721,-1.503505 1.195288,-2.010673 1.536722,-1.395102 4.439691,-0.87011 5.83655,-2.274297 0.640219,-0.643719 -0.25192,-1.555082 0.139485,-2.357708 0.766792,-1.572386 4.023792,-2.976933 5.688655,-3.147563 -0.361186,0.886538 -0.952625,2.927807 0.700172,3.002116 0.895466,0.04017 1.863639,-1.063995 2.621533,-1.466792 1.882862,-1.000888 4.062767,-1.083747 5.94406,-2.026582 0.858923,-0.430601 1.792312,-1.072043 1.288645,-2.131126 -1.431817,-3.011028 -3.760324,1.72028 -5.373785,-1.223955 -0.69581,-1.269597 2.833571,-3.748103 -0.284793,-4.330614 -0.340742,-0.06354 -0.705081,-0.03875 -1.049652,-0.03985 V 78.43286 c 0.638288,-0.179888 1.431989,-0.525337 2.09791,-0.346847 1.18374,0.317302 2.197385,1.517141 3.487942,1.552632 0.597558,0.01632 0.724477,-0.538813 0.313286,-0.908394 -0.473952,-0.425878 -1.291438,-0.595457 -1.878154,-0.821865 v -0.174822 c 1.555078,0.30158 3.193362,0.495635 4.720292,-0.106693 1.161021,-0.457868 2.105253,-1.291264 3.32169,-1.641608 -0.923785,1.327101 -3.889516,3.457176 -3.997039,5.06731 -0.102928,1.541101 2.92379,1.19074 3.822033,1.22973 1.322205,0.05759 2.388474,1.713644 3.846353,1.256118 2.175167,-0.682692 2.608042,-4.159103 1.119221,-5.605074 -0.577096,-0.560498 -1.279371,-0.367149 -1.993364,-0.549483 0.748966,-2.600011 2.746694,-5.502463 -0.34964,-7.342679 0.438287,-2.131472 -2.162081,-1.597033 -2.998788,-3.00439 -0.340553,-0.573066 0.117519,-1.125876 0.131953,-1.715904 0.03106,-1.259618 -0.467125,-3.327294 -0.867474,-4.545473 -0.142623,-0.434273 -0.337072,-1.127619 -0.848599,-1.255776 -0.77274,-0.193522 -1.707526,0.809626 -2.235324,1.241261 -1.211543,0.990564 -2.42483,1.728863 -4.021,1.762769 0.05288,-1.017299 1.063476,-2.181474 0.792319,-3.146857 -0.760138,-2.706122 -5.663127,-4.76523 -7.7691,-2.614695 -1.018179,1.039863 -1.125169,2.349485 -1.891789,3.481825 -0.495979,0.732698 -1.465723,1.050187 -1.754186,1.93271 -0.37308,1.141958 0.363807,2.144399 -0.309629,3.318365 -0.886193,1.544755 -2.818007,1.754203 -3.838649,3.150184 -1.200701,1.641955 -1.169933,4.299139 -3.410842,5.067313 l -0.174819,-2.09791 c 1.299125,-0.452613 0.986532,-1.534965 1.803139,-2.379376 0.797732,-0.825002 2.113992,-1.414339 3.088474,-2.018189 0.262762,-0.162753 1.0612,-0.68514 0.462073,-0.996683 -0.990736,-0.515373 -3.758755,1.938468 -4.829212,2.247391 -0.658216,-1.199652 -1.752633,-0.940734 -2.796513,-1.575007 -0.854718,-0.51906 -2.446856,-2.21626 -2.965399,-3.062946 -0.279535,-0.456473 0.0047,-0.988116 -0.07782,-1.478324 -0.08552,-0.509097 -0.588975,-0.879555 -0.515735,-1.416785 0.157169,-1.154025 1.485855,-2.220121 2.334627,-2.88218 2.518012,-1.963996 5.683759,-3.273792 8.566283,-4.619768 -0.06841,0.855596 0.645806,2.943184 1.77325,2.936719 0.736902,-0.0047 1.224128,-0.707343 2.072916,-0.66399 0.175352,1.381656 1.800518,1.040913 1.57342,-0.349655 1.140576,-1.16485 -1.333566,-3.045625 -1.57342,-4.37064 1.819237,-0.516251 3.646507,-1.177449 5.067326,-2.477972 0.628671,-0.575183 1.010145,-1.595811 1.686891,-2.062592 1.169227,-0.806644 2.09179,-0.256297 3.036021,-1.75315 h 0.174835 l 0.349638,1.923074 c -0.598765,0.416432 -4.159966,3.112072 -1.5708,3.339 1.104554,0.09665 2.280417,-0.941957 3.319056,-1.241089 -0.834605,1.081472 -2.698245,2.459615 -4.020985,2.858567 -1.232347,0.371683 -3.364698,-0.1743 -3.880964,1.514693 -0.270796,0.885675 0.71575,1.374313 1.4334,1.481994 0.926753,0.139171 2.229378,-0.458904 3.074323,0.09367 0.551914,0.361014 0.778135,1.235331 1.18793,1.74267 1.023434,1.267667 3.149837,2.399475 4.828695,1.890911 2.667476,-0.807697 -0.593542,-3.694066 -1.478685,-3.098955 -0.876574,0.589509 1.096503,1.821685 1.478685,2.082879 v 0.174819 c -1.39755,-0.02883 -2.835142,-0.323562 -3.808917,-1.40607 -0.715736,-0.795819 -0.982341,-1.860676 -1.961013,-2.424484 -1.118547,-0.644063 -2.458578,-0.0549 -3.670639,-0.190384 v -0.349654 c 0.983739,-0.368357 1.990903,-0.193883 2.972022,-0.489516 1.262942,-0.380424 2.443013,-1.419579 3.496525,-2.184442 0.781462,-0.567323 1.912059,-1.449829 1.575695,-2.570825 -0.281119,-0.93689 -1.21818,-1.175866 -1.775353,-1.859092 -0.490738,-0.601574 -0.09791,-1.725004 -0.889157,-2.112235 -0.982877,-0.480949 -1.761372,0.993876 -2.58253,1.233919 -0.54021,0.157858 -4.186389,-0.79808 -4.641794,-1.23166 -0.815746,-0.776738 0.391075,-1.7486 0.970621,-2.207694 1.65526,-1.311191 3.416459,-2.658926 5.594263,-2.389699 v 0.174834 c -0.519061,0.100418 -3.229386,1.522209 -2.047732,2.118716 0.881471,0.444925 2.424294,-1.371505 3.443713,-1.449311 1.055065,-0.08065 1.070097,1.311191 1.903666,1.692838 0.822553,0.376406 1.869069,-0.390732 2.644411,-0.613987 0.201053,0.586373 1.420818,2.88637 1.944587,3.105436 0.714872,0.299116 1.386376,-0.375527 1.990399,0.417121 0.747383,0.980949 -1.036363,1.657349 -0.06213,2.763472 0.876574,0.995285 3.039518,0.790749 3.389173,2.277811 0.166442,0.708567 -2.140917,1.899305 -2.746335,1.946501 -1.354903,0.105594 -3.280081,-3.493357 -4.104376,-0.195624 -0.287773,1.151231 1.490026,1.867313 1.265031,3.143546 -0.205776,1.167315 -2.544763,0.140583 -2.105425,1.268014 0.549484,1.40996 2.565397,0.317129 3.020112,-0.568014 0.570098,-1.109967 -0.249302,-2.472903 -0.668007,-3.493891 0.959968,-0.09069 1.380071,0.767654 2.272727,0.908912 1.081128,0.171163 3.916802,-1.62763 4.289175,-2.656995 0.672558,-1.859452 -2.78217,-2.282176 -3.441092,-3.101232 -0.563464,-0.700705 0.838292,-1.384448 0.390386,-2.143709 -0.843721,-1.430616 -1.839181,-1.115574 -2.900193,-1.883418 -0.964173,-0.697722 -1.3654,-2.142141 -2.221861,-2.951749 -0.572377,-0.541092 -1.349476,-0.665389 -2.060504,-0.934097 v -0.17482 c 1.896165,-0.04456 3.225368,-1.782176 4.720292,-2.80806 0.965742,-0.662938 2.107871,-0.626052 3.146871,-1.099829 1.48496,-0.677093 2.279366,-1.61067 4.020985,-1.686533 -0.210139,0.4014 -0.44615,0.797026 -0.601575,1.224128 -0.416086,1.141786 0.04565,2.084793 1.300883,2.25594 2.01819,0.275002 4.614703,-0.320626 6.277463,1.023609 1.96365,1.587588 0.21959,3.33288 1.21086,4.913487 0.62201,0.99196 1.91031,0.352619 2.47674,1.422026 -2.75892,-0.762241 -4.37135,2.097565 -0.87413,2.097911 v 0.17482 c -1.91381,0.623775 -3.93446,2.235322 -3.63148,4.545474 0.0926,0.705945 0.67868,1.226574 0.74913,1.923075 0.19929,1.967148 0.0783,4.81663 1.69599,6.431144 0.95453,0.952797 1.89457,0.264503 2.88461,0.774825 0.95561,0.492655 1.44057,1.629026 2.67238,1.599482 2.2717,-0.0549 2.75998,-3.205428 3.95754,-4.543372 0.64424,-0.719579 1.63199,-0.956642 2.1598,-1.817135 0.36118,-0.589164 0.19842,-1.498784 0.75645,-1.945464 1.55212,-1.242313 4.03342,-0.570808 5.71367,-1.190379 1.57151,-0.579563 2.3479,-2.249493 3.84617,-2.824144 3.51399,-1.348251 7.94933,-0.5243 10.76575,-3.690222 0.90385,-1.015386 0.13636,-2.378324 0.80421,-3.372558 0.26924,-0.401935 0.77623,-0.577273 1.06294,-0.978845 1.06468,-1.485508 3.08916,-5.878867 1.00351,-6.974854 0.90034,-2.647566 4.28323,-2.187594 5.39859,-4.377637 0.53847,-1.057688 -0.76572,-1.529552 -1.55244,-1.718179 -1.89686,-0.45473 -4.15386,0.392128 -5.94406,0.851048 l 0.34964,-0.874127 0.6993,0.174819 c -0.257,-1.645281 -3.03672,-1.68515 -4.37064,-2.317321 -1.75524,-0.831812 -4.69634,-1.406635 -6.64339,-1.12674 -2.08514,0.299823 -4.17097,1.207512 -6.2937,1.234091 -1.44826,0.0182 -1.99792,0.513806 -3.32169,0.867665 -1.11014,0.296669 -1.94127,-0.451579 -2.44757,0.992651 l -4.19582,-0.506289 -4.02099,0.855943 c -1.42272,-1.959963 -4.49773,-1.398602 -6.64337,-1.398602 v -0.174834 c 0.65106,-0.05178 1.28323,-0.184782 1.92308,-0.314854 0.67536,-0.13729 2.15228,-0.277104 2.36696,-1.100005 0.25455,-0.976754 -2.89441,-3.012422 -3.59073,-3.573956 -0.26749,-0.215739 -1.26993,-1.066787 -1.51294,-0.382181 -0.31486,0.886367 2.30384,2.350192 2.73671,3.098265 -8.317858,-1.567128 -16.490777,-0.358048 -24.825238,0 1.106638,-1.211889 2.299825,-2.021154 2.841087,-3.67133 0.277621,-0.846515 -0.111872,-2.734287 0.536884,-3.260156 1.848264,-1.49861 5.065756,-2.331474 7.286395,-3.152631 5.066792,-1.873778 10.138312,-3.546689 15.384662,-4.8414543 17.64603,-4.3549026 36.1155,-5.1877811 54.02112,-1.9583936 5.56821,1.0043715 11.0245,2.4258809 16.43361,4.0729209 2.22728,0.678314 4.38288,1.785834 6.64338,2.32151 m 19.23082,8.916099 c 4.33043,2.856135 8.82171,5.333589 12.93709,8.530276 1.39512,1.083215 3.59792,2.260492 4.37064,3.882349 -1.08391,0.117833 -0.76398,0.846513 -0.34964,1.573438 -1.20804,-0.34826 -2.15385,-1.2958 -3.32168,-1.64966 -1.04721,-0.317302 -1.6154,0.736541 -2.27273,-0.623071 1.49998,-0.789684 -0.0176,-2.201057 -1.22379,-1.398602 h -0.17483 l -6.8182,-7.335867 -3.14686,-2.978863 m -130.245122,0.174833 -0.524474,0.524475 0.524474,-0.524475 m 5.244781,2.272729 c 1.170623,1.190914 5.54476,0.0094 7.16784,-0.145132 3.63918,-0.346329 7.535349,-0.707341 11.188856,-0.547381 2.912241,0.127561 5.828695,0.632343 8.741275,0.692483 v 0.174834 c -3.24915,0.419587 -6.388999,1.748602 -9.615405,2.235498 -1.384447,0.208914 -3.473083,-0.417138 -4.669079,0.513978 -1.276046,0.993373 0.450181,2.845293 -1.101052,3.955259 -1.33567,0.95578 -3.425702,0.971862 -4.020106,-0.760658 0.630413,-0.331643 4.053149,-1.48463 3.910665,-2.262421 -0.187228,-1.021678 -2.433221,0.341089 -2.861719,0.557518 -1.947205,0.983048 -2.086361,1.73462 -1.398601,3.627978 l -1.048962,0.524475 0.349654,0.349653 v 0.174836 l -0.17482,0.699292 v 0.174836 c -1.058925,-0.184092 -2.215741,0.674643 -0.698428,1.123601 1.476046,0.436892 3.394242,-0.169234 4.719413,0.624655 -2.47325,1.303142 -4.435673,0.402624 -6.993021,0.349654 V 37.348744 L 81.190866,36.99909 C 80.61935,36.329691 80.092241,36.442112 79.267773,36.474621 v -0.174708 c 0.827277,-0.254196 4.265215,-1.799311 2.447563,-2.797219 0.745453,-2.943545 -3.933589,-0.77517 -0.874128,0.699308 -1.027985,1.741431 -2.468368,0.288291 -3.846165,-0.07626 -0.771168,-0.20402 -2.289704,0.20874 -2.964537,0.616261 -1.454363,0.87849 -0.712236,2.492658 0.866613,2.434276 0.946694,-0.03499 1.716796,-1.23585 2.447564,-1.750533 0.405776,1.797382 0.689344,2.097911 2.622398,2.097911 v 0.174819 c -0.529024,0.258747 -1.134097,0.778153 -1.748271,0.759262 -1.736017,-0.05304 -2.856134,-0.897899 -4.545473,0.289685 h -0.174819 c -1.126048,-0.791596 -3.152458,-0.891073 -4.338646,-0.02495 -0.859097,0.627462 -1.012938,1.466101 -2.129902,1.948085 0.08802,-0.65332 0.573083,-1.703319 0.26783,-2.327975 -0.585319,-1.197029 -3.825359,-0.258039 -4.813303,0.05523 1.258567,-3.539863 -3.742311,-2.227808 -5.419584,-1.748257 1.927969,-2.769588 4.498261,-5.293892 6.99302,-7.547229 2.390907,-2.159619 4.682698,-4.167844 8.041983,-4.536202 1.377279,-0.151095 2.96766,0.969415 4.545474,0.894589 m 58.21695,1.398602 v 0.174819 c -1.1014,0 -2.43532,-0.202434 -3.49389,0.140583 -0.38933,0.126305 -1.20507,0.638477 -0.62729,1.079025 0.48812,0.372216 1.62467,0.203846 2.19809,0.149369 1.69057,-0.161012 3.3689,-0.145132 5.06994,-0.145132 -0.13116,0.645993 -0.50524,1.452811 0.21505,1.891617 0.82693,0.504028 1.62762,-0.214689 2.40734,-0.422379 1.68007,-0.44825 3.38636,-0.718357 5.06994,-0.245456 -1.46679,1.758045 -7.29547,2.811199 -5.24475,6.118895 -1.44933,0.224479 -1.44933,1.523795 0,1.748272 l -0.8549,1.246329 -0.19407,1.900528 c -1.04195,-0.215032 -1.36013,0.2528 -1.57343,1.223783 -0.37238,-0.11752 -0.6923,-0.281482 -1.04895,-0.433754 -0.62586,-0.266073 -1.58042,-0.09917 -1.08392,0.777288 0.67309,1.189154 1.90735,1.430421 1.95804,2.978158 -1.05418,-0.250712 -1.89335,-1.653503 -2.96503,-1.603515 -2.20806,0.103084 0.0351,2.47816 0.86711,2.827282 v 0.174834 c -2.69229,1.038294 -5.77867,0.920101 -8.39144,1.94895 -1.50997,0.594591 -2.21224,2.323439 -3.84634,2.877456 -0.72274,0.245113 -1.22833,-0.128344 -1.92309,-0.05774 -0.99614,0.101201 -3.22098,0.817141 -4.01137,1.447744 -0.88428,0.70524 -0.57273,1.677445 -1.18828,2.456648 -0.43706,0.553141 -1.22395,0.729371 -1.73584,1.209614 -0.62904,0.590388 -0.84354,1.450537 -1.26015,2.180252 -0.42711,0.748074 -1.26627,2.250889 -2.2939,2.157 -0.82499,-0.07532 -1.42394,-1.029367 -2.09791,-1.431128 -0.76922,-0.458732 -1.66713,0.04707 -2.37867,-0.407691 -0.72308,-0.461886 -1.79807,-3.668021 -1.78182,-4.514002 0.011,-0.54738 0.41976,-1.028502 0.38566,-1.56661 -0.0937,-1.481116 -1.3645,-1.731641 -0.53915,-3.503165 0.85403,-1.833045 3.10787,-1.491079 3.97833,-3.322037 0.82989,-1.745448 -0.47152,-3.992492 -2.46156,-3.671159 0.49251,-2.652979 -0.71152,-6.019248 -3.84616,-6.27746 -1.23355,-0.101515 -4.407703,0.579184 -4.895116,-0.890398 1.061719,-0.278311 1.345803,-0.745972 0.874127,-1.748256 1.530776,-0.518181 3.189349,-0.424292 4.720299,-0.998252 1.12781,-0.422896 1.63759,-1.545634 2.65455,-1.992489 1.80018,-0.790907 4.482,-1.215043 6.43638,-1.588813 1.63586,-0.312939 3.63167,0.735318 5.13464,0.344932 0.55367,-0.143878 0.65471,-0.856649 1.19824,-0.99844 0.50822,-0.132739 1.01346,0.214874 1.53428,0.05069 0.65489,-0.206293 1.04738,-0.896846 1.74825,-1.00332 0.60246,-0.09148 1.14983,0.364513 1.74826,0.254902 0.51679,-0.09477 0.882,-0.541435 1.3986,-0.654544 0.57482,-0.125836 1.16487,0.108261 1.74825,0.02871 2.89792,-0.394763 5.47259,-1.143889 8.39165,0.08817 m -27.09799,1.923075 c -2.29267,0.01899 -4.16941,0.930941 -6.29371,1.630956 -2.306143,0.759968 -4.759117,1.347375 -6.992338,2.298949 -0.771154,0.328675 -1.168364,1.154385 -1.940035,1.420818 -0.877282,0.302616 -1.783575,0.268176 -2.606128,0.766604 -0.54371,0.329367 -1.175709,1.122565 -1.890738,0.901758 -0.628671,-0.194244 -0.974136,-1.070112 -1.256134,-1.599482 l 2.972035,-1.923091 c 1.211905,0.373959 1.8619,0.149684 1.573437,-1.223766 1.188118,-0.231822 2.449305,0.108732 3.671174,0.0031 0.328315,-0.02824 1.199477,-0.09775 0.988634,-0.657509 -0.177096,-0.470453 -0.94861,-0.392128 -1.338116,-0.394764 -1.396859,-0.0094 -2.573084,-0.05695 -3.846165,-0.699465 1.085317,-0.888297 2.410142,-0.188125 3.671329,-0.407175 3.286906,-0.570806 6.070655,-0.816608 9.440595,-0.816608 1.26504,0 2.90107,-0.29353 3.84616,0.699294 m 61.53863,1.573436 c -1.48776,-0.439512 -4.60665,0.0386 -2.58566,2.060489 1.02449,1.024832 2.12239,0.514166 3.28498,0.950884 1.22201,0.459611 4.73078,3.364871 4.52973,0.136346 -0.0228,-0.354548 -0.0945,-0.701394 -0.1591,-1.049825 0.86715,0.249646 1.69232,0.884797 2.61887,0.856288 0.60317,-0.01852 1.20282,-0.550518 0.61891,-1.100519 -0.62414,-0.588648 -1.67835,-0.316611 -2.36365,-0.979551 0.93882,-0.145291 1.89336,-1.105778 0.97377,-1.983922 -1.70279,-1.624664 -6.03672,-1.026933 -6.91785,1.109794 m 6.11892,-0.524474 v 0.174853 c -1.02974,0 -3.01751,0.400347 -3.67137,-0.524474 l 3.67137,0.349654 m 31.64344,6.818203 c -2.27099,-0.663473 -5.99827,-4.365931 -5.24478,-6.993039 1.92133,0.98148 1.49651,2.249839 2.46854,3.846166 0.75174,1.234625 1.94057,2.010847 2.77624,3.146873 m -145.979582,-6.293731 -9.440584,11.713318 -1.92309,-0.779893 -2.447547,0.08065 C 51.829266,37.90216 55.909339,32.933601 61.085758,30.35562 m 109.615712,0 c 1.77621,0.73935 2.70628,1.672034 2.79718,3.671346 -1.68881,-0.614331 -3.15908,-1.695802 -2.79718,-3.671346 m -92.133143,3.496857 c 0.18304,-0.480071 0.474828,-0.91748 0.645805,-1.398601 1.032346,-2.904727 -4.706658,-0.530421 -1.692133,1.07711 0.338985,0.180594 0.673954,0.255059 1.046328,0.321491 m 24.825243,-2.972013 v 0.174819 l -2.27272,0.699309 v -0.174835 l 2.27272,-0.699293 m -33.566539,3.671328 c 1.010851,-1.400359 4.523272,-0.872906 4.93848,-2.477108 0.273949,-1.057861 -1.292661,-0.731459 -1.791607,-0.595457 -2.138124,0.583045 -4.331664,0.940041 -6.468548,1.525708 -0.659267,0.180765 -1.882876,0.402623 -2.032011,1.215559 -0.137602,0.749313 0.679555,1.722572 1.339528,1.973958 0.558207,0.212414 1.168176,-0.0047 1.74143,0.01099 1.448606,0.04001 4.410146,1.009802 4.993378,-1.13601 C 73.094356,33.057879 70.6349,34.16943 69.827031,34.5523 M 169.82733,31.755079 c -0.96505,0.83269 -1.92308,0.413639 -2.62239,-0.524474 l 2.62239,0.524474 m -69.05614,0.05821 c 0.13509,0 0.028,0.08708 -0.0582,0.05837 l 0.0582,-0.05837 m -32.867233,2.389337 v 0.174836 L 65.806048,34.7271 v -0.349638 l 2.097909,-0.174836 m 18.181876,0.174836 0.524473,1.223765 h -3.321691 l 2.797218,-1.223765 m -14.860185,0.524473 -0.174835,0.17482 0.174835,-0.17482 m -0.349653,0.17482 -0.174836,0.174836 0.174836,-0.174836 m 5.244781,0 -0.874143,0.699308 0.874143,-0.699308 m 65.035154,1.573436 v 0.174821 h -0.52449 l 0.52449,-0.174819 m -79.545701,0.69931 c -0.620105,3.005771 1.352284,2.452804 3.496511,1.573418 -0.661543,1.444246 -2.224483,2.287432 -1.923076,4.021004 l -2.972036,1.503849 -2.447564,-0.648253 -3.846164,1.067478 -0.699293,-1.573438 c 1.019057,-0.290031 5.602281,-0.862751 2.797202,-2.272728 l 3.846165,-2.27273 -5.244766,1.048949 c 1.429369,-1.825876 4.775537,-3.427461 6.993021,-2.447549 m 161.888581,1.923074 c 1.58741,0.614865 3.0035,2.305945 4.1958,3.496512 2.54722,2.543886 5.0175,5.16034 7.39163,7.867167 10.35144,11.800727 19.02804,26.105847 23.90216,41.084044 -2.71678,1.855592 -3.6556,4.979384 -2.32866,8.041957 0.64858,1.498963 1.74651,2.843023 3.20281,3.614173 0.6853,0.36295 2.28845,0.33815 2.68356,0.9869 1.04196,1.71714 1.19756,4.79601 1.52622,6.76261 0.85665,5.13812 1.90909,10.33588 1.90909,15.55949 h -0.17482 c -0.6014,-3.34039 -0.91608,-6.52537 -1.98077,-9.79025 -0.30768,-0.94406 -0.39161,-2.2991 -1.007,-3.0993 -0.77097,-1.0054 -1.81117,1.23356 -3.10141,0.0495 -1.1416,-1.04912 -1.87236,-2.66767 -2.73951,-3.94335 -1.52273,-2.23498 -3.15385,-4.39076 -4.88462,-6.46857 -1.48777,-1.78897 -4.24126,-3.813806 -5.14687,-5.944062 -0.47378,-1.113638 0.30421,-2.894764 -0.0489,-4.195806 -0.29547,-1.094242 -0.90034,-2.005777 -1.72205,-2.780946 -0.44055,-0.414361 -1.36888,-0.815919 -1.49999,-1.451604 -0.17309,-0.829537 0.32867,-2.105582 0.48777,-2.935324 0.33741,-1.759959 0.61713,-3.627618 0.66257,-5.419586 0.18532,-7.602302 -1.3846,-14.530289 -5.53847,-20.979086 -4.07519,-6.32624 -9.49826,-11.802829 -15.26403,-16.594278 -1.76923,-1.470635 -3.72029,-2.638481 -5.59442,-3.961033 -0.87586,-0.618175 -1.96154,-1.084266 -2.27274,-2.172031 1.48079,0.43479 3.62764,1.188809 4.89512,2.058575 0.56296,0.386353 1.49478,1.525519 2.23952,1.431646 0.57868,-0.07312 0.28672,-0.877454 0.20806,-1.217492 m -9.4406,-1.223782 0.69932,0.349655 v 0.174819 l -0.87414,-0.349638 0.17482,-0.174836 m -147.377995,1.22378 c -0.375698,1.377107 -0.74266,2.47168 1.048947,2.79722 -0.195624,1.1014 -0.516424,2.43007 -1.748255,2.622383 -0.301563,-0.957865 -1.271857,-0.726923 -1.740913,-1.471857 -0.781634,-1.241622 1.48463,-3.482014 2.440221,-3.947746 m 5.59442,0 v 0.17482 c -1.239331,0.887591 -2.446512,1.850886 -4.020984,1.923091 1.024643,-1.068701 2.511893,-2.061541 4.020984,-2.097911 m 3.496526,0.17482 c -0.653163,0.742662 -1.491973,0.85439 -2.447564,0.874145 0.541246,-0.97326 1.411186,-1.177639 2.447564,-0.874145 m 141.084259,0.174877 c 5.21679,2.778155 9.56295,6.571867 13.64339,10.839188 5.05421,5.286033 9.93534,11.187102 11.9808,18.356704 1.91086,6.692854 1.38111,13.370489 0.0751,20.104956 -4.26051,-0.538971 -4.90736,-6.362782 -6.06122,-9.790242 -3.32169,-9.86943 -7.70807,-19.737292 -13.06472,-28.671418 -1.59091,-2.652979 -3.23427,-5.262246 -4.9021,-7.867152 -0.52624,-0.823606 -1.75876,-1.95822 -1.67134,-2.972036 m -1.92308,0.349653 c 4.0105,3.716784 6.71855,9.364193 9.31995,14.160882 5.29546,9.769955 9.61716,20.023307 13.05772,30.594493 -1.18357,-0.563463 -1.9895,-1.881121 -2.97204,-2.747198 -2.5944,-2.287777 -5.05945,-4.717156 -7.69232,-6.968218 -1.22378,-1.046845 -3.62587,-2.360673 -4.35841,-3.79668 -0.3444,-0.675005 0.28322,-1.843542 0.35316,-2.57186 0.14153,-1.45857 -0.25876,-3.028869 -1.15736,-4.195822 -2.4493,-3.183227 -6.6556,-3.43463 -9.52275,-0.699308 h -0.17482 c -1.62062,-1.245983 -3.6521,-2.013293 -5.21155,-3.313643 -0.87587,-0.729198 -0.43532,-1.797727 -1.78149,-2.286019 -1.52621,-0.553674 -3.17832,0.467832 -4.72028,0.560672 -2.1661,0.130383 -3.8112,-2.062248 -4.46329,-3.877125 -0.76224,-2.125869 3.40383,-4.280781 4.81294,-5.310149 0.60664,-0.443182 1.43882,-1.175361 2.25701,-1.070629 1.40734,0.18042 2.60489,1.791262 4.21154,1.977802 1.08218,0.12552 2.68707,-0.457178 1.39861,-1.541085 v -0.174739 c 0.81294,-0.424827 0.62937,-0.86189 0,-1.398619 l 0.52448,-1.398601 c 1.88987,0.179369 1.68356,-1.227798 1.57342,-2.622383 h 0.17484 c 0.21852,0.364686 1.26924,1.477445 1.31643,0.338639 0.0228,-0.502272 -0.44056,-1.098778 -0.61714,-1.562422 1.11365,0.139799 1.77449,0.174475 2.09791,-1.048948 L 214.9323,39.97186 M 85.736148,40.321551 v 0.174821 c -0.56836,0.200001 -1.008043,0.341792 -1.398603,-0.174821 h 1.398603 m 127.098252,0.349656 -0.52447,-0.349656 0.52447,0.349656 M 54.79198,41.020859 c -0.363099,0.886712 -1.034967,1.155422 -1.923073,1.398602 0.437941,-1.041087 0.814865,-1.333927 1.923073,-1.398602 m 19.580477,0 c -0.916428,1.21277 -2.616797,2.946167 -0.349653,3.846167 -0.6159,1.677792 -1.457346,1.144578 -2.797203,1.748255 l -0.349654,-0.699308 c 0.105908,-0.443874 0.743711,-3.192483 -0.243527,-3.010149 -0.646338,0.119559 -0.862767,1.349837 -1.645814,1.130599 -0.494756,-0.1387 -0.523249,-0.80437 -0.23077,-1.140217 0.578495,-0.663629 2.041613,-1.220456 2.819419,-1.700527 l -0.524489,1.048964 3.321691,-1.223784 m 122.377983,9.790245 c -0.76924,-1.6126 -4.73079,-2.97571 -4.84443,-0.174836 -0.0316,0.782167 0.74301,1.495111 0.52448,2.265919 -0.36189,1.27989 -1.85665,1.530948 -1.50526,3.153683 0.46503,2.138296 2.77624,2.528855 3.49827,4.227985 0.3007,0.709444 -0.54721,1.711541 -0.70105,2.415384 -0.40211,1.849316 1.0542,3.567322 -1.51748,4.372742 -0.99127,0.31032 -1.52273,-0.592661 -2.11365,-1.225868 -1.04197,-1.11731 -2.67833,-3.808761 -4.18008,-4.222039 -1.9161,-0.526937 -3.37063,3.412773 -5.31644,0.548071 -0.6766,-0.994926 -2.88986,-4.405252 -2.09442,-5.573444 0.86888,-1.277802 3.18708,-1.671328 3.7133,-3.166093 0.22202,-0.627448 0.15391,-1.317312 0.45629,-1.922212 0.30244,-0.608211 0.94756,-1.060134 1.08042,-1.748257 0.15734,-0.815729 -0.52273,-1.484096 -0.52098,-2.272729 0,-0.690742 0.67832,-1.70473 1.07517,-2.25456 1.07519,-1.486185 2.29373,-1.780938 3.69757,-2.666269 1.03496,-0.652615 1.7972,-1.447195 3.15385,-1.331292 0.87065,0.07422 1.32343,0.93165 2.09791,1.227282 1.22378,0.467127 3.04372,0.340726 4.37066,0.580063 2.17308,0.391784 5.29372,0.526231 7.14861,1.821515 0.43181,0.300701 0.88637,0.923253 0.43532,1.40472 -0.80244,0.856648 -2.38986,0.610486 -3.38813,1.120291 -1.80069,0.919926 -3.26051,2.58129 -5.06993,3.419944 m 12.58743,-5.769258 c -0.97903,-0.333039 -1.58916,-1.043189 -2.09791,-1.923076 1.15036,0.124895 2.00701,0.724303 2.09791,1.923076 M 64.057746,44.516901 c -0.954728,1.351579 -4.86243,3.171508 -5.594419,0.699293 1.910144,0.339173 3.188465,0.803161 4.370637,-1.223766 l 1.223782,0.524473 m -12.062968,-0.349654 0.699293,1.223782 c -2.513463,0.496859 -0.328142,1.223782 1.048963,1.223782 -0.07327,0.355947 -0.251575,1.214165 0.373079,1.213992 0.883557,0 1.231642,-1.450364 2.250009,-1.533222 1.087764,-0.08865 1.801052,0.830414 2.796512,1.066786 0.955245,0.226739 2.006122,-0.181645 2.972021,-0.223081 0.460317,1.599308 1.647038,0.912584 2.6224,0.198244 0.590731,-0.432688 1.313983,-0.448424 1.89265,-0.852444 0.953159,-0.665041 1.303504,-1.557527 2.477987,-1.968185 l 0.349654,0.874128 c -1.870465,1.199132 -0.766791,1.657866 0.874128,1.223782 -0.02668,0.441253 -0.337417,1.270461 -0.02259,1.639508 0.512407,0.600713 1.492302,-0.351223 1.945621,-0.591784 1.408234,-0.747022 2.759279,-2.418005 4.370653,-1.921852 -0.546157,1.83882 -2.42886,3.065034 -4.195818,3.594418 -1.025004,0.307165 -2.769243,0.253489 -2.797218,1.65035 -0.656647,0.03406 -1.285318,0.39616 -1.923075,0.387593 -0.6049,-0.0079 -1.113998,-0.647907 -1.707523,-0.55874 -1.218714,0.18304 0.5444,1.40803 0.833396,1.569748 v 0.174837 c -1.738826,0.592128 -2.529026,1.043172 -4.370638,0.524472 l 0.349639,1.223783 v 0.174818 c -2.710844,0.627448 -7.491277,3.584111 -7.904743,6.643386 -0.08002,0.591956 0.385492,1.022901 0.50665,1.57342 0.123795,0.562068 -0.161185,1.201409 0.176576,1.711024 1.251398,1.888463 3.329898,3.083752 5.272397,4.036896 0.434443,0.21329 0.561015,0.609451 0.266778,1.013643 -1.289508,1.771164 -4.856308,3.005788 -6.709281,4.198614 -5.165749,3.325536 -10.392158,6.722744 -15.209839,10.543399 h -0.174818 c -1.272734,-1.202632 -0.653855,-2.629914 -0.392834,-4.19582 0.588992,-3.5334 1.29423,-7.013845 2.16329,-10.489552 0.256643,-1.026572 0.444062,-3.527451 1.324481,-4.190925 0.472022,-0.355758 1.41994,-0.179715 1.975009,-0.179715 1.523244,0 3.021334,-0.174819 4.545457,-0.174819 -0.651924,1.148769 -3.052982,1.288631 -3.436026,2.478678 -0.215549,0.66923 0.647737,0.559792 0.988651,0.406296 1.430767,-0.644236 2.830417,-1.4661 4.195457,-2.239701 0.410502,-0.232685 1.139165,-0.590561 1.062943,-1.169229 -0.06684,-0.505597 -0.676229,-0.813987 -1.062943,-1.046859 -1.031123,-0.620452 -3.164506,-2.325355 -4.359451,-2.321338 -1.552442,0.0047 0.922376,1.676583 1.212768,1.83463 0.522559,0.284258 1.034794,0.582339 1.573435,0.833742 v 0.174818 h -6.468547 c 2.214863,-6.806656 5.073258,-13.918751 9.265751,-19.755303 h 0.349651 m 13.11193,1.223782 -1.398617,1.223782 1.398617,-1.223782 m 17.832206,2.09791 -2.622383,1.223783 c 0.64477,-0.834794 1.54284,-1.486718 2.622383,-1.223783 m -2.797202,1.223783 -0.17482,0.174819 0.17482,-0.174819 m 59.615543,5.594422 c -0.43356,1.890204 1.06295,1.740913 2.44757,2.158222 2.35489,0.709445 6.41785,-0.462763 8.14863,-2.370291 1.21502,-1.340045 -0.48777,-2.969934 -1.8549,-3.320123 -2.25177,-0.57691 -4.45631,1.153678 -6.64339,1.059444 -0.99474,-0.04268 -1.7063,-1.206992 -2.76748,-0.617829 -1.98252,1.100882 -1.43532,2.998616 0.66957,3.090577 m -69.930255,-2.622385 1.048947,1.923076 c -0.727802,0.209621 -1.828149,1.073612 -2.588821,0.886021 -1.143355,-0.282171 1.070645,-2.569414 1.539874,-2.809097 m 79.895325,1.04895 c -0.32693,1.139508 -1.43532,1.447725 -2.44755,1.853158 -2.56995,1.02902 -3.77273,1.333738 -6.46854,0.419569 v -1.923075 c 0.97203,-0.390919 2.12412,-0.238819 3.14684,-0.476226 2.14861,-0.498257 3.72031,-1.204908 5.76925,0.126619 m -9.26575,0.349654 h -1.3986 c 0.42132,-0.833224 1.05594,-0.929373 1.3986,0 m -73.135349,-0.233045 -0.05837,0.116421 0.05837,-0.116421 m 5.128157,2.156119 v 0.174836 h -2.272729 c 0.725526,-0.630774 1.422026,-0.484276 2.272729,-0.174836 m 13.811222,5.594423 c 0.478846,1.134631 0.97431,3.318021 0.944059,4.545474 -0.01569,0.610849 -0.534093,1.121861 -0.326574,1.748257 0.431996,1.304555 2.074484,1.987593 3.228679,2.447564 -0.463815,0.345105 -4.046165,0.896502 -3.351047,1.820101 0.95716,1.272045 3.598952,-1.445624 4.744754,0.345984 1.536203,2.401937 -2.877976,3.111899 -4.190908,3.83253 -0.978861,0.537246 -1.848093,1.225179 -2.972038,1.437074 -2.268193,0.427964 -4.533061,-0.326055 -6.818201,0.161012 -1.406477,0.299823 -2.420812,1.219938 -3.671345,1.845284 -0.805765,0.402797 -3.924129,1.130065 -3.709441,2.420106 0.130698,0.784805 1.249639,0.161013 1.611532,-0.01726 1.909094,-0.940561 4.144951,-1.815567 6.293728,-1.180415 -0.31363,0.729543 -1.067493,1.05891 -1.377969,1.755253 -0.255248,0.572548 0.0637,1.258568 0.374476,1.741259 0.545279,0.846325 1.461189,1.874999 2.576929,1.676754 1.112585,-0.197727 1.827443,-1.179205 2.972037,-0.627807 v 0.174835 l -5.59442,2.075709 -3.671346,1.945292 c 0.05523,-1.703853 1.474652,-2.001761 2.795806,-2.631313 0.336192,-0.160148 1.052807,-0.532868 0.699654,-1.007869 -0.336884,-0.453147 -0.995459,-0.14733 -1.39755,0.01789 -1.420285,0.583562 -2.866443,0.475692 -4.195819,1.126754 -1.567317,0.767828 -3.481652,1.207165 -4.58236,2.676405 -0.563103,0.751918 -0.505771,2.247029 -1.117482,2.801048 -1.039156,0.941265 -3.337946,1.017142 -4.61225,1.799138 -0.975344,0.598421 -1.546339,1.936193 -2.10053,2.910329 -3.596691,-1.263995 -1.533738,3.621137 -2.870458,5.226407 -0.719408,0.864 -1.965737,1.19808 -2.89878,1.77815 -2.159462,1.34248 -4.503518,3.10437 -5.698806,5.40805 -1.656124,3.19145 0.400004,7.29286 -1.29423,10.66436 h -0.17482 c -0.638995,-1.44126 -1.243191,-3.12571 -1.220455,-4.72029 0.01255,-0.92727 0.574478,-1.88163 0.365548,-2.7972 -0.53392,-2.33882 -2.448944,-2.62064 -4.215039,-1.74827 -1.820116,-3.4535 -2.441963,-7.73166 -3.103159,-11.538477 -0.22167,-1.27658 -0.841431,-3.260502 -0.51189,-4.529221 0.18199,-0.700861 1.026933,-1.113103 1.510142,-1.596673 0.745468,-0.74616 1.265737,-1.607703 1.573608,-2.615401 0.311542,-1.01992 0.350705,-1.930418 0.13164,-2.972039 -0.134621,-0.639497 -0.604195,-1.431817 -0.187229,-2.045457 1.163453,-1.711543 3.983751,-3.026923 5.656834,-4.223782 4.798256,-3.432354 9.848276,-7.30841 15.209824,-9.814717 -0.332349,1.612065 -0.0094,5.082704 2.431826,3.21015 1.705766,-1.308571 1.669239,-3.575888 2.935667,-5.065052 1.187427,-1.396155 2.947043,-1.598259 3.953516,-3.389866 0.644236,-1.146682 -0.04205,-2.205952 0.400004,-3.29127 0.202795,-0.497737 0.721149,-0.76312 1.08094,-1.131822 1.114515,-1.141959 1.079542,-3.749484 2.83707,-4.242326 1.573436,-0.441427 4.986552,0.664868 5.205084,2.546506 0.133053,1.145473 -1.3437,2.510686 -0.236717,3.557186 1.881136,1.778506 5.112609,-1.599138 6.567506,-2.508223 m 84.09116,10.66437 c -2.61192,0.628498 -0.94582,1.958392 -1.16784,3.597211 -0.13117,0.962242 -1.56295,3.086026 0.47202,3.348254 0.93183,0.120344 1.77448,-0.620449 2.61889,-0.896846 1.70455,-0.558223 3.90212,0.02949 5.40212,-1.119067 1.62938,-1.249827 1.26224,-3.432355 -0.85664,-3.530952 -0.084,-1.103673 -0.86017,-1.320103 -1.50525,-2.105426 -0.51401,-0.626396 -0.66784,-1.451743 -1.18533,-2.074828 -0.61539,-0.739162 -1.57168,-1.194411 -2.13811,-1.968358 -0.61889,-0.844238 0.58217,-1.394773 0.58041,-2.242149 0,-0.589337 -2.20454,-2.312598 -2.76226,-2.618368 -1.15557,-0.63286 -1.79544,0.572203 -2.58215,1.126927 -1.07168,0.755072 -2.50526,0.303685 -1.98777,2.364706 0.33391,1.327102 1.28846,3.228854 2.33217,4.126925 0.94057,0.808229 2.18708,0.778496 2.77974,1.991971 m -0.87414,-8.566461 c -0.0962,1.154197 0.7535,1.386897 1.74825,1.398602 -0.27271,1.065217 -0.92483,1.804725 -0.49825,2.964351 0.34265,0.934612 1.5612,1.103329 2.22728,1.7743 1.14861,1.157005 1.78672,2.893541 2.90211,4.140748 0.4056,0.451578 1.52621,0.587769 1.71329,1.140563 0.22902,0.679554 -0.55944,1.270805 -1.09965,1.458396 -1.4528,0.503842 -3.08043,0.265037 -4.54548,0.723786 -0.52448,0.16415 -1.60139,1.110844 -2.13986,0.720458 -0.26923,-0.194589 -0.21854,-0.585147 -0.0945,-0.844771 0.23602,-0.494569 0.97203,-0.821159 0.97378,-1.416081 0.003,-0.758916 -1.18008,-1.222558 -0.78672,-2.055422 0.3549,-0.752105 1.67832,-0.562945 1.62238,-1.615924 -0.035,-0.665561 -0.6486,-1.244401 -1.15036,-1.605775 -0.65384,-0.469056 -1.6451,-0.566601 -2.1416,-1.228143 -1.26049,-1.679205 -1.6224,-3.239696 -0.1591,-4.698438 0.48428,-0.482001 0.72728,-0.867319 1.42834,-0.85665 M 40.805814,65.321304 38.323293,75.63602 36.959649,82.629043 C 35.8738,82.332892 34.944773,82.01261 33.797056,82.102828 c -0.689344,0.05413 -1.57833,0.520285 -2.200019,0.06857 -0.655943,-0.476572 -1.093006,-1.472033 -1.479719,-2.164705 -1.060669,-1.899994 -3.285322,-5.253851 -3.066618,-7.517497 0.09084,-0.940731 0.990564,-1.767491 1.364162,-2.622383 0.34162,-0.781823 0.440923,-2.258232 1.116964,-2.80806 0.698428,-0.568359 2.190747,-0.656114 3.057171,-0.817659 2.693364,-0.5021 5.476242,-0.919756 8.216817,-0.919756 m 123.608736,2.56242 c -0.73776,0.234269 -3.23951,2.122387 -3.42483,2.859807 -0.19057,0.759449 0.37063,1.362938 0.37063,2.09529 0,1.294937 -1.01225,3.4619 1.47378,2.838813 1.01575,-0.25454 3.62412,-0.774997 4.06645,-1.808741 0.73601,-1.723089 0.83914,-7.041804 -2.48603,-5.985169 m -2.45456,6.878172 0.52798,-2.09791 -0.33917,-1.679376 2.43358,-1.991954 c 1.85666,0.37482 2.32344,2.996153 1.21855,4.418196 -0.56119,0.724476 -2.95107,1.261893 -3.84094,1.351044 M 62.309413,70.216282 v 0.524473 H 62.13458 l 0.174833,-0.524473 m -36.188916,3.146858 2.598266,6.29373 1.947207,3.671346 c -1.892841,1.337066 -2.940046,3.824139 -2.481126,6.118897 0.162753,0.813988 1.182173,2.192146 0.879713,2.965228 -0.557689,1.424819 -2.911189,2.776397 -3.993007,3.853148 -3.040399,3.025714 -5.780615,6.945651 -9.090932,9.615241 0.488639,-2.63236 -0.747554,-5.08027 -0.494755,-7.692323 0.605246,-6.253878 2.806286,-12.093237 5.608054,-17.657409 1.151577,-2.287071 2.318011,-6.465412 5.02658,-7.167858 m -3.321676,1.398617 c -1.940396,5.73568 -5.679397,10.610334 -7.054056,16.608447 -0.561015,2.448426 -1.336358,5.171165 -1.336186,7.692331 1.74e-4,2.863805 0.751746,5.867315 -0.114851,8.741275 -0.377268,1.25106 -1.498437,2.41785 -2.217484,3.4965 -1.568885,2.35334 -3.3528045,4.94705 -4.1376081,7.69234 -0.3638067,-0.86905 -0.00627,-1.89651 0.1272467,-2.7972 0.3101465,-2.10491 0.636548,-4.20211 1.0285023,-6.29373 1.6414381,-8.76016 4.2737831,-17.584147 7.9755511,-25.699375 1.148423,-2.518029 2.230601,-5.055796 3.501235,-7.517513 0.50053,-0.969587 0.960846,-2.263644 2.227619,-1.923075 m 68.531668,0.174819 c -0.559258,1.900529 -1.965735,3.897568 1.223783,3.496511 0.862233,1.372212 1.024298,3.789871 -1.048963,4.020987 l 0.524489,-1.223766 -6.118909,-0.174838 c 1.196513,-1.914867 3.351769,-5.154563 5.4196,-6.118894 M 197.79933,85.775764 c 1.72203,1.212595 3.29895,2.610161 5.06993,3.787957 1.02974,0.685501 2.38112,1.163123 3.13987,2.163651 1.02098,1.347027 1.26049,3.022734 2.21679,4.363124 0.67134,0.94144 1.68358,1.382519 2.45455,2.188457 0.82867,0.86539 0.54721,1.892667 1.97904,2.182177 0.11893,0.5855 1.28495,2.30123 1.8951,1.16556 0.20628,-0.38339 0.42133,-2.218175 0.48777,-2.73899 0.20804,-1.640733 -0.98777,-3.205602 -1.33393,-4.720294 l 1.39861,-1.048948 c 0.0646,3.105419 3.14511,6.977992 6.29372,7.459992 0.87238,0.13352 1.46853,-0.47972 2.27273,-0.4654 0.69231,0.0126 1.24476,0.66661 1.9231,0.80123 1.02972,0.20419 1.94056,-0.52256 2.79719,-0.977619 0.44582,1.194589 0.60491,2.415909 0.80072,3.671329 0.1923,1.24895 0.72902,3.93463 -0.23078,4.98709 -0.55594,0.60978 -1.60491,-0.0192 -2.31818,0.15874 -0.77623,0.19317 -1.30421,0.91591 -2.09792,1.05892 -2.01749,0.36364 -4.54723,-0.75473 -6.46855,-1.22782 -1.6119,-0.39702 -2.58043,-1.81642 -4.36888,-0.87674 -1.79197,0.94249 -1.10316,2.86294 -1.40035,4.46627 -1.29373,-0.47097 -3.00352,-0.94947 -4.19583,-1.5979 -1.02973,-0.56015 -1.63986,-1.58288 -2.7972,-1.96871 -1.77273,-0.59057 -4.53673,-0.30421 -5.90387,-1.71557 -0.84965,-0.8757 -0.39859,-1.8764 -0.40385,-2.93462 -0.006,-1.30298 -1.36539,-4.201945 -2.78324,-4.439355 -0.89509,-0.149682 -1.8846,0.404198 -2.79719,0.404536 -4.36015,0.002 -8.59093,0.519249 -12.58745,2.504749 -2.08392,1.03514 -5.3724,2.73776 -7.34269,0.48112 2.66611,-0.34425 5.60143,-1.63568 6.84969,-4.19582 0.53845,-1.106122 0.28495,-2.519598 1.06993,-3.489702 1.47728,-1.822204 4.41261,-2.24546 3.61889,-5.076757 1.18007,-0.338813 2.15209,0.431115 3.32168,0.305596 1.22203,-0.131328 2.10839,-1.178673 3.14685,-1.718368 0.49302,-0.25647 1.18359,-0.470452 1.57519,0.06997 1.05247,1.452278 -1.08042,2.760678 -0.56994,4.139179 0.51401,1.388465 1.88464,1.014852 1.9668,2.798082 -0.32868,-0.223256 -0.6591,-1.013989 -1.06642,-1.012765 -1.14511,0.0031 0.12238,2.80577 0.89334,2.979379 0.79722,0.179026 1.23428,-0.821503 1.33917,-1.44214 0.2465,-1.465567 -0.71854,-3.422736 -0.99125,-4.895113 l -0.69932,0.349653 0.34966,-1.223782 c 1.18881,0.379544 2.05943,1.316259 3.14686,1.90158 2.9563,1.589691 5.76926,1.85349 5.76926,5.790752 -0.52274,-0.119401 -1.03848,-0.292666 -1.57344,-0.347205 -4.03149,-0.410674 -0.07,4.258941 1.89686,2.702281 0.70977,-0.560669 0.40034,-1.260137 0.59266,-2.005437 0.16258,-0.627275 0.49299,-1.080421 0.48251,-1.748255 l 0.52447,0.174836 1.22902,-3.137256 -1.50525,-1.279201 -5.66083,-4.499832 -1.4056,-2.272572 M 30.316392,92.943618 c 1.794933,1.526053 3.515747,1.68341 5.769254,1.398618 0.103554,5.009449 1.831994,9.872584 2.972037,14.685344 -1.142145,-0.0474 -2.08236,0.49143 -1.923089,1.74827 -1.211198,-0.52256 -2.438826,-1.63881 -3.846165,-1.52028 -0.862769,0.0725 -1.273253,0.7645 -1.938811,1.19877 -0.598954,0.39073 -1.329205,0.4729 -1.904733,0.91924 -1.452451,1.12676 -1.013644,2.46539 -1.575179,3.94774 -0.349999,0.92412 -1.021504,1.66922 -1.336718,2.62239 -1.119412,3.38444 -1.218714,8.36261 0.651578,11.53779 1.137063,1.93078 3.773442,1.19755 4.916969,-0.35157 0.589163,-0.79808 0.854028,-2.04355 1.6091,-2.69162 0.438631,-0.37639 2.649825,-1.12799 3.059274,-0.52133 0.411881,0.61015 -0.75333,1.81171 -1.011024,2.34144 -0.569051,1.16923 -0.697206,2.47956 -1.222543,3.67135 -0.347913,0.79019 -1.052635,1.72378 -1.000716,2.62239 0.149684,2.59614 4.698453,0.41782 5.68114,2.62587 0.901053,2.02273 -1.038294,5.33917 -1.018713,7.514 0.01099,1.28147 1.068372,2.36715 1.807878,3.3217 0.410658,0.52973 0.868181,1.42134 1.515555,1.68533 1.072215,0.43706 2.013482,-1.01226 3.130429,-0.64687 1.039173,0.33916 1.504038,2.32168 2.622398,2.18183 1.17395,-0.14686 1.74667,-2.39336 2.389857,-3.22029 1.294417,-1.66259 3.538826,-3.11366 5.652301,-3.49652 -0.922047,1.64161 -0.864699,1.88288 -0.207001,3.67135 0.134935,0.36713 0.186884,1.36189 0.735836,1.36189 1.074302,0 0.128657,-2.60666 -0.0047,-3.11016 1.14668,-0.0628 1.677978,-0.63987 2.272743,-1.57343 2.884095,1.37063 4.068369,5.79723 5.320988,8.56647 2.651755,5.86015 5.787425,12.54898 9.714017,17.65739 v 0.17481 l -1.923091,2.79723 c -6.751063,-1.39688 -13.759821,-3.89513 -19.930114,-6.94933 -1.463826,-0.72552 -2.925015,-1.41608 -4.370638,-2.18008 -0.452111,-0.23775 -1.33148,-0.49824 -1.4953,-1.0472 -0.302096,-1.014 1.663293,-2.69056 2.020637,-3.63462 0.751759,-1.98429 0.453161,-5.264 -0.405245,-7.16785 -1.031985,-2.28847 -3.36189,-5.29023 -4.490746,-1.39862 -1.670103,-0.33741 -2.31084,-2.05594 -3.207703,-3.31993 -0.613812,-0.86363 -2.043888,-1.19057 -2.431638,-2.11715 -0.292135,-0.69931 0.173078,-1.38288 0.0094,-2.08043 -0.358394,-1.52622 -1.500007,-3.43532 -2.602629,-4.52973 -1.195289,-1.18532 -2.934804,-1.58916 -4.142849,-2.70629 -1.129893,-1.04546 -1.328325,-2.75875 -2.660322,-3.68708 -0.939868,-0.6556 -1.857175,0.19231 -2.795821,-0.27097 -1.496852,-0.73953 -3.065737,-3.19022 -4.015381,-4.54023 -0.762415,-1.08393 -1.954376,-2.47624 -2.064867,-3.84617 -0.09681,-1.19859 0.586888,-2.25716 0.435133,-3.49652 -0.405417,-3.31085 -1.229021,-6.62887 -1.350525,-9.96506 -0.05256,-1.44809 -0.716788,-3.70281 -0.217482,-5.06994 0.564515,-1.54529 2.425536,-3.00876 3.525538,-4.19582 2.828676,-3.052284 5.867317,-6.511563 9.281314,-8.916122 m 27.62246,4.195822 -0.349654,1.223781 h -0.174835 l 0.174835,-1.223781 h 0.349654 m 188.287235,1.223781 c 2.59092,3.677279 6.06819,6.830619 8.76226,10.489549 1.10665,1.50559 2.50876,3.22727 2.95107,5.06994 -1.13114,0.14277 -2.26749,0.20315 -3.30421,-0.39826 -0.39337,-0.22831 -0.6591,-0.77167 -1.09966,-0.8937 -0.46155,-0.12788 -0.66434,0.26398 -0.84091,0.59267 -1.68183,-0.13369 -2.66085,-0.77344 -3.70281,-2.09792 -0.55595,-0.70559 -1.15036,-2.16801 -2.23951,-2.10368 -0.91261,0.0539 -1.31294,1.17326 -1.04897,1.92884 0.61364,1.76016 2.37064,2.88323 3.16086,4.54548 0.43182,0.90822 0.67656,2.35001 1.736,2.77344 1.62414,0.64983 2.47555,-2.41504 2.61891,-3.47275 h 0.34963 c 0.11722,2.55176 2.96855,3.12817 3.1836,5.4196 0.38984,4.14495 -0.55421,8.3016 -2.59793,11.8864 -0.42654,0.74826 -1.18007,1.19931 -1.63635,1.92483 -0.38285,0.61365 -0.47726,1.34443 -0.92483,1.92309 -1.83743,2.36713 -4.35666,4.18708 -6.06644,6.64337 h -0.17485 c -0.72201,-2.22028 -0.90558,-4.66958 -1.69756,-6.8182 -0.81643,-2.21503 -2.53146,-3.63112 -3.65735,-5.59442 -0.91257,-1.59144 -1.00349,-3.58409 -1.85839,-5.24477 -1.17482,-2.28339 -4.09442,-4.71138 -4.41434,-7.34268 -0.17833,-1.47832 1.26049,-3.86626 1.80245,-5.24477 1.46854,-3.74144 2.13112,-7.87712 3.7063,-11.53849 3.03324,0.85244 4.80072,-0.55123 6.99303,-2.447569 m -43.35676,1.398599 -1.92309,-0.69929 c 0.79721,-0.331469 1.59966,-0.122854 1.92309,0.69929 m 11.01401,0.69931 -0.17482,0.17483 0.17482,-0.17483 m 2.5105,2.10945 c -0.98428,0.64667 1.08044,1.68742 1.80421,1.20664 1.16956,-0.77761 -1.1049,-1.6652 -1.80421,-1.20664 m -200.063508,4.88358 v 1.04896 h -0.174886 l 0.17482,-1.04896 m -0.17482,1.92309 -0.349653,4.89511 h -0.174819 c -0.928856,-1.77484 -0.264522,-3.15351 0.524472,-4.89511 m 230.769884,0.52447 c 1.51924,1.782 2.79196,4.24878 5.4196,4.37064 -0.243,1.17605 -0.41609,2.5535 -1.57343,3.14687 -1.08218,-1.90402 -1.99128,-3.6196 -3.29547,-5.4196 -0.47378,-0.65542 -1.0874,-1.34739 -0.5507,-2.09791 m 15.38466,5.06994 2.09791,8.7413 h -0.17482 l -3.32171,-7.69235 0.52451,-0.17482 0.87412,-0.87413 m -211.888713,4.7203 c -2.617834,-1.43812 -2.274831,2.50177 -0.527095,2.00735 0.472022,-0.13336 0.843705,-0.49528 1.226404,-0.78357 0.05397,0.36679 1.094227,3.6974 1.633388,2.38864 0.177454,-0.43112 -0.163979,-0.92272 -0.24039,-1.33968 -0.254713,-1.39232 -0.68583,-3.07152 -1.318361,-4.36977 -0.309252,-0.63498 -0.915205,-1.15298 -1.647902,-1.17255 -0.52518,-0.0141 -1.386189,0.43058 -1.108223,1.08967 0.211188,0.50053 1.023952,0.17658 1.417836,0.41469 0.599833,0.36257 0.558929,1.15821 0.564343,1.76522 m -34.440662,-3.14686 0.174834,1.39861 h -0.174834 v -1.39861 m 217.133495,2.27273 c 1.32868,2.27466 3.23427,4.44129 4.31645,6.81821 0.75874,1.66643 0.84439,3.74231 1.91433,5.24477 1.22379,1.72028 4.54371,4.49128 1.28671,5.94407 -0.75173,-1.43007 -1.9021,-2.61015 -2.62238,-4.02098 -0.75173,-1.46716 -0.79022,-3.20422 -1.41433,-4.72029 -0.62762,-1.5182 -1.78497,-2.84319 -2.48602,-4.37065 -0.68881,-1.49966 -2.48952,-3.39793 -0.99476,-4.89513 m -1.22378,2.79721 c 0.81994,1.40491 1.33392,2.97816 2.15908,4.37066 0.51051,0.86135 1.28324,1.50525 1.67135,2.44755 0.62062,1.50962 0.5944,3.26225 1.35664,4.72029 0.62938,1.2028 2.98077,3.01225 2.69057,4.52973 -0.26049,1.35491 -3.64512,3.13464 -4.73078,3.9126 -3.0542,2.18532 -6.25876,4.08393 -9.61541,5.76226 -0.97379,0.48602 -2.54196,1.68009 -3.66434,1.59092 -0.80945,-0.063 -1.75875,-1.50702 -2.45456,-1.98428 l 8.69757,-17.13291 3.88988,-8.21682 m -189.860691,1.14144 c -0.939853,0.21731 -2.407867,1.17361 -1.742654,2.3292 0.559792,0.97257 2.662236,0.27554 3.665745,0.91574 1.12553,0.71819 2.618538,1.70911 3.420632,2.78409 0.445287,0.59651 0.281999,1.64389 0.889347,2.09057 0.856994,0.63026 3.624307,0.56801 4.60351,0.26453 2.369224,-0.73427 0.103242,-2.83096 -0.871507,-3.5369 -2.928685,-2.12099 -5.914874,-5.7834 -9.965073,-4.84723 m 10.839201,7.2502 c -0.845807,0.35682 -2.98131,0.59685 -3.723436,-0.10544 -0.577977,-0.54702 -0.651751,-1.51171 -1.229212,-2.11487 -1.827097,-1.90787 -4.070454,-3.75403 -6.760681,-3.19931 2.657529,-3.04282 7.440942,1.71487 9.440584,3.33569 0.814866,0.66049 1.761906,1.14405 2.272745,2.08391 m 43.531592,-1.04895 c 3.268535,0.96608 7.439018,0.38251 10.839198,0.53129 7.82188,0.34266 15.59917,0.16801 23.42665,0.16801 2.70105,0 5.54022,0.0762 8.21679,-0.27552 0.51925,-0.0682 2.62415,0.14122 2.29196,-0.896 -0.25347,-0.78967 -2.07341,-0.31082 -2.6416,-0.2568 -2.67482,0.25455 -5.37065,0.0954 -8.04198,0.34966 -3.60665,0.34335 -7.39006,0.0297 -11.01402,0.0297 -7.62678,0 -15.30826,-0.0999 -22.902179,-0.69931 0.793544,-0.46312 1.625716,-0.85611 2.447576,-1.26697 l 1.573433,-0.78757 c 0.34143,-0.16977 2.74162,-1.75194 1.0299,-1.72641 -1.850723,0.0275 -4.578181,2.24861 -6.27469,3.02761 -0.528145,0.24268 -1.771508,0.53131 -1.771508,1.27991 0,0.71486 1.090917,1.0897 1.596688,1.37205 1.623424,0.90663 4.413657,3.42482 6.28342,3.45629 1.6306,0.0262 -0.53304,-1.49126 -0.86381,-1.68549 l -1.398623,-0.82308 c -0.937943,-0.53479 -2.037756,-1.02745 -2.797205,-1.79738 m 113.811518,20.62939 c -0.3514,1.53673 -0.69406,2.79547 -0.26398,4.37063 0.21853,0.79897 1.27622,1.99302 1.08741,2.79723 -0.23254,0.98951 -1.50525,2.04544 -2.14862,2.7972 -2.02973,2.37414 -4.17133,5.53499 -6.7168,7.34268 -0.15031,-0.52622 -0.27273,-1.07692 -0.51049,-1.57342 -1.29545,-2.70455 -3.55244,-0.73952 -5.6049,-1.5542 -0.97204,-0.38637 -1.1119,-1.52624 -1.68882,-2.28499 -0.72728,-0.95803 -1.73253,-1.09789 -2.86015,-1.04895 -3.37939,0.14686 -5.22555,2.23078 -8.21681,3.19232 -0.82693,0.26574 -1.62586,-0.11015 -2.44756,-0.19755 -1.12412,-0.11893 -2.57344,0.0401 -3.67132,0.30245 -1.36539,0.32692 -3.75876,2.12064 -5.06996,1.68357 -1.8077,-0.60314 -3.09615,-2.70629 -4.54547,-3.84791 -1.15908,-0.91433 -2.88637,-1.45455 -3.71854,-2.71505 -0.77098,-1.16783 -0.68705,-2.68531 -1.59441,-3.84442 -1.41608,-1.80943 -3.84441,-2.95454 -5.04721,-4.89511 -0.55245,-0.89336 0.19055,-1.58042 -0.0577,-2.44756 -0.18882,-0.65912 -0.87414,-1.05946 -1.01223,-1.74827 -0.31295,-1.5472 1.33217,-3.91609 1.44929,-5.59441 0.20979,-2.98603 -1.08566,-4.61715 -1.73252,-7.34269 1.01224,-0.62238 1.93357,-1.26399 2.60491,-2.27272 0.33392,-0.50455 0.57867,-1.54966 1.26397,-1.66243 1.1451,-0.18794 2.88114,0.61853 3.99826,0.89791 3.29021,0.82256 6.5717,1.7313 9.79025,2.80474 12.75527,4.25175 25.23258,9.81469 36.71339,16.84095 M 61.435048,133.32837 v 0.17482 c -1.033052,0 -2.822917,1.06294 -3.631475,0.7605 -0.776584,-0.29022 -0.967312,-2.14162 -1.088816,-2.85841 2.206814,-0.40962 2.927806,0.92308 4.720291,1.92309 m -5.594419,-1.3986 0.349654,1.57342 -2.447564,-0.17482 2.09791,-1.3986 m -9.414712,0.3549 c -1.669756,0.98951 1.388293,3.32343 2.71574,2.43706 1.590208,-1.0612 -1.373952,-3.23324 -2.71574,-2.43706 m 1.023074,0.69404 0.874128,0.87413 -0.874128,-0.87413 m 17.850579,0.32692 c -1.69949,0.70631 -0.320627,3.19757 1.186361,2.43183 1.438816,-0.73076 0.232339,-3.01923 -1.186361,-2.43183 m 0.506117,0.89687 0.174819,0.52447 -0.174819,-0.52447 m 177.098393,2.44756 1.22379,6.29371 h -0.17483 l -2.62238,-5.24477 1.57342,-1.04894 m 8.39164,6.99302 c 0.62587,2.72028 -1.03846,5.98778 -1.77273,8.56647 -2.14687,7.54196 -7.40737,13.32521 -10.88463,20.27977 -1.05771,2.11366 -1.37589,4.26576 -2.02799,6.46856 h -0.17483 c -3.73776,-5.04721 -7.37939,-10.16962 -11.12415,-15.20983 -1.11541,-1.50177 -2.19058,-3.02974 -3.28498,-4.54548 -0.43706,-0.6049 -1.2605,-1.35316 -1.42133,-2.09791 -0.17658,-0.82342 1.02097,-2.00875 1.30419,-2.79721 0.51923,-1.44405 0.29896,-2.73426 0.0157,-4.19581 4.59618,-1.31469 9.21507,-4.48254 13.11194,-7.1731 1.25525,-0.8654 2.48427,-1.80072 3.67134,-2.75701 0.42655,-0.3444 0.98252,-1.02623 1.55594,-1.0979 0.72727,-0.0909 1.19756,1.26573 1.4703,1.76223 0.58915,1.07519 1.27971,2.15386 1.67655,3.32169 0.31121,0.91784 0.27449,2.04896 1.10316,2.71504 0.74301,0.59443 1.54897,-0.0193 2.23602,-0.3881 1.61539,-0.86888 3.02449,-1.84442 4.54546,-2.85141 m -175.867079,1.21853 c -1.229212,0.264 -1.026401,2.49825 0.334623,2.10316 1.188635,-0.34615 0.948247,-2.37763 -0.334623,-2.10316 m -2.629915,4.02624 0.874127,3.14688 c 3.055965,0.0979 4.562434,3.91784 6.993037,5.2605 2.472385,1.36712 5.597041,0.68705 8.041984,2.16607 0.970277,0.58568 2.874131,2.58744 2.385839,3.90737 -0.298944,0.8077 -1.550702,1.41958 -2.21102,1.90559 -1.740208,1.28322 -3.432165,2.65736 -5.069947,4.0682 -0.628138,0.54022 -1.558043,1.65909 -2.41783,1.77623 -1.044585,0.14153 -2.613471,-1.34617 -3.875882,-1.40909 -0.952107,-0.0455 -2.835862,1.00875 -3.605086,0.5402 -1.546683,-0.94233 -2.856652,-4.56645 -3.699133,-6.1521 -2.894762,-5.44932 -6.96961,-11.3287 -8.604929,-17.30776 l 5.769256,2.77275 5.419584,-0.67484 m 139.343064,8.70982 c 0.87237,-0.19755 2.04721,0.77623 2.96504,0.87588 1.2465,0.13461 3.40035,-0.98776 4.3549,-0.62763 1.34092,0.507 2.81121,3.52099 3.63638,4.67834 3.0105,4.22379 6.05595,8.41785 9.14163,12.58745 1.42309,1.92135 4.27625,4.32344 4.20281,6.8182 -0.0262,0.84091 0.30071,2.12588 -0.71678,2.43707 -1.98253,0.60665 -4.23602,0.58042 -6.28325,0.73601 -5.73601,0.43358 -11.63639,0.12239 -17.30774,-0.82867 -1.97202,-0.33041 -5.6626,-0.3654 -7.25351,-1.66084 -0.86188,-0.70106 -0.85838,-2.81817 -1.33392,-3.83044 -0.68881,-1.46852 -2.09791,-2.80595 -2.50351,-4.37063 -1.23251,-4.75177 3.62064,-8.43534 6.29549,-11.53851 1.10314,-1.27797 2.20804,-2.5542 3.2937,-3.84616 0.39338,-0.46853 0.86715,-1.28496 1.50876,-1.43007 m -120.287061,6.84967 c 1.626062,2.88812 -0.386007,4.09616 -2.447548,5.89337 -0.30525,0.26749 -2.364531,1.64861 -1.50752,2.12065 0.588284,0.32341 1.98304,-0.80596 2.731287,-0.84617 l -0.174819,0.69931 c 1.075698,0.28496 3.144409,1.19232 4.195819,0.96503 1.409096,-0.30419 1.834441,-1.66434 3.496509,-1.4126 1.05611,0.15911 2.540933,0.39162 3.191973,1.33917 0.37501,0.54722 0.0502,1.93185 0.70979,2.20282 0.64738,0.26399 1.49738,-0.6119 2.21714,-0.54545 0.95089,0.0857 1.8257,0.74998 2.79721,0.89509 1.06591,0.15911 2.3119,-0.13289 3.3217,0.1661 2.10384,0.62412 3.24161,2.86364 5.06993,3.92834 1.01643,0.59265 2.54163,0.52447 3.42326,1.19231 0.91696,0.69404 0.6876,2.85139 0.56558,3.85664 -0.26802,2.20805 -1.89669,3.33917 -3.23709,4.89513 -1.24318,1.44405 -1.89055,3.21328 -3.01853,4.69581 -0.43864,0.57517 -1.19896,0.59441 -1.66435,1.12238 -0.62517,0.70977 -0.67185,2.18881 -0.78916,3.09791 -2.44109,-1.1591 -4.72606,-3.00525 -6.99303,-4.48605 -4.406833,-2.87586 -8.82362,-5.74824 -13.111932,-8.8007 -1.859607,-1.32343 -3.759272,-2.59965 -5.59442,-3.95631 -0.671505,-0.4965 -1.688287,-0.98777 -2.159618,-1.69055 -0.529024,-0.78846 0.4986,-2.21155 0.569928,-3.09443 0.14937,-1.84965 -0.679022,-3.0507 -1.207511,-4.72031 l 9.615402,-7.51749 m -19.056003,16.08397 v 0.17484 c -4.291089,5.40734 -7.440581,11.45457 -9.965057,17.8322 -1.393016,-0.98077 -2.614334,-2.20803 -4.020983,-3.19581 -1.395638,-0.97901 -3.03516,-1.78847 -4.158586,-3.09792 -0.826744,-0.96503 -1.220803,-2.23952 -1.864692,-3.32167 -1.614513,-2.71505 -3.092318,-5.48079 -4.667323,-8.2168 -1.079198,-1.87414 -3.345808,-3.1154 -3.940917,-5.24479 -0.389161,-1.3916 1.005595,-1.89335 0.950177,-3.14686 -0.03938,-0.88637 -1.049119,-1.27274 -1.277803,-2.09792 -0.470625,-1.70105 0.203673,-3.57867 0.448612,-5.24476 2.205418,0.29371 4.806996,2.27973 6.818201,3.27799 3.801401,1.88811 7.858755,3.33392 11.888148,4.64686 1.786539,0.58217 3.612069,1.05595 5.419585,1.56644 0.623086,0.17658 1.674653,0.1923 2.167323,0.63811 0.498427,0.44931 0.241957,1.50526 0.370805,2.1084 0.27202,1.27624 0.966259,2.37239 1.83251,3.32169 m 18.881165,-8.91612 c 0.439166,-0.64161 2.879732,-1.56644 3.490924,-0.76922 0.734439,0.95979 -0.711375,1.41434 -1.393015,1.23076 -0.706998,-0.19056 -1.364161,-0.4021 -2.097909,-0.46154 m 88.461799,4.72029 v 0.17484 c -5.16086,1.7465 -10.07347,4.00876 -15.38467,5.33568 -8.84443,2.21154 -17.37069,2.43183 -26.39867,2.35665 -0.17657,-2.24302 -0.9458,-4.43533 -2.97203,-5.66261 -3.89548,-2.35839 -9.40633,0.3479 -9.60861,4.96331 -0.12394,2.83218 1.47028,5.35316 4.18901,6.27625 3.21504,1.08915 7.50525,-0.78322 8.04198,-4.35317 4.74827,0 9.41435,0.25524 14.16087,-0.20454 9.94758,-0.9633 19.29552,-3.88813 28.49659,-7.66261 -0.57867,0.62937 -1.13812,1.27796 -1.69931,1.92308 l -1.0507,1.22379 c -0.19755,0.23251 -1.88461,2.29195 -0.55245,2.11189 0.66608,-0.0909 1.22553,-0.94756 1.62763,-1.41261 1.06467,-1.23075 2.15384,-2.44057 3.22029,-3.67132 0.39685,-0.45805 1.16083,-1.21504 0.95279,-1.89687 -0.22726,-0.74125 -1.39161,-0.54896 -1.97378,-0.5507 -1.48251,-0.002 -3.06995,-0.0646 -4.54546,-0.20454 -0.61539,-0.0577 -1.45105,-0.32867 -2.04197,-0.0401 -1.44231,0.7063 1.12764,1.11712 1.51749,1.11889 0.53496,0.003 1.0437,0.063 1.57342,0.12411 0.80771,0.0962 1.63462,0.0506 2.44758,0.0506 m -8.04549,0.10138 c -1.18008,0.16082 -1.68182,1.4895 -0.17133,1.23951 0.98427,-0.16433 1.44406,-1.41259 0.17133,-1.23951 m 8.74478,0.94755 -0.17482,0.17482 0.17482,-0.17482 m -12.9371,0.26572 c -0.88463,0.1661 -2.16434,0.4091 -2.94582,0.8584 -0.64336,0.36889 -0.38112,1.07168 0.32693,1.06645 0.87414,-0.006 2.73254,-0.46856 3.43708,-0.99126 0.85139,-0.63112 -0.21504,-1.0472 -0.81819,-0.93359 m -6.64337,1.5647 c -1.54546,0.29197 -1.0612,1.47727 0.34963,1.20805 1.43882,-0.27448 0.98427,-1.45979 -0.34963,-1.20805 m -5.24478,0.87587 c -1.48251,0.33043 -0.736,1.42484 0.52449,1.13637 1.67133,-0.38112 0.86363,-1.44405 -0.52449,-1.13637 m -70.804387,54.4617 c -0.662594,-0.035 -2.168013,-0.91609 -2.695467,-0.51224 -0.374303,0.28672 0.04268,0.73077 0.249473,0.96328 0.711718,0.79546 1.550701,1.72379 1.545288,2.87065 -0.0047,1.08916 -2.151931,1.48951 -1.409443,2.56294 0.643185,0.93008 2.938649,0.77972 3.228335,1.84616 0.202622,0.7465 -0.789339,1.48601 -0.871335,2.23427 -0.105751,0.96854 0.736196,1.83042 1.176931,2.62239 -3.020472,1.63987 -7.545658,-3.02973 -9.127833,-5.41961 -0.419758,-0.63461 -0.358393,-1.44754 -0.792132,-2.04195 -0.291961,-0.39862 -0.80123,-0.61364 -0.938644,-1.12064 -0.23689,-0.87412 0.09964,-1.57517 -0.42867,-2.43182 -0.573082,-0.93008 -1.287939,-2.1626 -2.057005,-2.93182 -0.442304,-0.44408 -1.096503,-0.5717 -1.443004,-1.11364 -0.852633,-1.33393 -1.574299,-3.8724 -2.030945,-5.39512 -0.473088,-1.57695 0.06716,-3.27625 -0.389522,-4.89513 -1.235487,-4.37763 -2.873425,-9.18359 -3.072031,-13.81125 9.320305,2.6259 19.424361,2.62239 29.021062,2.62239 v 0.17484 c -0.836016,0.3479 -1.637594,0.77622 -2.447565,1.18008 l -1.398599,0.69931 c -0.257867,0.12928 -2.579377,1.30593 -1.351046,1.6486 0.574119,0.16084 1.388812,-0.44408 1.875519,-0.68708 1.565575,-0.78321 3.121689,-1.58041 4.720292,-2.29196 0.524302,-0.23427 1.630611,-0.58216 1.717489,-1.25874 0.09214,-0.71855 -1.058739,-1.11364 -1.542653,-1.38812 -1.426749,-0.81119 -2.907708,-1.57168 -4.370638,-2.31469 -0.461196,-0.23426 -1.174657,-0.75876 -1.719073,-0.65908 -1.219937,0.22551 0.93532,1.48599 1.194583,1.61713 l 1.398617,0.70105 c 0.763637,0.3811 1.500351,0.81992 2.272729,1.18006 -1.836544,0.77099 -4.348438,0.17484 -6.293729,0.17484 -5.562428,0 -11.112617,-0.35141 -16.60844,-1.26749 -1.634438,-0.27099 -3.27379,-0.52275 -4.895111,-0.86713 -0.569771,-0.12067 -1.512778,-0.16958 -1.847213,-0.71679 -0.523077,-0.85665 -0.461714,-2.29547 -0.710495,-3.26751 -0.307511,-1.20104 -1.378157,-2.63285 -1.344926,-3.84616 0.108576,-3.95281 3.618878,-8.63463 5.581131,-11.88816 0.912066,-1.51221 2.534094,-5.1451 4.147556,-5.92134 0.948263,-0.45453 3.204219,0.82694 4.488659,0.59618 1.113464,-0.20106 2.891436,-1.79723 3.846164,-1.62413 1.294057,0.23601 2.949663,2.04021 4.020984,2.8042 3.353338,2.39159 6.712607,4.77448 10.139893,7.05945 3.650008,2.43357 7.309451,4.86715 11.014021,7.21681 0.89546,0.56818 3.39425,1.6014 3.39389,2.81294 -6.9e-4,2.58219 -1.05105,4.93358 -1.81538,7.33569 -0.2703,0.84965 -0.38864,2.11014 -1.24774,2.59092 -0.65298,0.36539 -1.53829,0.16433 -2.25385,0.32518 -2.10735,0.47552 -5.10194,1.23251 -6.605969,2.86889 -1.541086,1.67657 -0.197369,3.63287 -0.723945,5.57866 -0.489172,1.80771 -1.974319,3.02974 -2.971002,4.54548 -0.634085,0.96504 -1.033915,2.27625 -1.830236,3.10667 -1.084626,1.13112 -2.756486,0.25 -3.95281,-0.19056 -0.424481,-0.15565 -1.421854,-0.67832 -1.717487,-0.0612 -0.266967,0.55769 0.496843,1.14508 0.83724,1.46504 0.728838,0.68706 2.040563,1.87413 1.855246,3.01575 -0.359962,2.21677 -4.155087,0.42307 -5.042143,1.51222 -0.334623,0.41085 0.193349,1.47904 0.220979,1.99127 m 66.258927,-53.94773 c -0.67483,0.0874 -3.28848,-0.11013 -3.54022,0.67134 -0.17831,0.5542 0.56119,0.63462 0.91784,0.65035 1.06293,0.0472 2.63986,0.0664 3.6521,-0.24649 1.45981,-0.45281 -0.28497,-1.17133 -1.02972,-1.0752 m 16.08396,11.11542 c 0.41784,-0.61014 0.8986,-1.17307 1.36364,-1.74826 0.45453,-0.56293 1.21329,-1.20803 1.41784,-1.91957 0.14685,-0.50699 -0.28672,-0.93531 -0.78322,-0.68707 -1.33567,0.66784 -2.60142,3.02099 -3.53673,4.18009 -0.33916,0.41958 -1.28322,1.22901 -1.01223,1.8479 0.22201,0.50699 1.21679,0.49475 1.67657,0.54895 1.46329,0.17658 4.75525,0.87237 6.09093,0.29371 1.34091,-0.57867 -0.73602,-1.11015 -1.1958,-1.11713 -0.47378,-0.009 -0.92835,-0.07 -1.39862,-0.12411 -0.75174,-0.0891 -1.51748,-0.0506 -2.27273,-0.0506 5.18534,-2.95105 10.80773,-4.94233 15.90913,-8.14337 1.24652,-0.78148 2.5175,-1.61889 3.66084,-2.54897 0.30772,-0.24999 0.90562,-0.7902 0.52624,-1.23252 -0.37412,-0.43531 -1.06818,0.14169 -1.38987,0.36189 -1.10139,0.76049 -2.18706,1.5542 -3.32168,2.26398 -5.06995,3.1661 -10.33744,5.55073 -15.73431,8.07521 m -28.73783,-10.66087 c -0.81122,0.66609 1.29894,1.41084 1.87413,0.76575 0.76748,-0.86189 -1.37938,-1.16959 -1.87413,-0.76575 m 3.91259,-0.003 c 0.0857,1.08917 1.82516,1.59267 2.68881,0.86889 0.89686,-0.75174 -0.87237,-1.02099 -1.29021,-0.96853 -0.47028,0.0577 -0.92307,0.0962 -1.3986,0.0997 m 94.93033,0.87412 1.3986,0.87413 v 0.34966 l -1.57342,0.69931 0.17482,-1.9231 m -1.22378,3.49654 c -0.006,2.23427 -0.83042,4.14686 -1.257,6.29371 -0.25349,1.27447 -0.16782,2.56467 -1.00524,3.6556 -1.98602,2.58567 -5.30248,3.92309 -7.29198,6.65911 -1.15035,1.58393 -0.37063,3.86191 -1.45806,5.59443 -0.8339,1.32344 -2.45804,1.65211 -3.46154,2.8007 -0.89512,1.02448 -1.34265,2.40212 -2.17659,3.49302 -1.42481,1.8654 -3.27098,3.47379 -5.02796,5.01925 -1.55596,1.37063 -3.29373,2.95454 -5.24479,3.73428 -1.45629,0.58217 -3.05945,0.64687 -4.54545,1.24651 -0.88114,0.35489 -2.88813,1.7902 -3.7168,0.78321 -0.71855,-0.87413 0.20105,-1.92308 0.51049,-2.74126 0.37413,-0.98777 0.55944,-2.98778 0.33915,-4.02099 -0.21153,-0.99828 -1.04544,-1.74127 -1.10663,-2.79721 -0.12066,-2.1591 1.04893,-4.32344 0.75173,-6.46855 -0.3409,-2.4598 -2.04195,-4.81296 -1.49651,-7.34267 0.48603,-2.2483 1.62765,-4.69759 2.84268,-6.6434 0.54195,-0.86713 1.47203,-1.48077 1.84965,-2.44755 0.56118,-1.43358 -0.0646,-2.92833 -0.13117,-4.37065 -0.0612,-1.37413 0.2395,-2.63288 -0.0174,-4.02098 4.285,0.63111 8.40912,1.82866 12.76228,2.24301 6.38637,0.60839 12.55074,-0.16608 18.88118,-0.66957 m 8.21855,2.76223 c -1.58742,0.48777 -2.27098,3.33918 -3.13114,4.58044 -0.90559,1.30419 -2.48952,1.8514 -3.3444,3.14686 -1.05245,1.5944 -0.8147,3.35314 -1.41085,5.06995 -0.5437,1.56294 -1.80944,2.73603 -2.55944,4.19582 -0.55945,1.08916 -2.23778,5.43882 0.65385,4.89687 1.67482,-0.31294 2.78323,-2.87588 3.54547,-4.19758 2.30418,-3.98951 5.4528,-8.00701 6.92659,-12.41264 0.29196,-0.87586 1.23426,-5.86714 -0.68008,-5.27972 m 0.17307,1.25875 c -0.44405,5.62939 -4.00349,10.50528 -6.9196,15.20984 -0.72027,1.16433 -1.36189,2.44581 -2.2535,3.49302 -0.24301,0.28671 -0.76224,0.92133 -1.20979,0.67133 -0.47202,-0.26224 -0.13463,-1.17483 -0.0157,-1.54196 0.45456,-1.40386 1.21154,-2.5105 2.09441,-3.67135 1.55072,-2.04022 1.11189,-4.12588 2.07343,-6.29374 0.65384,-1.47027 2.20979,-1.97202 3.20106,-3.14685 1.19755,-1.41784 1.6224,-3.51399 3.02973,-4.72029 m -180.420083,15.90914 0.17482,0.52447 -0.17482,-0.52447 m 25.349716,22.55252 -0.174819,0.17483 0.174819,-0.17483 m -15.734312,8.39162 0.699308,1.22379 -0.699308,0.17483 v -1.39872 m 13.111929,11.53849 c 1.176932,1.63114 3.365404,2.06297 5.069946,2.97205 v 0.17483 c -2.079018,-0.0437 -3.822034,-1.32867 -5.59442,-2.27273 l 0.17482,-0.87415 h 0.349654 m 92.13314,11.24656 c 0.13462,0 0.028,0.0874 -0.0577,0.0594 z"
       id="path966" />
  </g>
</svg>
