<?xml version="1.0" encoding="utf-8"?>
<!-- Generator: Adobe Illustrator 27.5.0, SVG Export Plug-In . SVG Version: 6.00 Build 0)  -->
<svg version="1.1" xmlns="http://www.w3.org/2000/svg" xmlns:xlink="http://www.w3.org/1999/xlink" x="0px" y="0px"
	 viewBox="0 0 500 500" style="enable-background:new 0 0 500 500;" xml:space="preserve">
<g id="Background_Complete">
	<g>
		<rect y="382.398" style="fill:#EBEBEB;" width="500" height="0.25"/>
		<rect x="416.779" y="398.494" style="fill:#EBEBEB;" width="33.122" height="0.25"/>
		<rect x="322.527" y="401.208" style="fill:#EBEBEB;" width="8.693" height="0.25"/>
		<rect x="396.586" y="389.208" style="fill:#EBEBEB;" width="19.192" height="0.25"/>
		<rect x="52.459" y="390.888" style="fill:#EBEBEB;" width="43.193" height="0.25"/>
		<rect x="104.556" y="390.888" style="fill:#EBEBEB;" width="6.333" height="0.25"/>
		<rect x="131.471" y="395.111" style="fill:#EBEBEB;" width="93.676" height="0.25"/>
		<path style="fill:#EBEBEB;" d="M237.014,337.8H43.915c-3.147,0-5.708-2.561-5.708-5.708V60.66c0-3.147,2.561-5.708,5.708-5.708
			h193.099c3.146,0,5.707,2.561,5.707,5.708v271.432C242.721,335.239,240.16,337.8,237.014,337.8z M43.915,55.203
			c-3.01,0-5.458,2.448-5.458,5.458v271.432c0,3.01,2.448,5.458,5.458,5.458h193.099c3.009,0,5.457-2.448,5.457-5.458V60.66
			c0-3.009-2.448-5.458-5.457-5.458H43.915z"/>
		<path style="fill:#EBEBEB;" d="M453.31,337.8H260.212c-3.147,0-5.707-2.561-5.707-5.708V60.66c0-3.147,2.561-5.708,5.707-5.708
			H453.31c3.148,0,5.708,2.561,5.708,5.708v271.432C459.019,335.239,456.458,337.8,453.31,337.8z M260.212,55.203
			c-3.009,0-5.457,2.448-5.457,5.458v271.432c0,3.01,2.448,5.458,5.457,5.458H453.31c3.01,0,5.458-2.448,5.458-5.458V60.66
			c0-3.009-2.448-5.458-5.458-5.458H260.212z"/>
	</g>
	<g>
		<rect x="320.087" y="109.289" style="fill:#F5F5F5;" width="84.712" height="87.443"/>
		<rect x="403.83" y="109.289" style="fill:#E6E6E6;" width="0.97" height="87.443"/>
		<g>
			<circle style="fill:#E0E0E0;" cx="137.036" cy="108.067" r="24.348"/>
			<circle style="fill:#F0F0F0;" cx="137.036" cy="108.067" r="20.702"/>
			<g>
				<polyline style="fill:#F0F0F0;" points="136.059,93.866 136.059,108.338 126.468,102.911 				"/>
				<path style="fill:#E0E0E0;" d="M136.059,109.338c-0.17,0-0.34-0.043-0.493-0.13l-9.59-5.427
					c-0.48-0.272-0.649-0.882-0.377-1.363c0.271-0.48,0.882-0.65,1.363-0.378l8.098,4.582V93.866c0-0.552,0.448-1,1-1
					c0.552,0,1,0.448,1,1v14.472c0,0.356-0.189,0.685-0.496,0.864C136.407,109.293,136.233,109.338,136.059,109.338z"/>
			</g>
		</g>
		<g>
			<rect x="79.646" y="162.614" style="fill:#E0E0E0;" width="128.864" height="142.52"/>
			<rect x="78.97" y="162.614" style="fill:#F0F0F0;" width="133.655" height="142.52"/>
			<rect x="84.411" y="167.16" style="fill:#FFFFFF;" width="122.561" height="131.427"/>
			<rect x="203.427" y="167.16" style="fill:#E0E0E0;" width="3.544" height="131.427"/>
			
				<rect x="142.179" y="203.587" transform="matrix(6.123234e-17 -1 1 6.123234e-17 -119.4901 407.3926)" style="fill:#E0E0E0;" width="3.544" height="119.709"/>
			<rect x="82.51" y="255.719" style="fill:#F0F0F0;" width="124.462" height="5.95"/>
		</g>
		<rect x="323.942" y="143.013" style="fill:#FAFAFA;" width="75.002" height="50.115"/>
		<rect x="393.468" y="143.013" style="fill:#F0F0F0;" width="5.476" height="50.115"/>
		<rect x="323.942" y="143.013" style="fill:#E0E0E0;" width="75.002" height="7.902"/>
		<rect x="323.942" y="143.013" style="fill:#E6E6E6;" width="69.526" height="7.902"/>
		<g>
			<g>
				<rect x="335.956" y="155.723" style="fill:#FFFFFF;" width="7.915" height="5.745"/>
				<rect x="345.352" y="155.723" style="fill:#FFFFFF;" width="7.915" height="5.745"/>
				<rect x="354.748" y="155.723" style="fill:#FFFFFF;" width="7.915" height="5.745"/>
				<rect x="364.144" y="155.723" style="fill:#FFFFFF;" width="7.915" height="5.745"/>
				<rect x="373.54" y="155.723" style="fill:#FFFFFF;" width="7.915" height="5.745"/>
				<rect x="382.936" y="155.723" style="fill:#FFFFFF;" width="7.915" height="5.745"/>
			</g>
			<g>
				<rect x="326.56" y="163" style="fill:#FFFFFF;" width="7.915" height="5.745"/>
				<rect x="335.956" y="163" style="fill:#FFFFFF;" width="7.915" height="5.745"/>
				<rect x="345.352" y="163" style="fill:#FFFFFF;" width="7.915" height="5.745"/>
				<rect x="354.748" y="163" style="fill:#FFFFFF;" width="7.915" height="5.745"/>
				<rect x="364.144" y="163" style="fill:#FFFFFF;" width="7.915" height="5.745"/>
				<rect x="373.54" y="163" style="fill:#FFFFFF;" width="7.915" height="5.745"/>
				<rect x="382.936" y="163" style="fill:#FFFFFF;" width="7.915" height="5.745"/>
			</g>
			<g>
				<rect x="326.56" y="170.277" style="fill:#FFFFFF;" width="7.915" height="5.745"/>
				<rect x="335.956" y="170.277" style="fill:#FFFFFF;" width="7.915" height="5.745"/>
				<rect x="345.352" y="170.277" style="fill:#FFFFFF;" width="7.915" height="5.745"/>
				<rect x="354.748" y="170.277" style="fill:#FFFFFF;" width="7.915" height="5.745"/>
				<rect x="364.144" y="170.277" style="fill:#FFFFFF;" width="7.915" height="5.745"/>
				<rect x="373.54" y="170.277" style="fill:#E6E6E6;" width="7.915" height="5.745"/>
				<rect x="382.936" y="170.277" style="fill:#FFFFFF;" width="7.915" height="5.745"/>
			</g>
			<g>
				<rect x="326.56" y="177.553" style="fill:#FFFFFF;" width="7.915" height="5.745"/>
				<rect x="335.956" y="177.553" style="fill:#FFFFFF;" width="7.915" height="5.745"/>
				<rect x="345.352" y="177.553" style="fill:#FFFFFF;" width="7.915" height="5.745"/>
				<rect x="354.748" y="177.553" style="fill:#FFFFFF;" width="7.915" height="5.745"/>
				<rect x="364.144" y="177.553" style="fill:#FFFFFF;" width="7.915" height="5.745"/>
				<rect x="373.54" y="177.553" style="fill:#FFFFFF;" width="7.915" height="5.745"/>
				<rect x="382.936" y="177.553" style="fill:#FFFFFF;" width="7.915" height="5.745"/>
			</g>
			<g>
				<rect x="326.56" y="184.83" style="fill:#FFFFFF;" width="7.915" height="5.745"/>
				<rect x="335.956" y="184.83" style="fill:#FFFFFF;" width="7.915" height="5.745"/>
				<rect x="345.352" y="184.83" style="fill:#FFFFFF;" width="7.915" height="5.745"/>
				<rect x="354.748" y="184.83" style="fill:#FFFFFF;" width="7.915" height="5.745"/>
				<rect x="364.144" y="184.83" style="fill:#FFFFFF;" width="7.915" height="5.745"/>
			</g>
		</g>
		<g>
			
				<rect x="339.413" y="153.706" transform="matrix(0.5874 -0.8093 0.8093 0.5874 11.9004 340.5334)" style="fill:#E6E6E6;" width="1" height="9.78"/>
			
				<rect x="335.023" y="158.096" transform="matrix(0.8096 -0.587 0.587 0.8096 -28.374 229.7167)" style="fill:#E6E6E6;" width="9.78" height="1"/>
		</g>
		<g>
			
				<rect x="348.809" y="153.706" transform="matrix(0.5874 -0.8093 0.8093 0.5874 15.7773 348.1377)" style="fill:#E6E6E6;" width="1" height="9.78"/>
			
				<rect x="344.419" y="158.096" transform="matrix(0.8096 -0.587 0.587 0.8096 -26.5851 235.2319)" style="fill:#E6E6E6;" width="9.78" height="1"/>
		</g>
		<g>
			
				<rect x="358.205" y="153.706" transform="matrix(0.5874 -0.8093 0.8093 0.5874 19.6543 355.7419)" style="fill:#E6E6E6;" width="1" height="9.78"/>
			
				<rect x="353.815" y="158.096" transform="matrix(0.8096 -0.587 0.587 0.8096 -24.7961 240.7471)" style="fill:#E6E6E6;" width="9.78" height="1"/>
		</g>
		<g>
			
				<rect x="367.601" y="153.706" transform="matrix(0.5874 -0.8093 0.8093 0.5874 23.5312 363.3462)" style="fill:#E6E6E6;" width="1" height="9.78"/>
			
				<rect x="363.211" y="158.096" transform="matrix(0.8096 -0.587 0.587 0.8096 -23.0072 246.2624)" style="fill:#E6E6E6;" width="9.78" height="1"/>
		</g>
		<g>
			
				<rect x="376.997" y="153.706" transform="matrix(0.5874 -0.8093 0.8093 0.5874 27.4081 370.9504)" style="fill:#E6E6E6;" width="1" height="9.78"/>
			
				<rect x="372.607" y="158.096" transform="matrix(0.8096 -0.587 0.587 0.8096 -21.2182 251.7776)" style="fill:#E6E6E6;" width="9.78" height="1"/>
		</g>
		<g>
			
				<rect x="386.393" y="153.706" transform="matrix(0.5874 -0.8093 0.8093 0.5874 31.2851 378.5547)" style="fill:#E6E6E6;" width="1" height="9.78"/>
			
				<rect x="382.003" y="158.096" transform="matrix(0.8096 -0.587 0.587 0.8096 -19.4293 257.2928)" style="fill:#E6E6E6;" width="9.78" height="1"/>
		</g>
		<g>
			
				<rect x="386.393" y="160.982" transform="matrix(0.5874 -0.8093 0.8093 0.5874 25.3962 381.557)" style="fill:#E6E6E6;" width="1" height="9.78"/>
			
				<rect x="382.003" y="165.372" transform="matrix(0.8096 -0.5869 0.5869 0.8096 -23.7058 258.6541)" style="fill:#E6E6E6;" width="9.78" height="1"/>
		</g>
		<g>
			
				<rect x="376.997" y="160.982" transform="matrix(0.5874 -0.8093 0.8093 0.5874 21.5193 373.9528)" style="fill:#E6E6E6;" width="1" height="9.78"/>
			
				<rect x="372.607" y="165.372" transform="matrix(0.8096 -0.5869 0.5869 0.8096 -25.4944 253.1393)" style="fill:#E6E6E6;" width="9.78" height="1"/>
		</g>
		<g>
			
				<rect x="367.601" y="160.982" transform="matrix(0.5874 -0.8093 0.8093 0.5874 17.6424 366.3485)" style="fill:#E6E6E6;" width="1" height="9.78"/>
			
				<rect x="363.211" y="165.372" transform="matrix(0.8096 -0.5869 0.5869 0.8096 -27.283 247.6245)" style="fill:#E6E6E6;" width="9.78" height="1"/>
		</g>
		<g>
			
				<rect x="358.205" y="160.982" transform="matrix(0.5874 -0.8093 0.8093 0.5874 13.7654 358.7443)" style="fill:#E6E6E6;" width="1" height="9.78"/>
			
				<rect x="353.815" y="165.372" transform="matrix(0.8096 -0.5869 0.5869 0.8096 -29.0717 242.1098)" style="fill:#E6E6E6;" width="9.78" height="1"/>
		</g>
		<g>
			
				<rect x="348.809" y="160.982" transform="matrix(0.5874 -0.8093 0.8093 0.5874 9.8885 351.14)" style="fill:#E6E6E6;" width="1" height="9.78"/>
			
				<rect x="344.419" y="165.372" transform="matrix(0.8096 -0.5869 0.5869 0.8096 -30.8603 236.595)" style="fill:#E6E6E6;" width="9.78" height="1"/>
		</g>
		<g>
			
				<rect x="339.413" y="160.982" transform="matrix(0.5874 -0.8093 0.8093 0.5874 6.0116 343.5358)" style="fill:#E6E6E6;" width="1" height="9.78"/>
			
				<rect x="335.023" y="165.372" transform="matrix(0.8096 -0.5869 0.5869 0.8096 -32.6489 231.0802)" style="fill:#E6E6E6;" width="9.78" height="1"/>
		</g>
		<g>
			
				<rect x="330.017" y="160.982" transform="matrix(0.5874 -0.8093 0.8093 0.5874 2.1357 335.9335)" style="fill:#E6E6E6;" width="1" height="9.78"/>
			
				<rect x="325.627" y="165.372" transform="matrix(0.8096 -0.5869 0.5869 0.8096 -34.4376 225.5654)" style="fill:#E6E6E6;" width="9.78" height="1"/>
		</g>
		<g>
			
				<rect x="330.017" y="168.259" transform="matrix(0.5874 -0.8093 0.8093 0.5874 -3.7603 338.9222)" style="fill:#E6E6E6;" width="1.001" height="9.78"/>
			
				<rect x="325.627" y="172.649" transform="matrix(0.8092 -0.5876 0.5876 0.8092 -38.6648 227.2494)" style="fill:#E6E6E6;" width="9.78" height="1.001"/>
		</g>
		<g>
			
				<rect x="339.413" y="168.259" transform="matrix(0.5874 -0.8093 0.8093 0.5874 0.1164 346.5262)" style="fill:#E6E6E6;" width="1.001" height="9.78"/>
			
				<rect x="335.023" y="172.649" transform="matrix(0.8092 -0.5876 0.5876 0.8092 -36.8717 232.7703)" style="fill:#E6E6E6;" width="9.78" height="1.001"/>
		</g>
		<g>
			
				<rect x="348.809" y="168.259" transform="matrix(0.5874 -0.8093 0.8093 0.5874 3.9931 354.1303)" style="fill:#E6E6E6;" width="1.001" height="9.78"/>
			
				<rect x="344.419" y="172.649" transform="matrix(0.8092 -0.5876 0.5876 0.8092 -35.0786 238.2912)" style="fill:#E6E6E6;" width="9.78" height="1.001"/>
		</g>
		<g>
			
				<rect x="358.205" y="168.259" transform="matrix(0.5874 -0.8093 0.8093 0.5874 7.8697 361.7343)" style="fill:#E6E6E6;" width="1.001" height="9.78"/>
			
				<rect x="353.815" y="172.649" transform="matrix(0.8092 -0.5876 0.5876 0.8092 -33.2855 243.8122)" style="fill:#E6E6E6;" width="9.78" height="1.001"/>
		</g>
		<g>
			
				<rect x="367.601" y="168.259" transform="matrix(0.5874 -0.8093 0.8093 0.5874 11.7452 369.3362)" style="fill:#E6E6E6;" width="1.001" height="9.78"/>
			
				<rect x="363.211" y="172.649" transform="matrix(0.8092 -0.5876 0.5876 0.8092 -31.4924 249.3331)" style="fill:#E6E6E6;" width="9.78" height="1.001"/>
		</g>
		<rect x="341.334" y="119.936" style="fill:#E6E6E6;" width="40.633" height="10.042"/>
		<rect x="353.713" y="114.66" style="fill:#E6E6E6;" width="15.875" height="2.689"/>
	</g>
</g>
<g id="Background_Simple" style="display:none;">
	<g style="display:inline;">
		<path style="fill:#407BFF;" d="M295.519,230.722c-68.393-16.873-89.694-161.284-192.921-80.098
			c-73.234,57.597-31.999,193.54,58.739,175.732c54.921-10.778,46.497-11.593,92.313,13.482
			c46.429,25.411,97.883,37.582,149.065-10.218c26.487-24.736,37.922-83.924,13.321-113.925
			C385.268,178.176,337.301,241.029,295.519,230.722z"/>
		<path style="opacity:0.9;fill:#FFFFFF;" d="M295.519,230.722c-68.393-16.873-89.694-161.284-192.921-80.098
			c-73.234,57.597-31.999,193.54,58.739,175.732c54.921-10.778,46.497-11.593,92.313,13.482
			c46.429,25.411,97.883,37.582,149.065-10.218c26.487-24.736,37.922-83.924,13.321-113.925
			C385.268,178.176,337.301,241.029,295.519,230.722z"/>
	</g>
</g>
<g id="Shadow_1_">
	<ellipse id="_x3C_Path_x3E__359_" style="fill:#F5F5F5;" cx="250" cy="416.238" rx="193.889" ry="11.323"/>
</g>
<g id="Speech_bubble">
	<g>
		<g>
			<path style="fill:#407BFF;" d="M258.949,99.349h-45.582c-8.656,0-15.674,7.017-15.674,15.673v44.299
				c0,8.656,7.018,15.673,15.673,15.673h30.125l10.81,16.548v-16.548h4.648c8.656,0,15.673-7.017,15.673-15.673v-44.299
				C274.622,106.366,267.605,99.349,258.949,99.349z"/>
			<path style="opacity:0.7;fill:#FFFFFF;" d="M258.949,99.349h-45.582c-8.656,0-15.674,7.017-15.674,15.673v44.299
				c0,8.656,7.018,15.673,15.673,15.673h30.125l10.81,16.548v-16.548h4.648c8.656,0,15.673-7.017,15.673-15.673v-44.299
				C274.622,106.366,267.605,99.349,258.949,99.349z"/>
		</g>
		<path style="fill:#263238;" d="M231.363,165.863c-3.351,0-6.919-0.824-10.362-2.462c-4.372-2.08-7.294-5.087-8.225-8.402
			c-0.339-0.16-0.673-0.338-1.002-0.534c-3.284-1.96-5.617-5.597-6.398-9.98c-1.051-5.884,0.176-11.864,2.611-17.192
			c-0.236-1.297-0.321-2.635-0.241-3.979c0.283-4.724,2.638-8.945,6.147-11.015c2.294-1.353,5.083-1.641,7.528-0.997
			c3.258-2.139,7.526-4.099,12.49-4.416c4.555-0.293,9.012,0.99,12.407,3.451c4.031-1.133,8.652-0.345,11.885,2.332
			c2.619,2.169,4.43,5.519,4.967,9.189c0.254,1.737,0.235,3.553-0.051,5.409c3.404,4.257,4.902,9.606,3.872,14.425
			c-0.843,3.944-3.406,7.646-7.083,10.382c0.415,1.02,0.608,2.096,0.531,3.152c-0.259,3.574-3.251,6.172-6.101,7.161
			c-3.211,1.114-6.614,0.73-9.266,0.244c-2.577,1.797-5.683,2.033-7.13,2.033c-0.006,0-0.013,0-0.019,0
			C235.918,165.464,233.693,165.863,231.363,165.863z M214.232,155.577c1.489,3.63,5.441,5.868,7.283,6.743
			c5.564,2.646,11.441,3.067,16.025,1.207c0.025-0.012,0.05-0.023,0.076-0.031c0.402-0.166,0.793-0.349,1.173-0.55
			c0.74-0.391,1.455-0.853,2.148-1.386c-1.421-0.522-2.827-1.252-4.022-2.317c-0.47-0.419-0.907-0.89-1.309-1.411
			c-2.922-0.086-5.969-0.485-8.883-1.57c-0.654-0.244-1.278-0.511-1.871-0.802C221.854,156.25,217.888,156.768,214.232,155.577z
			 M242.295,162c-0.516,0.436-1.046,0.835-1.588,1.195c0.864-0.178,1.782-0.465,2.664-0.916
			C243.018,162.195,242.658,162.103,242.295,162z M246.278,161.622c2.328,0.362,5.095,0.527,7.665-0.366
			c2.48-0.86,5.081-3.085,5.301-6.117c0.057-0.786-0.067-1.588-0.344-2.36c-0.727,0.48-1.491,0.924-2.288,1.327
			c-2.518,1.273-5.182,2.09-7.778,2.628C248.37,158.895,247.431,160.473,246.278,161.622z M243.345,161.041
			c0.497,0.123,0.984,0.227,1.449,0.318c1.202-0.967,2.216-2.365,2.752-4.381c-0.343,0.06-0.684,0.116-1.023,0.167
			C245.52,158.647,244.463,159.942,243.345,161.041z M237.194,157.849c0.168,0.176,0.34,0.343,0.518,0.501
			c1.243,1.109,2.772,1.822,4.294,2.312c1.018-0.928,1.986-2.025,2.91-3.299c-1.486,0.178-2.909,0.286-4.221,0.363
			C239.571,157.791,238.398,157.842,237.194,157.849z M236.223,156.648c1.518,0.024,2.999-0.034,4.402-0.116
			c1.595-0.094,3.357-0.234,5.195-0.492c0.533-0.829,1.052-1.721,1.557-2.678c0.146-0.276,0.289-0.554,0.429-0.833
			c-0.198-1.438-0.652-2.974-1.367-4.636c-2.034,0.799-4.163,1.309-6.304,1.529c-1.912,0.718-3.788,1.547-5.632,2.362
			c-0.107,0.047-0.215,0.095-0.322,0.143C234.661,153.796,235.345,155.375,236.223,156.648z M226.622,154.939
			c0.17,0.069,0.343,0.136,0.518,0.201c2.484,0.925,5.092,1.327,7.634,1.46c-0.709-1.197-1.277-2.595-1.702-4.185
			C230.973,153.332,228.824,154.232,226.622,154.939z M247.895,154.91c-0.17,0.301-0.341,0.595-0.514,0.883
			c0.141-0.025,0.283-0.05,0.425-0.076c0.008-0.054,0.016-0.109,0.023-0.163C247.857,155.341,247.879,155.126,247.895,154.91z
			 M249.037,152.738c0.105,0.942,0.106,1.849,0.007,2.727c2.363-0.518,4.764-1.282,7.03-2.427c0.812-0.41,1.587-0.865,2.32-1.359
			c-0.745-1.307-1.93-2.453-3.395-3.185c-1.108-0.554-2.359-0.907-3.741-1.057C250.624,149.25,249.882,151.022,249.037,152.738z
			 M213.797,154.143c3.12,1.287,6.63,1.065,9.5,0.456c-3.626-2.255-5.839-5.563-6.5-9.747c-1.911,2.715-3.444,5.544-3.101,8.637
			C213.72,153.711,213.754,153.929,213.797,154.143z M217.834,143.427c0.374,4.809,2.83,8.487,7.151,10.756
			c2.66-0.747,5.268-1.839,7.805-2.952c-0.16-0.756-0.285-1.52-0.376-2.288c-1.441-0.34-2.837-0.822-4.159-1.448
			c-1.832-0.867-6.11-3.343-6.26-7.61c-0.005-0.144-0.005-0.286-0.001-0.427c-0.414,0.01-0.832,0.004-1.249-0.025
			c-0.587,0.859-1.211,1.73-1.875,2.615l-0.369,0.492C218.277,142.835,218.055,143.13,217.834,143.427z M208.453,129.208
			c-1.924,4.748-2.813,9.949-1.9,15.067c0.71,3.982,2.891,7.408,5.834,9.164c0.036,0.021,0.071,0.042,0.107,0.063
			c-0.384-3.945,1.913-7.46,4.243-10.604c0.002-0.003,0.005-0.006,0.007-0.009c0.267-0.36,0.535-0.717,0.799-1.068l0.369-0.49
			c0.521-0.695,1.017-1.38,1.488-2.057c-2.159-0.368-4.258-1.268-6.029-2.674C211.061,134.762,209.357,132.147,208.453,129.208z
			 M251.649,146.278c1.422,0.181,2.72,0.563,3.886,1.146c1.635,0.817,2.967,2.092,3.831,3.56c3.354-2.549,5.684-5.943,6.454-9.543
			c0.89-4.165-0.269-8.769-3.007-12.597c-0.451,1.943-1.186,3.919-2.195,5.882c-2.088,4.058-5.018,7.494-8.506,10.036
			C251.966,145.271,251.811,145.775,251.649,146.278z M233.652,149.198c0.07,0.516,0.155,1.03,0.258,1.54
			c0.037-0.016,0.073-0.032,0.109-0.049c0.88-0.389,1.767-0.781,2.663-1.163C235.661,149.484,234.648,149.374,233.652,149.198z
			 M247.564,147.48c0.48,1.124,0.848,2.198,1.105,3.23c0.492-1.098,0.942-2.217,1.349-3.353
			C249.238,147.345,248.418,147.382,247.564,147.48z M233.515,147.957c2.061,0.4,4.204,0.498,6.339,0.292
			c1.935-0.721,3.914-1.331,5.952-1.71c-0.799-1.588-1.802-3.172-2.956-4.683c-2.936,1.043-6.155,1.306-9.232,0.785
			C233.402,144.405,233.366,146.191,233.515,147.957z M223.195,139.367c-0.01,0.157-0.012,0.315-0.006,0.475
			c0.131,3.711,4.302,5.968,5.577,6.571c1.126,0.533,2.309,0.956,3.529,1.269c-0.124-1.757-0.073-3.529,0.148-5.281
			c-1.254-0.299-2.474-0.731-3.631-1.299c-1.257-0.616-2.39-1.371-3.372-2.23C224.713,139.108,223.96,139.273,223.195,139.367z
			 M244.004,141.4c1.194,1.596,2.226,3.268,3.039,4.94c1.409-0.635,2.758-1.408,4.032-2.306c1.665-5.983,2.186-12.324,1.47-18.525
			c-0.195-1.686-0.476-3.231-0.846-4.644c-2.675-0.968-5.665-1.633-8.954-1.99c-1.421-0.154-2.766-0.231-4.041-0.232
			c-1.081,2.077-1.903,4.365-2.713,6.616l-0.139,0.386c-0.841,2.334-1.807,4.803-3.145,7.006c0.823,0.196,1.649,0.487,2.466,0.865
			c0.115-0.223,0.233-0.445,0.354-0.665c1.626-2.944,3.491-4.892,5.703-5.955c2.852-1.371,6.199-0.958,8.138,1.006
			c1.811,1.833,2.268,4.966,1.11,7.62c-1.199,2.75-3.654,4.463-5.502,5.416C244.657,141.101,244.333,141.255,244.004,141.4z
			 M249.983,146.16c0.148,0.003,0.296,0.008,0.442,0.014c0.039-0.117,0.077-0.234,0.114-0.351
			C250.355,145.938,250.169,146.051,249.983,146.16z M253.061,121.394c0.285,1.235,0.508,2.559,0.672,3.977
			c0.674,5.839,0.279,11.798-1.114,17.484c2.807-2.314,5.181-5.266,6.935-8.676c1.134-2.205,1.903-4.419,2.295-6.574
			c-0.67-0.792-1.413-1.541-2.223-2.234C257.748,123.764,255.555,122.437,253.061,121.394z M233.79,141.459
			c2.752,0.473,5.622,0.272,8.271-0.596c-1.184-1.434-2.499-2.783-3.896-3.983c-0.79-0.679-1.613-1.261-2.45-1.74
			C234.805,137.147,234.16,139.279,233.79,141.459z M226.71,138.375c0.787,0.625,1.668,1.182,2.629,1.654
			c1.047,0.513,2.148,0.908,3.281,1.186c0.391-2.286,1.072-4.521,2.032-6.625c-0.879-0.405-1.765-0.697-2.641-0.869
			c-1.176,1.687-2.617,3.16-4.449,4.214C227.284,138.094,227,138.241,226.71,138.375z M236.237,134.061
			c0.929,0.524,1.838,1.164,2.708,1.911c1.551,1.332,3.005,2.844,4.3,4.451c0.401-0.167,0.796-0.35,1.182-0.55
			c1.676-0.864,3.895-2.404,4.954-4.831c0.967-2.217,0.612-4.808-0.863-6.301c-1.769-1.792-4.745-1.742-6.769-0.769
			c-1.98,0.952-3.673,2.736-5.173,5.455C236.459,133.637,236.347,133.848,236.237,134.061z M221.518,138.271
			c0.211,0.005,0.421-0.002,0.63-0.011c0.176-0.764,0.49-1.476,0.907-2.122c-0.038-0.059-0.076-0.118-0.113-0.178
			C222.499,136.722,222.025,137.492,221.518,138.271z M209.23,127.432c0.676,3.286,2.399,6.253,4.886,8.23
			c1.761,1.4,3.879,2.249,6.03,2.517c0.783-1.176,1.492-2.327,2.128-3.459c-0.37-0.804-0.634-1.638-0.782-2.489
			c-0.713-4.108,1.342-8.531,5.103-11.346c0.047-2.441-0.48-4.421-1.574-5.906c-0.825-1.119-2.025-1.924-3.386-2.38
			c-0.945,0.644-1.796,1.298-2.542,1.921C215.343,117.643,211.686,122.204,209.23,127.432z M223.83,137.205
			c-0.16,0.296-0.294,0.605-0.397,0.924c0.344-0.054,0.683-0.125,1.018-0.212C224.234,137.686,224.027,137.448,223.83,137.205z
			 M224.535,136.169c0.353,0.464,0.748,0.91,1.182,1.333c0.429-0.172,0.846-0.374,1.248-0.605c1.47-0.845,2.674-2.004,3.686-3.345
			c-0.557-0.029-1.103-0.005-1.637,0.073C227.362,133.866,225.668,134.81,224.535,136.169z M223.623,134.751
			c0.068,0.127,0.139,0.253,0.212,0.377c1.326-1.451,3.193-2.424,5.008-2.687c0.842-0.123,1.712-0.128,2.594-0.02
			c1.415-2.213,2.42-4.772,3.289-7.183l0.138-0.385c0.751-2.087,1.512-4.206,2.48-6.181c-3.271,0.149-6.042,0.852-8.388,2.119
			c-0.402,0.217-0.801,0.463-1.19,0.735c-0.03,0.547-0.085,1.113-0.165,1.698C227.081,127.001,225.789,130.77,223.623,134.751z
			 M226.481,122.552c-2.592,2.344-4.439,5.85-3.81,9.474c0.078,0.447,0.192,0.89,0.341,1.325c1.832-3.548,2.941-6.921,3.406-10.29
			C226.441,122.889,226.462,122.72,226.481,122.552z M252.69,119.956c2.955,1.135,5.533,2.64,7.713,4.506
			c0.588,0.504,1.143,1.035,1.663,1.59c0.134-1.377,0.109-2.724-0.081-4.021c-0.495-3.382-2.153-6.458-4.546-8.44
			c-2.711-2.245-6.499-3.024-9.946-2.317c0.706,0.618,1.352,1.294,1.927,2.023C250.845,115.102,251.928,117.304,252.69,119.956z
			 M218.884,112.157c-1.505,0-3.04,0.379-4.384,1.172c-3.17,1.871-5.301,5.724-5.561,10.056c-0.039,0.655-0.036,1.309,0.007,1.955
			c2.496-4.733,5.899-8.84,9.378-11.741c0.533-0.443,1.115-0.903,1.747-1.363C219.68,112.184,219.283,112.157,218.884,112.157z
			 M222.856,111.807c1.244,0.557,2.333,1.385,3.126,2.462c1.124,1.526,1.727,3.473,1.803,5.814c0.197-0.119,0.398-0.234,0.603-0.345
			c2.672-1.443,5.838-2.2,9.592-2.285c1.078-1.935,2.409-3.683,4.197-5.062c0.837-0.646,1.759-1.169,2.733-1.569
			c-3.071-1.984-6.946-2.997-10.925-2.742C229.653,108.357,225.862,109.96,222.856,111.807z M239.367,117.452
			c1.118,0.022,2.286,0.099,3.505,0.232c3.053,0.331,5.862,0.923,8.412,1.77c-0.696-2.131-1.627-3.925-2.804-5.416
			c-0.695-0.881-1.502-1.678-2.4-2.383c-1.14,0.385-2.216,0.946-3.173,1.683C241.453,114.461,240.314,115.874,239.367,117.452z"/>
	</g>
</g>
<g id="Character">
	<g>
		<path style="fill:#EBC0BB;" d="M287.276,314.913c-25.042-5.948-53.731-19.449-67.927-42.001c-1.189-1.822-2.164-3.827-2.754-5.94
			c-5.564-22.188,25.078-35.274,41.342-41.587c5.844-2.164,11.605-4.046,17.738-5.585l4.159,11.265
			c-10.01,5.476-39.43,20.903-42.578,30.68c0.115-0.038,0.166-0.59,0.107-0.988c-0.016-0.132-0.03-0.227-0.065-0.327
			c0.009-0.028,0.024-0.041,0.008-0.065c12.16,16.128,34.637,24.785,53.535,30.419c0,0,1.743,0.473,1.743,0.473L287.276,314.913
			L287.276,314.913z"/>
		<path style="fill:#407BFF;" d="M286.85,329.29l-6.27-3.76l-3.87-2.32l-31.13-18.65l6.31-33.16c0,0,18.2,11.16,27.53,14.32
			c0,0,5.71,5.36,7.58,16.16c0.28,1.59,0.47,3.3,0.55,5.12c0.04,1.02,0.08,2.01,0.1,2.97C287.97,322.34,286.85,329.29,286.85,329.29
			z"/>
		<path style="opacity:0.2;" d="M286.85,329.29l-6.27-3.76c1.21-5.99,4.39-11.63,7.07-15.56
			C287.97,322.34,286.85,329.29,286.85,329.29z"/>
		<path style="fill:#263238;" d="M283.347,201.037c-0.124,0-0.232-0.092-0.248-0.218c-0.007-0.053-0.707-5.263-4.134-7.219
			c-0.12-0.068-0.162-0.221-0.093-0.341c0.069-0.12,0.223-0.161,0.341-0.093c3.645,2.081,4.354,7.366,4.382,7.59
			c0.017,0.137-0.08,0.262-0.216,0.279C283.368,201.037,283.357,201.037,283.347,201.037z"/>
		<path style="fill:#407BFF;" d="M382.955,397.437c1.005-31.416-1.846-59.089-5.475-80.527c-1.05-6.25-2.17-11.96-3.28-17.09
			c-4.04-18.74-7.93-29.61-7.93-29.61s-27.63,20.04-49.77,20.04c-20.47,0-37.08-4.53-37.08-4.53
			c8.409,40.152,9.736,88.244,9.828,111.717H382.955z"/>
		<g>
			<path style="fill:#EEC1BB;" d="M271.163,226.365l-0.531-18.423l16.915,5.242c0,0-2.265,17.36-7.73,17.741L271.163,226.365z"/>
			<polygon style="fill:#EEC1BB;" points="282.667,196.671 293.479,203.369 287.547,213.184 270.631,207.942 			"/>
		</g>
		<g>
			<path style="fill:#407BFF;" d="M307.23,281.886c2.312-1.904,26.298-8.388,29.431-7.346s-9.209,23.573-21.209,19.416
				S304.54,284.1,307.23,281.886z"/>
			<path style="fill:#EEC1BB;" d="M338.762,279.943c0,0-0.38,9.8-20.07,14.96c-0.83,0.9-3.23,3.69-4.47,7.02
				c-1.1-1.72-1.97-4.45-2.3-5.58c-18.44,2.94-8.22-8.1-8.22-8.1c6.26-3.19,8.58-7.15,8.79-11.4c0.12-2.32-0.4-4.72-1.24-7.13
				c-0.56-1.66-1.28-3.35-2.08-5l2.91-3.92l15.1-14.52c0.23,4.22,0.71,8.97,1.57,13.58
				C330.392,268.533,333.402,276.723,338.762,279.943z"/>
			<path style="opacity:0.2;" d="M328.752,259.853c-2.87,6.76-9.56,13.31-16.26,16.99c0.12-2.32-0.4-4.72-1.24-7.13
				c-0.56-1.66-1.28-3.35-2.08-5l2.91-3.92l15.1-14.52C327.412,250.493,327.892,255.243,328.752,259.853z"/>
			<path style="fill:#407BFF;" d="M318.691,294.903l8.164,7.988c0,0,16.702-8.691,19.831-21.858l-10.025-6.493
				C336.661,274.54,333.393,287.059,318.691,294.903z"/>
			<path style="fill:#407BFF;" d="M311.92,296.344l-10.326,9.682c0,0-3.579-9.869-2.522-17.31l8.158-6.829
				C307.23,281.886,306.509,290.495,311.92,296.344z"/>
			<path style="opacity:0.2;fill:#FFFFFF;" d="M318.691,294.903l8.164,7.988c0,0,16.702-8.691,19.831-21.858l-10.025-6.493
				C336.661,274.54,333.393,287.059,318.691,294.903z"/>
			<path style="opacity:0.2;fill:#FFFFFF;" d="M311.92,296.344l-10.326,9.682c0,0-3.579-9.869-2.522-17.31l8.158-6.829
				C307.23,281.886,306.509,290.495,311.92,296.344z"/>
		</g>
		<g>
			<path style="fill:#263238;" d="M288.649,216.525c-6.786,5.368-5.668,27.979,5.228,30.182
				C304.772,248.909,301.503,206.359,288.649,216.525z"/>
			<path style="fill:#EEC1BB;" d="M329.374,231.12c0.485,15.909,1.573,25.169-5.621,34.28c-10.821,13.704-30.886,8.938-36.085-6.344
				c-4.679-13.755-4.686-37.461,10.121-45.697C312.378,205.244,328.888,215.211,329.374,231.12z"/>
			<path style="fill:#263238;" d="M319.758,223.305c-1.64,9.089,4.492,21.233,9.467,22.346c6.018,2.843,13.227-7.621,14.223-12.998
				c0.892-4.816-0.45-15.273-3.544-19.27L319.758,223.305z"/>
			<path style="fill:#EEC1BB;" d="M336.782,246c-1.888,3.916-5.126,6.756-8.155,8.086c-4.556,2-6.728-2.141-5.373-7.003
				c1.22-4.377,5.06-10.691,9.59-10.627C337.308,236.518,338.941,241.522,336.782,246z"/>
			<path style="fill:#D4827D;" d="M296.13,240.452c0,0-2.229,7.785-5.104,11.77c2.459,1.835,6.22,0.376,6.22,0.376L296.13,240.452z"
				/>
			<path style="fill:#263238;" d="M304.233,230.898c-0.12,0.033-0.233,0.095-0.329,0.188c-0.299,0.292-0.305,0.773-0.013,1.072
				c2.893,2.963,6.333,2.24,6.477,2.207c0.393-0.048,0.667-0.494,0.576-0.903c-0.091-0.409-0.494-0.666-0.902-0.576
				c-0.143,0.029-2.794,0.541-5.066-1.786C304.776,230.895,304.49,230.828,304.233,230.898z"/>
			<path style="fill:#263238;" d="M291.695,231.029c-0.242-0.006-0.483,0.105-0.634,0.316c-2.006,2.802-4.825,2.788-4.853,2.787
				c-0.419-0.008-0.764,0.326-0.77,0.744c-0.008,0.417,0.324,0.761,0.74,0.77c0.001,0,0.003,0,0.004,0
				c0.149,0.002,3.649,0.022,6.11-3.42c0.244-0.34,0.165-0.814-0.175-1.057C291.989,231.078,291.842,231.032,291.695,231.029z"/>
			<path style="fill:#263238;" d="M307.988,239.933c-0.102,0-0.204-0.041-0.278-0.123c-0.47-0.518-2.03-0.521-2.904-0.4
				c-0.154,0.029-0.309-0.056-0.382-0.195c-0.074-0.139-0.053-0.309,0.052-0.426c1.543-1.72,3.254-1.648,3.322-1.637
				c0.207,0.012,0.365,0.189,0.353,0.396c-0.013,0.207-0.212,0.374-0.395,0.352c-0.062-0.002-0.943-0.027-1.951,0.694
				c0.835-0.003,1.925,0.121,2.461,0.712c0.139,0.153,0.128,0.391-0.026,0.529C308.168,239.9,308.078,239.933,307.988,239.933z"/>
			<path style="fill:#263238;" d="M288.507,241.96c-0.064,0-0.129-0.017-0.189-0.052c-0.179-0.105-0.239-0.334-0.134-0.513
				c0.403-0.688,1.441-1.033,2.261-1.203c-1.142-0.5-2.007-0.286-2.053-0.276c-0.194,0.058-0.404-0.066-0.457-0.267
				c-0.053-0.199,0.064-0.403,0.263-0.458c0.07-0.018,1.725-0.448,3.588,0.917c0.127,0.093,0.182,0.256,0.139,0.406
				c-0.044,0.151-0.177,0.26-0.334,0.271c-0.879,0.063-2.405,0.386-2.759,0.989C288.761,241.894,288.636,241.96,288.507,241.96z"/>
			<g>
				<path style="fill:#FFFFFF;" d="M313.672,255.193v0.01c-0.09,1.1-0.87,2.17-2.48,2.6c-3.83,1.02-9,3.89-9,3.89
					s-0.03-0.05-0.08-0.14l-0.01-0.03c-0.32-0.57-1.42-2.47-2.49-3.24c-0.18-0.14-0.36-0.24-0.54-0.29c0,0,0.01-0.02,0.04-0.06
					c0.47-0.64,4.7-6.25,11.46-5.92c0.79,0.04,1.45,0.29,1.96,0.69C313.332,253.313,313.742,254.263,313.672,255.193z"/>
				<path style="opacity:0.2;" d="M299.112,257.933l0.5,0.35c-0.18-0.14-0.36-0.24-0.54-0.29
					C299.072,257.993,299.082,257.973,299.112,257.933z"/>
				<path style="opacity:0.1;" d="M313.242,254.693c-1.08,0.12-2.81,0.4-4.78,1.02l0.12,0.81l-0.48-0.69
					c-1.2,0.4-2.48,0.93-3.76,1.63l0.28,0.67l-0.54-0.52c-0.97,0.56-1.93,1.2-2.84,1.97l0.86,1.94c-0.32-0.57-1.42-2.47-2.49-3.24
					l1.34,0.92c0,0,0.82-0.98,2.58-2.1v-0.01l-0.47-1.11l0.89,0.86c0.98-0.59,2.23-1.18,3.74-1.69l-0.37-0.99l1.03,0.77
					c1.29-0.38,2.76-0.7,4.42-0.87l-0.24-1.36c0.8,0.61,1.21,1.56,1.14,2.49L313.242,254.693z"/>
			</g>
			<path style="fill:#263238;" d="M342.345,228.947c0,0,11.477-14.808-0.772-19.66c0,0-3.185-10.596-9.058-13.149
				c-5.872-2.553-10.596,3.447-10.596,3.447s-3.191-7.759-12.128-7.39c-8.936,0.369-10.18,7.773-10.18,7.773
				s-6.863-2.936-12.767,1.021c-5.904,3.957-2.428,9.575-2.428,9.575s-8.838,4.85-6.157,10.978
				c2.681,6.128,10.036,3.191,10.036,3.191s-0.198,3.447,4.139,3.575c4.336,0.128,11.338-4.723,11.338-4.723
				s1.807,2.691,5.892,2.814c4.085,0.123,7.866-2.686,7.866-2.686s1.786,4.653,6.814,6.03
				C329.374,231.12,342.345,228.947,342.345,228.947z"/>
		</g>
		<g>
			<path style="fill:#EEC1BB;" d="M351.056,209.957l-6.745-17.152l-13.499,11.463c0,0,8.9,15.077,14.075,13.281L351.056,209.957z"/>
			<polygon style="fill:#EEC1BB;" points="328.816,187.165 321.502,197.571 330.813,204.268 344.311,192.805 			"/>
		</g>
		<path style="fill:#263238;" d="M299.613,203.08c-0.016,0-0.032-0.002-0.048-0.005c-0.135-0.026-0.224-0.157-0.198-0.293
			c0.01-0.052,0.956-5.235-3.436-8.294c-0.153,0.99-0.723,1.814-1.662,2.395c-1.026,0.636-1.617,0.123-1.824-0.127
			c-0.621-0.75-0.533-2.192,0.18-2.968c0.325-0.354,1.201-0.997,2.833-0.169c-0.118-1.29-0.929-2.735-2.138-3.746
			c-0.106-0.089-0.12-0.246-0.032-0.352c0.088-0.106,0.248-0.119,0.352-0.032c1.411,1.179,2.32,2.923,2.332,4.426
			c0.077,0.049,0.155,0.101,0.235,0.156c4.676,3.248,3.662,8.751,3.651,8.807C299.835,202.997,299.73,203.08,299.613,203.08z
			 M293.979,193.708c-0.397,0-0.73,0.139-0.986,0.418c-0.588,0.64-0.581,1.805-0.163,2.311c0.338,0.41,0.826,0.237,1.175,0.021
			c0.892-0.552,1.382-1.315,1.457-2.268C294.907,193.87,294.407,193.708,293.979,193.708z"/>
		<path style="fill:#263238;" d="M286.103,211.447c-1.524,0-8.93-0.428-11.595-8.54c-0.043-0.131,0.028-0.272,0.159-0.315
			c0.13-0.046,0.273,0.028,0.315,0.159c2.843,8.653,11.28,8.192,11.363,8.191c0.149-0.021,0.257,0.095,0.266,0.233
			c0.009,0.138-0.095,0.257-0.233,0.266C286.37,211.442,286.272,211.447,286.103,211.447z"/>
		<path style="fill:#263238;" d="M277.753,229.994c-0.118,0-0.223-0.084-0.245-0.204c-0.025-0.135,0.064-0.266,0.2-0.292
			c5.375-1.009,8.403-6.684,8.433-6.742c0.065-0.122,0.217-0.168,0.337-0.106c0.123,0.064,0.17,0.215,0.106,0.337
			c-0.127,0.242-3.167,5.947-8.784,7.002C277.784,229.992,277.769,229.994,277.753,229.994z"/>
		<path style="fill:#263238;" d="M337.883,195.52c-0.296,0-0.604-0.06-0.893-0.187c-0.431-0.188-1.163-0.678-1.503-1.89
			c-1.302,0.693-2.379,1.877-2.393,1.894c-0.093,0.103-0.251,0.112-0.354,0.018c-0.103-0.093-0.111-0.25-0.019-0.354
			c0.066-0.073,1.225-1.347,2.655-2.065c-0.131-0.808-0.103-1.873,0.215-3.273c0.031-0.135,0.164-0.222,0.299-0.188
			c0.135,0.03,0.219,0.164,0.189,0.299c-0.257,1.133-0.326,2.132-0.218,2.947c0.402-0.156,0.818-0.257,1.23-0.267
			c0.723-0.015,1.336,0.235,1.849,0.751c0.548,0.552,0.673,1.177,0.333,1.673C338.99,195.293,338.457,195.52,337.883,195.52z
			 M335.954,193.222c0.203,0.811,0.62,1.384,1.236,1.653c0.683,0.297,1.414,0.096,1.671-0.278c0.199-0.291,0.101-0.659-0.275-1.038
			c-0.419-0.421-0.911-0.62-1.482-0.604C336.723,192.964,336.333,193.066,335.954,193.222z"/>
		<path style="fill:#263238;" d="M322.234,202.471c-0.098,0-0.191-0.058-0.231-0.155c-0.022-0.054-2.168-5.475,2.976-11.647
			c0.089-0.106,0.247-0.119,0.352-0.032c0.106,0.088,0.12,0.246,0.032,0.352c-4.941,5.93-2.918,11.085-2.897,11.137
			c0.052,0.127-0.009,0.273-0.137,0.326C322.298,202.465,322.266,202.471,322.234,202.471z"/>
		<path style="fill:#263238;" d="M348.021,231.791c-0.117,0-0.221-0.082-0.245-0.201c-0.852-4.273-6.845-5.899-6.905-5.915
			c-0.134-0.035-0.213-0.172-0.178-0.305c0.035-0.134,0.17-0.216,0.305-0.178c0.259,0.068,6.355,1.719,7.269,6.301
			c0.027,0.136-0.061,0.267-0.196,0.294C348.054,231.789,348.038,231.791,348.021,231.791z"/>
		<path style="opacity:0.2;" d="M377.48,316.91c-11.01-4.78-12.32-17.82-12.32-17.82c3.12-0.59,6.2-0.24,9.04,0.73
			C375.31,304.95,376.43,310.66,377.48,316.91z"/>
		<path style="fill:#EBC0BB;" d="M356.835,278.049c15.522-12.537,33.871-30.264,38.709-50.116c0.076,0.346,0.353,1.221,0.587,1.25
			c0.12,0.014-0.092-0.34-0.576-0.767c-10.842-7.604-36.653-9.247-50.628-10.731c0,0-0.598-11.993-0.598-11.993
			c17.592-2.506,40.739-3.832,57.6,2.709c10.735,4.321,17.523,13.134,14.827,25.373c-4.682,24.818-22.689,45.453-41.641,60.863
			c0,0-1.954,1.501-1.954,1.501l-1.01,0.754l-1.146,0.83L356.835,278.049L356.835,278.049z"/>
		<path style="fill:#407BFF;" d="M353.894,277.958c0,0,23.685-19.494,32.111-31.827l19.404,24.08l-29.305,40.25
			c0,0-10.78-2.444-16.908-12.107C353.069,288.692,353.894,277.958,353.894,277.958z"/>
	</g>
</g>
<g id="Lamp">
	<g>
		<g>
			<path style="fill:#407BFF;" d="M102.862,384.096c-2.803-53.295,12.695-88.426,26.19-108.512
				c14.741-21.942,30.085-31.087,30.731-31.466l3.539,6.04l-1.77-3.02l1.775,3.017c-0.147,0.087-14.84,8.911-28.693,29.673
				c-12.79,19.169-27.471,52.754-24.782,103.9L102.862,384.096z"/>
		</g>
		<g style="opacity:0.2;">
			<path d="M102.862,384.096c-2.803-53.295,12.695-88.426,26.19-108.512c14.741-21.942,30.085-31.087,30.731-31.466l3.539,6.04
				l-1.77-3.02l1.775,3.017c-0.147,0.087-14.84,8.911-28.693,29.673c-12.79,19.169-27.471,52.754-24.782,103.9L102.862,384.096z"/>
		</g>
		<g style="opacity:0.2;">
			<g>
				<path d="M163,250.356l-3.741-5.916c0.352-0.222,0.538-0.329,0.538-0.329l3.509,6.056l-1.755-3.028l1.762,3.025
					C163.289,250.177,163.182,250.241,163,250.356z"/>
			</g>
			<g>
				<path d="M102.602,377.476l-0.024-1.019l6.998-0.145l0.023,0.98L102.602,377.476z M102.527,370.367l0.007-1.014l7,0.06
					l-0.007,0.985L102.527,370.367z M109.668,363.506l-6.996-0.245l0.039-1.02l6.994,0.286L109.668,363.506z M110.032,356.64
					l-6.983-0.489l0.073-1.015l6.981,0.522L110.032,356.64z M110.63,349.784l-6.962-0.723l0.109-1.018l6.958,0.77L110.63,349.784z
					 M111.47,342.966l-6.931-0.98l0.147-1.012l6.924,1.025L111.47,342.966z M112.563,336.188l-6.888-1.243l0.184-1.003l6.882,1.282
					L112.563,336.188z M113.918,329.462l-6.835-1.511l0.225-0.999l6.825,1.557L113.918,329.462z M115.542,322.803l-6.767-1.79
					l0.267-0.993l6.753,1.842L115.542,322.803z M117.443,316.227l-6.682-2.085l0.308-0.976l6.668,2.129L117.443,316.227z
					 M119.627,309.747l-6.578-2.391l0.35-0.957l6.566,2.427L119.627,309.747z M122.105,303.369l-6.466-2.682l0.397-0.946l6.446,2.73
					L122.105,303.369z M124.874,297.122l-6.332-2.985l0.442-0.927l6.309,3.033L124.874,297.122z M127.94,291.022l-6.176-3.295
					l0.488-0.905l6.149,3.345L127.94,291.022z M131.303,285.088l-6-3.606l0.531-0.876l5.974,3.649L131.303,285.088z M134.961,279.34
					l-5.797-3.923l0.571-0.84l5.779,3.95L134.961,279.34z M138.917,273.794l-5.578-4.229l0.618-0.811l5.554,4.262L138.917,273.794z
					 M143.172,268.471l-5.343-4.521l0.669-0.785l5.303,4.569L143.172,268.471z M147.714,263.411l-5.072-4.824
					c0.24-0.253,0.48-0.502,0.718-0.747l5.023,4.875L147.714,263.411z M152.539,258.65l-4.751-5.141l0.76-0.697l4.706,5.183
					L152.539,258.65z M157.654,254.237l-4.374-5.466c0.28-0.223,0.553-0.439,0.818-0.646l4.309,5.517
					C158.162,253.832,157.911,254.03,157.654,254.237z"/>
			</g>
			<g>
				<polygon points="102.862,384.095 102.835,383.577 109.827,383.248 109.85,383.691 				"/>
			</g>
		</g>
		<g>
			<path style="fill:#407BFF;" d="M171.96,228.055c0,0-6.112-3.245-12.778,0.945c-6.667,4.191-6.392,11.105-6.392,11.105
				l7.514,16.511l11.638-7.316l11.638-7.316L171.96,228.055z"/>
			<path style="opacity:0.2;fill:#FFFFFF;" d="M171.96,228.055c0,0-6.112-3.245-12.778,0.945
				c-6.667,4.191-6.392,11.105-6.392,11.105l7.514,16.511l11.638-7.316l11.638-7.316L171.96,228.055z"/>
			<path style="fill:#407BFF;" d="M194.975,246.999c-3.057-4.862-8.904-6.36-10.535-6.693c-0.025-0.006-0.051-0.011-0.077-0.016
				c-0.232-0.046-0.368-0.067-0.368-0.067l-0.029,0.009c-3.495-0.518-9.169,1.169-14.774,4.693
				c-5.605,3.524-9.585,7.905-10.634,11.28l-0.021,0.022c0,0-0.04,0.131-0.099,0.36c-0.006,0.025-0.012,0.051-0.019,0.076
				c-0.407,1.613-1.592,7.532,1.464,12.394c0,0.001,0.001,0.001,0.001,0.001c2.502,3.981,12.386,2.27,22.076-3.822
				C191.651,259.146,197.478,250.98,194.975,246.999C194.976,246.999,194.975,246.999,194.975,246.999z"/>
			<path style="opacity:0.2;fill:#FFFFFF;" d="M159.885,269.059c2.502,3.981,12.386,2.27,22.076-3.822
				c9.69-6.091,15.517-14.256,13.015-18.237c-2.502-3.981-12.386-2.27-22.077,3.822
				C163.209,256.913,157.383,265.078,159.885,269.059z"/>
			<path style="opacity:0.2;" d="M194.184,247.492c2.161,3.437-3.595,10.93-12.848,16.747c-9.254,5.817-18.5,7.755-20.661,4.318
				c-1.299-2.066,0.278-5.608,3.769-9.374c2.292-2.48,5.41-5.054,9.084-7.364c3.674-2.31,7.346-4.004,10.574-4.994
				C189.01,245.311,192.885,245.426,194.184,247.492z"/>
			<path style="fill:#FFFFFF;" d="M184.308,247.133c3.417,5.435,1.773,12.611-3.653,16.022c-5.435,3.417-12.605,1.782-16.022-3.654
				c-0.064-0.102-0.133-0.212-0.189-0.318c2.292-2.48,5.41-5.054,9.084-7.364c3.674-2.31,7.346-4.004,10.574-4.994
				C184.175,246.922,184.244,247.032,184.308,247.133z"/>
		</g>
		<path style="fill:#407BFF;" d="M132.61,395.851v-6.671c0-3.54-2.87-6.41-6.41-6.41h-39.53c-3.54,0-6.41,2.87-6.41,6.41v6.671
			H132.61z"/>
		<rect x="80.261" y="392.404" width="52.35" height="3.447"/>
		<path style="opacity:0.2;enable-background:new    ;" d="M80.261,389.815v6.036h52.35v-6.036c0-0.944-0.765-1.709-1.709-1.709
			H81.97C81.026,388.106,80.261,388.871,80.261,389.815z"/>
	</g>
</g>
<g id="Mugs">
	<g>
		<g>
			<g>
				<path style="fill:#407BFF;" d="M80.794,353.26c-0.34,5.08,3.52,9.5,8.6,9.86l1.34,0.08l0.28,0.02l0.66,0.04l0.04-0.52l0.14-2.06
					l-2.12-0.14l-0.16-0.02c-3.66-0.26-6.42-3.44-6.18-7.08l0.16-2.42c0.06-0.78,0.76-1.4,1.56-1.34l2.64,0.18l3.22,0.22l0.18-2.6
					l-3.54-0.24l-2.32-0.16c-2.24-0.14-4.18,1.54-4.32,3.78L80.794,353.26z"/>
			</g>
			<g style="opacity:0.5;enable-background:new    ;">
				<path style="fill:#FFFFFF;" d="M80.794,353.26c-0.34,5.08,3.52,9.5,8.6,9.86l1.34,0.08l0.28,0.02l0.66,0.04l0.04-0.52l0.14-2.06
					l-2.12-0.14l-0.16-0.02c-3.66-0.26-6.42-3.44-6.18-7.08l0.16-2.42c0.06-0.78,0.76-1.4,1.56-1.34l2.64,0.18l3.22,0.22l0.18-2.6
					l-3.54-0.24l-2.32-0.16c-2.24-0.14-4.18,1.54-4.32,3.78L80.794,353.26z"/>
			</g>
			<path style="fill:#407BFF;" d="M87.574,346.04v0.24c0,0.32,0.02,0.64,0.04,0.96c0.02,0.9,0.06,1.78,0.14,2.62
				c0.3,4.3,1,7.96,1.98,10.68c0.38,0.98,0.78,1.84,1.22,2.56l0.06,0.12c0.72,1.16,1.54,1.92,2.42,2.24c0.02,0,0.02,0,0.02,0
				c0.24,0.1,0.48,0.14,0.74,0.16l11.96,0.82c1.62,0.12,3.24-1.24,4.68-3.72c0.76-1.28,1.48-2.88,2.14-4.72
				c0.96-2.76,1.78-6.08,2.38-9.82l0.04-0.22L87.574,346.04z"/>
			<path style="opacity:0.6;fill:#FFFFFF;enable-background:new    ;" d="M87.574,346.04v0.24c0,0.32,0.02,0.64,0.04,0.96
				c0.02,0.9,0.06,1.78,0.14,2.62c0.3,4.3,1,7.96,1.98,10.68c0.38,0.98,0.78,1.84,1.22,2.56l0.06,0.12
				c0.72,1.16,1.54,1.92,2.42,2.24c0.02,0,0.02,0,0.02,0c0.24,0.1,0.48,0.14,0.74,0.16l11.96,0.82c1.62,0.12,3.24-1.24,4.68-3.72
				c0.76-1.28,1.48-2.88,2.14-4.72c0.96-2.76,1.78-6.08,2.38-9.82l0.04-0.22L87.574,346.04z"/>
		</g>
		<path style="opacity:0.1;" d="M90.734,363.2l0.28,0.02c0.72,1.16,1.54,1.92,2.42,2.24c0.02,0,0.02,0,0.02,0
			c4.84-0.48,12.02-1.72,17.38-2.74c0.76-1.28,1.48-2.88,2.14-4.72c-4.04,0.44-14.699,1.84-21.26,4.74
			c-0.26,0.12-0.519,0.22-0.76,0.36C90.874,363.12,90.814,363.16,90.734,363.2z"/>
		<g>
			<g>
				<path style="fill:#407BFF;" d="M114.419,376.5l-2.262,0.353l-0.401-2.57l2.262-0.353c3.618-0.564,6.103-3.966,5.539-7.584
					l-0.372-2.383c-0.123-0.791-0.868-1.333-1.659-1.21l-5.8,0.904l-0.401-2.571l5.8-0.904c2.208-0.344,4.285,1.172,4.629,3.38
					l0.372,2.383C122.911,370.979,119.453,375.715,114.419,376.5z"/>
			</g>
			<g style="opacity:0.5;enable-background:new    ;">
				<path style="fill:#FFFFFF;" d="M119.551,366.349c0.56,3.62-1.92,7.02-5.54,7.58l-0.18,0.02l-2.079,0.34l0.26,1.72l0.14,0.84
					l0.64-0.1l1.62-0.24c0.06,0,0.12-0.02,0.18-0.04c4.94-0.88,8.32-5.56,7.54-10.52l-0.38-2.38c-0.34-2.22-2.42-3.74-4.62-3.38
					l-2.3,0.36l-3.5,0.54l0.4,2.56l3.18-0.5l2.62-0.4c0.78-0.12,1.54,0.42,1.66,1.22L119.551,366.349z"/>
			</g>
			<path style="fill:#407BFF;" d="M109.851,379.418l-11.852,1.848c-3.653,0.57-8.046-6.554-10.734-17.408l-0.054-0.217l27.551-4.296
				l0.015,0.223C115.52,370.726,113.504,378.848,109.851,379.418z"/>
			<path style="opacity:0.6;fill:#FFFFFF;enable-background:new    ;" d="M87.212,363.649l0.06,0.2c1.06,4.3,2.38,8,3.82,10.88
				c2.22,4.4,4.7,6.88,6.9,6.54l11.86-1.86c1.16-0.18,2.16-1.1,2.94-2.66c0.1-0.18,0.18-0.36,0.26-0.56c0.3-0.66,0.56-1.4,0.78-2.24
				c0.76-2.78,1.14-6.48,1.08-10.8c0-0.84-0.04-1.7-0.08-2.6c-0.02-0.32-0.039-0.64-0.06-0.98l-0.02-0.22L87.212,363.649z"/>
		</g>
		<path style="opacity:0.1;" d="M91.092,374.729c2.22,4.4,4.7,6.88,6.9,6.54l11.86-1.86c1.16-0.18,2.16-1.1,2.94-2.66l1.62-0.24
			c0.06,0,0.12-0.02,0.18-0.04c-0.48-0.1-0.98-0.18-1.54-0.28c-0.34-0.06-0.68-0.12-1.04-0.18
			C106.352,375.089,97.952,374.069,91.092,374.729z"/>
		<g>
			<g>
				<path style="fill:#407BFF;" d="M92.602,393.384h2.289v-2.602h-2.289c-3.662,0-6.642-2.978-6.642-6.64v-2.412
					c0-0.801,0.652-1.451,1.453-1.451h5.87v-2.602h-5.87c-2.234,0-4.053,1.818-4.053,4.052v2.412
					C83.361,389.238,87.506,393.384,92.602,393.384z"/>
			</g>
			<g style="opacity:0.5;enable-background:new    ;">
				<path style="fill:#FFFFFF;" d="M92.602,393.384h2.289v-2.602h-2.289c-3.662,0-6.642-2.978-6.642-6.64v-2.412
					c0-0.801,0.652-1.451,1.453-1.451h5.87v-2.602h-5.87c-2.234,0-4.053,1.818-4.053,4.052v2.412
					C83.361,389.238,87.506,393.384,92.602,393.384z"/>
			</g>
			<path style="fill:#407BFF;" d="M97.565,395.564h11.995c3.698,0,6.94-7.715,7.924-18.854l0.02-0.223H89.62l0.02,0.223
				C90.624,387.849,93.867,395.564,97.565,395.564z"/>
			<path style="opacity:0.6;fill:#FFFFFF;enable-background:new    ;" d="M97.565,395.564h11.995c3.698,0,6.94-7.715,7.924-18.854
				l0.02-0.223H89.62l0.02,0.223C90.624,387.849,93.867,395.564,97.565,395.564z"/>
		</g>
		<path style="opacity:0.4;" d="M99.802,346.884c1.188,0.082,0.885,4.155,1.682,4.847c0.797,0.692,1.085-3.659,2.079-3.363
			c0.993,0.297,2.112,1.141,3.085-1.012L99.802,346.884z"/>
		<path style="opacity:0.4;" d="M88.336,363.401c0,0,0.591,4.152,1.284,4.202c0.694,0.05,0.149-3.51,1.114-3.213
			c0.965,0.297,2.114-1.621,2.114-1.621L88.336,363.401z"/>
	</g>
</g>
<g id="Device">
	<g>
		<path style="fill:#263238;" d="M138.884,388.106v5.573c0,1.43,1.684,2.016,3.096,2.016h111.373c1.43,0,3.152-0.585,3.152-2.016
			v-5.573H138.884z"/>
		<path style="opacity:0.4;fill:#FFFFFF;enable-background:new    ;" d="M138.884,388.106v5.573c0,1.43,1.684,2.016,3.096,2.016
			h111.373c1.43,0,3.152-0.585,3.152-2.016v-5.573H138.884z"/>
		<path style="opacity:0.2;enable-background:new    ;" d="M138.884,388.106v5.573c0,1.43,1.684,2.016,3.096,2.016h73.457
			c1.428,0,3.125-0.585,3.125-2.016v-5.573H138.884z"/>
		<path style="fill:#263238;" d="M120.25,330.243l13.257,60.137c0.432,1.98,2.359,3.418,4.306,3.418h72.423
			c1.929,0,3.168-1.799,2.721-3.78l-13.242-59.677c-0.447-1.964-2.359-2.942-4.304-2.942h-72.425
			C121.041,327.4,119.818,328.279,120.25,330.243z"/>
		<path style="opacity:0.4;fill:#FFFFFF;enable-background:new    ;" d="M120.25,330.243l13.257,60.137
			c0.432,1.98,2.359,3.418,4.306,3.418h69.961c1.945,0,3.168-1.799,2.738-3.78l-13.259-59.677c-0.431-1.964-2.358-2.942-4.305-2.942
			h-69.962C121.041,327.4,119.818,328.279,120.25,330.243z"/>
		<path style="opacity:0.2;enable-background:new    ;" d="M155.957,360.808v0.018c0,5.148,5.521,9.332,9.567,9.332
			c4.047,0,6.445-4.183,5.292-9.332c-1.154-5.047-5.181-9.161-9.141-9.317c1.153,5.148-1.318,9.317-5.347,9.317
			C156.243,360.826,155.957,360.826,155.957,360.808z"/>
	</g>
</g>
<g id="Table">
	<g>
		<rect x="71.265" y="397.616" style="fill:#263238;" width="362.108" height="17.943"/>
		<rect x="71.265" y="397.616" style="opacity:0.5;fill:#FFFFFF;" width="362.108" height="17.943"/>
		<path style="fill:#263238;" d="M437.288,395.893H67.35c-1.116,0-2.02,0.904-2.02,2.02v2.901c0,1.116,0.904,2.02,2.02,2.02h369.938
			c1.116,0,2.02-0.904,2.02-2.02v-2.901C439.308,396.797,438.404,395.893,437.288,395.893z"/>
		<path style="opacity:0.6;fill:#FFFFFF;" d="M437.288,395.893H67.35c-1.116,0-2.02,0.904-2.02,2.02v2.901
			c0,1.116,0.904,2.02,2.02,2.02h369.938c1.116,0,2.02-0.904,2.02-2.02v-2.901C439.308,396.797,438.404,395.893,437.288,395.893z"/>
	</g>
</g>
<g id="Books_2">
	<g>
		<g>
			
				<rect x="354.609" y="357.234" transform="matrix(-1 -1.224647e-16 1.224647e-16 -1 756.8221 725.6884)" style="fill:#407BFF;" width="47.605" height="11.22"/>
			
				<rect x="354.609" y="357.234" transform="matrix(-1 -1.224647e-16 1.224647e-16 -1 756.8221 725.6884)" style="opacity:0.7;fill:#FFFFFF;enable-background:new    ;" width="47.605" height="11.22"/>
			<g>
				<path style="fill:#407BFF;" d="M383.805,356.202h37.284c3.663,0,6.642,2.979,6.642,6.643c0,3.663-2.979,6.642-6.642,6.642
					h-37.284v-2.431h5.661c2.322,0,4.211-1.89,4.211-4.211c0-2.322-1.89-4.212-4.211-4.212h-5.661V356.202z"/>
			</g>
			<g style="opacity:0.4;enable-background:new    ;">
				<path style="fill:#FFFFFF;" d="M383.805,356.202h37.284c3.663,0,6.642,2.979,6.642,6.643c0,3.663-2.979,6.642-6.642,6.642
					h-37.284v-2.431h5.661c2.322,0,4.211-1.89,4.211-4.211c0-2.322-1.89-4.212-4.211-4.212h-5.661V356.202z"/>
			</g>
			<g>
				<path style="fill:#407BFF;" d="M352.182,356.202h37.284c3.663,0,6.642,2.979,6.642,6.643c0,3.663-2.979,6.642-6.642,6.642
					h-37.284v-2.431h37.284c2.322,0,4.211-1.89,4.211-4.211c0-2.322-1.89-4.212-4.211-4.212h-37.284V356.202z"/>
			</g>
			<g style="opacity:0.2;enable-background:new    ;">
				<path style="fill:#FFFFFF;" d="M352.182,356.202h37.284c3.663,0,6.642,2.979,6.642,6.643c0,3.663-2.979,6.642-6.642,6.642
					h-37.284v-2.431h37.284c2.322,0,4.211-1.89,4.211-4.211c0-2.322-1.89-4.212-4.211-4.212h-37.284V356.202z"/>
			</g>
		</g>
		<g>
			<rect x="375.272" y="343.949" style="fill:#407BFF;" width="47.605" height="11.22"/>
			<rect x="375.272" y="343.949" style="opacity:0.7;fill:#FFFFFF;enable-background:new    ;" width="47.605" height="11.22"/>
			<g>
				<path style="fill:#407BFF;" d="M393.681,342.917h-37.284c-3.663,0-6.643,2.979-6.643,6.643c0,3.663,2.979,6.642,6.643,6.642
					h37.284v-2.431h-5.661c-2.322,0-4.212-1.89-4.212-4.211c0-2.322,1.89-4.212,4.212-4.212h5.661V342.917z"/>
			</g>
			<g style="opacity:0.4;enable-background:new    ;">
				<path d="M393.681,342.917h-37.284c-3.663,0-6.643,2.979-6.643,6.643c0,3.663,2.979,6.642,6.643,6.642h37.284v-2.431h-5.661
					c-2.322,0-4.212-1.89-4.212-4.211c0-2.322,1.89-4.212,4.212-4.212h5.661V342.917z"/>
			</g>
			<g>
				<path style="fill:#407BFF;" d="M425.304,342.917H388.02c-3.663,0-6.642,2.979-6.642,6.643c0,3.663,2.979,6.642,6.642,6.642
					h37.284v-2.431H388.02c-2.322,0-4.211-1.89-4.211-4.211c0-2.322,1.89-4.212,4.211-4.212h37.284V342.917z"/>
			</g>
			<g style="opacity:0.2;enable-background:new    ;">
				<path d="M425.304,342.917H388.02c-3.663,0-6.642,2.979-6.642,6.643c0,3.663,2.979,6.642,6.642,6.642h37.284v-2.431H388.02
					c-2.322,0-4.211-1.89-4.211-4.211c0-2.322,1.89-4.212,4.211-4.212h37.284V342.917z"/>
			</g>
		</g>
		<g>
			
				<rect x="344.831" y="370.519" transform="matrix(-1 -1.224647e-16 1.224647e-16 -1 737.2673 752.2584)" style="fill:#407BFF;" width="47.605" height="11.22"/>
			
				<rect x="344.831" y="370.519" transform="matrix(-1 -1.224647e-16 1.224647e-16 -1 737.2673 752.2584)" style="opacity:0.7;fill:#FFFFFF;enable-background:new    ;" width="47.605" height="11.22"/>
			<g>
				<path style="fill:#263238;" d="M374.027,369.487h37.284c3.663,0,6.642,2.979,6.642,6.643c0,3.663-2.979,6.642-6.642,6.642
					h-37.284v-2.431h5.661c2.322,0,4.212-1.89,4.212-4.211c0-2.322-1.89-4.212-4.212-4.212h-5.661V369.487z"/>
			</g>
			<g style="opacity:0.2;">
				<path style="fill:#FFFFFF;" d="M374.027,369.487h37.284c3.663,0,6.642,2.979,6.642,6.643c0,3.663-2.979,6.642-6.642,6.642
					h-37.284v-2.431h5.661c2.322,0,4.212-1.89,4.212-4.211c0-2.322-1.89-4.212-4.212-4.212h-5.661V369.487z"/>
			</g>
			<g>
				<path style="fill:#263238;" d="M342.404,369.487h37.284c3.663,0,6.642,2.979,6.642,6.643c0,3.663-2.979,6.642-6.642,6.642
					h-37.284v-2.431h37.284c2.322,0,4.211-1.89,4.211-4.211c0-2.322-1.89-4.212-4.211-4.212h-37.284V369.487z"/>
			</g>
			<g style="opacity:0.4;enable-background:new    ;">
				<path style="fill:#FFFFFF;" d="M342.404,369.487h37.284c3.663,0,6.642,2.979,6.642,6.643c0,3.663-2.979,6.642-6.642,6.642
					h-37.284v-2.431h37.284c2.322,0,4.211-1.89,4.211-4.211c0-2.322-1.89-4.212-4.211-4.212h-37.284V369.487z"/>
			</g>
		</g>
		<g>
			<rect x="374.074" y="383.804" style="fill:#407BFF;" width="47.605" height="11.22"/>
			<rect x="374.074" y="383.804" style="opacity:0.7;fill:#FFFFFF;enable-background:new    ;" width="47.605" height="11.22"/>
			<g>
				<path style="fill:#263238;" d="M424.106,382.772h-37.284c-3.663,0-6.643,2.979-6.643,6.642c0,3.663,2.979,6.643,6.643,6.643
					h37.284v-2.431h-37.284c-2.322,0-4.212-1.89-4.212-4.212c0-2.322,1.89-4.211,4.212-4.211h37.284V382.772z"/>
			</g>
			<g>
				<path style="fill:#263238;" d="M392.483,382.772h-37.284c-3.663,0-6.642,2.979-6.642,6.642c0,3.663,2.979,6.643,6.642,6.643
					h37.284v-2.431h-5.661c-2.322,0-4.211-1.89-4.211-4.212c0-2.322,1.89-4.211,4.211-4.211h5.661V382.772z"/>
			</g>
			<g style="opacity:0.4;enable-background:new    ;">
				<path style="fill:#FFFFFF;" d="M424.106,382.772h-37.284c-3.663,0-6.643,2.979-6.643,6.642c0,3.663,2.979,6.643,6.643,6.643
					h37.284v-2.431h-37.284c-2.322,0-4.212-1.89-4.212-4.212c0-2.322,1.89-4.211,4.212-4.211h37.284V382.772z"/>
			</g>
		</g>
		<g>
			
				<rect x="349.028" y="330.664" transform="matrix(-1 -1.224647e-16 1.224647e-16 -1 745.6598 672.5487)" style="fill:#407BFF;" width="47.605" height="11.22"/>
			
				<rect x="349.028" y="330.664" transform="matrix(-1 -1.224647e-16 1.224647e-16 -1 745.6598 672.5487)" style="opacity:0.7;fill:#FFFFFF;enable-background:new    ;" width="47.605" height="11.22"/>
			<g>
				<path style="fill:#263238;" d="M346.6,342.917h37.284c3.663,0,6.642-2.979,6.642-6.643c0-3.663-2.979-6.643-6.642-6.643H346.6
					v2.431h37.284c2.322,0,4.211,1.89,4.211,4.212c0,2.322-1.89,4.212-4.211,4.212H346.6V342.917z"/>
			</g>
			<g>
				<path style="fill:#263238;" d="M378.224,342.917h37.284c3.663,0,6.643-2.979,6.643-6.643c0-3.663-2.979-6.643-6.643-6.643
					h-37.284v2.431h5.661c2.322,0,4.211,1.89,4.211,4.212c0,2.322-1.89,4.212-4.211,4.212h-5.661V342.917z"/>
			</g>
			<g style="opacity:0.4;enable-background:new    ;">
				<path style="fill:#FFFFFF;" d="M346.6,342.917h37.284c3.663,0,6.642-2.979,6.642-6.643c0-3.663-2.979-6.643-6.642-6.643H346.6
					v2.431h37.284c2.322,0,4.211,1.89,4.211,4.212c0,2.322-1.89,4.212-4.211,4.212H346.6V342.917z"/>
			</g>
		</g>
		<g style="opacity:0.2;">
			<polygon points="344.831,372.988 379.385,373.363 344.831,373.738 			"/>
			<polygon points="344.831,374.832 367.81,375.207 344.831,375.582 			"/>
			<polygon points="344.831,376.676 382.606,377.051 344.831,377.426 			"/>
			<polygon points="344.831,378.52 377.427,378.895 344.831,379.27 			"/>
		</g>
		<g style="opacity:0.2;">
			<polygon points="354.609,359.703 389.162,360.078 354.609,360.453 			"/>
			<polygon points="354.609,361.547 377.587,361.922 354.609,362.297 			"/>
			<polygon points="354.609,363.391 392.383,363.766 354.609,364.141 			"/>
			<polygon points="354.609,365.235 387.204,365.61 354.609,365.985 			"/>
		</g>
		<g style="opacity:0.2;">
			<polygon points="348.923,333.133 383.476,333.508 348.923,333.883 			"/>
			<polygon points="348.923,334.977 371.902,335.352 348.923,335.727 			"/>
			<polygon points="348.923,336.821 386.698,337.196 348.923,337.571 			"/>
			<polygon points="348.923,338.665 381.518,339.04 348.923,339.415 			"/>
		</g>
		<g style="opacity:0.2;">
			<polygon points="421.579,392.599 387.026,392.224 421.579,391.849 			"/>
			<polygon points="421.579,390.755 398.601,390.38 421.579,390.005 			"/>
			<polygon points="421.579,388.911 383.805,388.536 421.579,388.161 			"/>
			<polygon points="421.579,387.067 388.984,386.692 421.579,386.317 			"/>
		</g>
		<g style="opacity:0.2;">
			<polygon points="422.877,352.7 388.324,352.325 422.877,351.95 			"/>
			<polygon points="422.877,350.856 399.899,350.481 422.877,350.106 			"/>
			<polygon points="422.877,349.012 385.103,348.637 422.877,348.262 			"/>
			<polygon points="422.877,347.168 390.282,346.793 422.877,346.418 			"/>
		</g>
	</g>
</g>
<g id="Book_1">
	<g>
		<g>
			<path style="fill:#407BFF;" d="M351.055,389.079c0,0-13.793-6.925-21.402-7.126l-0.001-0.002h-0.048
				c-0.157-0.004-0.309-0.002-0.461,0h-71.285l4.405,13.755l30.779-1.064l56.757-0.835L351.055,389.079z"/>
			<path style="opacity:0.7;fill:#FFFFFF;enable-background:new    ;" d="M351.055,389.079c0,0-13.793-6.925-21.402-7.126
				l-0.001-0.002h-0.048c-0.157-0.004-0.309-0.002-0.461,0h-71.285l4.405,13.755l30.779-1.064l56.757-0.835L351.055,389.079z"/>
			<path style="fill:#407BFF;" d="M238.501,389.765c0,0,8.086-6.738,17.887-7.719c9.801-0.98,13.232,6.723,13.232,6.723
				s4.656-6.405,12.007-6.809c7.351-0.404,22.328,7.119,22.328,7.119l-1.255,4.729l-63.463,0.933L238.501,389.765z"/>
			<path style="opacity:0.6;fill:#FFFFFF;enable-background:new    ;" d="M238.501,389.765c0,0,8.086-6.738,17.887-7.719
				c9.801-0.98,13.232,6.723,13.232,6.723s4.656-6.405,12.007-6.809c7.351-0.404,22.328,7.119,22.328,7.119l-1.255,4.729
				l-63.463,0.933L238.501,389.765z"/>
			<polygon style="opacity:0.2;" points="351.058,389.081 350.81,390.01 350.649,390.604 349.794,393.813 302.697,393.813 
				303.241,391.757 303.415,391.137 303.96,389.081 			"/>
			<g style="opacity:0.2;">
				<path d="M302.699,389.642c-2.73-1.205-5.526-2.255-8.366-3.147c-2.83-0.911-5.736-1.642-8.677-1.9
					c-2.937-0.233-5.86,0.536-8.539,1.766c-2.682,1.224-5.208,2.847-7.471,4.718l-0.235,0.194l-0.202-0.23
					c-1.782-2.027-3.952-3.792-6.364-5.028c-1.21-0.611-2.495-1.078-3.824-1.321c-1.334-0.235-2.686-0.17-4.033,0.043
					c-2.691,0.471-5.298,1.415-7.829,2.487c-2.54,1.063-5.023,2.279-7.432,3.625c2.362-1.43,4.802-2.734,7.315-3.892
					c2.518-1.142,5.123-2.135,7.867-2.676c1.369-0.241,2.806-0.356,4.203-0.109c1.391,0.245,2.729,0.722,3.984,1.346
					c2.508,1.269,4.713,3.035,6.586,5.136l-0.436-0.035c2.325-1.939,4.892-3.534,7.641-4.777c2.733-1.225,5.77-2.042,8.811-1.732
					c3.003,0.323,5.909,1.119,8.735,2.09C297.251,387.193,300.012,388.344,302.699,389.642z"/>
			</g>
			<g style="opacity:0.2;">
				<path d="M240.216,391.443c2.318-1.075,4.714-1.988,7.164-2.739c2.453-0.737,4.971-1.295,7.544-1.496
					c2.575-0.228,5.185,0.083,7.673,0.763c2.492,0.693,4.877,1.732,7.032,3.229l-0.316-0.033c2.531-1.165,5.142-2.104,7.825-2.829
					c2.672-0.715,5.473-1.202,8.265-0.97c2.775,0.217,5.496,0.74,8.194,1.333c2.692,0.626,5.359,1.343,7.999,2.148
					c-2.668-0.705-5.359-1.316-8.064-1.842c-2.701-0.534-5.425-0.995-8.159-1.15c-2.728-0.163-5.446,0.297-8.086,1.032
					c-2.641,0.724-5.224,1.704-7.712,2.829l-0.164,0.074l-0.152-0.107c-2.033-1.434-4.392-2.492-6.812-3.178
					c-2.428-0.681-4.971-0.994-7.494-0.839c-2.53,0.139-5.037,0.65-7.495,1.314C244.996,389.637,242.572,390.457,240.216,391.443z"
					/>
			</g>
			<g style="opacity:0.2;">
				<path d="M243.401,391.443c4.268-0.999,8.676-1.407,13.069-1.333c2.198,0.021,4.398,0.178,6.576,0.491
					c2.186,0.268,4.339,0.752,6.477,1.281l-0.133-0.006c2.453-0.434,4.917-0.717,7.387-0.974c2.47-0.241,4.947-0.43,7.428-0.513
					c2.482-0.063,4.966-0.048,7.445,0.081c2.477,0.175,4.945,0.474,7.372,0.971c-4.899-0.772-9.865-0.791-14.797-0.556
					c-4.934,0.255-9.862,0.785-14.729,1.585l-0.067,0.011l-0.066-0.017c-2.108-0.539-4.232-1.036-6.394-1.318
					c-2.155-0.321-4.331-0.498-6.511-0.585c-2.18-0.094-4.367-0.049-6.547,0.094C247.731,390.79,245.551,391.023,243.401,391.443z"
					/>
			</g>
			<g style="opacity:0.2;">
				<polygon points="350.81,390.01 350.649,390.604 305.521,390.307 				"/>
			</g>
			<g style="opacity:0.2;">
				<polygon points="346.437,391.447 303.241,391.757 303.415,391.137 				"/>
			</g>
			<path style="fill:#263238;" d="M267.659,392.95c0,0,0.245-3.829,1.96-4.181c1.715-0.352,1.608,4.181,1.608,4.181H267.659z"/>
		</g>
		<rect x="235.54" y="392.174" style="fill:#263238;" width="117.635" height="3.719"/>
		<rect x="235.54" y="392.174" style="opacity:0.2;fill:#FFFFFF;" width="117.635" height="3.719"/>
		<rect x="306.129" y="392.174" style="opacity:0.2;" width="47.046" height="3.719"/>
	</g>
</g>
<g id="Paper_balls">
	<g>
		<path style="fill:#407BFF;" d="M340.046,399.577l-2.991-8.115l2.991-6.546h5.808l5.639-6.773c0,0,6.358,0,7.836,0
			c1.478,0,7.998,4.773,7.998,4.773s-0.517,4.744,0,5.307c0.517,0.564,3.332,3.239,3.332,3.239l-2.344,1.987v4.54l-0.988,1.813
			l-7.998-0.499c0,0-1.306-0.567-3.345,0c-2.039,0.567-3.556,3.322-4.997,2.648C349.546,401.278,340.046,399.577,340.046,399.577z"
			/>
		<path style="opacity:0.7;fill:#FFFFFF;enable-background:new    ;" d="M370.659,391.469l-2.343,1.985v4.534l-0.992,1.819
			l-7.994-0.51c0,0-1.309-0.565-3.349,0c-2.04,0.579-3.555,3.335-4.989,2.66c-1.447-0.675-10.943-2.384-10.943-2.384l-2.991-8.104
			l2.991-6.546h5.802l5.637-6.781c0,0,6.367,0,7.842,0c1.475,0,7.994,4.768,7.994,4.768s-0.414,3.9-0.11,5.044
			c0.028,0.124,0.069,0.207,0.11,0.262C367.848,388.781,370.659,391.469,370.659,391.469z"/>
		<path style="opacity:0.4;fill:#FFFFFF;enable-background:new    ;" d="M367.214,387.954l-2.274-5.044l-4.217,6.533l-2.991-1.364
			v-6.147l-6.16,2.371l0.882,5.141l-1.847,4.011l-7.304-6.56l-1.764,4.713l-4.479-0.138l2.991-6.546h5.802l5.637-6.781
			c0,0,6.367,0,7.842,0c1.475,0,7.994,4.768,7.994,4.768S366.91,386.811,367.214,387.954z"/>
		<path style="opacity:0.1;" d="M340.05,399.572l3.632-0.875v-8.05l7.096,6.008l3.988-9.242l2.17,3.602l4.752,0.453l2.989-3.092
			l1.583,1.578l-1.701,3.068l1.701,1.218l2.056-0.787l-2.349,1.584l-1.994-1.161l-2.285-1.588l-5.397-0.82l-1.859,2.535l1.683,1.645
			l-0.176-2.626l4.047,4.854l1.703-2.839l-2.7-0.517l3.284-0.068l0.411,0.903l-2.404,3.024c0,0-4.164-1.713-3.929-1.724
			c0.234-0.01-4.158,3.919-4.158,3.919l-5.401-1.877l-0.059-4.398l-2.17,5.02l-4.512,0.483"/>
	</g>
	<g>
		<path style="fill:#407BFF;" d="M221.415,392.224l-0.004,0.031c0,0-0.066,0.042-0.196,0.109c-0.13,0.068-0.295,0.171-0.526,0.316
			c-0.08,0.036-0.193,0.093-0.295,0.171c-0.198,0.124-0.429,0.27-0.677,0.425c-0.097,0.047-0.196,0.109-0.297,0.186l-0.66,0.415
			c-0.559,0.337-1.17,0.721-1.752,1.115c-0.115,0.073-0.245,0.14-0.363,0.228c-0.231,0.145-0.464,0.306-0.681,0.456
			c-0.116,0.072-0.231,0.145-0.346,0.218c-1.096,0.731-1.984,1.374-2.272,1.711c-0.075,0.104-0.174,0.166-0.271,0.212
			c-0.047,0.016-0.111,0.042-0.171,0.036l-0.002,0.016l-0.014-0.005c-0.017,0.01-0.031,0.005-0.045,0
			c-0.093,0.016-0.183,0.016-0.287,0.01c-0.49-0.047-1.096-0.347-1.744-0.663c-0.847-0.404-1.763-0.85-2.605-0.86
			c-1.897,0.001-2.748,0.918-2.748,0.918l-6.369,2.696l-1.518-1.529l-1.766-4.494l-2.692-1.316c0,0,0.314-0.85,0.659-1.804
			c0.092-0.228,0.172-0.477,0.264-0.705c0.032-0.119,0.078-0.233,0.126-0.363c0.122-0.332,0.225-0.638,0.302-0.871
			c0.055-0.176,0.103-0.306,0.13-0.394c0.004-0.031,0.011-0.078,0.001-0.114c0.007-0.047-0.013-0.119-0.019-0.186
			c-0.067-0.384-0.284-0.985-0.564-1.674c-0.28-0.689-0.613-1.431-0.889-2.037c-0.079-0.192-0.174-0.373-0.257-0.534
			c-0.01-0.036-0.02-0.073-0.046-0.099c-0.127-0.275-0.22-0.472-0.269-0.555c-0.012-0.021-0.024-0.042-0.024-0.042l0.014,0.005
			l0.002-0.016c0.206-0.399,3.518-6.537,4.7-6.91c1.202-0.415,6.445-2.162,6.445-2.162l1.643,1.166l5.615,3.991l4.769-1.592
			l4.991,5.66L221.415,392.224z"/>
		<path style="opacity:0.7;fill:#FFFFFF;enable-background:new    ;" d="M221.399,392.235c0,0-0.066,0.042-0.184,0.13
			c-0.13,0.068-0.295,0.171-0.526,0.316c-0.08,0.036-0.193,0.093-0.295,0.171c-0.198,0.124-0.429,0.27-0.677,0.425
			c-0.097,0.047-0.196,0.109-0.297,0.186c-0.212,0.119-0.427,0.254-0.66,0.415c-0.559,0.337-1.17,0.721-1.752,1.115
			c-0.115,0.073-0.245,0.14-0.363,0.228c-0.231,0.145-0.464,0.306-0.681,0.456c-0.116,0.072-0.231,0.145-0.346,0.218
			c-1.096,0.731-1.984,1.374-2.272,1.711c-0.075,0.104-0.174,0.166-0.271,0.212c-0.047,0.016-0.111,0.042-0.171,0.036l-0.002,0.016
			l-0.014-0.005c-0.017,0.01-0.031,0.005-0.045,0c-0.093,0.016-0.183,0.016-0.287,0.01c-0.49-0.047-1.096-0.347-1.744-0.663
			c-0.847-0.404-1.763-0.85-2.605-0.86c-1.897,0.001-2.748,0.918-2.748,0.918l-6.369,2.696l-1.518-1.529l-1.766-4.494l-2.692-1.316
			c0,0,0.314-0.85,0.659-1.804c0.092-0.228,0.172-0.477,0.264-0.705c0.032-0.119,0.078-0.233,0.126-0.363
			c0.107-0.337,0.225-0.638,0.302-0.871c0.055-0.176,0.103-0.306,0.13-0.394c0.004-0.031,0.011-0.078,0.001-0.114
			c0.007-0.047-0.013-0.119-0.019-0.186c-0.067-0.384-0.284-0.985-0.564-1.674c-0.28-0.689-0.613-1.431-0.889-2.037
			c-0.079-0.192-0.174-0.373-0.257-0.534c-0.01-0.036-0.02-0.073-0.046-0.099c-0.127-0.275-0.22-0.472-0.269-0.555
			c0.002-0.016,0.002-0.016-0.01-0.036l-0.014-0.005l0.002-0.015l0.014,0.005c0.206-0.399,3.518-6.537,4.7-6.91
			c1.202-0.415,6.445-2.162,6.445-2.162l1.643,1.166l5.613,4.006l4.77-1.592l4.993,5.644L221.399,392.235z"/>
		<path style="opacity:0.4;fill:#FFFFFF;enable-background:new    ;" d="M221.415,392.224c-0.016,0.01-0.016,0.01-0.016,0.01
			l-4.67-0.626l2.113-8.221l-4.67,1.203l-2.497-4.219l-4.758-1.72l4.331,5.421l-2.806,3.592l-9.362-7.992l1.827,6.215l-8.362-2.647
			c0.206-0.399,3.518-6.537,4.7-6.91c1.202-0.415,6.445-2.162,6.445-2.162l1.643,1.166l5.615,3.991l4.769-1.592l4.991,5.66
			L221.415,392.224z"/>
		<path style="opacity:0.1;" d="M208.206,396.352c-1.897,0.001-2.748,0.918-2.748,0.918l-6.369,2.696l-1.518-1.529l-1.766-4.494
			l-2.692-1.316c0,0,0.314-0.85,0.659-1.804c0.092-0.228,0.172-0.477,0.264-0.705c0.032-0.119,0.078-0.233,0.126-0.363
			c0.107-0.337,0.225-0.638,0.302-0.871c0.055-0.176,0.103-0.306,0.13-0.394l9.5,1.082l-0.265-2.628l5.023,3.923l-5.118,1.286
			l0.204,2.312l3.361-0.026L208.206,396.352z"/>
		<path style="opacity:0.1;" d="M212.843,397.865c-0.093,0.016-0.183,0.016-0.287,0.01c-0.49-0.047-1.096-0.347-1.744-0.663
			c-0.847-0.404-1.763-0.85-2.605-0.86l4.568-2.955l-0.75-4.437l3.682-0.384c0,0-1.598,4.65-1.328,4.764
			C214.637,393.433,212.585,397.772,212.843,397.865z"/>
	</g>
	<g>
		<path style="fill:#407BFF;" d="M170.205,389.219l-0.009,0.018c0,0,0.02,0.045,0.064,0.126c0.044,0.081,0.094,0.194,0.164,0.352
			c0.029,0.047,0.068,0.117,0.094,0.194c0.06,0.135,0.13,0.293,0.204,0.462c0.034,0.059,0.064,0.126,0.09,0.203l0.199,0.451
			c0.174,0.374,0.358,0.791,0.524,1.203c0.035,0.079,0.079,0.16,0.11,0.248c0.07,0.158,0.135,0.324,0.195,0.48
			c0.035,0.079,0.07,0.158,0.105,0.237c0.316,0.771,0.554,1.421,0.586,1.7c0.002,0.081,0.032,0.148,0.066,0.207
			c0.019,0.025,0.044,0.061,0.077,0.079l-0.004,0.009l0.009,0.002c0.005,0.011,0.014,0.014,0.024,0.016
			c0.043,0.041,0.09,0.073,0.147,0.107c0.273,0.149,0.697,0.205,1.148,0.269c0.587,0.088,1.224,0.178,1.669,0.47
			c0.994,0.671,1.115,1.452,1.115,1.452l2.384,3.664l1.336-0.264l2.514-1.73l1.875,0.262c0,0,0.136-0.557,0.293-1.178
			c0.032-0.152,0.079-0.311,0.111-0.463c0.025-0.073,0.042-0.15,0.062-0.235c0.053-0.217,0.108-0.414,0.149-0.563
			c0.034-0.112,0.054-0.197,0.071-0.252c0.009-0.018,0.022-0.045,0.04-0.06c0.013-0.027,0.049-0.058,0.076-0.091
			c0.171-0.177,0.497-0.415,0.887-0.677c0.391-0.262,0.827-0.533,1.186-0.753c0.109-0.073,0.223-0.134,0.323-0.189
			c0.018-0.015,0.036-0.031,0.059-0.035c0.164-0.099,0.282-0.169,0.337-0.195c0.014-0.007,0.027-0.013,0.027-0.013l-0.009-0.002
			l0.004-0.009c0.033-0.282,0.468-4.669-0.019-5.282c-0.483-0.642-2.612-3.412-2.612-3.412l-1.273,0.03l-4.353,0.106l-1.936-2.52
			l-4.616,1.201L170.205,389.219z"/>
		<path style="opacity:0.7;fill:#FFFFFF;enable-background:new    ;" d="M170.21,389.23c0,0,0.02,0.045,0.05,0.133
			c0.044,0.081,0.094,0.194,0.164,0.352c0.029,0.047,0.068,0.117,0.094,0.194c0.06,0.135,0.13,0.293,0.204,0.462
			c0.034,0.059,0.064,0.126,0.09,0.203c0.069,0.138,0.134,0.284,0.199,0.451c0.174,0.374,0.358,0.791,0.524,1.203
			c0.035,0.079,0.079,0.16,0.11,0.248c0.07,0.158,0.135,0.324,0.195,0.48c0.035,0.079,0.07,0.158,0.105,0.237
			c0.316,0.771,0.554,1.421,0.586,1.7c0.002,0.081,0.032,0.148,0.066,0.207c0.019,0.025,0.044,0.061,0.077,0.079l-0.004,0.009
			l0.009,0.002c0.005,0.011,0.014,0.014,0.024,0.016c0.043,0.041,0.09,0.073,0.147,0.107c0.273,0.149,0.697,0.205,1.148,0.269
			c0.587,0.088,1.224,0.178,1.669,0.47c0.994,0.671,1.115,1.452,1.115,1.452l2.384,3.664l1.336-0.264l2.514-1.73l1.875,0.262
			c0,0,0.136-0.557,0.293-1.178c0.032-0.152,0.079-0.311,0.111-0.463c0.025-0.073,0.042-0.15,0.062-0.235
			c0.063-0.214,0.108-0.414,0.149-0.563c0.034-0.112,0.054-0.197,0.071-0.252c0.009-0.018,0.022-0.045,0.04-0.06
			c0.013-0.027,0.049-0.058,0.076-0.091c0.171-0.177,0.497-0.415,0.887-0.677c0.391-0.262,0.827-0.533,1.186-0.753
			c0.109-0.073,0.223-0.134,0.323-0.189c0.018-0.015,0.036-0.031,0.059-0.035c0.164-0.099,0.282-0.169,0.337-0.195
			c0.005-0.009,0.005-0.009,0.018-0.016l0.009,0.002l0.004-0.009l-0.009-0.002c0.033-0.282,0.468-4.669-0.019-5.282
			c-0.483-0.642-2.612-3.412-2.612-3.412l-1.273,0.03l-4.357,0.114l-1.936-2.52l-4.611,1.192L170.21,389.23z"/>
		<path style="opacity:0.4;fill:#FFFFFF;enable-background:new    ;" d="M170.205,389.219c0.005,0.011,0.005,0.011,0.005,0.011
			l2.668,1.323l1.799-5.054l2.021,2.281l2.8-1.328l3.101,0.781l-4.186,1.309l0.2,2.874l7.73-0.877l-3.154,2.61l5.317,1.569
			c0.033-0.282,0.468-4.669-0.019-5.282c-0.483-0.642-2.612-3.412-2.612-3.412l-1.273,0.03l-4.353,0.106l-1.936-2.52l-4.616,1.201
			L170.205,389.219z"/>
		<path style="opacity:0.1;" d="M175.666,396.051c0.994,0.671,1.115,1.452,1.115,1.452l2.384,3.664l1.336-0.264l2.514-1.73
			l1.875,0.262c0,0,0.136-0.557,0.293-1.178c0.032-0.152,0.079-0.311,0.111-0.463c0.025-0.073,0.042-0.15,0.062-0.235
			c0.063-0.214,0.108-0.414,0.149-0.563c0.034-0.112,0.054-0.197,0.071-0.252l-5.359-2.792l1.068-1.283l-4.018,0.28l2.227,2.483
			l-0.924,1.139l-1.752-1.202L175.666,396.051z"/>
		<path style="opacity:0.1;" d="M172.702,395.205c0.043,0.041,0.09,0.073,0.147,0.107c0.273,0.149,0.697,0.205,1.148,0.269
			c0.587,0.088,1.224,0.178,1.669,0.47l-1.349-3.163l1.962-2.06l-1.793-1.503c0,0-0.807,3.001-0.988,2.966
			C173.329,392.248,172.87,395.247,172.702,395.205z"/>
	</g>
</g>
</svg>
