<?xml version="1.0" encoding="utf-8"?>
<!-- Generator: Adobe Illustrator 27.5.0, SVG Export Plug-In . SVG Version: 6.00 Build 0)  -->
<svg version="1.1" xmlns="http://www.w3.org/2000/svg" xmlns:xlink="http://www.w3.org/1999/xlink" x="0px" y="0px"
	 viewBox="0 0 500 500" style="enable-background:new 0 0 500 500;" xml:space="preserve">
<g id="Background_Complete">
	<g>
		<rect y="382.398" style="fill:#EBEBEB;" width="500" height="0.25"/>
		<rect x="416.779" y="398.494" style="fill:#EBEBEB;" width="33.122" height="0.25"/>
		<rect x="322.527" y="401.208" style="fill:#EBEBEB;" width="8.693" height="0.25"/>
		<rect x="396.586" y="389.208" style="fill:#EBEBEB;" width="19.192" height="0.25"/>
		<rect x="52.459" y="390.888" style="fill:#EBEBEB;" width="43.193" height="0.25"/>
		<rect x="104.556" y="390.888" style="fill:#EBEBEB;" width="6.333" height="0.25"/>
		<rect x="131.471" y="395.111" style="fill:#EBEBEB;" width="93.676" height="0.25"/>
		<path style="fill:#EBEBEB;" d="M237.014,337.8H43.915c-3.147,0-5.708-2.561-5.708-5.708V60.66c0-3.147,2.561-5.708,5.708-5.708
			h193.099c3.146,0,5.707,2.561,5.707,5.708v271.432C242.721,335.239,240.16,337.8,237.014,337.8z M43.915,55.203
			c-3.01,0-5.458,2.448-5.458,5.458v271.432c0,3.01,2.448,5.458,5.458,5.458h193.099c3.009,0,5.457-2.448,5.457-5.458V60.66
			c0-3.009-2.448-5.458-5.457-5.458H43.915z"/>
		<path style="fill:#EBEBEB;" d="M453.31,337.8H260.212c-3.147,0-5.707-2.561-5.707-5.708V60.66c0-3.147,2.561-5.708,5.707-5.708
			H453.31c3.148,0,5.708,2.561,5.708,5.708v271.432C459.019,335.239,456.458,337.8,453.31,337.8z M260.212,55.203
			c-3.009,0-5.457,2.448-5.457,5.458v271.432c0,3.01,2.448,5.458,5.457,5.458H453.31c3.01,0,5.458-2.448,5.458-5.458V60.66
			c0-3.009-2.448-5.458-5.458-5.458H260.212z"/>
	</g>
	<g>
		
			<rect x="92.44" y="206.047" transform="matrix(0.9374 -0.3482 0.3482 0.9374 -69.8454 50.6715)" style="fill:#E0E0E0;" width="27.247" height="27.247"/>
		
			<rect x="265.075" y="109.457" transform="matrix(0.9871 -0.1602 0.1602 0.9871 -18.1105 45.9796)" style="fill:#E0E0E0;" width="22.127" height="51.73"/>
		
			<rect x="79.954" y="303.071" transform="matrix(0.8163 -0.5777 0.5777 0.8163 -165.3125 106.1221)" style="fill:#F0F0F0;" width="8.454" height="19.763"/>
		<polygon style="fill:#E0E0E0;" points="398.711,302.487 398.711,341.17 365.21,321.828 		"/>
		<polygon style="fill:#F0F0F0;" points="192.082,130.981 174.579,150.443 166.475,125.554 		"/>
		<polygon style="fill:#E0E0E0;" points="393.507,186.868 361.024,201.355 356.17,176.784 378.47,166.838 		"/>
		
			<ellipse transform="matrix(0.2298 -0.9732 0.9732 0.2298 -226.4913 400.6956)" style="fill:#E0E0E0;" cx="139.905" cy="343.44" rx="19.137" ry="19.137"/>
		
			<ellipse transform="matrix(0.2298 -0.9732 0.9732 0.2298 -94.9658 558.3295)" style="fill:#F0F0F0;" cx="305.257" cy="339.162" rx="10.493" ry="10.493"/>
		
			<ellipse transform="matrix(0.2298 -0.9732 0.9732 0.2298 77.34 590.6198)" style="fill:#F0F0F0;" cx="411.81" cy="246.448" rx="10.493" ry="10.493"/>
		<g>
			<g>
				
					<line style="fill:none;stroke:#E0E0E0;stroke-linecap:round;stroke-linejoin:round;" x1="104.07" y1="210.165" x2="104.07" y2="204.165"/>
				
					<line style="fill:none;stroke:#E0E0E0;stroke-linecap:round;stroke-linejoin:round;stroke-dasharray:10.3149,2.063,20.6297,12.3778,5.1574,10.3149;" x1="104.07" y1="199.008" x2="104.07" y2="125.772"/>
				
					<line style="fill:none;stroke:#E0E0E0;stroke-linecap:round;stroke-linejoin:round;" x1="104.07" y1="115.457" x2="104.07" y2="109.457"/>
			</g>
		</g>
		<g>
			<g>
				
					<line style="fill:none;stroke:#E0E0E0;stroke-linecap:round;stroke-linejoin:round;" x1="111.68" y1="219.648" x2="111.68" y2="213.648"/>
				
					<line style="fill:none;stroke:#E0E0E0;stroke-linecap:round;stroke-linejoin:round;stroke-dasharray:9.152,1.8304,18.304,10.9824,4.576,9.152;" x1="111.68" y1="209.072" x2="111.68" y2="144.093"/>
				
					<line style="fill:none;stroke:#E0E0E0;stroke-linecap:round;stroke-linejoin:round;" x1="111.68" y1="134.941" x2="111.68" y2="128.941"/>
			</g>
		</g>
		<g>
			<g>
				
					<line style="fill:none;stroke:#E0E0E0;stroke-linecap:round;stroke-linejoin:round;" x1="139.904" y1="330.615" x2="139.904" y2="324.615"/>
				
					<line style="fill:none;stroke:#E0E0E0;stroke-linecap:round;stroke-linejoin:round;stroke-dasharray:5.3646,1.0729,10.7292,6.4375,2.6823,5.3646;" x1="139.904" y1="321.932" x2="139.904" y2="283.844"/>
				
					<line style="fill:none;stroke:#E0E0E0;stroke-linecap:round;stroke-linejoin:round;stroke-dasharray:6.4375,2.6823,5.3646,1.0729,10.7292,6.4375;" x1="139.904" y1="278.479" x2="139.904" y2="231.271"/>
				
					<line style="fill:none;stroke:#E0E0E0;stroke-linecap:round;stroke-linejoin:round;" x1="139.904" y1="225.906" x2="139.904" y2="219.906"/>
			</g>
		</g>
		<g>
			<g>
				
					<line style="fill:none;stroke:#E0E0E0;stroke-linecap:round;stroke-linejoin:round;" x1="133.974" y1="340.172" x2="133.974" y2="334.172"/>
				
					<line style="fill:none;stroke:#E0E0E0;stroke-linecap:round;stroke-linejoin:round;stroke-dasharray:9.152,1.8304,18.304,10.9824,4.576,9.152;" x1="133.974" y1="329.596" x2="133.974" y2="264.617"/>
				
					<line style="fill:none;stroke:#E0E0E0;stroke-linecap:round;stroke-linejoin:round;" x1="133.974" y1="255.465" x2="133.974" y2="249.465"/>
			</g>
		</g>
		<g>
			<g>
				
					<line style="fill:none;stroke:#E0E0E0;stroke-linecap:round;stroke-linejoin:round;" x1="396.473" y1="313.933" x2="396.473" y2="307.933"/>
				
					<line style="fill:none;stroke:#E0E0E0;stroke-linecap:round;stroke-linejoin:round;stroke-dasharray:5.3646,1.0729,10.7292,6.4375,2.6823,5.3646;" x1="396.473" y1="305.251" x2="396.473" y2="267.162"/>
				
					<line style="fill:none;stroke:#E0E0E0;stroke-linecap:round;stroke-linejoin:round;stroke-dasharray:6.4375,2.6823,5.3646,1.0729,10.7292,6.4375;" x1="396.473" y1="261.797" x2="396.473" y2="214.589"/>
				
					<line style="fill:none;stroke:#E0E0E0;stroke-linecap:round;stroke-linejoin:round;" x1="396.473" y1="209.224" x2="396.473" y2="203.224"/>
			</g>
		</g>
		<g>
			<g>
				
					<line style="fill:none;stroke:#E0E0E0;stroke-linecap:round;stroke-linejoin:round;" x1="390.542" y1="323.491" x2="390.542" y2="317.491"/>
				
					<line style="fill:none;stroke:#E0E0E0;stroke-linecap:round;stroke-linejoin:round;stroke-dasharray:9.152,1.8304,18.304,10.9824,4.576,9.152;" x1="390.542" y1="312.915" x2="390.542" y2="247.936"/>
				
					<line style="fill:none;stroke:#E0E0E0;stroke-linecap:round;stroke-linejoin:round;" x1="390.542" y1="238.783" x2="390.542" y2="232.783"/>
			</g>
		</g>
		<g>
			<g>
				
					<line style="fill:none;stroke:#E0E0E0;stroke-linecap:round;stroke-linejoin:round;" x1="362.234" y1="187.621" x2="362.234" y2="181.621"/>
				
					<line style="fill:none;stroke:#E0E0E0;stroke-linecap:round;stroke-linejoin:round;stroke-dasharray:9.152,1.8304,18.304,10.9824,4.576,9.152;" x1="362.234" y1="177.045" x2="362.234" y2="112.066"/>
				
					<line style="fill:none;stroke:#E0E0E0;stroke-linecap:round;stroke-linejoin:round;" x1="362.234" y1="102.914" x2="362.234" y2="96.914"/>
			</g>
		</g>
		<g>
			<g>
				
					<line style="fill:none;stroke:#E0E0E0;stroke-linecap:round;stroke-linejoin:round;" x1="371.284" y1="176.026" x2="371.284" y2="170.026"/>
				
					<line style="fill:none;stroke:#E0E0E0;stroke-linecap:round;stroke-linejoin:round;stroke-dasharray:3.3377,0.6675,6.6754,4.0052,1.6688,3.3377;" x1="371.284" y1="168.357" x2="371.284" y2="144.66"/>
				
					<line style="fill:none;stroke:#E0E0E0;stroke-linecap:round;stroke-linejoin:round;" x1="371.284" y1="141.322" x2="371.284" y2="135.322"/>
			</g>
		</g>
		<g>
			<g>
				
					<line style="fill:none;stroke:#E0E0E0;stroke-linecap:round;stroke-linejoin:round;" x1="272.751" y1="135.9" x2="272.751" y2="129.9"/>
				
					<line style="fill:none;stroke:#E0E0E0;stroke-linecap:round;stroke-linejoin:round;stroke-dasharray:3.3377,0.6675,6.6754,4.0052,1.6688,3.3377;" x1="272.751" y1="128.232" x2="272.751" y2="104.534"/>
				
					<line style="fill:none;stroke:#E0E0E0;stroke-linecap:round;stroke-linejoin:round;" x1="272.751" y1="101.196" x2="272.751" y2="95.196"/>
			</g>
		</g>
		<g>
			<g>
				
					<line style="fill:none;stroke:#E0E0E0;stroke-linecap:round;stroke-linejoin:round;" x1="281.666" y1="126.249" x2="281.666" y2="120.249"/>
				
					<line style="fill:none;stroke:#E0E0E0;stroke-linecap:round;stroke-linejoin:round;stroke-dasharray:3.3377,0.6675,6.6754,4.0052,1.6688,3.3377;" x1="281.666" y1="118.58" x2="281.666" y2="94.882"/>
				
					<line style="fill:none;stroke:#E0E0E0;stroke-linecap:round;stroke-linejoin:round;" x1="281.666" y1="91.545" x2="281.666" y2="85.545"/>
			</g>
		</g>
	</g>
</g>
<g id="Background_Simple" style="display:none;">
	<g style="display:inline;">
		<path style="fill:#407BFF;" d="M97.725,137.963c26.731-56.92,121.653-48.889,158.283-8.862s48.539,65.68,81.583,50.729
			c33.044-14.952,75.177-10.953,77.594,36.541c2.417,47.494-36.3,103.657-97.746,120.27
			c-61.446,16.613-61.431,75.408-142.756,63.545c-44.34-6.468-45.35-54.441-39.088-94.119
			C141.857,266.389,66.725,203.973,97.725,137.963z"/>
		<path style="opacity:0.9;fill:#FFFFFF;" d="M97.725,137.963c26.731-56.92,121.653-48.889,158.283-8.862
			s48.539,65.68,81.583,50.729c33.044-14.952,75.177-10.953,77.594,36.541c2.417,47.494-36.3,103.657-97.746,120.27
			c-61.446,16.613-61.431,75.408-142.756,63.545c-44.34-6.468-45.35-54.441-39.088-94.119
			C141.857,266.389,66.725,203.973,97.725,137.963z"/>
	</g>
</g>
<g id="Shadow_1_">
	<ellipse id="_x3C_Path_x3E__359_" style="fill:#F5F5F5;" cx="250" cy="416.238" rx="193.889" ry="11.323"/>
</g>
<g id="Shapes">
	<g>
		<g>
			<circle style="fill:#407BFF;" cx="398.181" cy="392.608" r="12.051"/>
			<circle style="opacity:0.6;fill:#FFFFFF;" cx="398.181" cy="392.608" r="12.051"/>
			<path style="opacity:0.2;" d="M410.234,392.605c0,6.652-5.394,12.058-12.046,12.058c-6.664,0-12.058-5.407-12.058-12.058
				c0-0.163,0-0.327,0.013-0.49c1.723,4.539,6.111,7.758,11.254,7.758c6.501,0,11.794-5.13,12.046-11.555
				C409.957,389.65,410.234,391.096,410.234,392.605z"/>
		</g>
		<g>
			
				<rect x="349.062" y="395.723" transform="matrix(-0.9932 -0.1165 0.1165 -0.9932 668.2659 850.3818)" style="fill:#407BFF;" width="19.863" height="19.863"/>
			<polygon style="opacity:0.2;" points="350.287,394.633 351.311,411.582 367.7,416.676 347.972,414.361 			"/>
		</g>
		<path style="fill:none;stroke:#263238;stroke-width:0.5;stroke-linecap:round;stroke-linejoin:round;stroke-miterlimit:10;" d="
			M358.993,348.893v44.88c0,0,6.434-10.008,24.582-7.922"/>
		
			<line style="fill:none;stroke:#263238;stroke-width:0.5;stroke-linecap:round;stroke-linejoin:round;stroke-miterlimit:10;" x1="358.993" y1="345.043" x2="358.993" y2="340.277"/>
		
			<line style="fill:none;stroke:#263238;stroke-width:0.5;stroke-linecap:round;stroke-linejoin:round;stroke-miterlimit:10;" x1="358.993" y1="331.255" x2="358.993" y2="328.021"/>
		
			<line style="fill:none;stroke:#263238;stroke-width:0.5;stroke-linecap:round;stroke-linejoin:round;stroke-miterlimit:10;" x1="356.446" y1="393.774" x2="352.702" y2="390.149"/>
		
			<line style="fill:none;stroke:#263238;stroke-width:0.5;stroke-linecap:round;stroke-linejoin:round;stroke-miterlimit:10;" x1="361.723" y1="393.774" x2="366.829" y2="391.961"/>
		
			<line style="fill:none;stroke:#263238;stroke-width:0.5;stroke-linecap:round;stroke-linejoin:round;stroke-miterlimit:10;" x1="364.276" y1="395.094" x2="365.978" y2="395.094"/>
		
			<line style="fill:none;stroke:#263238;stroke-width:0.5;stroke-linecap:round;stroke-linejoin:round;stroke-miterlimit:10;" x1="360.702" y1="389.208" x2="361.723" y2="386.234"/>
		
			<line style="fill:none;stroke:#263238;stroke-width:0.5;stroke-linecap:round;stroke-linejoin:round;stroke-miterlimit:10;" x1="355.595" y1="388.318" x2="356.446" y2="390.149"/>
		<g>
			<polygon style="fill:#263238;" points="111.694,378.875 119.916,416.676 83.069,404.896 			"/>
			<polygon style="opacity:0.2;fill:#FFFFFF;" points="111.694,378.875 119.916,416.676 83.069,404.896 			"/>
			<polygon style="opacity:0.2;" points="111.694,378.875 113.461,410.507 83.069,404.896 119.916,416.676 			"/>
		</g>
		<g>
			<rect x="205.298" y="400.808" style="fill:#263238;" width="42.957" height="15.867"/>
			<rect x="205.298" y="400.808" style="opacity:0.6;fill:#FFFFFF;" width="42.957" height="15.867"/>
			<polygon style="opacity:0.2;" points="205.298,400.808 208.497,414.43 248.255,416.676 205.298,416.676 			"/>
		</g>
		
			<line style="fill:none;stroke:#263238;stroke-width:0.5;stroke-linecap:round;stroke-linejoin:round;stroke-miterlimit:10;" x1="107.722" y1="323.406" x2="107.722" y2="374.149"/>
		
			<line style="fill:none;stroke:#263238;stroke-width:0.5;stroke-linecap:round;stroke-linejoin:round;stroke-miterlimit:10;" x1="107.722" y1="317.213" x2="107.722" y2="309.298"/>
		
			<line style="fill:none;stroke:#263238;stroke-width:0.5;stroke-linecap:round;stroke-linejoin:round;stroke-miterlimit:10;" x1="107.722" y1="298.393" x2="107.722" y2="294.819"/>
		
			<line style="fill:none;stroke:#263238;stroke-width:0.5;stroke-linecap:round;stroke-linejoin:round;stroke-miterlimit:10;" x1="107.722" y1="284.957" x2="107.722" y2="283.366"/>
	</g>
</g>
<g id="Burden">
	<g>
		<g>
			
				<rect x="235.418" y="138.214" transform="matrix(-0.2974 0.9547 -0.9547 -0.2974 501.3228 -5.6589)" style="fill:#407BFF;" width="34.652" height="86.828"/>
			
				<rect x="235.418" y="138.214" transform="matrix(-0.2974 0.9547 -0.9547 -0.2974 501.3228 -5.6589)" style="opacity:0.6;fill:#FFFFFF;" width="34.652" height="86.828"/>
			<polygon style="opacity:0.2;" points="216.447,152.174 209.911,184.382 286.642,206.503 299.346,177.998 289.04,211.082 
				206.141,185.257 			"/>
		</g>
		<g>
			
				<rect x="277.871" y="210.368" transform="matrix(-0.9816 0.1908 -0.1908 -0.9816 621.9355 389.5181)" style="fill:#407BFF;" width="28.679" height="28.679"/>
			<polygon style="opacity:0.6;fill:#FFFFFF;" points="309.025,236.041 283.124,241.083 280.873,241.523 275.68,214.791 
				275.403,213.371 303.556,207.901 			"/>
			<path style="opacity:0.2;" d="M309.025,236.041l-25.902,5.042l-2.251,0.44l-5.193-26.732l-0.276-1.421l0.717,1.685
				c5.595,3.496,9.317,9.682,9.317,16.748c0,1.408-0.151,2.766-0.427,4.087l0.452,1.056L309.025,236.041z"/>
		</g>
		<g>
			
				<rect x="179.516" y="189.456" transform="matrix(-1 -1.224647e-16 1.224647e-16 -1 387.7121 407.5911)" style="fill:#263238;" width="28.679" height="28.679"/>
			
				<rect x="179.516" y="189.456" transform="matrix(-1 -1.224647e-16 1.224647e-16 -1 387.7121 407.5911)" style="opacity:0.2;fill:#FFFFFF;" width="28.679" height="28.679"/>
			<polygon style="opacity:0.2;" points="179.516,218.135 195.241,214.077 201.351,216.826 208.113,207.919 208.196,218.135 			"/>
		</g>
		<g>
			<polygon style="fill:#407BFF;" points="151.136,267.808 214.111,255.694 195.232,216.826 154.249,224.709 			"/>
			<polygon style="opacity:0.6;fill:#FFFFFF;" points="151.136,267.808 214.111,255.694 195.232,216.826 154.249,224.709 			"/>
			<polygon style="opacity:0.2;" points="151.136,267.808 214.111,255.694 158.44,260.354 154.249,224.709 			"/>
		</g>
		
			<ellipse transform="matrix(0.9871 -0.1602 0.1602 0.9871 -23.8178 51.1815)" style="fill:#263238;" cx="305.548" cy="173.322" rx="7.71" ry="7.71"/>
		<polygon style="opacity:0.2;" points="195.241,238.133 214.111,255.694 202.48,231.749 		"/>
		<g>
			
				<rect x="204.886" y="190.888" transform="matrix(-0.92 -0.392 0.392 -0.92 340.791 507.6349)" style="fill:#407BFF;" width="34.652" height="56.288"/>
			
				<rect x="204.886" y="190.888" transform="matrix(-0.92 -0.392 0.392 -0.92 340.791 507.6349)" style="opacity:0.2;" width="34.652" height="56.288"/>
			<polygon style="opacity:0.2;" points="195.241,238.133 223.947,246.258 249.182,199.931 227.12,251.715 			"/>
		</g>
		<g>
			
				<ellipse transform="matrix(0.7071 -0.7071 0.7071 0.7071 -83.6782 249.6286)" style="fill:#263238;" cx="259.489" cy="225.823" rx="19.743" ry="19.743"/>
			
				<ellipse transform="matrix(0.7071 -0.7071 0.7071 0.7071 -83.6782 249.6286)" style="opacity:0.6;fill:#FFFFFF;" cx="259.489" cy="225.823" rx="19.743" ry="19.743"/>
			<path style="opacity:0.2;" d="M279.224,226.171c-0.176,10.738-8.94,19.389-19.741,19.389c-10.901,0-19.741-8.839-19.741-19.741
				c0-1.949,0.276-3.822,0.817-5.608c-0.013,0.138-0.013,0.264-0.013,0.402c0,10.902,8.84,19.741,19.741,19.741
				C269.253,240.355,276.835,234.369,279.224,226.171z"/>
		</g>
		<g>
			<polygon style="fill:#263238;" points="190.569,156.252 209.911,189.753 171.227,189.753 			"/>
			<polygon style="opacity:0.6;fill:#FFFFFF;" points="190.569,156.252 209.911,189.753 171.227,189.753 			"/>
			<path style="opacity:0.2;" d="M190.569,156.252c0,0-3.146,16.515,9.035,19.112l3.932,11.907l-32.309,2.482h38.684
				L190.569,156.252z"/>
		</g>
		<g>
			<circle style="fill:#407BFF;" cx="203.536" cy="155.293" r="11.645"/>
			<path style="opacity:0.2;" d="M215.185,155.292c0,6.438-5.218,11.643-11.643,11.643c-6.438,0-11.656-5.206-11.656-11.643
				c0-0.126,0-0.251,0.012-0.377c1.936,3.709,5.835,6.249,10.311,6.249c6.312,0,11.442-5.004,11.643-11.266
				C214.708,151.508,215.185,153.344,215.185,155.292z"/>
		</g>
		
			<ellipse transform="matrix(0.9871 -0.1602 0.1602 0.9871 -23.8178 51.1815)" style="opacity:0.2;fill:#FFFFFF;" cx="305.548" cy="173.322" rx="7.71" ry="7.71"/>
		<path style="opacity:0.2;" d="M313.261,173.323c0,4.263-3.458,7.708-7.708,7.708c-3.156,0-5.872-1.886-7.067-4.602
			c1.383,1.333,3.269,2.163,5.344,2.163c4.263,0,7.708-3.458,7.708-7.72c0-1.107-0.226-2.163-0.666-3.106
			C312.344,169.161,313.261,171.135,313.261,173.323z"/>
		<g>
			<polygon style="fill:#407BFF;" points="313.618,175.294 328.565,210.974 290.192,206.078 			"/>
			<polygon style="opacity:0.2;" points="313.618,175.294 321.097,206.079 290.192,206.078 328.565,210.974 			"/>
		</g>
		<g>
			<circle style="fill:#407BFF;" cx="317.279" cy="221.609" r="12.051"/>
			<circle style="opacity:0.2;" cx="317.279" cy="221.609" r="12.051"/>
			<path style="opacity:0.2;" d="M329.331,221.607c0,6.652-5.394,12.058-12.046,12.058c-6.664,0-12.059-5.407-12.059-12.058
				c0-0.163,0-0.327,0.013-0.49c1.723,4.539,6.111,7.758,11.254,7.758c6.501,0,11.794-5.13,12.046-11.555
				C329.054,218.652,329.331,220.098,329.331,221.607z"/>
		</g>
		<g>
			
				<rect x="328.839" y="209.1" transform="matrix(-0.9623 0.2721 -0.2721 -0.9623 724.3583 337.6148)" style="fill:#263238;" width="19.863" height="19.863"/>
			
				<rect x="328.839" y="209.1" transform="matrix(-0.9623 0.2721 -0.2721 -0.9623 724.3583 337.6148)" style="opacity:0.6;fill:#FFFFFF;" width="19.863" height="19.863"/>
			<polygon style="opacity:0.2;" points="326.511,212.178 333.939,227.447 351.029,225.886 331.916,231.291 			"/>
		</g>
		<g>
			
				<rect x="142.851" y="246.733" transform="matrix(-0.9816 0.1908 -0.1908 -0.9816 546.7225 456.8854)" style="fill:#407BFF;" width="217.019" height="16.072"/>
			<polygon style="opacity:0.2;" points="146.379,283.366 359.41,241.949 358.514,237.341 147.096,278.254 143.312,267.589 			"/>
		</g>
	</g>
</g>
<g id="Speech_bubble">
	<g>
		
			<ellipse transform="matrix(0.7071 -0.7071 0.7071 0.7071 -102.4007 322.6979)" style="fill:#407BFF;" cx="338.33" cy="284.958" rx="17.955" ry="17.955"/>
		
			<text transform="matrix(1 0 0 1 334.5804 294.85)" style="fill:#FFFFFF; font-family:'Montserrat-SemiBold'; font-size:26.9791px;">!</text>
		<polygon style="fill:#407BFF;" points="325.999,277.142 317.603,273.66 322.362,281.156 		"/>
	</g>
</g>
<g id="Character">
	<g>
		<g>
			<path style="fill:#CE7A63;" d="M314.382,255.964l8.716-2.645l-3.5-7.153c0,0-6.352,0.993-7.49,6.173L314.382,255.964z"/>
			<polygon style="fill:#CE7A63;" points="328.277,245.633 321.21,244.356 319.598,246.166 323.098,253.319 			"/>
		</g>
		<path style="fill:#263238;" d="M278.98,270.348c0,0,12.238,3.304,16.638,5.261c0,0,4.815-10.758,16.718-24.346l4.938,4.482
			c0,0-11.056,24.077-15.936,30.829c-2.056,2.844-32.586-3.851-32.586-3.851L278.98,270.348z"/>
		<path style="opacity:0.2;fill:#FFFFFF;" d="M317.27,255.75c0,0-11.05,24.07-15.93,30.82c-1.27,1.75-13.31-0.11-22.39-1.79
			c-2.61-0.5-4.98-0.97-6.77-1.34c-2.11-0.43-3.43-0.72-3.43-0.72l10.23-12.37c0,0,12.24,3.3,16.64,5.26c0,0,4.81-10.76,16.72-24.35
			L317.27,255.75z"/>
		<path style="opacity:0.2;" d="M278.95,284.78c-2.61-0.5-4.98-0.97-6.77-1.34c0.35-1.73,0.98-3.47,1.97-5.13
			C274.15,278.31,277.08,280.71,278.95,284.78z"/>
		<g>
			<path style="fill:#263238;" d="M268.862,270.249c0,0,5.007,13.67-16.286,49.067c-2.499,4.154-4.383,18.293-4.383,18.293
				l-21.056-14.203C227.136,323.406,243.504,273.682,268.862,270.249z"/>
		</g>
		<path style="fill:#407BFF;" d="M267.219,289.633c-5.422,6.779-26.436,13.152-26.436,13.152l-25.124-14.883
			c7.566-5.683,14.964-13.568,27.048-32.04c2.802-4.283,8.412-5.036,12.05-1.618c0.973,0.914,1.981,1.903,2.981,2.948
			c3.89,4.062,7.047,7.421,9.979,11.485c0.972,1.347,1.939,2.777,2.842,4.163C273.818,277.841,270.908,285.02,267.219,289.633z"/>
		<g>
			<path style="fill:#263238;" d="M268.891,267.742c0,0,4.619,2.095,10.09,2.606c0,0-1.681,6.592-4.319,13.023
				c-4.607,11.23-22.43,36.79-22.43,36.79S264.355,288.681,268.891,267.742z"/>
			<path style="opacity:0.2;fill:#FFFFFF;" d="M268.891,267.742c0,0,4.619,2.095,10.09,2.606c0,0-1.681,6.592-4.319,13.023
				c-4.607,11.23-22.43,36.79-22.43,36.79S264.355,288.681,268.891,267.742z"/>
			<path style="fill:#263238;" d="M268.751,266.975c0,0,5.508,2.998,4.998,7.757l-5.483,3.136l0.485,5.753
				c0,0-5.375,10.752-9.206,16.172l8.812-30.727l-2.14-2.335C266.217,266.732,266.879,266.189,268.751,266.975z"/>
			<path style="opacity:0.4;fill:#FFFFFF;" d="M268.751,266.975c0,0,5.508,2.998,4.998,7.757l-5.483,3.136l0.485,5.753
				c0,0-5.375,10.752-9.206,16.172l8.812-30.727l-2.14-2.335C266.217,266.732,266.879,266.189,268.751,266.975z"/>
		</g>
		<path style="fill:#263238;" d="M286.513,237.921c0,0,2.162-2.496,8.401,1.536c6.239,4.031,8.735,15.037,6.527,21.676
			s-6.815,10.425-4.319,16.307c2.496,5.882-0.384,12.026-5.951,12.601c-5.567,0.576-5.063,7.775-2.484,8.351
			c0,0-8.651-0.96-7.115-8.063c0,0-1.257,1.824-0.82,3.935c0,0-3.115-1.31-1.771-7.134c1.344-5.824-2.558-13.215-2.558-13.215
			s2.27,8.96-0.706,12.975c0,0,2.274-7.439-1.934-10.255c-4.209-2.816-8.356-11.389-7.146-24.332
			C267.846,239.361,279.264,233.506,286.513,237.921z"/>
		<g>
			<path style="fill:#CE7A63;" d="M208.74,269.368l-6.431,6.45l-4.668-6.451c0,0,3.862-5.14,8.969-3.71L208.74,269.368z"/>
			<polygon style="fill:#CE7A63;" points="194.387,273.544 192.663,269.366 197.64,269.366 202.309,275.818 			"/>
		</g>
		<path style="fill:#407BFF;" d="M216.936,286.918l25.269,15.415l-0.164,8.607l-37.664-11.752
			C204.377,299.188,207.993,290.809,216.936,286.918z"/>
		<path style="opacity:0.6;fill:#FFFFFF;" d="M216.936,286.918l25.269,15.415l-0.164,8.607l-37.664-11.752
			C204.377,299.188,207.993,290.809,216.936,286.918z"/>
		<path style="fill:#407BFF;" d="M244.355,308.263c0,0,31.062,16.995,37.547,29.479c6.485,12.484,27.796,64.066,27.796,64.066
			l-8.3,4.556c0,0-26.377-29.926-35.792-57.223c0,0-12.134-2.251-35.151-12.642c0,0-4.626,41.118-9.789,47.595
			c-5.163,6.477-59.503,18.944-59.503,18.944l-1.663-9.589c0,0,23.464-16.682,45.173-23.031c0,0-5.267-40.59-1.927-56.788
			c3.689-17.883,12.452-21.711,12.452-21.711L244.355,308.263z"/>
		<path style="opacity:0.6;fill:#FFFFFF;" d="M159.505,393.451l1.658,9.587c0,0,54.339-12.463,59.505-18.948
			c5.166-6.474,9.79-47.595,9.79-47.595c3.068,1.387,5.944,2.628,8.617,3.733c17.414,7.229,26.527,8.91,26.527,8.91
			c9.418,27.294,35.798,57.227,35.798,57.227l8.301-4.556c0,0-21.316-51.588-27.802-64.061
			c-6.485-12.485-37.546-29.482-37.546-29.482l-29.155-16.342c0,0-8.763,3.823-12.451,21.711
			c-3.338,16.196,1.929,56.787,1.929,56.787C182.964,376.77,159.505,393.451,159.505,393.451z"/>
		<path style="opacity:0.2;" d="M230.458,336.495c3.068,1.387,5.944,2.628,8.617,3.733c-2.549-8.369-8.617-14.583-8.617-14.583
			C230.604,332.852,230.458,336.495,230.458,336.495z"/>
		<g>
			<path style="fill:#263238;" d="M256.808,256.323c0,0-9.508,31.185-41.4,51.932c0,0-6.456,6.503-11.031,15.151
				c0,0-6.83-1.15-9.061-5.26c0,0,3.42-27.695,20.003-32.522c0,0,24.123-27.303,28.496-32.463
				C248.188,248.001,255.612,252.597,256.808,256.323z"/>
			<path style="opacity:0.2;fill:#FFFFFF;" d="M256.81,256.32c0,0-9.51,31.19-41.4,51.93c0,0-6.46,6.51-11.03,15.16
				c0,0-6.83-1.15-9.06-5.26c0,0,3.42-27.7,20-32.53c0,0,11.44-12.95,20-22.7c2.1-2.4,4.04-4.62,5.58-6.39
				c1.29-1.47,2.3-2.64,2.92-3.37C248.19,248,255.61,252.6,256.81,256.32z"/>
			<path style="fill:#263238;" d="M255.885,254.976c2.213-0.281,3.006,1.347,3.006,1.347s-3.314,14.783-21.398,32.641
				c0,0,7.505-8.834,10.699-24.118l4.829-1.916l-2.082-5.27C250.94,257.66,253.71,255.252,255.885,254.976z"/>
			<path style="opacity:0.4;fill:#FFFFFF;" d="M255.885,254.976c2.213-0.281,3.006,1.347,3.006,1.347s-3.314,14.783-21.398,32.641
				c0,0,7.505-8.834,10.699-24.118l4.829-1.916l-2.082-5.27C250.94,257.66,253.71,255.252,255.885,254.976z"/>
		</g>
		<path style="fill:#263238;" d="M148.977,414.34c-1.179-6.44-1.235-7.309-1.776-10.95c-0.456-3.119-0.979-3.789-1.38-6.289
			c-0.337-2.089,1.669-2.375,4.077-2.153c1.209,0.11,3.732,0.16,5.672,0.262l2.412,9.309c-2.291,1.792-5.357,5.449-5.18,9.167
			C152.972,417.236,149.447,416.907,148.977,414.34z"/>
		<path style="fill:#407BFF;" d="M164.729,403.983c-1.537,0.475-4.205,1.338-6.187,2.187c-0.715,0.306-1.495,0.18-1.753-0.269
			c-2.154-3.749-2.382-10.001-2.397-12.002c-0.003-0.383,0.355-0.777,0.889-0.991l5.718-2.289c0.782-0.313,1.624-0.112,1.759,0.42
			l2.992,11.752C165.866,403.247,165.422,403.769,164.729,403.983z"/>
		<path style="fill:#263238;" d="M321.515,415.891c-6.53,0.464-7.401,0.424-11.079,0.561c-3.15,0.111-3.874,0.557-6.402,0.68
			c-2.113,0.105-2.178-1.92-1.692-4.29c0.243-1.19,0.569-3.692,0.884-5.608l9.518-1.374c1.529,2.474,4.827,5.924,8.542,6.157
			C324.832,412.238,324.118,415.706,321.515,415.891z"/>
		<path style="fill:#407BFF;" d="M310.846,399.874c0.586,1.498,1.641,4.096,2.633,6.011c0.358,0.691,0.288,1.478-0.141,1.768
			c-3.581,2.422-9.801,3.105-11.795,3.267c-0.382,0.031-0.801-0.297-1.053-0.814l-2.7-5.536c-0.369-0.757-0.23-1.611,0.291-1.785
			l11.503-3.842C310.029,398.793,310.582,399.198,310.846,399.874z"/>
		<g>
			<path style="fill:#CE7A63;" d="M272.658,251.542l-0.023,0.733l-0.361,10.602v0.011c-0.022,0.011-0.056,0.023-0.079,0.034
				c0,0,0,0-0.011,0c-1.838,0.665-3.598,1.511-4.568,2.786c-1.004,1.286-1.218,3,0.034,5.402c0,0,0.259,2.222-5.143,2.041
				c-1.184-10.365-4.827-13.523-4.827-13.523C262.586,260.452,269.297,254.903,272.658,251.542z"/>
			<path style="opacity:0.2;" d="M272.635,252.275l-0.361,10.602c-0.022,0.011-0.045,0.022-0.079,0.045c0,0,0,0-0.011,0
				c-1.838,0.665-3.598,1.511-4.568,2.786C267.256,262.043,268.056,255.253,272.635,252.275z"/>
			<path style="fill:#407BFF;" d="M262.072,270.786c-2.475-2.145-6.838,0.301-6.838,0.301s0.504-9.973,1.817-14.384
				c1.215,0.475,3.229,0.962,3.229,0.962S262.243,268.129,262.072,270.786z"/>
			<path style="fill:#407BFF;" d="M264.907,273.036c0,0,1.242,0.632,0.784,4.673c3.93-4.547,2.368-9.354,2.368-9.354
				s-0.298-0.842-1.117-1.36c-0.19,0.277-0.291,1.095-0.096,1.974C267.203,270.573,264.907,273.036,264.907,273.036z"/>
			<path style="opacity:0.2;" d="M262.072,270.786c-2.475-2.145-6.838,0.301-6.838,0.301s0.504-9.973,1.817-14.384
				c1.215,0.475,3.229,0.962,3.229,0.962S262.243,268.129,262.072,270.786z"/>
			<path style="opacity:0.2;" d="M264.907,273.036c0,0,1.242,0.632,0.784,4.673c3.93-4.547,2.368-9.354,2.368-9.354
				s-0.298-0.842-1.117-1.36c-0.19,0.277-0.291,1.095-0.096,1.974C267.203,270.573,264.907,273.036,264.907,273.036z"/>
		</g>
		<g>
			<path style="fill:#CE7A63;" d="M279.596,243.962c-6.47,4.778-9.301,6.66-10.751,12.371c-2.181,8.591,4.593,15.669,12.236,12.963
				c6.879-2.436,16.304-9.84,15.108-18.31C295.011,242.642,286.066,239.184,279.596,243.962z"/>
			<path style="fill:#263238;" d="M287.211,260.735c-0.56,0.378-0.84,0.985-0.626,1.357c0.215,0.372,0.843,0.367,1.404-0.01
				c0.56-0.378,0.84-0.985,0.626-1.357C288.4,260.353,287.772,260.357,287.211,260.735z"/>
			<path style="fill:#263238;" d="M288.489,260.581l1.177,1.105C289.666,261.686,288.21,261.693,288.489,260.581z"/>
			<path style="fill:#BA4D3C;" d="M284.703,259.354c0,0-1.855,2.59-2.405,4.437c-1.124-0.286-1.547-1.775-1.547-1.775
				L284.703,259.354z"/>
			<path style="fill:#263238;" d="M287.038,254.881c-0.033-0.097-0.104-0.178-0.204-0.219c-1.559-0.63-1.788-2.058-1.791-2.074
				c-0.034-0.212-0.228-0.351-0.438-0.304c-0.21,0.047-0.353,0.259-0.322,0.475c0.012,0.075,0.297,1.868,2.233,2.649
				c0.193,0.078,0.421-0.026,0.509-0.232C287.067,255.077,287.069,254.972,287.038,254.881z"/>
			<path style="fill:#263238;" d="M293.315,259.35c0.097,0.014,0.195-0.008,0.275-0.07c0.165-0.127,0.187-0.373,0.049-0.549
				c-1.379-1.769-3.164-1.709-3.24-1.705c-0.214,0.01-0.366,0.194-0.34,0.411c0.025,0.217,0.218,0.385,0.431,0.376
				c0.07-0.003,1.456-0.029,2.553,1.377C293.113,259.281,293.213,259.336,293.315,259.35z"/>
			<path style="fill:#263238;" d="M283.477,255.252l1.177,1.105C284.654,256.357,283.198,256.365,283.477,255.252z"/>
			<path style="fill:#263238;" d="M284.1,255.837c0,0,0.431-2.066-1.577-2.55c0,0,1.208,0.79,0.921,2.278L284.1,255.837z"/>
			<path style="fill:#263238;" d="M290.211,246.848c0,0-8.927,5.279-14.206,1.248c-5.279-4.032,4.857-10.367,11.595-8.831
				c6.738,1.536,14.292,10.276,6.964,19.296C294.564,258.561,297.602,250.783,290.211,246.848z"/>
			<path style="fill:#CE7A63;" d="M272.758,245.273c-0.915,1.66-1,3.51-0.572,4.898c0.644,2.089,2.901,1.773,4.342,0.053
				c1.298-1.548,2.526-4.5,1.1-6.049C276.224,242.65,273.803,243.374,272.758,245.273z"/>
			<g>
				<path style="fill:#FFFFFF;" d="M274.985,262.226c0.034,0.045,0.079,0.09,0.113,0.124c0,0,1.737-0.699,3.169-0.327
					c0,0,0-0.158-0.011-0.428c-0.068-1.342-0.44-5.312-2.639-4.906C273.034,257.151,273.406,260.467,274.985,262.226z"/>
				<path style="opacity:0.2;" d="M276.626,261.686c-0.047-0.496-0.126-0.954-0.216-1.387l-0.285-0.12l0.237-0.118
					c-0.116-0.516-0.249-0.971-0.381-1.36l-0.324-0.117l0.233-0.146c-0.256-0.706-0.477-1.128-0.477-1.128
					c0.279,0.289,0.503,0.664,0.684,1.067l0.363,0.038l-0.245,0.246c0.177,0.455,0.305,0.928,0.395,1.354l0.365,0.045l-0.312,0.22
					c0.122,0.65,0.156,1.13,0.156,1.13l1.435,0.187c0.011,0.271,0.011,0.428,0.011,0.428c-1.432-0.372-3.169,0.327-3.169,0.327
					c-0.034-0.034-0.079-0.079-0.113-0.124L276.626,261.686z"/>
			</g>
		</g>
		<path style="fill:none;stroke:#263238;stroke-width:0.5;stroke-linecap:round;stroke-linejoin:round;stroke-miterlimit:10;" d="
			M212.617,282.144c0,0-5.587,0.906-8.24,5.134"/>
		<path style="fill:none;stroke:#263238;stroke-width:0.5;stroke-linecap:round;stroke-linejoin:round;stroke-miterlimit:10;" d="
			M203.871,283.931c0,0,2.439-2.808,4.869-3.319"/>
		<path style="fill:none;stroke:#263238;stroke-width:0.5;stroke-linecap:round;stroke-linejoin:round;stroke-miterlimit:10;" d="
			M224.617,382.898c-1.021,3.415-2.894,5.117-5.532,5.883"/>
		<path style="fill:none;stroke:#263238;stroke-width:0.5;stroke-linecap:round;stroke-linejoin:round;stroke-miterlimit:10;" d="
			M227.34,383.42c0,0-0.596,3.915-3.064,5.362"/>
		<path style="fill:none;stroke:#263238;stroke-width:0.5;stroke-linecap:round;stroke-linejoin:round;stroke-miterlimit:10;" d="
			M277.809,326.909c0,0,4.681,3.271,7.149,10.7"/>
		<path style="fill:none;stroke:#263238;stroke-width:0.5;stroke-linecap:round;stroke-linejoin:round;stroke-miterlimit:10;" d="
			M281.809,327.25c0,0,2.638,1.926,3.915,5.686"/>
		<path style="fill:none;stroke:#263238;stroke-width:0.5;stroke-linecap:round;stroke-linejoin:round;stroke-miterlimit:10;" d="
			M296.532,408.952c0,0,1.106,3.234,2.809,3.319"/>
		<path style="fill:none;stroke:#263238;stroke-width:0.5;stroke-linecap:round;stroke-linejoin:round;stroke-miterlimit:10;" d="
			M295.596,411.498c0,0,0.738,1.454,1.986,1.71"/>
		<path style="fill:none;stroke:#263238;stroke-width:0.5;stroke-linecap:round;stroke-linejoin:round;stroke-miterlimit:10;" d="
			M152.617,392.271c0,0,1.191-1.872,2.894-2.213"/>
		<path style="fill:none;stroke:#263238;stroke-width:0.5;stroke-linecap:round;stroke-linejoin:round;stroke-miterlimit:10;" d="
			M152.617,390.059c0,0,1.167-1.447,1.775-1.702"/>
		<path style="fill:none;stroke:#263238;stroke-width:0.5;stroke-linecap:round;stroke-linejoin:round;stroke-miterlimit:10;" d="
			M305.638,284.527c0,0-0.596,4.109-4.255,4.438"/>
		<path style="fill:none;stroke:#263238;stroke-width:0.5;stroke-linecap:round;stroke-linejoin:round;stroke-miterlimit:10;" d="
			M307.17,287.131c0,0-1.021,3.098-2.383,3.523"/>
		<path style="opacity:0.2;" d="M244.53,258.19c0,0-4.14,5.79-9.21,4.73c2.1-2.4,4.04-4.62,5.58-6.39
			C242.32,256.9,243.61,257.45,244.53,258.19z"/>
		<path style="fill:#263238;" d="M253.471,252.426c0,0-10.101-13.497-33.138-16.76c0,0-4.675-2.53-16.462,29.372l5.183,4.943
			l14.542-22.413l16.549,12.151C240.146,259.719,245.527,260.883,253.471,252.426z"/>
		<path style="opacity:0.2;fill:#FFFFFF;" d="M253.471,252.426c0,0-10.101-13.497-33.138-16.76c0,0-4.675-2.53-16.462,29.372
			l5.183,4.943l14.542-22.413l16.549,12.151C240.146,259.719,245.527,260.883,253.471,252.426z"/>
		<path style="fill:none;stroke:#263238;stroke-width:0.5;stroke-linecap:round;stroke-linejoin:round;stroke-miterlimit:10;" d="
			M214.111,237.549c0,0,3.101-5.081,6.25-4.414"/>
		<path style="fill:none;stroke:#263238;stroke-width:0.5;stroke-linecap:round;stroke-linejoin:round;stroke-miterlimit:10;" d="
			M215.34,233.075c0,0,1.872-2.081,3.149-2.081"/>
	</g>
</g>
</svg>
