<svg width="521" height="475" viewBox="0 0 521 475" fill="none" xmlns="http://www.w3.org/2000/svg">
<path d="M143.623 415.625C133.897 415.625 125.619 412.511 118.788 406.283C111.957 400.056 108.542 392.515 108.542 383.661V210.089C108.542 201.248 111.957 193.708 118.788 187.467C125.619 181.239 133.897 178.125 143.623 178.125H173.667V138.542C173.667 116.494 182.097 97.7906 198.957 82.4323C215.803 67.0608 236.317 59.375 260.5 59.375C284.683 59.375 305.205 67.0608 322.065 82.4323C338.925 97.8038 347.348 116.507 347.334 138.542V178.125H377.4C387.096 178.125 395.367 181.239 402.212 187.467C409.043 193.694 412.459 201.242 412.459 210.108V383.661C412.459 392.502 409.043 400.042 402.212 406.283C395.381 412.511 387.111 415.625 377.4 415.625H143.623ZM143.623 395.833H377.4C381.293 395.833 384.491 394.692 386.995 392.409C389.498 390.127 390.75 387.211 390.75 383.661V210.089C390.75 206.539 389.498 203.623 386.995 201.341C384.491 199.058 381.293 197.917 377.4 197.917H143.601C139.708 197.917 136.51 199.058 134.006 201.341C131.502 203.623 130.25 206.546 130.25 210.108V383.661C130.25 387.211 131.502 390.127 134.006 392.409C136.51 394.692 139.715 395.833 143.623 395.833ZM260.5 326.562C269.661 326.562 277.375 323.699 283.641 317.973C289.922 312.26 293.063 305.227 293.063 296.875C293.063 288.523 289.922 281.49 283.641 275.777C277.36 270.064 269.647 267.201 260.5 267.188C251.354 267.174 243.64 270.037 237.359 275.777C231.078 281.49 227.938 288.523 227.938 296.875C227.938 305.227 231.078 312.26 237.359 317.973C243.626 323.699 251.339 326.562 260.5 326.562ZM195.375 178.125H325.625V138.542C325.625 122.049 319.294 108.03 306.631 96.4844C293.967 84.9392 278.591 79.1667 260.5 79.1667C242.41 79.1667 227.033 84.9392 214.37 96.4844C201.707 108.03 195.375 122.049 195.375 138.542V178.125Z" fill="#d1d5db" />
</svg>
