<svg id="Graphic_Element" data-name="Graphic Element" xmlns="http://www.w3.org/2000/svg" viewBox="0 0 1200 1200"><defs><style>.cls-1{fill:#826547;}.cls-2{fill:#fad243;}.cls-3{fill:#bbc4c9;}</style></defs><title>job685-64-v</title><rect class="cls-1" x="176.41" y="387.42" width="42.27" height="425.16"/><rect class="cls-1" x="986.4" y="387.42" width="42.27" height="425.16"/><rect class="cls-2" x="130.27" y="407.12" width="939.46" height="216.88"/><path d="M130.27,567.64,290.79,407.12h60L134,624h-3.69ZM255.3,624H195.25L412.13,407.12h60Zm121,0H316.28L533.15,407.12H593.2Zm122.22,0H438.5L655.38,407.12h60ZM622,624H561.93L778.8,407.12h60.05Zm124.62,0H686.55L903.43,407.12h60Zm323.13-199.72L870,624H810l216.87-216.88h42.88Zm0,123.43L993.45,624H933.4l136.33-136.33ZM130.27,517.19v-60l50-50h60Z"/><ellipse class="cls-3" cx="197.54" cy="431.99" rx="7.93" ry="7.83"/><ellipse class="cls-3" cx="197.54" cy="515.56" rx="7.93" ry="7.83"/><ellipse class="cls-3" cx="197.54" cy="604.52" rx="7.93" ry="7.83"/><ellipse class="cls-3" cx="1007.54" cy="596.7" rx="7.93" ry="7.83"/><ellipse class="cls-3" cx="1007.54" cy="515.56" rx="7.93" ry="7.83"/><ellipse class="cls-3" cx="1007.54" cy="431.99" rx="7.93" ry="7.83"/></svg>