<?xml version="1.0" encoding="utf-8"?>
<!-- Generator: Adobe Illustrator 27.5.0, SVG Export Plug-In . SVG Version: 6.00 Build 0)  -->
<svg version="1.1" xmlns="http://www.w3.org/2000/svg" xmlns:xlink="http://www.w3.org/1999/xlink" x="0px" y="0px"
	 viewBox="0 0 500 500" style="enable-background:new 0 0 500 500;" xml:space="preserve">
<g id="Background_2">
	<g>
		<g>
			<g>
				<g>
					<rect y="382.398" style="fill:#D1E3FF;" width="500" height="0.25"/>
					<rect x="386.778" y="393.688" style="fill:#D1E3FF;" width="37.333" height="0.25"/>
					<rect x="363.015" y="393.813" style="fill:#D1E3FF;" width="16.429" height="0.25"/>
					<rect x="265" y="394.167" style="fill:#D1E3FF;" width="19.5" height="0.25"/>
					<rect x="192.222" y="398.514" style="fill:#D1E3FF;" width="43.528" height="0.25"/>
					<rect x="83.386" y="394.292" style="fill:#D1E3FF;" width="31.172" height="0.25"/>
					<rect x="120.111" y="394.292" style="fill:#D1E3FF;" width="30.389" height="0.25"/>
					<rect x="58.553" y="388.097" style="fill:#D1E3FF;" width="9.837" height="0.25"/>
					<path style="fill:#D1E3FF;" d="M237.014,337.8H43.915c-3.147,0-5.708-2.561-5.708-5.708V60.66c0-3.147,2.561-5.708,5.708-5.708
						h193.099c3.146,0,5.707,2.561,5.707,5.708v271.432C242.721,335.239,240.16,337.8,237.014,337.8z M43.915,55.203
						c-3.01,0-5.458,2.448-5.458,5.458v271.432c0,3.01,2.448,5.458,5.458,5.458h193.099c3.009,0,5.457-2.448,5.457-5.458V60.66
						c0-3.009-2.448-5.458-5.457-5.458H43.915z"/>
					<path style="fill:#D1E3FF;" d="M453.31,337.8H260.212c-3.146,0-5.707-2.561-5.707-5.708V60.66c0-3.147,2.561-5.708,5.707-5.708
						H453.31c3.148,0,5.708,2.561,5.708,5.708v271.432C459.019,335.239,456.458,337.8,453.31,337.8z M260.212,55.203
						c-3.009,0-5.457,2.448-5.457,5.458v271.432c0,3.01,2.448,5.458,5.457,5.458H453.31c3.01,0,5.458-2.448,5.458-5.458V60.66
						c0-3.009-2.448-5.458-5.458-5.458H260.212z"/>
				</g>
			</g>
		</g>
		<g>
			<g>
				<polygon style="fill:#F3F8FF;" points="341.555,188.063 328.063,159.717 328.063,382.398 341.555,382.398 				"/>
				<polygon style="fill:#E3EEFF;" points="321.06,188.063 328.063,159.717 328.063,382.398 321.06,382.398 				"/>
				<polygon style="fill:#F3F8FF;" points="359.053,247.173 297.174,233 297.174,382.398 359.053,382.398 				"/>
				
					<rect x="265.06" y="233" transform="matrix(-1 -1.224647e-16 1.224647e-16 -1 562.2347 615.3984)" style="fill:#E3EEFF;" width="32.114" height="149.398"/>
				<g>
					<rect x="222.889" y="113.624" style="fill:#F3F8FF;" width="52.667" height="268.775"/>
					
						<rect x="195.555" y="113.624" transform="matrix(-1 -1.224647e-16 1.224647e-16 -1 418.4441 496.0222)" style="fill:#E3EEFF;" width="27.333" height="268.775"/>
					<rect x="222.889" y="99.868" style="fill:#F3F8FF;" width="45.58" height="13.755"/>
					<rect x="222.889" y="110.535" style="fill:#E3EEFF;" width="45.58" height="3.089"/>
					
						<rect x="202.642" y="99.868" transform="matrix(-1 -1.224647e-16 1.224647e-16 -1 425.5307 213.4923)" style="fill:#E3EEFF;" width="20.247" height="13.755"/>
					<rect x="222.889" y="86.113" style="fill:#F3F8FF;" width="38.493" height="13.755"/>
					<rect x="222.889" y="96.78" style="fill:#E3EEFF;" width="38.493" height="3.089"/>
					
						<rect x="209.729" y="86.113" transform="matrix(-1 -1.224647e-16 1.224647e-16 -1 432.6173 185.9818)" style="fill:#E3EEFF;" width="13.16" height="13.755"/>
					
						<rect x="234.277" y="66.89" transform="matrix(-1 -1.224647e-16 1.224647e-16 -1 471.1107 153.0033)" style="fill:#E3EEFF;" width="2.556" height="19.223"/>
				</g>
				<rect x="165.821" y="137.688" style="fill:#F3F8FF;" width="38.46" height="244.71"/>
				
					<rect x="145.861" y="137.688" transform="matrix(-1 -1.224647e-16 1.224647e-16 -1 311.682 520.0865)" style="fill:#E3EEFF;" width="19.96" height="244.71"/>
				<rect x="400.286" y="201.222" style="fill:#F3F8FF;" width="29.166" height="181.176"/>
				
					<rect x="385.149" y="201.222" transform="matrix(-1 -1.224647e-16 1.224647e-16 -1 785.4355 583.6206)" style="fill:#E3EEFF;" width="15.137" height="181.176"/>
				<rect x="108.741" y="223.667" style="fill:#F3F8FF;" width="26.564" height="158.732"/>
				<polygon style="fill:#E3EEFF;" points="94.955,259 108.741,223.667 108.741,382.398 94.955,382.398 				"/>
				<rect x="81.257" y="255.667" style="fill:#F3F8FF;" width="21.688" height="126.732"/>
				<polygon style="fill:#E3EEFF;" points="70.001,277.618 81.257,255.667 81.257,382.398 70.001,382.398 				"/>
			</g>
			<g>
				<path style="fill:#E3EEFF;" d="M45.962,382.398c0,0-0.733-7.216-8.706-10.931c3.268,5.231,2.556,10.931,2.556,10.931H45.962z"/>
				<g>
					<path style="fill:#E3EEFF;" d="M342.628,382.398c0,0,0.733-7.216,8.706-10.931c-3.268,5.231-2.556,10.931-2.556,10.931H342.628
						z"/>
					<path style="fill:#E3EEFF;" d="M426.99,382.398c0,0,0.492-12.801,5.843-16.515c-2.194,5.231-1.715,16.515-1.715,16.515H426.99z
						"/>
					<path style="fill:#E3EEFF;" d="M429,382.398c0,0-0.492-7.349-5.843-9.482c2.194,3.003,1.715,9.482,1.715,9.482H429z"/>
					<path style="fill:#E3EEFF;" d="M338.048,382.398c0,0,0.534-12.118,10.239-16.515c-4.337,6.216-4.089,16.515-4.089,16.515
						H338.048z"/>
				</g>
			</g>
			<g>
				<polygon style="fill:#D1E3FF;" points="448.882,300.806 441.82,350.607 441.114,355.591 436.592,355.591 437.298,350.607 
					444.359,300.806 				"/>
				<polygon style="fill:#D1E3FF;" points="254.894,300.806 247.832,350.607 247.126,355.591 242.603,355.591 243.309,350.607 
					250.371,300.806 				"/>
				<polygon style="fill:#D1E3FF;" points="419.887,350.607 419.181,355.591 415.365,382.44 410.842,382.44 414.645,355.591 
					415.351,350.607 				"/>
				<polygon style="fill:#D1E3FF;" points="225.885,350.607 225.179,355.591 221.376,382.44 216.854,382.44 220.657,355.591 
					221.363,350.607 				"/>
				<polygon style="fill:#D1E3FF;" points="248.749,350.607 249.456,355.591 253.271,382.44 257.794,382.44 253.991,355.591 
					253.285,350.607 				"/>
				<polygon style="fill:#D1E3FF;" points="442.751,350.607 443.457,355.591 447.26,382.44 451.782,382.44 447.979,355.591 
					447.273,350.607 				"/>
				<g>
					<polygon style="fill:#E3EEFF;" points="455.392,307.737 248.058,307.737 251.907,293.869 459.241,293.869 					"/>
					<polygon style="fill:#D1E3FF;" points="450.657,307.737 243.323,307.737 247.173,293.869 454.507,293.869 					"/>
				</g>
				<g>
					<polygon style="fill:#E3EEFF;" points="452.504,325.033 245.171,325.033 249.02,311.166 456.354,311.166 					"/>
					<polygon style="fill:#D1E3FF;" points="447.77,325.033 240.436,325.033 244.286,311.166 451.62,311.166 					"/>
				</g>
				<g>
					<polygon style="fill:#E3EEFF;" points="449.617,342.352 242.283,342.352 246.133,328.485 453.467,328.485 					"/>
					<polygon style="fill:#D1E3FF;" points="444.883,342.352 237.549,342.352 241.399,328.485 448.732,328.485 					"/>
				</g>
				<rect x="218.687" y="350.607" style="fill:#D1E3FF;" width="206.415" height="4.984"/>
				<rect x="425.102" y="350.607" style="fill:#E3EEFF;" width="28.37" height="4.984"/>
			</g>
		</g>
	</g>
</g>
<g id="Background_1" style="display:none;">
	<path style="display:inline;opacity:0.4;fill:#D4E8FF;" d="M298.979,234.428c-81.684,18.036-206.046,68.335-241.315-51.403
		c-14.075-47.785-5.954-88.831,43.101-97.832c37.942-6.962,61.595,22.879,97.674,27.157
		c90.114,10.686,190.149-119.441,243.012,18.363c13.475,35.128,20.643,92.457-15.574,114.272
		C392.542,265.064,339.902,225.392,298.979,234.428z"/>
</g>
<g id="Objects">
	<ellipse style="fill:#F0F6FF;" cx="250" cy="416.238" rx="193.889" ry="11.323"/>
	<g>
		<g>
			<g>
				<polygon style="opacity:0.7;fill:#9FC6FF;" points="244.694,127.039 143.651,114.694 151.864,403.043 239.454,412.861 				"/>
				<polygon style="opacity:0.7;fill:#9FC6FF;" points="346.52,116.38 244.694,127.039 239.454,412.861 327.632,405.396 				"/>
				<polygon style="opacity:0.7;fill:#9FC6FF;" points="447.201,128.762 346.52,116.38 327.632,405.396 414.95,415.237 				"/>
				<path style="fill:#FFFFFF;" d="M232.556,313.535c0.02-6.904-5.729-12.478-12.709-12.159c-5.881,0.269-10.833,4.88-11.487,10.731
					c-0.481,4.305,1.297,8.218,4.298,10.716c1.704,1.418,3.155,3.115,4.404,4.946l1.89,2.77l2.343-2.413
					c1.527-1.572,3.215-2.999,5.119-4.083C230.07,321.963,232.544,318.043,232.556,313.535z"/>
				<path style="fill:#FFFFFF;" d="M417.699,161.231c0.02-6.904-5.729-12.478-12.709-12.159c-5.881,0.269-10.833,4.88-11.487,10.731
					c-0.481,4.305,1.297,8.218,4.298,10.716c1.704,1.418,3.155,3.115,4.404,4.946l1.89,2.77l2.343-2.413
					c1.527-1.572,3.215-2.999,5.12-4.083C415.213,169.659,417.687,165.74,417.699,161.231z"/>
				<path style="fill:#D4E9FF;" d="M244.169,125.403l103.039-10.785l101.879,12.53l-32.634,289.884l-88.357-9.957l-89.228,7.554
					l-88.632-9.934l-8.311-291.782L244.169,125.403z M256.71,372.897l72.923-51.219l0.292-0.205l15.861-8.784l-13.72-10.506
					l-93.049-33.355l-18.369-10.639l-27.089,63.871l49.925,42.11L256.71,372.897z M182.941,313.106l25.767-61.831l-50.06-28.993
					l1.572,71.659L182.941,313.106z M244.371,141.012l-1.465-0.178l-86.275-10.493l1.663,75.793l55.982,32.652l22.379-38.013
					l28.154-61.878l-18.977,1.966L244.371,141.012z M281.549,137.16l-32.783,70.882l-22.514,37.729l18.058,10.532l94.318,34.019
					l19.865,15.331l23.571-13.054l-11.737-159.287l-23.658-2.896L281.549,137.16z M384.867,135.091l10.087,150.368l24.38-13.501
					l13.874-130.948L384.867,135.091z M328.447,395.055l1.292,0.146l75.63,8.555l12.273-115.833l-80.921,44.457l-68.797,47.915
					l26.63,17.569l-0.067,0.093l32.662-2.792L328.447,395.055z M238.655,402.73l36.531-3.123l-39.246-25.71l-75.35-63.059
					l1.828,83.315L238.655,402.73z"/>
				<path style="fill:#407BFF;" d="M357.88,314.938c-0.213,0-0.425-0.068-0.601-0.203l-22.447-17.229l-93.514-34.108
					c-0.058-0.021-0.114-0.047-0.167-0.079l-23.364-13.902l-26.044,62.388c-0.21,0.503-0.788,0.744-1.291,0.53
					c-0.503-0.209-0.74-0.787-0.53-1.29l26.481-63.438c0.11-0.264,0.33-0.467,0.601-0.557c0.272-0.089,0.569-0.058,0.814,0.089
					l24.262,14.437l93.569,34.129c0.095,0.034,0.184,0.083,0.263,0.144l22.055,16.928l30.771-17.011l-9.714-127.079
					c-0.041-0.544,0.366-1.018,0.909-1.059c0.528-0.049,1.018,0.365,1.06,0.909l9.762,127.711c0.029,0.385-0.169,0.752-0.507,0.939
					l-31.891,17.631C358.208,314.897,358.044,314.938,357.88,314.938z"/>
				<path style="fill:#407BFF;" d="M383.081,168.874c-0.144,1.674-1.618,2.914-3.292,2.77c-1.674-0.144-2.915-1.618-2.77-3.292
					c0.144-1.674,1.618-2.914,3.292-2.77C381.985,165.726,383.225,167.2,383.081,168.874z"/>
				<path style="fill:#407BFF;" d="M193.865,311.684c-0.144,1.674-1.618,2.914-3.293,2.77c-1.674-0.144-2.914-1.618-2.77-3.292
					c0.144-1.674,1.618-2.914,3.292-2.77C192.769,308.536,194.009,310.01,193.865,311.684z"/>
			</g>
			<polygon style="opacity:0.3;fill:#14365B;" points="347.207,114.618 244.169,125.403 238.866,414.628 328.094,407.074 			"/>
		</g>
		<g>
			<g>
				<path style="fill:#0053CC;" d="M168.566,203.842l-6.262-8.709c-0.437-0.608-0.247-1.393,0.424-1.744l22.981-12.034
					c0.67-0.351,1.577-0.141,2.014,0.468l6.262,8.709c0.437,0.608,0.247,1.393-0.424,1.744L170.58,204.31
					C169.91,204.661,169.003,204.451,168.566,203.842z"/>
				<path style="fill:#407BFF;" d="M167.796,202.772l-6.262-8.709c-0.437-0.608-0.247-1.393,0.424-1.744l22.981-12.034
					c0.67-0.351,1.577-0.141,2.014,0.468l6.262,8.709c0.437,0.608,0.247,1.393-0.424,1.744l-22.981,12.034
					C169.14,203.591,168.234,203.38,167.796,202.772z"/>
				<polygon style="fill:#DCE9FF;" points="192,191.62 181.67,197.03 180.72,197.53 176.08,199.96 175.09,200.48 171.38,202.42 
					163.53,191.5 164.44,191.02 165.41,190.52 174.34,185.84 177.13,184.37 184.14,180.7 186.74,184.31 187.4,185.24 190.96,190.18 
					191.52,190.95 				"/>
				<path style="fill:#FFFFFF;" d="M191.52,190.95l-0.56-0.77l-7.72,3.54l-2.74,1.9l-0.94-1.13l-2.032-5.74l-2.648-1.73l0.92-1.71
					l11.6-0.07l-0.66-0.93l-9.61,0.06l-2.79,1.47l-2.099,4.113l-3.721,3.637l-3.11-3.069l-0.97,0.5l5.37,5.33l5.28,4.13l0.99-0.52
					l-0.72-0.56l4.82-2.53l0.54,0.66l0.95-0.5l-0.56-0.68l2.75-1.89L191.52,190.95z M174.54,198.76l-3.92-3.07l-1.37-1.37
					l3.941-3.947l1.179-2.412l2.228,1.33l1.982,5.66l0.02,0.03l0.96,1.15L174.54,198.76z"/>
				<path style="fill:#FF8B7B;" d="M110.842,185.181c-0.15,0.286-0.387,0.748-0.578,1.151l-0.605,1.274
					c-0.4,0.859-0.779,1.74-1.141,2.628c-0.706,1.785-1.41,3.582-2.008,5.417c-1.181,3.673-2.108,7.43-2.725,11.232
					c-0.179,0.949-0.264,1.905-0.403,2.86c-0.022,0.15-0.039,0.3-0.059,0.45c-0.011,0.087-0.023,0.174-0.034,0.261
					c-0.015,0.114-0.046,0.206-0.005,0.321c0.06,0.168,0.241,0.28,0.387,0.367c0.438,0.258,1.144,0.523,1.936,0.686
					c1.603,0.338,3.499,0.44,5.411,0.431c1.907-0.01,3.93-0.135,5.828-0.313l1.065,4.106c-1.063,0.419-2.054,0.737-3.101,1.044
					c-1.037,0.306-2.089,0.582-3.166,0.795c-2.156,0.432-4.383,0.734-6.855,0.591c-1.237-0.089-2.558-0.256-3.999-0.825
					c-0.717-0.286-1.471-0.677-2.202-1.242c-0.73-0.56-1.425-1.328-1.933-2.212c-0.519-0.883-0.818-1.861-0.948-2.763
					c-0.067-0.453-0.097-0.892-0.1-1.312l0.011-0.588l0.025-0.406c0.078-1.082,0.106-2.175,0.231-3.253
					c0.425-4.327,1.273-8.602,2.513-12.758c0.628-2.075,1.306-4.139,2.142-6.152c0.414-1.008,0.847-2.009,1.314-3.007
					c0.233-0.498,0.468-0.999,0.729-1.495c0.266-0.513,0.504-0.96,0.854-1.568L110.842,185.181z"/>
				<path style="fill:#FF8B7B;" d="M116.195,211.729l6.171-5.786l0.45,8.506c0,0-4.568,2.839-7.585,1.1L116.195,211.729z"/>
				<polygon style="fill:#FF8B7B;" points="129.38,205.316 129.372,212.457 122.816,214.449 122.366,205.943 				"/>
				<path style="fill:#0053CC;" d="M105.746,412.222c-0.774,0-1.62-0.16-2.212-0.3c-0.077-0.019-0.136-0.081-0.149-0.159
					c-0.014-0.078,0.02-0.156,0.086-0.2c0.287-0.189,2.826-1.834,3.805-1.389c0.154,0.069,0.348,0.223,0.395,0.558
					c0.063,0.443-0.048,0.798-0.329,1.054C106.984,412.111,106.39,412.222,105.746,412.222z M104.095,411.639
					c1.457,0.29,2.554,0.24,2.979-0.147c0.18-0.164,0.247-0.395,0.203-0.706c-0.024-0.167-0.101-0.222-0.165-0.251
					C106.602,410.3,105.132,411.012,104.095,411.639z"/>
				<path style="fill:#0053CC;" d="M103.58,411.927c-0.035,0-0.069-0.009-0.1-0.026c-0.061-0.036-0.098-0.102-0.098-0.172
					c0-0.102,0.011-2.514,0.922-3.32c0.242-0.214,0.522-0.305,0.84-0.266c0.496,0.06,0.631,0.373,0.667,0.554
					c0.189,0.944-1.334,2.752-2.133,3.205C103.647,411.918,103.613,411.927,103.58,411.927z M105.005,408.531
					c-0.163,0-0.307,0.058-0.439,0.174c-0.543,0.48-0.73,1.835-0.776,2.638c0.796-0.636,1.746-1.993,1.631-2.568
					c-0.019-0.095-0.073-0.207-0.326-0.237C105.064,408.533,105.035,408.531,105.005,408.531z"/>
				<path style="fill:#0053CC;" d="M143.85,412.223c-0.923,0-1.925-0.158-2.637-0.3c-0.083-0.017-0.146-0.083-0.158-0.166
					c-0.012-0.084,0.03-0.165,0.105-0.204c0.377-0.196,3.716-1.901,4.743-1.339c0.199,0.108,0.315,0.291,0.337,0.527
					c0.036,0.395-0.085,0.721-0.358,0.966C145.45,412.094,144.682,412.223,143.85,412.223z M141.872,411.641
					c1.855,0.308,3.233,0.229,3.743-0.228c0.178-0.16,0.253-0.367,0.228-0.636c-0.009-0.103-0.05-0.17-0.131-0.215
					C145.154,410.256,143.244,410.982,141.872,411.641z"/>
				<path style="fill:#0053CC;" d="M141.251,411.927c-0.04,0-0.08-0.012-0.114-0.036c-0.058-0.04-0.089-0.108-0.083-0.178
					c0.008-0.096,0.201-2.351,1.254-3.227c0.323-0.269,0.692-0.386,1.099-0.343c0.549,0.056,0.708,0.335,0.745,0.56
					c0.155,0.948-1.82,2.755-2.819,3.206C141.307,411.921,141.279,411.927,141.251,411.927z M143.248,408.531
					c-0.252,0-0.477,0.085-0.686,0.259c-0.692,0.576-0.97,1.928-1.067,2.584c1.018-0.616,2.358-2.038,2.266-2.607
					c-0.008-0.048-0.031-0.192-0.394-0.229C143.326,408.533,143.287,408.531,143.248,408.531z"/>
				<path style="fill:#FF8B7B;" d="M121.414,152.11c0.974,4.97,3.176,15.037-0.301,18.354c0,0,1.359,5.042,10.594,5.042
					c10.155,0,4.853-5.041,4.853-5.041c-5.543-1.324-5.4-5.436-4.434-9.298L121.414,152.11z"/>
				<path style="fill:#0F264C;" d="M140.845,140.56c-0.076,0-0.152-0.021-0.219-0.067c-0.183-0.121-0.232-0.368-0.11-0.55
					c1.215-1.824,3.049-1.806,3.126-1.83c0.219,0.002,0.395,0.182,0.393,0.401c-0.003,0.219-0.193,0.416-0.399,0.393
					c-0.068,0-1.491,0.022-2.459,1.475C141.1,140.497,140.974,140.56,140.845,140.56z"/>
				<path style="fill:#FF5652;" d="M143.269,145.239c0,0,1.146,2.909,2.408,4.312c-0.892,0.833-2.408,0.452-2.408,0.452V145.239z"/>
				<path style="fill:#0F264C;" d="M142.664,144.078c0,0.676,0.358,1.223,0.8,1.223c0.442,0,0.8-0.548,0.8-1.223
					c0-0.676-0.358-1.223-0.8-1.223C143.022,142.855,142.664,143.403,142.664,144.078z"/>
				<path style="fill:#0F264C;" d="M143.269,142.892l1.623-0.468C144.891,142.425,144.059,143.692,143.269,142.892z"/>
				<polygon style="fill:#FF8B7B;" points="132.041,411.729 140.417,411.729 140.977,392.331 132.6,392.331 				"/>
				<polygon style="fill:#FF8B7B;" points="93.983,411.729 102.359,411.729 105.052,392.331 96.676,392.331 				"/>
				<path style="fill:#14365B;" d="M102.879,410.759h-9.41c-0.342,0-0.62,0.238-0.668,0.572l-1.072,7.445
					c-0.111,0.772,0.553,1.503,1.343,1.49c3.281-0.056,4.862-0.249,9-0.249c2.546,0,6.266,0.264,9.781,0.264
					c3.439,0,3.703-3.477,2.239-3.791c-6.564-1.412-7.601-3.359-9.813-5.216C103.88,410.939,103.38,410.759,102.879,410.759z"/>
				<path style="fill:#14365B;" d="M140.704,410.759h-9.41c-0.342,0-0.62,0.238-0.668,0.572l-1.072,7.445
					c-0.111,0.772,0.553,1.503,1.343,1.49c3.281-0.056,4.862-0.249,9-0.249c2.546,0,7.812,0.264,11.328,0.264
					c3.439,0,3.703-3.477,2.239-3.791c-6.564-1.412-9.148-3.359-11.359-5.216C141.706,410.939,141.205,410.759,140.704,410.759z"/>
				<g>
					<polygon style="fill:#EA7063;" points="140.975,392.336 140.688,402.335 132.308,402.335 132.595,392.336 					"/>
					<polygon style="fill:#EA7063;" points="96.673,392.336 105.053,392.336 103.661,402.335 95.281,402.335 					"/>
				</g>
				<path style="fill:#407BFF;" d="M150.719,172.61c0,0,3.99,1.406-4.003,50.555c-13.499,0-27.451,0-34.019,0
					c0.571-13.846,0.587-22.383-6.03-50.798c0,0,7.128-1.551,14.446-1.903c5.725-0.276,10.415-0.459,15.448,0.001
					C143.195,171.07,150.719,172.61,150.719,172.61z"/>
				<polygon style="fill:#236AE8;" points="143.917,194.208 149.722,200.722 150.458,187.96 				"/>
				<path style="fill:#FF8B7B;" d="M169.578,201.338c-1.274,1.755-2.631,3.547-3.981,5.233c-1.355,1.678-2.769,3.324-4.179,4.589
					c-0.189,0.168-0.383,0.327-0.575,0.477l-0.306-0.91c-0.314-1.03-0.639-2.049-0.927-3.109c-1.196-4.204-2.255-8.537-3.285-12.878
					l-2.97-13.059l-8.385,1.741c0.903,4.513,1.914,8.93,3.079,13.36c0.571,2.212,1.175,4.424,1.798,6.634
					c0.664,2.207,1.327,4.408,2.088,6.622c0.364,1.102,0.796,2.213,1.207,3.321l0.677,1.677c0.09,0.228,0.293,0.704,0.519,1.112
					c0.216,0.414,0.518,0.88,0.893,1.342c0.404,0.472,0.882,0.963,1.578,1.383c0.68,0.417,1.527,0.714,2.344,0.797
					c1.673,0.157,2.873-0.363,3.711-0.805c1.69-0.952,2.59-1.981,3.479-2.989c1.699-2.017,2.922-4.065,4.056-6.151
					c0.563-1.041,1.082-2.094,1.562-3.163c0.488-1.072,0.948-2.118,1.372-3.254L169.578,201.338z"/>
				<path style="fill:#407BFF;" d="M150.719,172.61c3.452,0.879,5.867,15.086,5.867,15.086l-13.318,9.057
					c0,0-5.317-16.919-2.661-20.715C143.373,172.085,145.681,171.327,150.719,172.61z"/>
				<path style="fill:#FF8B7B;" d="M171.51,204.538l7.47-2.689l-4.835-3.967c0,0-5.707,0.732-5.812,5.305L171.51,204.538z"/>
				<polygon style="fill:#FF8B7B;" points="183.146,199.188 184.084,197.239 174.145,197.882 178.979,201.849 				"/>
				<polygon style="fill:#FF8B7B;" points="177.113,197.69 176.153,196.625 177.375,193.765 175.646,193.958 170.672,199.175 				
					"/>
				<path style="fill:#FF8B7B;" d="M119.948,141.759c0.509,8.298,0.548,11.821,4.739,16.079c6.304,6.406,16.384,3.966,18.364-4.317
					c1.782-7.455,0.649-19.772-7.473-23.074C127.576,127.194,119.438,133.461,119.948,141.759z"/>
				<path style="fill:#0053CC;" d="M137.73,223.17c0,0-0.84,9.94-2.19,23.87c0,0.01,0,0.01,0,0.01c-1.64,17.04-4.03,40.04-6.56,58.2
					c-0.38,2.72-0.77,5.34-1.15,7.81c-4.08,26.17-22.15,87.34-22.15,87.34H94.26c0,0,9.42-59.08,11.48-84.96
					c5.24-65.5-3.94-77.09,6.96-92.27H137.73z"/>
				<path style="fill:#004DAA;" d="M135.54,247.04c0,0.01,0,0.01,0,0.01c-1.64,17.04-4.03,40.04-6.56,58.2
					c-2.53-7.74-7.137-34.803-3.107-58.583C128.303,232.327,133.01,238.6,135.54,247.04z"/>
				<path style="fill:#0053CC;" d="M146.716,223.165c0,0,6.607,64.524,6.058,90.068c-0.571,26.569-10.307,87.165-10.307,87.165
					h-11.326c0,0,1.792-59.044,0.791-85.138c-1.092-28.447-10.127-92.096-10.127-92.096H146.716z"/>
				<polygon style="fill:#407BFF;" points="107,400.982 92.945,400.982 92.687,396.156 108.083,395.75 				"/>
				<polygon style="fill:#407BFF;" points="143.92,400.982 129.865,400.982 129.333,395.75 145.003,395.75 				"/>
				<path style="fill:#407BFF;" d="M106.666,172.367c-3.48,0.763-8.166,13.549-8.166,13.549l14.674,8.474
					c0,0,4.298-10.038,2.635-14.362C114.077,175.527,110.779,171.466,106.666,172.367z"/>
				<path style="fill:#0F264C;" d="M127.049,127.019c-11.585-0.853-15.733,7.474-13.752,17.543
					c2.168,11.02-1.63,15.882-5.951,19.939c-3.368,3.163-4.621,9.029-1.79,16.684c2.333,6.31-0.629,9.923,0.055,15.191
					c0.735,5.651,10.211,8.094,15.501,2.513c5.11-5.391,3.909-9.061,8.415-10.778c7.18-2.736,13.826-7.224,12.07-15.403
					c-1.134-5.281-7.709-8.9-5.742-15.759C138.079,149.197,147.045,128.491,127.049,127.019z"/>
				<path style="fill:#0F264C;" d="M118.291,129.25l19.652,14.828c0.182-2.537,2.765-6.676,4.599-9.208
					C145.375,130.958,130.125,115.833,118.291,129.25z"/>
				<path style="fill:#FF8B7B;" d="M135.403,145.099c-0.008,1.687,0.698,3.292,1.605,4.353c1.364,1.596,2.961,0.664,3.347-1.228
					c0.348-1.703,0.058-4.586-1.68-5.491C136.963,141.842,135.412,143.17,135.403,145.099z"/>
				<path style="fill:#0F264C;" d="M112.187,221.169l-1.534,3.045c-0.119,0.236,0.161,0.477,0.554,0.477h35.677
					c0.307,0,0.561-0.15,0.58-0.343l0.307-3.045c0.021-0.211-0.245-0.39-0.58-0.39h-34.45
					C112.488,220.913,112.264,221.016,112.187,221.169z"/>
				<path style="fill:#9FC6FF;" d="M116.814,225.021h-0.923c-0.184,0-0.324-0.095-0.311-0.21l0.433-3.956
					c0.013-0.116,0.173-0.211,0.357-0.211h0.923c0.184,0,0.324,0.095,0.311,0.211l-0.433,3.956
					C117.158,224.926,116.998,225.021,116.814,225.021z"/>
				<path style="fill:#9FC6FF;" d="M139.178,225.021h-0.923c-0.184,0-0.324-0.095-0.311-0.21l0.433-3.956
					c0.013-0.116,0.173-0.211,0.357-0.211h0.923c0.184,0,0.324,0.095,0.311,0.211l-0.433,3.956
					C139.522,224.926,139.362,225.021,139.178,225.021z"/>
			</g>
			<g>
				<path style="fill:#FFFFFF;" d="M190.401,159.995c-0.581-6.973-6.87-12.101-13.889-11.171
					c-5.914,0.783-10.514,5.869-10.665,11.833c-0.111,4.388,2.024,8.185,5.271,10.446c1.844,1.284,3.456,2.87,4.877,4.611
					l2.149,2.632l2.156-2.64c1.405-1.72,2.985-3.308,4.814-4.567C188.624,168.72,190.78,164.548,190.401,159.995z"/>
				<path style="fill:#0F264C;" d="M178.88,169.91c-2.81,0.24-5.43-0.86-7.23-2.77c-0.01-0.01-0.01-0.01-0.02-0.02
					c-0.44-0.47-0.83-0.99-1.17-1.55c-0.66-1.13-1.09-2.42-1.21-3.82c-0.41-4.91,3.24-9.22,8.16-9.63c3.61-0.3,6.91,1.59,8.55,4.58
					c0.09,0.15,0.17,0.3,0.24,0.46c0.46,0.95,0.75,2,0.84,3.12C187.45,165.19,183.8,169.5,178.88,169.91z"/>
				<path style="fill:#407BFF;" d="M178.88,169.91c-2.81,0.24-5.43-0.86-7.23-2.77c-0.01-0.01-0.01-0.01-0.02-0.02
					c-0.23-0.3-0.44-0.61-0.63-0.93c-0.44-0.94-0.72-1.97-0.82-3.07c-0.4-4.91,3.25-9.22,8.16-9.64c3.02-0.25,5.82,1.04,7.62,3.22
					c0.09,0.15,0.17,0.3,0.24,0.46c0.46,0.95,0.75,2,0.84,3.12C187.45,165.19,183.8,169.5,178.88,169.91z"/>
			</g>
		</g>
	</g>
</g>
<g id="Designed_by_Freepik">
	<g>
		<g>
			<g id="XMLID_197_">
				<g id="XMLID_216_">
					<path id="XMLID_224_" style="fill:#A5B7C6;" d="M261.442,464.892c-0.49,0.502-0.91,1.054-1.255,1.646l-0.527-0.273
						c-0.076-0.337-0.396-0.569-0.746-0.528c-0.375,0.044-0.643,0.384-0.599,0.759c0.044,0.375,0.384,0.643,0.758,0.599
						c0.074-0.009,0.144-0.029,0.208-0.059l0.511,0.265c-0.284,0.627-0.49,1.289-0.611,1.975l0.845,0.149
						c0.26-1.479,0.962-2.839,2.029-3.932L261.442,464.892z"/>
					<path id="XMLID_223_" style="fill:#A5B7C6;" d="M267.656,462.285c-0.194,0-0.386,0.007-0.577,0.019l-0.083-0.709
						c0.212-0.169,0.335-0.44,0.301-0.73c-0.052-0.445-0.456-0.763-0.901-0.711c-0.445,0.052-0.763,0.455-0.711,0.901
						c0.034,0.288,0.214,0.522,0.458,0.638l0.083,0.707c-0.808,0.132-1.589,0.376-2.332,0.732l0.37,0.774
						c1.058-0.506,2.199-0.762,3.392-0.762c0.562,0,1.124,0.06,1.67,0.178l0.182-0.839
						C268.903,462.352,268.279,462.285,267.656,462.285z"/>
					<path id="XMLID_222_" style="fill:#A5B7C6;" d="M275.133,465.17c0.375-0.046,0.641-0.387,0.595-0.761
						c-0.046-0.375-0.387-0.641-0.761-0.595c-0.35,0.043-0.606,0.344-0.6,0.689l-0.471,0.411c-0.473-0.487-1.007-0.92-1.594-1.29
						l-0.458,0.726c1.284,0.809,2.288,1.955,2.903,3.313l0.782-0.354c-0.284-0.627-0.643-1.214-1.067-1.75l0.455-0.397
						C274.986,465.175,275.059,465.179,275.133,465.17z"/>
					<path id="XMLID_221_" style="fill:#A5B7C6;" d="M267.036,473.845c-0.437,0.026-0.878,0.039-1.31,0.039
						c-0.997,0-1.962-0.069-2.807-0.203c-0.442-0.07-0.958-0.176-1.438-0.331c1.185,2.107,3.476,3.539,6.102,3.539
						c3.233,0,5.959-2.17,6.737-5.1c-0.772,0.509-1.705,0.935-2.784,1.271C270.201,473.478,268.643,473.749,267.036,473.845z"/>
					<path id="XMLID_217_" style="fill:#A5B7C6;" d="M267.656,464.002c-3.796,0-6.884,3.019-6.884,6.73
						c0,0.482,0.052,0.962,0.155,1.428c0.763,0.547,3.064,1.008,6.055,0.828c3.261-0.196,5.998-1.084,7.556-2.444
						c-0.006-0.221-0.023-0.442-0.051-0.659C274.056,466.531,271.12,464.002,267.656,464.002z M265.211,471.38
						c-1.155,0-2.095-0.94-2.095-2.095c0-1.155,0.94-2.095,2.095-2.095c1.155,0,2.095,0.94,2.095,2.095
						C267.306,470.44,266.366,471.38,265.211,471.38z M270.576,470.351c-0.849,0-1.54-0.691-1.54-1.54
						c0-0.849,0.691-1.541,1.54-1.541c0.849,0,1.541,0.691,1.541,1.541C272.116,469.66,271.425,470.351,270.576,470.351z"/>
				</g>
				<path id="XMLID_214_" style="fill:#A5B7C6;" d="M285.779,466.116c-0.334-0.131-0.912-0.35-1.565-0.269
					c-0.624,0.078-0.956,0.386-0.956,1.14v0.981h2.523v1.945h-2.523v6.177h-2.188v-6.177h-1.517v-1.945h1.517v-1.006
					c0-1.902,1.014-3.151,2.908-3.151c0.728,0,1.31,0.138,1.8,0.349L285.779,466.116z"/>
				<path id="XMLID_212_" style="fill:#A5B7C6;" d="M291.104,469.89c-0.2-0.034-0.405-0.052-0.596-0.052
					c-1.014,0-1.71,0.62-1.71,1.827v4.425h-2.188v-8.122h2.12v0.888c0.511-0.763,1.291-1.106,2.288-1.106
					c0.469,0,0.96,0.144,1.239,0.381L291.104,469.89z"/>
				<path id="XMLID_209_" style="fill:#A5B7C6;" d="M299.786,472.017c0,0.251-0.017,0.553-0.042,0.738h-5.758
					c0.235,1.173,1.056,1.685,2.087,1.685c0.704,0,1.467-0.285,2.053-0.779l1.282,1.408c-0.922,0.846-2.095,1.232-3.461,1.232
					c-2.489,0-4.216-1.693-4.216-4.249c0-2.556,1.676-4.3,4.107-4.3C298.177,467.75,299.778,469.485,299.786,472.017z
					 M293.995,471.262h3.595c-0.201-1.039-0.83-1.626-1.768-1.626C294.791,469.636,294.187,470.257,293.995,471.262z"/>
				<path id="XMLID_206_" style="fill:#A5B7C6;" d="M308.453,472.017c0,0.251-0.017,0.553-0.042,0.738h-5.758
					c0.235,1.173,1.056,1.685,2.087,1.685c0.704,0,1.467-0.285,2.053-0.779l1.282,1.408c-0.922,0.846-2.095,1.232-3.461,1.232
					c-2.489,0-4.216-1.693-4.216-4.249c0-2.556,1.676-4.3,4.107-4.3C306.843,467.75,308.444,469.485,308.453,472.017z
					 M302.661,471.262h3.596c-0.201-1.039-0.83-1.626-1.768-1.626C303.457,469.636,302.854,470.257,302.661,471.262z"/>
				<path id="XMLID_203_" style="fill:#A5B7C6;" d="M317.903,472.025c0,2.439-1.693,4.275-3.931,4.275
					c-1.09,0-1.861-0.428-2.389-1.056v4.199h-2.179v-11.474h2.137v0.897c0.528-0.662,1.307-1.115,2.422-1.115
					C316.21,467.75,317.903,469.586,317.903,472.025z M311.475,472.025c0,1.282,0.846,2.238,2.087,2.238
					c1.291,0,2.095-0.997,2.095-2.238c0-1.24-0.805-2.238-2.095-2.238C312.321,469.787,311.475,470.742,311.475,472.025z"/>
				<path id="XMLID_200_" style="fill:#A5B7C6;" d="M321.418,465.311c0,0.788-0.612,1.391-1.4,1.391
					c-0.788,0-1.391-0.603-1.391-1.391c0-0.788,0.604-1.408,1.391-1.408C320.806,463.903,321.418,464.524,321.418,465.311z
					 M321.124,476.09h-2.188v-8.122h2.188V476.09z"/>
				<path id="XMLID_198_" style="fill:#A5B7C6;" d="M324.775,470.86l3.059-2.892h2.682l-3.939,3.822l3.964,4.3h-2.69l-3.076-3.285
					v3.285h-2.188v-12.069h2.188V470.86z"/>
			</g>
			<g>
				<path style="fill:#A5B7C6;" d="M175.729,476.016v-1.194c-0.597,0.813-1.576,1.393-2.704,1.393c-2.09,0-3.566-1.592-3.566-4.196
					c0-2.555,1.46-4.213,3.566-4.213c1.078,0,2.057,0.531,2.704,1.41v-4.263h1.244v11.064H175.729z M175.729,473.843v-3.633
					c-0.448-0.697-1.41-1.294-2.405-1.294c-1.609,0-2.571,1.327-2.571,3.102c0,1.775,0.962,3.085,2.571,3.085
					C174.319,475.104,175.281,474.54,175.729,473.843z"/>
				<path style="fill:#A5B7C6;" d="M178.582,472.002c0-2.322,1.659-4.197,3.948-4.197c2.422,0,3.848,1.891,3.848,4.296v0.316h-6.486
					c0.1,1.509,1.161,2.77,2.886,2.77c0.912,0,1.841-0.365,2.471-1.012l0.597,0.813c-0.796,0.796-1.874,1.227-3.185,1.227
					C180.29,476.215,178.582,474.507,178.582,472.002z M182.513,468.834c-1.709,0-2.555,1.443-2.621,2.67h5.258
					C185.134,470.31,184.337,468.834,182.513,468.834z"/>
				<path style="fill:#A5B7C6;" d="M187.273,474.955l0.647-0.895c0.531,0.614,1.543,1.145,2.637,1.145
					c1.228,0,1.891-0.581,1.891-1.377c0-1.94-4.96-0.746-4.96-3.716c0-1.244,1.078-2.306,2.985-2.306
					c1.36,0,2.323,0.514,2.969,1.161l-0.581,0.863c-0.481-0.581-1.36-1.012-2.389-1.012c-1.095,0-1.775,0.547-1.775,1.261
					c0,1.758,4.96,0.597,4.96,3.716c0,1.344-1.078,2.422-3.151,2.422C189.197,476.215,188.086,475.817,187.273,474.955z"/>
				<path style="fill:#A5B7C6;" d="M195.053,466.031c0-0.464,0.382-0.846,0.829-0.846c0.465,0,0.846,0.381,0.846,0.846
					c0,0.465-0.381,0.829-0.846,0.829C195.434,466.86,195.053,466.495,195.053,466.031z M195.268,476.016v-8.012h1.244v8.012
					H195.268z"/>
				<path style="fill:#A5B7C6;" d="M198.569,478.073l0.63-0.929c0.663,0.796,1.46,1.095,2.604,1.095
					c1.327,0,2.571-0.647,2.571-2.405v-1.145c-0.581,0.813-1.559,1.427-2.687,1.427c-2.09,0-3.566-1.559-3.566-4.147
					c0-2.571,1.46-4.163,3.566-4.163c1.078,0,2.04,0.531,2.687,1.41v-1.211h1.244v7.78c0,2.654-1.858,3.483-3.815,3.483
					C200.443,479.267,199.514,479.002,198.569,478.073z M204.374,473.711v-3.5c-0.432-0.697-1.393-1.294-2.389-1.294
					c-1.609,0-2.571,1.277-2.571,3.052c0,1.758,0.962,3.052,2.571,3.052C202.981,475.021,203.943,474.408,204.374,473.711z"/>
				<path style="fill:#A5B7C6;" d="M213.099,476.016v-5.242c0-1.41-0.713-1.858-1.791-1.858c-0.979,0-1.908,0.597-2.372,1.244v5.855
					h-1.244v-8.012h1.244v1.161c0.564-0.663,1.658-1.36,2.853-1.36c1.675,0,2.555,0.846,2.555,2.588v5.623H213.099z"/>
				<path style="fill:#A5B7C6;" d="M215.952,472.002c0-2.322,1.659-4.197,3.948-4.197c2.422,0,3.848,1.891,3.848,4.296v0.316h-6.486
					c0.099,1.509,1.161,2.77,2.886,2.77c0.912,0,1.841-0.365,2.472-1.012l0.597,0.813c-0.796,0.796-1.874,1.227-3.185,1.227
					C217.66,476.215,215.952,474.507,215.952,472.002z M219.883,468.834c-1.708,0-2.555,1.443-2.621,2.67h5.258
					C222.503,470.31,221.707,468.834,219.883,468.834z"/>
				<path style="fill:#A5B7C6;" d="M231.146,476.016v-1.194c-0.597,0.813-1.576,1.393-2.704,1.393c-2.09,0-3.566-1.592-3.566-4.196
					c0-2.555,1.46-4.213,3.566-4.213c1.078,0,2.057,0.531,2.704,1.41v-4.263h1.244v11.064H231.146z M231.146,473.843v-3.633
					c-0.448-0.697-1.41-1.294-2.405-1.294c-1.609,0-2.571,1.327-2.571,3.102c0,1.775,0.962,3.085,2.571,3.085
					C229.736,475.104,230.697,474.54,231.146,473.843z"/>
				<path style="fill:#A5B7C6;" d="M238.327,476.016v-11.064h1.244v4.263c0.647-0.879,1.609-1.41,2.704-1.41
					c2.09,0,3.566,1.659,3.566,4.213c0,2.604-1.476,4.196-3.566,4.196c-1.128,0-2.107-0.581-2.704-1.393v1.194H238.327z
					 M241.96,475.104c1.626,0,2.588-1.31,2.588-3.085c0-1.775-0.962-3.102-2.588-3.102c-0.979,0-1.957,0.597-2.388,1.294v3.633
					C240.003,474.54,240.981,475.104,241.96,475.104z"/>
				<path style="fill:#A5B7C6;" d="M247.201,478.023c0.182,0.083,0.481,0.133,0.68,0.133c0.547,0,0.912-0.182,1.194-0.846
					l0.531-1.211l-3.351-8.095h1.344l2.671,6.569l2.654-6.569h1.36l-4.014,9.637c-0.481,1.161-1.294,1.609-2.356,1.625
					c-0.265,0-0.68-0.05-0.912-0.116L247.201,478.023z"/>
			</g>
		</g>
	</g>
</g>
</svg>
