<?xml version="1.0" encoding="utf-8"?>
<!-- Generator: Adobe Illustrator 27.5.0, SVG Export Plug-In . SVG Version: 6.00 Build 0)  -->
<svg version="1.1" xmlns="http://www.w3.org/2000/svg" xmlns:xlink="http://www.w3.org/1999/xlink" x="0px" y="0px"
	 viewBox="0 0 500 500" style="enable-background:new 0 0 500 500;" xml:space="preserve">
<g id="Background_Complete">
	<g>
		<rect y="382.398" style="fill:#EBEBEB;" width="500" height="0.25"/>
		<rect x="416.779" y="398.494" style="fill:#EBEBEB;" width="33.122" height="0.25"/>
		<rect x="322.527" y="401.208" style="fill:#EBEBEB;" width="8.693" height="0.25"/>
		<rect x="396.586" y="389.208" style="fill:#EBEBEB;" width="19.192" height="0.25"/>
		<rect x="52.459" y="390.888" style="fill:#EBEBEB;" width="43.193" height="0.25"/>
		<rect x="104.556" y="390.888" style="fill:#EBEBEB;" width="6.333" height="0.25"/>
		<rect x="131.471" y="395.111" style="fill:#EBEBEB;" width="93.676" height="0.25"/>
		<path style="fill:#EBEBEB;" d="M237.014,337.8H43.915c-3.147,0-5.708-2.561-5.708-5.708V60.66c0-3.147,2.561-5.708,5.708-5.708
			h193.099c3.146,0,5.707,2.561,5.707,5.708v271.432C242.721,335.239,240.16,337.8,237.014,337.8z M43.915,55.203
			c-3.01,0-5.458,2.448-5.458,5.458v271.432c0,3.01,2.448,5.458,5.458,5.458h193.099c3.009,0,5.457-2.448,5.457-5.458V60.66
			c0-3.009-2.448-5.458-5.457-5.458H43.915z"/>
		<path style="fill:#EBEBEB;" d="M453.31,337.8H260.212c-3.147,0-5.707-2.561-5.707-5.708V60.66c0-3.147,2.561-5.708,5.707-5.708
			H453.31c3.148,0,5.708,2.561,5.708,5.708v271.432C459.019,335.239,456.458,337.8,453.31,337.8z M260.212,55.203
			c-3.009,0-5.457,2.448-5.457,5.458v271.432c0,3.01,2.448,5.458,5.457,5.458H453.31c3.01,0,5.458-2.448,5.458-5.458V60.66
			c0-3.009-2.448-5.458-5.458-5.458H260.212z"/>
	</g>
	<g>
		<g>
			<path style="fill:#F0F0F0;" d="M180.572,127.151c0-4.483-3.635-8.118-8.118-8.118c-0.811,0-1.592,0.122-2.331,0.344
				c0.118-0.814,0.182-1.646,0.182-2.492c0-9.494-7.697-17.191-17.191-17.191c-1.082,0-2.14,0.105-3.166,0.296
				c-2.642-4.324-7.392-7.22-12.83-7.22c-8.231,0-14.909,6.614-15.031,14.816c-0.084-0.002-0.166-0.013-0.25-0.013
				c-7.648,0-13.848,6.2-13.848,13.848c0,7.648,6.2,13.848,13.848,13.848h50.856l-0.01-0.011
				C177.059,135.135,180.572,131.557,180.572,127.151z"/>
			<path style="fill:#F0F0F0;" d="M385.479,210.165c0-4.483-3.635-8.118-8.118-8.118c-0.811,0-1.592,0.122-2.331,0.344
				c0.118-0.814,0.182-1.646,0.182-2.492c0-9.494-7.697-17.191-17.191-17.191c-1.082,0-2.14,0.105-3.167,0.296
				c-2.642-4.324-7.392-7.22-12.83-7.22c-8.231,0-14.909,6.614-15.031,14.816c-0.084-0.002-0.166-0.013-0.25-0.013
				c-7.648,0-13.848,6.2-13.848,13.848c0,7.648,6.2,13.848,13.848,13.848h50.856l-0.01-0.011
				C381.966,218.15,385.479,214.572,385.479,210.165z"/>
			<path style="fill:#F0F0F0;" d="M130.944,273.256c0-4.483-3.635-8.118-8.118-8.118c-0.811,0-1.592,0.122-2.331,0.344
				c0.118-0.814,0.182-1.646,0.182-2.492c0-9.494-7.697-17.191-17.191-17.191c-1.082,0-2.14,0.105-3.166,0.296
				c-2.642-4.324-7.392-7.22-12.83-7.22c-8.231,0-14.909,6.614-15.031,14.816c-0.084-0.002-0.166-0.013-0.25-0.013
				c-7.648,0-13.848,6.2-13.848,13.848c0,7.648,6.2,13.848,13.848,13.848h50.856l-0.01-0.012
				C127.431,281.24,130.944,277.662,130.944,273.256z"/>
			<path style="fill:#F0F0F0;" d="M437.569,279.838c0-4.483-3.635-8.118-8.118-8.118c-0.811,0-1.592,0.122-2.331,0.344
				c0.118-0.814,0.182-1.646,0.182-2.492c0-9.494-7.697-17.191-17.191-17.191c-1.082,0-2.14,0.105-3.167,0.296
				c-2.642-4.324-7.392-7.22-12.83-7.22c-8.231,0-14.909,6.614-15.031,14.816c-0.084-0.002-0.166-0.013-0.25-0.013
				c-7.648,0-13.848,6.2-13.848,13.848c0,7.648,6.2,13.848,13.848,13.848h50.856l-0.01-0.012
				C434.057,287.822,437.569,284.244,437.569,279.838z"/>
			<path style="fill:#F0F0F0;" d="M269.983,230.661c0-3.021-2.449-5.47-5.47-5.47c-0.546,0-1.073,0.083-1.571,0.232
				c0.08-0.549,0.123-1.109,0.123-1.68c0-6.398-5.186-11.584-11.584-11.584c-0.729,0-1.442,0.071-2.134,0.199
				c-1.78-2.914-4.981-4.865-8.646-4.865c-5.547,0-10.046,4.457-10.129,9.984c-0.057-0.001-0.112-0.009-0.169-0.009
				c-5.154,0-9.332,4.178-9.332,9.332c0,5.154,4.178,9.332,9.332,9.332h34.27l-0.007-0.008
				C267.616,236.042,269.983,233.631,269.983,230.661z"/>
			<path style="fill:#F0F0F0;" d="M423.916,127.074c0-3.021-2.449-5.47-5.47-5.47c-0.546,0-1.073,0.083-1.571,0.232
				c0.08-0.549,0.123-1.109,0.123-1.68c0-6.398-5.186-11.584-11.584-11.584c-0.729,0-1.442,0.071-2.134,0.2
				c-1.78-2.914-4.981-4.865-8.646-4.865c-5.547,0-10.046,4.457-10.129,9.984c-0.057-0.001-0.112-0.009-0.169-0.009
				c-5.154,0-9.332,4.178-9.332,9.332s4.178,9.332,9.332,9.332h34.27l-0.007-0.008C421.549,132.455,423.916,130.044,423.916,127.074
				z"/>
		</g>
		<g>
			<polygon style="fill:#F5F5F5;" points="58.975,368.404 58.975,321.386 62.995,321.386 62.995,298.983 68.872,298.983 
				68.872,221.088 77.368,221.088 77.368,211.037 95.507,202.578 95.507,192.443 98.019,192.443 98.019,221.088 101.537,221.088 
				101.537,298.983 105.055,298.983 105.055,258.025 114.603,258.025 114.603,236.919 117.268,236.919 117.268,298.983 
				124.52,298.983 124.52,275.363 129.294,275.363 129.294,269.332 140.35,269.332 140.35,248.728 146.404,248.728 146.404,234.154 
				153.847,234.154 153.847,212.922 156.503,212.922 156.503,234.154 163.945,234.154 163.945,248.728 170,248.728 170,269.332 
				181.056,269.332 181.056,275.363 185.83,275.363 185.83,298.983 191.492,298.983 191.492,269.332 202.548,269.332 
				202.548,205.509 206.066,205.509 206.066,198.474 229.686,198.474 229.686,205.509 234.711,205.509 234.711,251.743 
				254.813,251.743 254.813,256.266 262.351,256.266 262.351,259.784 254.813,259.784 254.813,277.876 275.92,277.876 
				275.92,217.571 280.443,217.571 280.443,204.756 290.242,204.756 290.242,159.275 293.006,159.275 293.006,204.756 
				300.042,204.756 300.042,217.571 341.289,217.571 341.289,213.352 343.801,213.352 343.801,241.997 347.319,241.997 
				347.319,242.5 349.432,242.5 349.432,271.145 352.95,271.145 352.95,278.934 360.385,278.934 360.385,257.828 363.05,257.828 
				363.05,308.082 366.016,308.082 366.016,286.975 368.681,286.975 368.681,319.892 370.302,319.892 370.302,296.272 
				375.076,296.272 375.076,290.242 386.132,290.242 386.132,269.637 392.186,269.637 392.186,255.064 399.629,255.064 
				399.629,233.831 402.285,233.831 402.285,255.064 409.727,255.064 409.727,269.637 415.782,269.637 415.782,290.242 
				426.838,290.242 426.838,296.272 431.612,296.272 431.612,319.389 432.469,319.389 432.469,319.892 434.833,319.892 
				434.833,368.404 			"/>
			<g>
				<rect x="315.427" y="220.389" style="fill:#FAFAFA;" width="2.848" height="2.848"/>
				<rect x="315.427" y="225.163" style="fill:#FAFAFA;" width="2.848" height="2.848"/>
				<rect x="315.427" y="244.259" style="fill:#FAFAFA;" width="2.848" height="2.848"/>
				<rect x="315.427" y="249.033" style="fill:#FAFAFA;" width="2.848" height="2.848"/>
				<rect x="315.427" y="253.808" style="fill:#FAFAFA;" width="2.848" height="2.848"/>
				<rect x="315.427" y="268.13" style="fill:#FAFAFA;" width="2.848" height="2.848"/>
				<rect x="315.427" y="272.904" style="fill:#FAFAFA;" width="2.848" height="2.848"/>
				<rect x="310.904" y="239.485" style="fill:#FAFAFA;" width="2.848" height="2.848"/>
				<rect x="310.904" y="244.259" style="fill:#FAFAFA;" width="2.848" height="2.848"/>
				<rect x="310.904" y="249.033" style="fill:#FAFAFA;" width="2.848" height="2.848"/>
				<rect x="310.904" y="253.808" style="fill:#FAFAFA;" width="2.848" height="2.848"/>
				<rect x="310.904" y="258.582" style="fill:#FAFAFA;" width="2.848" height="2.848"/>
				<rect x="310.904" y="268.13" style="fill:#FAFAFA;" width="2.848" height="2.848"/>
				<rect x="310.904" y="272.904" style="fill:#FAFAFA;" width="2.848" height="2.848"/>
				<rect x="306.381" y="220.389" style="fill:#FAFAFA;" width="2.848" height="2.848"/>
				<rect x="306.381" y="225.163" style="fill:#FAFAFA;" width="2.848" height="2.848"/>
				<rect x="306.381" y="229.937" style="fill:#FAFAFA;" width="2.848" height="2.848"/>
				<rect x="306.381" y="234.711" style="fill:#FAFAFA;" width="2.848" height="2.848"/>
				<rect x="306.381" y="239.485" style="fill:#FAFAFA;" width="2.848" height="2.848"/>
				<rect x="306.381" y="244.259" style="fill:#FAFAFA;" width="2.848" height="2.848"/>
				<rect x="306.381" y="249.033" style="fill:#FAFAFA;" width="2.848" height="2.848"/>
				<rect x="306.381" y="253.808" style="fill:#FAFAFA;" width="2.848" height="2.848"/>
				<rect x="306.381" y="258.582" style="fill:#FAFAFA;" width="2.848" height="2.848"/>
				<rect x="306.381" y="263.356" style="fill:#FAFAFA;" width="2.848" height="2.848"/>
				<rect x="306.381" y="272.904" style="fill:#FAFAFA;" width="2.848" height="2.848"/>
				<rect x="301.858" y="220.389" style="fill:#FAFAFA;" width="2.848" height="2.848"/>
				<rect x="301.858" y="225.163" style="fill:#FAFAFA;" width="2.848" height="2.848"/>
				<rect x="301.858" y="229.937" style="fill:#FAFAFA;" width="2.848" height="2.848"/>
				<rect x="301.858" y="234.711" style="fill:#FAFAFA;" width="2.848" height="2.848"/>
				<rect x="301.858" y="239.485" style="fill:#FAFAFA;" width="2.848" height="2.848"/>
				<rect x="301.858" y="244.259" style="fill:#FAFAFA;" width="2.848" height="2.848"/>
				<rect x="301.858" y="249.033" style="fill:#FAFAFA;" width="2.848" height="2.848"/>
				<rect x="301.858" y="292.001" style="fill:#FAFAFA;" width="2.848" height="2.848"/>
				<rect x="297.335" y="220.389" style="fill:#FAFAFA;" width="2.848" height="2.848"/>
				<rect x="297.335" y="225.163" style="fill:#FAFAFA;" width="2.848" height="2.848"/>
				<rect x="297.335" y="229.937" style="fill:#FAFAFA;" width="2.848" height="2.848"/>
				<rect x="297.335" y="234.711" style="fill:#FAFAFA;" width="2.848" height="2.848"/>
				<rect x="297.335" y="239.485" style="fill:#FAFAFA;" width="2.848" height="2.848"/>
				<rect x="297.335" y="244.259" style="fill:#FAFAFA;" width="2.848" height="2.848"/>
				<rect x="297.335" y="249.033" style="fill:#FAFAFA;" width="2.848" height="2.848"/>
				<rect x="297.335" y="253.808" style="fill:#FAFAFA;" width="2.848" height="2.848"/>
				<rect x="297.335" y="282.453" style="fill:#FAFAFA;" width="2.848" height="2.848"/>
				<rect x="297.335" y="287.227" style="fill:#FAFAFA;" width="2.848" height="2.848"/>
				<rect x="297.335" y="292.001" style="fill:#FAFAFA;" width="2.848" height="2.848"/>
				<rect x="297.335" y="296.775" style="fill:#FAFAFA;" width="2.848" height="2.848"/>
				<rect x="297.335" y="315.872" style="fill:#FAFAFA;" width="2.848" height="2.848"/>
				<rect x="292.812" y="220.389" style="fill:#FAFAFA;" width="2.848" height="2.848"/>
				<rect x="292.812" y="225.163" style="fill:#FAFAFA;" width="2.848" height="2.848"/>
				<rect x="292.812" y="229.937" style="fill:#FAFAFA;" width="2.848" height="2.848"/>
				<rect x="292.812" y="234.711" style="fill:#FAFAFA;" width="2.848" height="2.848"/>
				<rect x="292.812" y="239.485" style="fill:#FAFAFA;" width="2.848" height="2.848"/>
				<rect x="292.812" y="244.259" style="fill:#FAFAFA;" width="2.848" height="2.848"/>
				<rect x="292.812" y="249.033" style="fill:#FAFAFA;" width="2.848" height="2.848"/>
				<rect x="292.812" y="253.808" style="fill:#FAFAFA;" width="2.848" height="2.848"/>
				<rect x="292.812" y="258.582" style="fill:#FAFAFA;" width="2.848" height="2.848"/>
				<rect x="292.812" y="263.356" style="fill:#FAFAFA;" width="2.848" height="2.848"/>
				<rect x="292.812" y="277.678" style="fill:#FAFAFA;" width="2.848" height="2.848"/>
				<rect x="292.812" y="282.453" style="fill:#FAFAFA;" width="2.848" height="2.848"/>
				<rect x="292.812" y="287.227" style="fill:#FAFAFA;" width="2.848" height="2.848"/>
				<rect x="292.812" y="292.001" style="fill:#FAFAFA;" width="2.848" height="2.848"/>
				<rect x="292.812" y="296.775" style="fill:#FAFAFA;" width="2.848" height="2.848"/>
				<rect x="292.812" y="315.872" style="fill:#FAFAFA;" width="2.848" height="2.848"/>
				<rect x="288.289" y="220.389" style="fill:#FAFAFA;" width="2.848" height="2.848"/>
				<rect x="288.289" y="225.163" style="fill:#FAFAFA;" width="2.848" height="2.848"/>
				<rect x="288.289" y="229.937" style="fill:#FAFAFA;" width="2.848" height="2.848"/>
				<rect x="288.289" y="234.711" style="fill:#FAFAFA;" width="2.848" height="2.848"/>
				<rect x="288.289" y="239.485" style="fill:#FAFAFA;" width="2.848" height="2.848"/>
				<rect x="288.289" y="244.259" style="fill:#FAFAFA;" width="2.848" height="2.848"/>
				<rect x="288.289" y="249.033" style="fill:#FAFAFA;" width="2.848" height="2.848"/>
				<rect x="288.289" y="253.808" style="fill:#FAFAFA;" width="2.848" height="2.848"/>
				<rect x="288.289" y="258.582" style="fill:#FAFAFA;" width="2.848" height="2.848"/>
				<rect x="288.289" y="263.356" style="fill:#FAFAFA;" width="2.848" height="2.848"/>
				<rect x="288.289" y="268.13" style="fill:#FAFAFA;" width="2.848" height="2.848"/>
				<rect x="288.289" y="272.904" style="fill:#FAFAFA;" width="2.848" height="2.848"/>
				<rect x="288.289" y="277.678" style="fill:#FAFAFA;" width="2.848" height="2.848"/>
				<rect x="288.289" y="282.453" style="fill:#FAFAFA;" width="2.848" height="2.848"/>
				<rect x="288.289" y="287.227" style="fill:#FAFAFA;" width="2.848" height="2.848"/>
				<rect x="288.289" y="292.001" style="fill:#FAFAFA;" width="2.848" height="2.848"/>
				<rect x="288.289" y="296.775" style="fill:#FAFAFA;" width="2.848" height="2.848"/>
				<rect x="288.289" y="301.549" style="fill:#FAFAFA;" width="2.848" height="2.848"/>
				<rect x="283.766" y="220.389" style="fill:#FAFAFA;" width="2.848" height="2.848"/>
				<rect x="283.766" y="225.163" style="fill:#FAFAFA;" width="2.848" height="2.848"/>
				<rect x="283.766" y="229.937" style="fill:#FAFAFA;" width="2.848" height="2.848"/>
				<rect x="283.766" y="234.711" style="fill:#FAFAFA;" width="2.848" height="2.848"/>
				<rect x="283.766" y="239.485" style="fill:#FAFAFA;" width="2.848" height="2.848"/>
				<rect x="283.766" y="244.259" style="fill:#FAFAFA;" width="2.848" height="2.848"/>
				<rect x="283.766" y="249.033" style="fill:#FAFAFA;" width="2.848" height="2.848"/>
				<rect x="283.766" y="253.808" style="fill:#FAFAFA;" width="2.848" height="2.848"/>
				<rect x="283.766" y="258.582" style="fill:#FAFAFA;" width="2.848" height="2.848"/>
				<rect x="283.766" y="263.356" style="fill:#FAFAFA;" width="2.848" height="2.848"/>
				<rect x="283.766" y="277.678" style="fill:#FAFAFA;" width="2.848" height="2.848"/>
				<rect x="283.766" y="282.453" style="fill:#FAFAFA;" width="2.848" height="2.848"/>
				<rect x="283.766" y="287.227" style="fill:#FAFAFA;" width="2.848" height="2.848"/>
				<rect x="283.766" y="292.001" style="fill:#FAFAFA;" width="2.848" height="2.848"/>
				<rect x="279.243" y="220.389" style="fill:#FAFAFA;" width="2.848" height="2.848"/>
				<rect x="279.243" y="225.163" style="fill:#FAFAFA;" width="2.848" height="2.848"/>
				<rect x="279.243" y="229.937" style="fill:#FAFAFA;" width="2.848" height="2.848"/>
				<rect x="279.243" y="234.711" style="fill:#FAFAFA;" width="2.848" height="2.848"/>
				<rect x="279.243" y="239.485" style="fill:#FAFAFA;" width="2.848" height="2.848"/>
				<rect x="279.243" y="244.259" style="fill:#FAFAFA;" width="2.848" height="2.848"/>
				<rect x="279.243" y="249.033" style="fill:#FAFAFA;" width="2.848" height="2.848"/>
				<rect x="279.243" y="253.808" style="fill:#FAFAFA;" width="2.848" height="2.848"/>
				<rect x="279.243" y="258.582" style="fill:#FAFAFA;" width="2.848" height="2.848"/>
				<rect x="279.243" y="263.356" style="fill:#FAFAFA;" width="2.848" height="2.848"/>
				<rect x="279.243" y="277.678" style="fill:#FAFAFA;" width="2.848" height="2.848"/>
				<rect x="279.243" y="282.453" style="fill:#FAFAFA;" width="2.848" height="2.848"/>
				<rect x="279.243" y="287.227" style="fill:#FAFAFA;" width="2.848" height="2.848"/>
				<rect x="228.319" y="207.992" style="fill:#FAFAFA;" width="2.848" height="2.848"/>
				<rect x="228.319" y="212.767" style="fill:#FAFAFA;" width="2.848" height="2.848"/>
				<rect x="228.319" y="217.541" style="fill:#FAFAFA;" width="2.848" height="2.848"/>
				<rect x="228.319" y="222.315" style="fill:#FAFAFA;" width="2.848" height="2.848"/>
				<rect x="228.319" y="227.089" style="fill:#FAFAFA;" width="2.848" height="2.848"/>
				<rect x="228.319" y="231.863" style="fill:#FAFAFA;" width="2.848" height="2.848"/>
				<rect x="228.319" y="236.637" style="fill:#FAFAFA;" width="2.848" height="2.848"/>
				<rect x="228.319" y="241.412" style="fill:#FAFAFA;" width="2.848" height="2.848"/>
				<rect x="228.319" y="255.734" style="fill:#FAFAFA;" width="2.848" height="2.848"/>
				<rect x="228.319" y="260.508" style="fill:#FAFAFA;" width="2.848" height="2.848"/>
				<rect x="223.796" y="207.992" style="fill:#FAFAFA;" width="2.848" height="2.848"/>
				<rect x="223.796" y="212.767" style="fill:#FAFAFA;" width="2.848" height="2.848"/>
				<rect x="223.796" y="217.541" style="fill:#FAFAFA;" width="2.848" height="2.848"/>
				<rect x="223.796" y="222.315" style="fill:#FAFAFA;" width="2.848" height="2.848"/>
				<rect x="223.796" y="227.089" style="fill:#FAFAFA;" width="2.848" height="2.848"/>
				<rect x="223.796" y="231.863" style="fill:#FAFAFA;" width="2.848" height="2.848"/>
				<rect x="223.796" y="236.637" style="fill:#FAFAFA;" width="2.848" height="2.848"/>
				<rect x="223.796" y="241.412" style="fill:#FAFAFA;" width="2.848" height="2.848"/>
				<rect x="223.796" y="260.508" style="fill:#FAFAFA;" width="2.848" height="2.848"/>
				<rect x="219.273" y="207.992" style="fill:#FAFAFA;" width="2.848" height="2.848"/>
				<rect x="219.273" y="212.767" style="fill:#FAFAFA;" width="2.848" height="2.848"/>
				<rect x="219.273" y="217.541" style="fill:#FAFAFA;" width="2.848" height="2.848"/>
				<rect x="219.273" y="222.315" style="fill:#FAFAFA;" width="2.848" height="2.848"/>
				<rect x="219.273" y="227.089" style="fill:#FAFAFA;" width="2.848" height="2.848"/>
				<rect x="219.273" y="231.863" style="fill:#FAFAFA;" width="2.848" height="2.848"/>
				<rect x="219.273" y="236.637" style="fill:#FAFAFA;" width="2.848" height="2.848"/>
				<rect x="219.273" y="241.412" style="fill:#FAFAFA;" width="2.848" height="2.848"/>
				<rect x="214.751" y="207.992" style="fill:#FAFAFA;" width="2.848" height="2.848"/>
				<rect x="214.751" y="212.767" style="fill:#FAFAFA;" width="2.848" height="2.848"/>
				<rect x="214.751" y="217.541" style="fill:#FAFAFA;" width="2.848" height="2.848"/>
				<rect x="214.751" y="222.315" style="fill:#FAFAFA;" width="2.848" height="2.848"/>
				<rect x="214.751" y="227.089" style="fill:#FAFAFA;" width="2.848" height="2.848"/>
				<rect x="214.751" y="231.863" style="fill:#FAFAFA;" width="2.848" height="2.848"/>
				<rect x="214.751" y="241.412" style="fill:#FAFAFA;" width="2.848" height="2.848"/>
				<rect x="214.751" y="246.186" style="fill:#FAFAFA;" width="2.848" height="2.848"/>
				<rect x="214.751" y="260.508" style="fill:#FAFAFA;" width="2.848" height="2.848"/>
				<rect x="214.751" y="265.282" style="fill:#FAFAFA;" width="2.848" height="2.848"/>
				<rect x="214.751" y="270.056" style="fill:#FAFAFA;" width="2.848" height="2.848"/>
				<rect x="214.751" y="274.831" style="fill:#FAFAFA;" width="2.848" height="2.848"/>
				<rect x="214.751" y="279.605" style="fill:#FAFAFA;" width="2.848" height="2.848"/>
				<rect x="214.751" y="284.379" style="fill:#FAFAFA;" width="2.848" height="2.848"/>
				<rect x="214.751" y="289.153" style="fill:#FAFAFA;" width="2.848" height="2.848"/>
				<rect x="210.228" y="207.992" style="fill:#FAFAFA;" width="2.848" height="2.848"/>
				<rect x="210.228" y="212.767" style="fill:#FAFAFA;" width="2.848" height="2.848"/>
				<rect x="210.228" y="217.541" style="fill:#FAFAFA;" width="2.848" height="2.848"/>
				<rect x="210.228" y="222.315" style="fill:#FAFAFA;" width="2.848" height="2.848"/>
				<rect x="210.228" y="227.089" style="fill:#FAFAFA;" width="2.848" height="2.848"/>
				<rect x="210.228" y="231.863" style="fill:#FAFAFA;" width="2.848" height="2.848"/>
				<rect x="210.228" y="246.186" style="fill:#FAFAFA;" width="2.848" height="2.848"/>
				<rect x="210.228" y="250.96" style="fill:#FAFAFA;" width="2.848" height="2.848"/>
				<rect x="210.228" y="255.734" style="fill:#FAFAFA;" width="2.848" height="2.848"/>
				<rect x="210.228" y="260.508" style="fill:#FAFAFA;" width="2.848" height="2.848"/>
				<rect x="210.228" y="265.282" style="fill:#FAFAFA;" width="2.848" height="2.848"/>
				<rect x="210.228" y="270.056" style="fill:#FAFAFA;" width="2.848" height="2.848"/>
				<rect x="210.228" y="274.831" style="fill:#FAFAFA;" width="2.848" height="2.848"/>
				<rect x="210.228" y="279.605" style="fill:#FAFAFA;" width="2.848" height="2.848"/>
				<rect x="210.228" y="284.379" style="fill:#FAFAFA;" width="2.848" height="2.848"/>
				<rect x="210.228" y="289.153" style="fill:#FAFAFA;" width="2.848" height="2.848"/>
				<rect x="210.228" y="293.927" style="fill:#FAFAFA;" width="2.848" height="2.848"/>
				<rect x="210.228" y="303.476" style="fill:#FAFAFA;" width="2.848" height="2.848"/>
				<rect x="205.705" y="207.992" style="fill:#FAFAFA;" width="2.848" height="2.848"/>
				<rect x="205.705" y="212.767" style="fill:#FAFAFA;" width="2.848" height="2.848"/>
				<rect x="205.705" y="217.541" style="fill:#FAFAFA;" width="2.848" height="2.848"/>
				<rect x="205.705" y="222.315" style="fill:#FAFAFA;" width="2.848" height="2.848"/>
				<rect x="205.705" y="227.089" style="fill:#FAFAFA;" width="2.848" height="2.848"/>
				<rect x="205.705" y="231.863" style="fill:#FAFAFA;" width="2.848" height="2.848"/>
				<rect x="205.705" y="246.186" style="fill:#FAFAFA;" width="2.848" height="2.848"/>
				<rect x="205.705" y="250.96" style="fill:#FAFAFA;" width="2.848" height="2.848"/>
				<rect x="205.705" y="255.734" style="fill:#FAFAFA;" width="2.848" height="2.848"/>
				<rect x="205.705" y="260.508" style="fill:#FAFAFA;" width="2.848" height="2.848"/>
				<rect x="205.705" y="274.831" style="fill:#FAFAFA;" width="2.848" height="2.848"/>
				<rect x="205.705" y="279.605" style="fill:#FAFAFA;" width="2.848" height="2.848"/>
				<rect x="205.705" y="284.379" style="fill:#FAFAFA;" width="2.848" height="2.848"/>
				<rect x="205.705" y="289.153" style="fill:#FAFAFA;" width="2.848" height="2.848"/>
				<rect x="205.705" y="293.927" style="fill:#FAFAFA;" width="2.848" height="2.848"/>
				<rect x="205.705" y="303.476" style="fill:#FAFAFA;" width="2.848" height="2.848"/>
				<rect x="205.705" y="308.25" style="fill:#FAFAFA;" width="2.848" height="2.848"/>
				<rect x="164.664" y="252.384" style="fill:#FAFAFA;" width="2.848" height="2.848"/>
				<rect x="164.664" y="257.158" style="fill:#FAFAFA;" width="2.848" height="2.848"/>
				<rect x="164.664" y="261.932" style="fill:#FAFAFA;" width="2.848" height="2.848"/>
				<rect x="164.664" y="266.706" style="fill:#FAFAFA;" width="2.848" height="2.848"/>
				<rect x="164.664" y="271.48" style="fill:#FAFAFA;" width="2.848" height="2.848"/>
				<rect x="164.664" y="276.255" style="fill:#FAFAFA;" width="2.848" height="2.848"/>
				<rect x="164.664" y="281.029" style="fill:#FAFAFA;" width="2.848" height="2.848"/>
				<rect x="164.664" y="295.351" style="fill:#FAFAFA;" width="2.848" height="2.848"/>
				<rect x="164.664" y="300.125" style="fill:#FAFAFA;" width="2.848" height="2.848"/>
				<rect x="164.664" y="304.9" style="fill:#FAFAFA;" width="2.848" height="2.848"/>
				<rect x="160.141" y="252.384" style="fill:#FAFAFA;" width="2.848" height="2.848"/>
				<rect x="160.141" y="257.158" style="fill:#FAFAFA;" width="2.848" height="2.848"/>
				<rect x="160.141" y="261.932" style="fill:#FAFAFA;" width="2.848" height="2.848"/>
				<rect x="160.141" y="266.706" style="fill:#FAFAFA;" width="2.848" height="2.848"/>
				<rect x="160.141" y="271.48" style="fill:#FAFAFA;" width="2.848" height="2.848"/>
				<rect x="160.141" y="276.255" style="fill:#FAFAFA;" width="2.848" height="2.848"/>
				<rect x="160.141" y="281.029" style="fill:#FAFAFA;" width="2.848" height="2.848"/>
				<rect x="155.618" y="252.384" style="fill:#FAFAFA;" width="2.848" height="2.848"/>
				<rect x="155.618" y="257.158" style="fill:#FAFAFA;" width="2.848" height="2.848"/>
				<rect x="155.618" y="261.932" style="fill:#FAFAFA;" width="2.848" height="2.848"/>
				<rect x="155.618" y="266.706" style="fill:#FAFAFA;" width="2.848" height="2.848"/>
				<rect x="155.618" y="271.48" style="fill:#FAFAFA;" width="2.848" height="2.848"/>
				<rect x="155.618" y="276.255" style="fill:#FAFAFA;" width="2.848" height="2.848"/>
				<rect x="155.618" y="281.029" style="fill:#FAFAFA;" width="2.848" height="2.848"/>
				<rect x="151.095" y="252.384" style="fill:#FAFAFA;" width="2.848" height="2.848"/>
				<rect x="151.095" y="257.158" style="fill:#FAFAFA;" width="2.848" height="2.848"/>
				<rect x="151.095" y="261.932" style="fill:#FAFAFA;" width="2.848" height="2.848"/>
				<rect x="151.095" y="266.706" style="fill:#FAFAFA;" width="2.848" height="2.848"/>
				<rect x="151.095" y="271.48" style="fill:#FAFAFA;" width="2.848" height="2.848"/>
				<rect x="151.095" y="276.255" style="fill:#FAFAFA;" width="2.848" height="2.848"/>
				<rect x="151.095" y="281.029" style="fill:#FAFAFA;" width="2.848" height="2.848"/>
				<rect x="151.095" y="285.803" style="fill:#FAFAFA;" width="2.848" height="2.848"/>
				<rect x="151.095" y="290.577" style="fill:#FAFAFA;" width="2.848" height="2.848"/>
				<rect x="151.095" y="295.351" style="fill:#FAFAFA;" width="2.848" height="2.848"/>
				<rect x="151.095" y="300.125" style="fill:#FAFAFA;" width="2.848" height="2.848"/>
				<rect x="146.572" y="252.384" style="fill:#FAFAFA;" width="2.848" height="2.848"/>
				<rect x="146.572" y="257.158" style="fill:#FAFAFA;" width="2.848" height="2.848"/>
				<rect x="146.572" y="261.932" style="fill:#FAFAFA;" width="2.848" height="2.848"/>
				<rect x="146.572" y="266.706" style="fill:#FAFAFA;" width="2.848" height="2.848"/>
				<rect x="146.572" y="271.48" style="fill:#FAFAFA;" width="2.848" height="2.848"/>
				<rect x="146.572" y="276.255" style="fill:#FAFAFA;" width="2.848" height="2.848"/>
				<rect x="146.572" y="281.029" style="fill:#FAFAFA;" width="2.848" height="2.848"/>
				<rect x="146.572" y="285.803" style="fill:#FAFAFA;" width="2.848" height="2.848"/>
				<rect x="146.572" y="290.577" style="fill:#FAFAFA;" width="2.848" height="2.848"/>
				<rect x="146.572" y="295.351" style="fill:#FAFAFA;" width="2.848" height="2.848"/>
				<rect x="146.572" y="300.125" style="fill:#FAFAFA;" width="2.848" height="2.848"/>
				<rect x="146.572" y="304.9" style="fill:#FAFAFA;" width="2.848" height="2.848"/>
				<rect x="146.572" y="319.222" style="fill:#FAFAFA;" width="2.848" height="2.848"/>
				<rect x="146.572" y="323.996" style="fill:#FAFAFA;" width="2.848" height="2.848"/>
				<rect x="142.049" y="252.384" style="fill:#FAFAFA;" width="2.848" height="2.848"/>
				<rect x="142.049" y="257.158" style="fill:#FAFAFA;" width="2.848" height="2.848"/>
				<rect x="142.049" y="261.932" style="fill:#FAFAFA;" width="2.848" height="2.848"/>
				<rect x="142.049" y="276.255" style="fill:#FAFAFA;" width="2.848" height="2.848"/>
				<rect x="142.049" y="281.029" style="fill:#FAFAFA;" width="2.848" height="2.848"/>
				<rect x="142.049" y="285.803" style="fill:#FAFAFA;" width="2.848" height="2.848"/>
				<rect x="142.049" y="290.577" style="fill:#FAFAFA;" width="2.848" height="2.848"/>
				<rect x="142.049" y="295.351" style="fill:#FAFAFA;" width="2.848" height="2.848"/>
				<rect x="142.049" y="300.125" style="fill:#FAFAFA;" width="2.848" height="2.848"/>
				<rect x="142.049" y="304.9" style="fill:#FAFAFA;" width="2.848" height="2.848"/>
				<rect x="142.049" y="319.222" style="fill:#FAFAFA;" width="2.848" height="2.848"/>
				<rect x="142.049" y="323.996" style="fill:#FAFAFA;" width="2.848" height="2.848"/>
				<rect x="142.049" y="328.77" style="fill:#FAFAFA;" width="2.848" height="2.848"/>
				<rect x="94.643" y="223.739" style="fill:#FAFAFA;" width="2.848" height="2.848"/>
				<rect x="94.643" y="228.513" style="fill:#FAFAFA;" width="2.848" height="2.848"/>
				<rect x="94.643" y="233.287" style="fill:#FAFAFA;" width="2.848" height="2.848"/>
				<rect x="94.643" y="238.061" style="fill:#FAFAFA;" width="2.848" height="2.848"/>
				<rect x="94.643" y="242.835" style="fill:#FAFAFA;" width="2.848" height="2.848"/>
				<rect x="94.643" y="247.61" style="fill:#FAFAFA;" width="2.848" height="2.848"/>
				<rect x="94.643" y="252.384" style="fill:#FAFAFA;" width="2.848" height="2.848"/>
				<rect x="94.643" y="257.158" style="fill:#FAFAFA;" width="2.848" height="2.848"/>
				<rect x="94.643" y="261.932" style="fill:#FAFAFA;" width="2.848" height="2.848"/>
				<rect x="94.643" y="266.706" style="fill:#FAFAFA;" width="2.848" height="2.848"/>
				<rect x="94.643" y="271.48" style="fill:#FAFAFA;" width="2.848" height="2.848"/>
				<rect x="94.643" y="276.255" style="fill:#FAFAFA;" width="2.848" height="2.848"/>
				<rect x="94.643" y="281.029" style="fill:#FAFAFA;" width="2.848" height="2.848"/>
				<rect x="94.643" y="285.803" style="fill:#FAFAFA;" width="2.848" height="2.848"/>
				<rect x="94.643" y="290.577" style="fill:#FAFAFA;" width="2.848" height="2.848"/>
				<rect x="94.643" y="295.351" style="fill:#FAFAFA;" width="2.848" height="2.848"/>
				<rect x="94.643" y="300.125" style="fill:#FAFAFA;" width="2.848" height="2.848"/>
				<rect x="94.643" y="304.9" style="fill:#FAFAFA;" width="2.848" height="2.848"/>
				<rect x="94.643" y="309.674" style="fill:#FAFAFA;" width="2.848" height="2.848"/>
				<rect x="94.643" y="314.448" style="fill:#FAFAFA;" width="2.848" height="2.848"/>
				<rect x="94.643" y="319.222" style="fill:#FAFAFA;" width="2.848" height="2.848"/>
				<rect x="94.643" y="323.996" style="fill:#FAFAFA;" width="2.848" height="2.848"/>
				<rect x="94.643" y="328.77" style="fill:#FAFAFA;" width="2.848" height="2.848"/>
				<rect x="90.12" y="223.739" style="fill:#FAFAFA;" width="2.848" height="2.848"/>
				<rect x="90.12" y="228.513" style="fill:#FAFAFA;" width="2.848" height="2.848"/>
				<rect x="90.12" y="233.287" style="fill:#FAFAFA;" width="2.848" height="2.848"/>
				<rect x="90.12" y="238.061" style="fill:#FAFAFA;" width="2.848" height="2.848"/>
				<rect x="90.12" y="242.835" style="fill:#FAFAFA;" width="2.848" height="2.848"/>
				<rect x="90.12" y="247.61" style="fill:#FAFAFA;" width="2.848" height="2.848"/>
				<rect x="90.12" y="252.384" style="fill:#FAFAFA;" width="2.848" height="2.848"/>
				<rect x="90.12" y="257.158" style="fill:#FAFAFA;" width="2.848" height="2.848"/>
				<rect x="90.12" y="261.932" style="fill:#FAFAFA;" width="2.848" height="2.848"/>
				<rect x="90.12" y="266.706" style="fill:#FAFAFA;" width="2.848" height="2.848"/>
				<rect x="90.12" y="271.48" style="fill:#FAFAFA;" width="2.848" height="2.848"/>
				<rect x="90.12" y="276.255" style="fill:#FAFAFA;" width="2.848" height="2.848"/>
				<rect x="90.12" y="281.029" style="fill:#FAFAFA;" width="2.848" height="2.848"/>
				<rect x="90.12" y="285.803" style="fill:#FAFAFA;" width="2.848" height="2.848"/>
				<rect x="90.12" y="290.577" style="fill:#FAFAFA;" width="2.848" height="2.848"/>
				<rect x="90.12" y="295.351" style="fill:#FAFAFA;" width="2.848" height="2.848"/>
				<rect x="90.12" y="300.125" style="fill:#FAFAFA;" width="2.848" height="2.848"/>
				<rect x="90.12" y="304.9" style="fill:#FAFAFA;" width="2.848" height="2.848"/>
				<rect x="90.12" y="309.674" style="fill:#FAFAFA;" width="2.848" height="2.848"/>
				<rect x="85.597" y="223.739" style="fill:#FAFAFA;" width="2.848" height="2.848"/>
				<rect x="85.597" y="228.513" style="fill:#FAFAFA;" width="2.848" height="2.848"/>
				<rect x="85.597" y="233.287" style="fill:#FAFAFA;" width="2.848" height="2.848"/>
				<rect x="85.597" y="238.061" style="fill:#FAFAFA;" width="2.848" height="2.848"/>
				<rect x="85.597" y="242.835" style="fill:#FAFAFA;" width="2.848" height="2.848"/>
				<rect x="85.597" y="247.61" style="fill:#FAFAFA;" width="2.848" height="2.848"/>
				<rect x="85.597" y="252.384" style="fill:#FAFAFA;" width="2.848" height="2.848"/>
				<rect x="85.597" y="257.158" style="fill:#FAFAFA;" width="2.848" height="2.848"/>
				<rect x="85.597" y="261.932" style="fill:#FAFAFA;" width="2.848" height="2.848"/>
				<rect x="85.597" y="266.706" style="fill:#FAFAFA;" width="2.848" height="2.848"/>
				<rect x="85.597" y="271.48" style="fill:#FAFAFA;" width="2.848" height="2.848"/>
				<rect x="85.597" y="276.255" style="fill:#FAFAFA;" width="2.848" height="2.848"/>
				<rect x="85.597" y="281.029" style="fill:#FAFAFA;" width="2.848" height="2.848"/>
				<rect x="85.597" y="285.803" style="fill:#FAFAFA;" width="2.848" height="2.848"/>
				<rect x="85.597" y="290.577" style="fill:#FAFAFA;" width="2.848" height="2.848"/>
				<rect x="85.597" y="295.351" style="fill:#FAFAFA;" width="2.848" height="2.848"/>
				<rect x="85.597" y="300.125" style="fill:#FAFAFA;" width="2.848" height="2.848"/>
				<rect x="85.597" y="304.9" style="fill:#FAFAFA;" width="2.848" height="2.848"/>
				<rect x="85.597" y="309.674" style="fill:#FAFAFA;" width="2.848" height="2.848"/>
				<rect x="81.074" y="223.739" style="fill:#FAFAFA;" width="2.848" height="2.848"/>
				<rect x="81.074" y="228.513" style="fill:#FAFAFA;" width="2.848" height="2.848"/>
				<rect x="81.074" y="233.287" style="fill:#FAFAFA;" width="2.848" height="2.848"/>
				<rect x="81.074" y="238.061" style="fill:#FAFAFA;" width="2.848" height="2.848"/>
				<rect x="81.074" y="242.835" style="fill:#FAFAFA;" width="2.848" height="2.848"/>
				<rect x="81.074" y="247.61" style="fill:#FAFAFA;" width="2.848" height="2.848"/>
				<rect x="81.074" y="252.384" style="fill:#FAFAFA;" width="2.848" height="2.848"/>
				<rect x="81.074" y="257.158" style="fill:#FAFAFA;" width="2.848" height="2.848"/>
				<rect x="81.074" y="261.932" style="fill:#FAFAFA;" width="2.848" height="2.848"/>
				<rect x="81.074" y="266.706" style="fill:#FAFAFA;" width="2.848" height="2.848"/>
				<rect x="81.074" y="271.48" style="fill:#FAFAFA;" width="2.848" height="2.848"/>
				<rect x="81.074" y="276.255" style="fill:#FAFAFA;" width="2.848" height="2.848"/>
				<rect x="81.074" y="281.029" style="fill:#FAFAFA;" width="2.848" height="2.848"/>
				<rect x="81.074" y="285.803" style="fill:#FAFAFA;" width="2.848" height="2.848"/>
				<rect x="81.074" y="290.577" style="fill:#FAFAFA;" width="2.848" height="2.848"/>
				<rect x="76.551" y="223.739" style="fill:#FAFAFA;" width="2.848" height="2.848"/>
				<rect x="76.551" y="228.513" style="fill:#FAFAFA;" width="2.848" height="2.848"/>
				<rect x="76.551" y="233.287" style="fill:#FAFAFA;" width="2.848" height="2.848"/>
				<rect x="76.551" y="238.061" style="fill:#FAFAFA;" width="2.848" height="2.848"/>
				<rect x="76.551" y="242.835" style="fill:#FAFAFA;" width="2.848" height="2.848"/>
				<rect x="76.551" y="247.61" style="fill:#FAFAFA;" width="2.848" height="2.848"/>
				<rect x="76.551" y="252.384" style="fill:#FAFAFA;" width="2.848" height="2.848"/>
				<rect x="76.551" y="257.158" style="fill:#FAFAFA;" width="2.848" height="2.848"/>
				<rect x="76.551" y="261.932" style="fill:#FAFAFA;" width="2.848" height="2.848"/>
				<rect x="76.551" y="266.706" style="fill:#FAFAFA;" width="2.848" height="2.848"/>
				<rect x="76.551" y="271.48" style="fill:#FAFAFA;" width="2.848" height="2.848"/>
				<rect x="76.551" y="276.255" style="fill:#FAFAFA;" width="2.848" height="2.848"/>
				<rect x="76.551" y="281.029" style="fill:#FAFAFA;" width="2.848" height="2.848"/>
				<rect x="72.028" y="223.739" style="fill:#FAFAFA;" width="2.848" height="2.848"/>
				<rect x="72.028" y="228.513" style="fill:#FAFAFA;" width="2.848" height="2.848"/>
				<rect x="72.028" y="233.287" style="fill:#FAFAFA;" width="2.848" height="2.848"/>
				<rect x="72.028" y="238.061" style="fill:#FAFAFA;" width="2.848" height="2.848"/>
				<rect x="72.028" y="242.835" style="fill:#FAFAFA;" width="2.848" height="2.848"/>
				<rect x="72.028" y="247.61" style="fill:#FAFAFA;" width="2.848" height="2.848"/>
				<rect x="72.028" y="252.384" style="fill:#FAFAFA;" width="2.848" height="2.848"/>
				<rect x="72.028" y="257.158" style="fill:#FAFAFA;" width="2.848" height="2.848"/>
				<rect x="72.028" y="261.932" style="fill:#FAFAFA;" width="2.848" height="2.848"/>
				<rect x="72.028" y="266.706" style="fill:#FAFAFA;" width="2.848" height="2.848"/>
				<rect x="72.028" y="271.48" style="fill:#FAFAFA;" width="2.848" height="2.848"/>
				<rect x="72.028" y="276.255" style="fill:#FAFAFA;" width="2.848" height="2.848"/>
				<rect x="404.377" y="258.582" style="fill:#FAFAFA;" width="2.848" height="2.848"/>
				<rect x="404.377" y="263.356" style="fill:#FAFAFA;" width="2.848" height="2.848"/>
				<rect x="404.377" y="268.13" style="fill:#FAFAFA;" width="2.848" height="2.848"/>
				<rect x="404.377" y="272.904" style="fill:#FAFAFA;" width="2.848" height="2.848"/>
				<rect x="404.377" y="277.678" style="fill:#FAFAFA;" width="2.848" height="2.848"/>
				<rect x="404.377" y="282.453" style="fill:#FAFAFA;" width="2.848" height="2.848"/>
				<rect x="404.377" y="287.227" style="fill:#FAFAFA;" width="2.848" height="2.848"/>
				<rect x="404.377" y="292.001" style="fill:#FAFAFA;" width="2.848" height="2.848"/>
				<rect x="404.377" y="296.775" style="fill:#FAFAFA;" width="2.848" height="2.848"/>
				<rect x="404.377" y="301.549" style="fill:#FAFAFA;" width="2.848" height="2.848"/>
				<rect x="404.377" y="306.323" style="fill:#FAFAFA;" width="2.848" height="2.848"/>
				<rect x="404.377" y="311.098" style="fill:#FAFAFA;" width="2.848" height="2.848"/>
				<rect x="404.377" y="315.872" style="fill:#FAFAFA;" width="2.848" height="2.848"/>
				<rect x="404.377" y="320.646" style="fill:#FAFAFA;" width="2.848" height="2.848"/>
				<rect x="404.377" y="325.42" style="fill:#FAFAFA;" width="2.848" height="2.848"/>
				<rect x="404.377" y="330.194" style="fill:#FAFAFA;" width="2.848" height="2.848"/>
				<rect x="404.377" y="334.968" style="fill:#FAFAFA;" width="2.848" height="2.848"/>
				<rect x="404.377" y="339.742" style="fill:#FAFAFA;" width="2.848" height="2.848"/>
				<rect x="404.377" y="344.517" style="fill:#FAFAFA;" width="2.848" height="2.848"/>
				<rect x="404.377" y="349.291" style="fill:#FAFAFA;" width="2.848" height="2.848"/>
				<rect x="399.854" y="258.582" style="fill:#FAFAFA;" width="2.848" height="2.848"/>
				<rect x="399.854" y="263.356" style="fill:#FAFAFA;" width="2.848" height="2.848"/>
				<rect x="399.854" y="268.13" style="fill:#FAFAFA;" width="2.848" height="2.848"/>
				<rect x="399.854" y="272.904" style="fill:#FAFAFA;" width="2.848" height="2.848"/>
				<rect x="399.854" y="277.678" style="fill:#FAFAFA;" width="2.848" height="2.848"/>
				<rect x="399.854" y="282.453" style="fill:#FAFAFA;" width="2.848" height="2.848"/>
				<rect x="399.854" y="287.227" style="fill:#FAFAFA;" width="2.848" height="2.848"/>
				<rect x="399.854" y="292.001" style="fill:#FAFAFA;" width="2.848" height="2.848"/>
				<rect x="399.854" y="296.775" style="fill:#FAFAFA;" width="2.848" height="2.848"/>
				<rect x="399.854" y="301.549" style="fill:#FAFAFA;" width="2.848" height="2.848"/>
				<rect x="399.854" y="306.323" style="fill:#FAFAFA;" width="2.848" height="2.848"/>
				<rect x="399.854" y="311.098" style="fill:#FAFAFA;" width="2.848" height="2.848"/>
				<rect x="399.854" y="315.872" style="fill:#FAFAFA;" width="2.848" height="2.848"/>
				<rect x="399.854" y="320.646" style="fill:#FAFAFA;" width="2.848" height="2.848"/>
				<rect x="399.854" y="325.42" style="fill:#FAFAFA;" width="2.848" height="2.848"/>
				<rect x="399.854" y="330.194" style="fill:#FAFAFA;" width="2.848" height="2.848"/>
				<rect x="399.854" y="334.968" style="fill:#FAFAFA;" width="2.848" height="2.848"/>
				<rect x="399.854" y="339.742" style="fill:#FAFAFA;" width="2.848" height="2.848"/>
				<rect x="395.331" y="258.582" style="fill:#FAFAFA;" width="2.848" height="2.848"/>
				<rect x="395.331" y="263.356" style="fill:#FAFAFA;" width="2.848" height="2.848"/>
				<rect x="395.331" y="268.13" style="fill:#FAFAFA;" width="2.848" height="2.848"/>
				<rect x="395.331" y="272.904" style="fill:#FAFAFA;" width="2.848" height="2.848"/>
				<rect x="395.331" y="277.678" style="fill:#FAFAFA;" width="2.848" height="2.848"/>
				<rect x="395.331" y="282.453" style="fill:#FAFAFA;" width="2.848" height="2.848"/>
				<rect x="395.331" y="287.227" style="fill:#FAFAFA;" width="2.848" height="2.848"/>
				<rect x="395.331" y="292.001" style="fill:#FAFAFA;" width="2.848" height="2.848"/>
				<rect x="395.331" y="296.775" style="fill:#FAFAFA;" width="2.848" height="2.848"/>
				<rect x="395.331" y="301.549" style="fill:#FAFAFA;" width="2.848" height="2.848"/>
				<rect x="395.331" y="306.323" style="fill:#FAFAFA;" width="2.848" height="2.848"/>
				<rect x="395.331" y="311.098" style="fill:#FAFAFA;" width="2.848" height="2.848"/>
				<rect x="395.331" y="315.872" style="fill:#FAFAFA;" width="2.848" height="2.848"/>
				<rect x="395.331" y="320.646" style="fill:#FAFAFA;" width="2.848" height="2.848"/>
				<rect x="395.331" y="325.42" style="fill:#FAFAFA;" width="2.848" height="2.848"/>
				<rect x="395.331" y="330.194" style="fill:#FAFAFA;" width="2.848" height="2.848"/>
				<rect x="395.331" y="334.968" style="fill:#FAFAFA;" width="2.848" height="2.848"/>
				<rect x="395.331" y="339.742" style="fill:#FAFAFA;" width="2.848" height="2.848"/>
				<rect x="421.296" y="293.425" style="fill:#FAFAFA;" width="2.848" height="2.848"/>
				<rect x="421.296" y="298.199" style="fill:#FAFAFA;" width="2.848" height="2.848"/>
				<rect x="421.296" y="302.973" style="fill:#FAFAFA;" width="2.848" height="2.848"/>
				<rect x="421.296" y="307.747" style="fill:#FAFAFA;" width="2.848" height="2.848"/>
				<rect x="421.296" y="312.521" style="fill:#FAFAFA;" width="2.848" height="2.848"/>
				<rect x="421.296" y="317.296" style="fill:#FAFAFA;" width="2.848" height="2.848"/>
				<rect x="421.296" y="322.07" style="fill:#FAFAFA;" width="2.848" height="2.848"/>
				<rect x="421.296" y="326.844" style="fill:#FAFAFA;" width="2.848" height="2.848"/>
				<rect x="421.296" y="331.618" style="fill:#FAFAFA;" width="2.848" height="2.848"/>
				<rect x="421.296" y="336.392" style="fill:#FAFAFA;" width="2.848" height="2.848"/>
				<rect x="421.296" y="341.166" style="fill:#FAFAFA;" width="2.848" height="2.848"/>
				<rect x="421.296" y="345.94" style="fill:#FAFAFA;" width="2.848" height="2.848"/>
				<rect x="421.296" y="350.715" style="fill:#FAFAFA;" width="2.848" height="2.848"/>
				<rect x="416.773" y="293.425" style="fill:#FAFAFA;" width="2.848" height="2.848"/>
				<rect x="416.773" y="298.199" style="fill:#FAFAFA;" width="2.848" height="2.848"/>
				<rect x="416.773" y="302.973" style="fill:#FAFAFA;" width="2.848" height="2.848"/>
				<rect x="416.773" y="307.747" style="fill:#FAFAFA;" width="2.848" height="2.848"/>
				<rect x="416.773" y="312.521" style="fill:#FAFAFA;" width="2.848" height="2.848"/>
				<rect x="416.773" y="317.296" style="fill:#FAFAFA;" width="2.848" height="2.848"/>
				<rect x="416.773" y="322.07" style="fill:#FAFAFA;" width="2.848" height="2.848"/>
				<rect x="416.773" y="326.844" style="fill:#FAFAFA;" width="2.848" height="2.848"/>
				<rect x="416.773" y="331.618" style="fill:#FAFAFA;" width="2.848" height="2.848"/>
				<rect x="416.773" y="336.392" style="fill:#FAFAFA;" width="2.848" height="2.848"/>
				<rect x="416.773" y="341.166" style="fill:#FAFAFA;" width="2.848" height="2.848"/>
				<rect x="416.773" y="345.94" style="fill:#FAFAFA;" width="2.848" height="2.848"/>
				<rect x="416.773" y="350.715" style="fill:#FAFAFA;" width="2.848" height="2.848"/>
				<rect x="412.25" y="293.425" style="fill:#FAFAFA;" width="2.848" height="2.848"/>
				<rect x="412.25" y="298.199" style="fill:#FAFAFA;" width="2.848" height="2.848"/>
				<rect x="412.25" y="302.973" style="fill:#FAFAFA;" width="2.848" height="2.848"/>
				<rect x="412.25" y="307.747" style="fill:#FAFAFA;" width="2.848" height="2.848"/>
				<rect x="412.25" y="312.521" style="fill:#FAFAFA;" width="2.848" height="2.848"/>
				<rect x="412.25" y="317.296" style="fill:#FAFAFA;" width="2.848" height="2.848"/>
				<rect x="412.25" y="322.07" style="fill:#FAFAFA;" width="2.848" height="2.848"/>
				<rect x="412.25" y="326.844" style="fill:#FAFAFA;" width="2.848" height="2.848"/>
				<rect x="412.25" y="331.618" style="fill:#FAFAFA;" width="2.848" height="2.848"/>
				<rect x="412.25" y="336.392" style="fill:#FAFAFA;" width="2.848" height="2.848"/>
				<rect x="412.25" y="341.166" style="fill:#FAFAFA;" width="2.848" height="2.848"/>
				<rect x="412.25" y="345.94" style="fill:#FAFAFA;" width="2.848" height="2.848"/>
				<rect x="412.25" y="350.715" style="fill:#FAFAFA;" width="2.848" height="2.848"/>
				<rect x="412.25" y="355.489" style="fill:#FAFAFA;" width="2.848" height="2.848"/>
				<rect x="387.123" y="294.849" style="fill:#FAFAFA;" width="2.848" height="2.848"/>
				<rect x="387.123" y="299.623" style="fill:#FAFAFA;" width="2.848" height="2.848"/>
				<rect x="387.123" y="304.397" style="fill:#FAFAFA;" width="2.848" height="2.848"/>
				<rect x="387.123" y="309.171" style="fill:#FAFAFA;" width="2.848" height="2.848"/>
				<rect x="387.123" y="313.945" style="fill:#FAFAFA;" width="2.848" height="2.848"/>
				<rect x="387.123" y="318.72" style="fill:#FAFAFA;" width="2.848" height="2.848"/>
				<rect x="387.123" y="323.494" style="fill:#FAFAFA;" width="2.848" height="2.848"/>
				<rect x="387.123" y="328.268" style="fill:#FAFAFA;" width="2.848" height="2.848"/>
				<rect x="387.123" y="333.042" style="fill:#FAFAFA;" width="2.848" height="2.848"/>
				<rect x="387.123" y="337.816" style="fill:#FAFAFA;" width="2.848" height="2.848"/>
				<rect x="387.123" y="352.139" style="fill:#FAFAFA;" width="2.848" height="2.848"/>
				<rect x="382.6" y="294.849" style="fill:#FAFAFA;" width="2.848" height="2.848"/>
				<rect x="382.6" y="299.623" style="fill:#FAFAFA;" width="2.848" height="2.848"/>
				<rect x="382.6" y="304.397" style="fill:#FAFAFA;" width="2.848" height="2.848"/>
				<rect x="382.6" y="309.171" style="fill:#FAFAFA;" width="2.848" height="2.848"/>
				<rect x="382.6" y="313.945" style="fill:#FAFAFA;" width="2.848" height="2.848"/>
				<rect x="382.6" y="318.72" style="fill:#FAFAFA;" width="2.848" height="2.848"/>
				<rect x="382.6" y="323.494" style="fill:#FAFAFA;" width="2.848" height="2.848"/>
				<rect x="382.6" y="328.268" style="fill:#FAFAFA;" width="2.848" height="2.848"/>
				<rect x="382.6" y="333.042" style="fill:#FAFAFA;" width="2.848" height="2.848"/>
				<rect x="382.6" y="347.364" style="fill:#FAFAFA;" width="2.848" height="2.848"/>
				<rect x="382.6" y="352.139" style="fill:#FAFAFA;" width="2.848" height="2.848"/>
				<rect x="378.077" y="294.849" style="fill:#FAFAFA;" width="2.848" height="2.848"/>
				<rect x="378.077" y="299.623" style="fill:#FAFAFA;" width="2.848" height="2.848"/>
				<rect x="378.077" y="304.397" style="fill:#FAFAFA;" width="2.848" height="2.848"/>
				<rect x="378.077" y="309.171" style="fill:#FAFAFA;" width="2.848" height="2.848"/>
				<rect x="378.077" y="313.945" style="fill:#FAFAFA;" width="2.848" height="2.848"/>
				<rect x="378.077" y="318.72" style="fill:#FAFAFA;" width="2.848" height="2.848"/>
				<rect x="378.077" y="323.494" style="fill:#FAFAFA;" width="2.848" height="2.848"/>
				<rect x="378.077" y="328.268" style="fill:#FAFAFA;" width="2.848" height="2.848"/>
				<rect x="378.077" y="342.59" style="fill:#FAFAFA;" width="2.848" height="2.848"/>
				<rect x="378.077" y="347.364" style="fill:#FAFAFA;" width="2.848" height="2.848"/>
				<rect x="378.077" y="352.139" style="fill:#FAFAFA;" width="2.848" height="2.848"/>
				<rect x="336.031" y="222.315" style="fill:#FAFAFA;" width="2.848" height="2.848"/>
				<rect x="336.031" y="227.089" style="fill:#FAFAFA;" width="2.848" height="2.848"/>
				<rect x="336.031" y="231.863" style="fill:#FAFAFA;" width="2.848" height="2.848"/>
				<rect x="336.031" y="236.637" style="fill:#FAFAFA;" width="2.848" height="2.848"/>
				<rect x="336.031" y="241.412" style="fill:#FAFAFA;" width="2.848" height="2.848"/>
				<rect x="336.031" y="246.186" style="fill:#FAFAFA;" width="2.848" height="2.848"/>
				<rect x="336.031" y="250.96" style="fill:#FAFAFA;" width="2.848" height="2.848"/>
				<rect x="336.031" y="255.734" style="fill:#FAFAFA;" width="2.848" height="2.848"/>
				<rect x="336.031" y="260.508" style="fill:#FAFAFA;" width="2.848" height="2.848"/>
				<rect x="336.031" y="265.282" style="fill:#FAFAFA;" width="2.848" height="2.848"/>
				<rect x="336.031" y="270.056" style="fill:#FAFAFA;" width="2.848" height="2.848"/>
				<rect x="336.031" y="274.831" style="fill:#FAFAFA;" width="2.848" height="2.848"/>
				<rect x="336.031" y="279.605" style="fill:#FAFAFA;" width="2.848" height="2.848"/>
				<rect x="336.031" y="284.379" style="fill:#FAFAFA;" width="2.848" height="2.848"/>
				<rect x="336.031" y="289.153" style="fill:#FAFAFA;" width="2.848" height="2.848"/>
				<rect x="336.031" y="293.927" style="fill:#FAFAFA;" width="2.848" height="2.848"/>
				<rect x="336.031" y="298.701" style="fill:#FAFAFA;" width="2.848" height="2.848"/>
				<rect x="336.031" y="308.25" style="fill:#FAFAFA;" width="2.848" height="2.848"/>
				<rect x="336.031" y="313.024" style="fill:#FAFAFA;" width="2.848" height="2.848"/>
				<rect x="336.031" y="317.798" style="fill:#FAFAFA;" width="2.848" height="2.848"/>
				<rect x="336.031" y="322.572" style="fill:#FAFAFA;" width="2.848" height="2.848"/>
				<rect x="336.031" y="327.346" style="fill:#FAFAFA;" width="2.848" height="2.848"/>
				<rect x="331.508" y="222.315" style="fill:#FAFAFA;" width="2.848" height="2.848"/>
				<rect x="331.508" y="227.089" style="fill:#FAFAFA;" width="2.848" height="2.848"/>
				<rect x="331.508" y="231.863" style="fill:#FAFAFA;" width="2.848" height="2.848"/>
				<rect x="331.508" y="236.637" style="fill:#FAFAFA;" width="2.848" height="2.848"/>
				<rect x="331.508" y="241.412" style="fill:#FAFAFA;" width="2.848" height="2.848"/>
				<rect x="331.508" y="246.186" style="fill:#FAFAFA;" width="2.848" height="2.848"/>
				<rect x="331.508" y="250.96" style="fill:#FAFAFA;" width="2.848" height="2.848"/>
				<rect x="331.508" y="255.734" style="fill:#FAFAFA;" width="2.848" height="2.848"/>
				<rect x="331.508" y="260.508" style="fill:#FAFAFA;" width="2.848" height="2.848"/>
				<rect x="331.508" y="265.282" style="fill:#FAFAFA;" width="2.848" height="2.848"/>
				<rect x="331.508" y="270.056" style="fill:#FAFAFA;" width="2.848" height="2.848"/>
				<rect x="331.508" y="274.831" style="fill:#FAFAFA;" width="2.848" height="2.848"/>
				<rect x="331.508" y="279.605" style="fill:#FAFAFA;" width="2.848" height="2.848"/>
				<rect x="331.508" y="284.379" style="fill:#FAFAFA;" width="2.848" height="2.848"/>
				<rect x="331.508" y="289.153" style="fill:#FAFAFA;" width="2.848" height="2.848"/>
				<rect x="331.508" y="293.927" style="fill:#FAFAFA;" width="2.848" height="2.848"/>
				<rect x="331.508" y="322.572" style="fill:#FAFAFA;" width="2.848" height="2.848"/>
				<rect x="331.508" y="327.346" style="fill:#FAFAFA;" width="2.848" height="2.848"/>
				<rect x="326.985" y="222.315" style="fill:#FAFAFA;" width="2.848" height="2.848"/>
				<rect x="326.985" y="227.089" style="fill:#FAFAFA;" width="2.848" height="2.848"/>
				<rect x="326.985" y="231.863" style="fill:#FAFAFA;" width="2.848" height="2.848"/>
				<rect x="326.985" y="236.637" style="fill:#FAFAFA;" width="2.848" height="2.848"/>
				<rect x="326.985" y="241.412" style="fill:#FAFAFA;" width="2.848" height="2.848"/>
				<rect x="326.985" y="246.186" style="fill:#FAFAFA;" width="2.848" height="2.848"/>
				<rect x="326.985" y="250.96" style="fill:#FAFAFA;" width="2.848" height="2.848"/>
				<rect x="326.985" y="255.734" style="fill:#FAFAFA;" width="2.848" height="2.848"/>
				<rect x="326.985" y="260.508" style="fill:#FAFAFA;" width="2.848" height="2.848"/>
				<rect x="326.985" y="265.282" style="fill:#FAFAFA;" width="2.848" height="2.848"/>
				<rect x="326.985" y="270.056" style="fill:#FAFAFA;" width="2.848" height="2.848"/>
				<rect x="326.985" y="274.831" style="fill:#FAFAFA;" width="2.848" height="2.848"/>
				<rect x="326.985" y="279.605" style="fill:#FAFAFA;" width="2.848" height="2.848"/>
				<rect x="326.985" y="284.379" style="fill:#FAFAFA;" width="2.848" height="2.848"/>
				<rect x="326.985" y="289.153" style="fill:#FAFAFA;" width="2.848" height="2.848"/>
				<rect x="326.985" y="293.927" style="fill:#FAFAFA;" width="2.848" height="2.848"/>
				<rect x="326.985" y="303.476" style="fill:#FAFAFA;" width="2.848" height="2.848"/>
				<rect x="326.985" y="308.25" style="fill:#FAFAFA;" width="2.848" height="2.848"/>
				<rect x="326.985" y="313.024" style="fill:#FAFAFA;" width="2.848" height="2.848"/>
				<rect x="326.985" y="317.798" style="fill:#FAFAFA;" width="2.848" height="2.848"/>
				<rect x="326.985" y="327.346" style="fill:#FAFAFA;" width="2.848" height="2.848"/>
				<rect x="352.447" y="282.453" style="fill:#FAFAFA;" width="2.848" height="2.848"/>
				<rect x="352.447" y="287.227" style="fill:#FAFAFA;" width="2.848" height="2.848"/>
				<rect x="352.447" y="292.001" style="fill:#FAFAFA;" width="2.848" height="2.848"/>
				<rect x="352.447" y="296.775" style="fill:#FAFAFA;" width="2.848" height="2.848"/>
				<rect x="352.447" y="301.549" style="fill:#FAFAFA;" width="2.848" height="2.848"/>
				<rect x="352.447" y="306.323" style="fill:#FAFAFA;" width="2.848" height="2.848"/>
				<rect x="352.447" y="311.098" style="fill:#FAFAFA;" width="2.848" height="2.848"/>
				<rect x="352.447" y="320.646" style="fill:#FAFAFA;" width="2.848" height="2.848"/>
				<rect x="352.447" y="325.42" style="fill:#FAFAFA;" width="2.848" height="2.848"/>
				<rect x="352.447" y="330.194" style="fill:#FAFAFA;" width="2.848" height="2.848"/>
				<rect x="352.447" y="334.968" style="fill:#FAFAFA;" width="2.848" height="2.848"/>
				<rect x="352.447" y="339.742" style="fill:#FAFAFA;" width="2.848" height="2.848"/>
				<rect x="352.447" y="344.517" style="fill:#FAFAFA;" width="2.848" height="2.848"/>
				<rect x="352.447" y="349.291" style="fill:#FAFAFA;" width="2.848" height="2.848"/>
				<rect x="352.447" y="354.065" style="fill:#FAFAFA;" width="2.848" height="2.848"/>
				<rect x="347.924" y="282.453" style="fill:#FAFAFA;" width="2.848" height="2.848"/>
				<rect x="347.924" y="287.227" style="fill:#FAFAFA;" width="2.848" height="2.848"/>
				<rect x="347.924" y="292.001" style="fill:#FAFAFA;" width="2.848" height="2.848"/>
				<rect x="347.924" y="296.775" style="fill:#FAFAFA;" width="2.848" height="2.848"/>
				<rect x="347.924" y="301.549" style="fill:#FAFAFA;" width="2.848" height="2.848"/>
				<rect x="347.924" y="306.323" style="fill:#FAFAFA;" width="2.848" height="2.848"/>
				<rect x="347.924" y="320.646" style="fill:#FAFAFA;" width="2.848" height="2.848"/>
				<rect x="347.924" y="325.42" style="fill:#FAFAFA;" width="2.848" height="2.848"/>
				<rect x="347.924" y="330.194" style="fill:#FAFAFA;" width="2.848" height="2.848"/>
				<rect x="347.924" y="334.968" style="fill:#FAFAFA;" width="2.848" height="2.848"/>
				<rect x="347.924" y="339.742" style="fill:#FAFAFA;" width="2.848" height="2.848"/>
				<rect x="347.924" y="344.517" style="fill:#FAFAFA;" width="2.848" height="2.848"/>
				<rect x="347.924" y="349.291" style="fill:#FAFAFA;" width="2.848" height="2.848"/>
				<rect x="347.924" y="354.065" style="fill:#FAFAFA;" width="2.848" height="2.848"/>
				<rect x="343.401" y="282.453" style="fill:#FAFAFA;" width="2.848" height="2.848"/>
				<rect x="343.401" y="287.227" style="fill:#FAFAFA;" width="2.848" height="2.848"/>
				<rect x="343.401" y="292.001" style="fill:#FAFAFA;" width="2.848" height="2.848"/>
				<rect x="343.401" y="296.775" style="fill:#FAFAFA;" width="2.848" height="2.848"/>
				<rect x="343.401" y="301.549" style="fill:#FAFAFA;" width="2.848" height="2.848"/>
				<rect x="343.401" y="306.323" style="fill:#FAFAFA;" width="2.848" height="2.848"/>
				<rect x="343.401" y="315.872" style="fill:#FAFAFA;" width="2.848" height="2.848"/>
				<rect x="343.401" y="320.646" style="fill:#FAFAFA;" width="2.848" height="2.848"/>
				<rect x="343.401" y="325.42" style="fill:#FAFAFA;" width="2.848" height="2.848"/>
				<rect x="343.401" y="330.194" style="fill:#FAFAFA;" width="2.848" height="2.848"/>
				<rect x="343.401" y="334.968" style="fill:#FAFAFA;" width="2.848" height="2.848"/>
				<rect x="343.401" y="339.742" style="fill:#FAFAFA;" width="2.848" height="2.848"/>
				<rect x="343.401" y="344.517" style="fill:#FAFAFA;" width="2.848" height="2.848"/>
				<rect x="343.401" y="349.291" style="fill:#FAFAFA;" width="2.848" height="2.848"/>
				<rect x="343.401" y="354.065" style="fill:#FAFAFA;" width="2.848" height="2.848"/>
				<rect x="248.086" y="255.734" style="fill:#FAFAFA;" width="2.848" height="2.848"/>
				<rect x="248.086" y="260.508" style="fill:#FAFAFA;" width="2.848" height="2.848"/>
				<rect x="248.086" y="265.282" style="fill:#FAFAFA;" width="2.848" height="2.848"/>
				<rect x="248.086" y="270.056" style="fill:#FAFAFA;" width="2.848" height="2.848"/>
				<rect x="248.086" y="274.831" style="fill:#FAFAFA;" width="2.848" height="2.848"/>
				<rect x="248.086" y="279.605" style="fill:#FAFAFA;" width="2.848" height="2.848"/>
				<rect x="248.086" y="284.379" style="fill:#FAFAFA;" width="2.848" height="2.848"/>
				<rect x="248.086" y="289.153" style="fill:#FAFAFA;" width="2.848" height="2.848"/>
				<rect x="248.086" y="293.927" style="fill:#FAFAFA;" width="2.848" height="2.848"/>
				<rect x="248.086" y="298.701" style="fill:#FAFAFA;" width="2.848" height="2.848"/>
				<rect x="248.086" y="303.476" style="fill:#FAFAFA;" width="2.848" height="2.848"/>
				<rect x="248.086" y="308.25" style="fill:#FAFAFA;" width="2.848" height="2.848"/>
				<rect x="248.086" y="313.024" style="fill:#FAFAFA;" width="2.848" height="2.848"/>
				<rect x="248.086" y="322.572" style="fill:#FAFAFA;" width="2.848" height="2.848"/>
				<rect x="248.086" y="327.346" style="fill:#FAFAFA;" width="2.848" height="2.848"/>
				<rect x="248.086" y="332.121" style="fill:#FAFAFA;" width="2.848" height="2.848"/>
				<rect x="248.086" y="336.895" style="fill:#FAFAFA;" width="2.848" height="2.848"/>
				<rect x="248.086" y="346.443" style="fill:#FAFAFA;" width="2.848" height="2.848"/>
				<rect x="248.086" y="351.217" style="fill:#FAFAFA;" width="2.848" height="2.848"/>
				<rect x="248.086" y="355.991" style="fill:#FAFAFA;" width="2.848" height="2.848"/>
				<rect x="243.563" y="255.734" style="fill:#FAFAFA;" width="2.848" height="2.848"/>
				<rect x="243.563" y="260.508" style="fill:#FAFAFA;" width="2.848" height="2.848"/>
				<rect x="243.563" y="265.282" style="fill:#FAFAFA;" width="2.848" height="2.848"/>
				<rect x="243.563" y="270.056" style="fill:#FAFAFA;" width="2.848" height="2.848"/>
				<rect x="243.563" y="274.831" style="fill:#FAFAFA;" width="2.848" height="2.848"/>
				<rect x="243.563" y="279.605" style="fill:#FAFAFA;" width="2.848" height="2.848"/>
				<rect x="243.563" y="284.379" style="fill:#FAFAFA;" width="2.848" height="2.848"/>
				<rect x="243.563" y="289.153" style="fill:#FAFAFA;" width="2.848" height="2.848"/>
				<rect x="243.563" y="293.927" style="fill:#FAFAFA;" width="2.848" height="2.848"/>
				<rect x="243.563" y="298.701" style="fill:#FAFAFA;" width="2.848" height="2.848"/>
				<rect x="243.563" y="303.476" style="fill:#FAFAFA;" width="2.848" height="2.848"/>
				<rect x="243.563" y="308.25" style="fill:#FAFAFA;" width="2.848" height="2.848"/>
				<rect x="243.563" y="313.024" style="fill:#FAFAFA;" width="2.848" height="2.848"/>
				<rect x="243.563" y="327.346" style="fill:#FAFAFA;" width="2.848" height="2.848"/>
				<rect x="243.563" y="332.121" style="fill:#FAFAFA;" width="2.848" height="2.848"/>
				<rect x="243.563" y="341.669" style="fill:#FAFAFA;" width="2.848" height="2.848"/>
				<rect x="243.563" y="346.443" style="fill:#FAFAFA;" width="2.848" height="2.848"/>
				<rect x="243.563" y="351.217" style="fill:#FAFAFA;" width="2.848" height="2.848"/>
				<rect x="243.563" y="355.991" style="fill:#FAFAFA;" width="2.848" height="2.848"/>
				<rect x="239.04" y="255.734" style="fill:#FAFAFA;" width="2.848" height="2.848"/>
				<rect x="239.04" y="260.508" style="fill:#FAFAFA;" width="2.848" height="2.848"/>
				<rect x="239.04" y="265.282" style="fill:#FAFAFA;" width="2.848" height="2.848"/>
				<rect x="239.04" y="270.056" style="fill:#FAFAFA;" width="2.848" height="2.848"/>
				<rect x="239.04" y="274.831" style="fill:#FAFAFA;" width="2.848" height="2.848"/>
				<rect x="239.04" y="279.605" style="fill:#FAFAFA;" width="2.848" height="2.848"/>
				<rect x="239.04" y="284.379" style="fill:#FAFAFA;" width="2.848" height="2.848"/>
				<rect x="239.04" y="289.153" style="fill:#FAFAFA;" width="2.848" height="2.848"/>
				<rect x="239.04" y="293.927" style="fill:#FAFAFA;" width="2.848" height="2.848"/>
				<rect x="239.04" y="298.701" style="fill:#FAFAFA;" width="2.848" height="2.848"/>
				<rect x="239.04" y="303.476" style="fill:#FAFAFA;" width="2.848" height="2.848"/>
				<rect x="239.04" y="308.25" style="fill:#FAFAFA;" width="2.848" height="2.848"/>
				<rect x="239.04" y="313.024" style="fill:#FAFAFA;" width="2.848" height="2.848"/>
				<rect x="239.04" y="317.798" style="fill:#FAFAFA;" width="2.848" height="2.848"/>
				<rect x="239.04" y="327.346" style="fill:#FAFAFA;" width="2.848" height="2.848"/>
				<rect x="239.04" y="336.895" style="fill:#FAFAFA;" width="2.848" height="2.848"/>
				<rect x="239.04" y="341.669" style="fill:#FAFAFA;" width="2.848" height="2.848"/>
				<rect x="239.04" y="346.443" style="fill:#FAFAFA;" width="2.848" height="2.848"/>
				<rect x="239.04" y="351.217" style="fill:#FAFAFA;" width="2.848" height="2.848"/>
				<rect x="239.04" y="355.991" style="fill:#FAFAFA;" width="2.848" height="2.848"/>
				<rect x="266.512" y="282.955" style="fill:#FAFAFA;" width="2.848" height="2.848"/>
				<rect x="266.512" y="287.729" style="fill:#FAFAFA;" width="2.848" height="2.848"/>
				<rect x="266.512" y="292.504" style="fill:#FAFAFA;" width="2.848" height="2.848"/>
				<rect x="266.512" y="297.278" style="fill:#FAFAFA;" width="2.848" height="2.848"/>
				<rect x="266.512" y="302.052" style="fill:#FAFAFA;" width="2.848" height="2.848"/>
				<rect x="266.512" y="306.826" style="fill:#FAFAFA;" width="2.848" height="2.848"/>
				<rect x="266.512" y="321.148" style="fill:#FAFAFA;" width="2.848" height="2.848"/>
				<rect x="266.512" y="325.923" style="fill:#FAFAFA;" width="2.848" height="2.848"/>
				<rect x="266.512" y="330.697" style="fill:#FAFAFA;" width="2.848" height="2.848"/>
				<rect x="266.512" y="335.471" style="fill:#FAFAFA;" width="2.848" height="2.848"/>
				<rect x="266.512" y="340.245" style="fill:#FAFAFA;" width="2.848" height="2.848"/>
				<rect x="266.512" y="345.019" style="fill:#FAFAFA;" width="2.848" height="2.848"/>
				<rect x="266.512" y="349.793" style="fill:#FAFAFA;" width="2.848" height="2.848"/>
				<rect x="261.99" y="282.955" style="fill:#FAFAFA;" width="2.848" height="2.848"/>
				<rect x="261.99" y="287.729" style="fill:#FAFAFA;" width="2.848" height="2.848"/>
				<rect x="261.99" y="292.504" style="fill:#FAFAFA;" width="2.848" height="2.848"/>
				<rect x="261.99" y="297.278" style="fill:#FAFAFA;" width="2.848" height="2.848"/>
				<rect x="261.99" y="302.052" style="fill:#FAFAFA;" width="2.848" height="2.848"/>
				<rect x="261.99" y="306.826" style="fill:#FAFAFA;" width="2.848" height="2.848"/>
				<rect x="261.99" y="321.148" style="fill:#FAFAFA;" width="2.848" height="2.848"/>
				<rect x="261.99" y="325.923" style="fill:#FAFAFA;" width="2.848" height="2.848"/>
				<rect x="261.99" y="330.697" style="fill:#FAFAFA;" width="2.848" height="2.848"/>
				<rect x="261.99" y="335.471" style="fill:#FAFAFA;" width="2.848" height="2.848"/>
				<rect x="261.99" y="340.245" style="fill:#FAFAFA;" width="2.848" height="2.848"/>
				<rect x="261.99" y="345.019" style="fill:#FAFAFA;" width="2.848" height="2.848"/>
				<rect x="261.99" y="354.568" style="fill:#FAFAFA;" width="2.848" height="2.848"/>
				<rect x="111.729" y="261.932" style="fill:#FAFAFA;" width="2.848" height="2.848"/>
				<rect x="111.729" y="266.706" style="fill:#FAFAFA;" width="2.848" height="2.848"/>
				<rect x="111.729" y="271.48" style="fill:#FAFAFA;" width="2.848" height="2.848"/>
				<rect x="111.729" y="276.255" style="fill:#FAFAFA;" width="2.848" height="2.848"/>
				<rect x="111.729" y="281.029" style="fill:#FAFAFA;" width="2.848" height="2.848"/>
				<rect x="111.729" y="285.803" style="fill:#FAFAFA;" width="2.848" height="2.848"/>
				<rect x="111.729" y="290.577" style="fill:#FAFAFA;" width="2.848" height="2.848"/>
				<rect x="111.729" y="295.351" style="fill:#FAFAFA;" width="2.848" height="2.848"/>
				<rect x="111.729" y="300.125" style="fill:#FAFAFA;" width="2.848" height="2.848"/>
				<rect x="111.729" y="304.9" style="fill:#FAFAFA;" width="2.848" height="2.848"/>
				<rect x="111.729" y="309.674" style="fill:#FAFAFA;" width="2.848" height="2.848"/>
				<rect x="111.729" y="319.222" style="fill:#FAFAFA;" width="2.848" height="2.848"/>
				<rect x="111.729" y="323.996" style="fill:#FAFAFA;" width="2.848" height="2.848"/>
				<rect x="111.729" y="328.77" style="fill:#FAFAFA;" width="2.848" height="2.848"/>
				<rect x="111.729" y="333.544" style="fill:#FAFAFA;" width="2.848" height="2.848"/>
				<rect x="111.729" y="338.319" style="fill:#FAFAFA;" width="2.848" height="2.848"/>
				<rect x="111.729" y="343.093" style="fill:#FAFAFA;" width="2.848" height="2.848"/>
				<rect x="111.729" y="347.867" style="fill:#FAFAFA;" width="2.848" height="2.848"/>
				<rect x="111.729" y="352.641" style="fill:#FAFAFA;" width="2.848" height="2.848"/>
				<rect x="107.206" y="261.932" style="fill:#FAFAFA;" width="2.848" height="2.848"/>
				<rect x="107.206" y="266.706" style="fill:#FAFAFA;" width="2.848" height="2.848"/>
				<rect x="107.206" y="271.48" style="fill:#FAFAFA;" width="2.848" height="2.848"/>
				<rect x="107.206" y="276.255" style="fill:#FAFAFA;" width="2.848" height="2.848"/>
				<rect x="107.206" y="281.029" style="fill:#FAFAFA;" width="2.848" height="2.848"/>
				<rect x="107.206" y="285.803" style="fill:#FAFAFA;" width="2.848" height="2.848"/>
				<rect x="107.206" y="290.577" style="fill:#FAFAFA;" width="2.848" height="2.848"/>
				<rect x="107.206" y="295.351" style="fill:#FAFAFA;" width="2.848" height="2.848"/>
				<rect x="107.206" y="300.125" style="fill:#FAFAFA;" width="2.848" height="2.848"/>
				<rect x="107.206" y="304.9" style="fill:#FAFAFA;" width="2.848" height="2.848"/>
				<rect x="107.206" y="309.674" style="fill:#FAFAFA;" width="2.848" height="2.848"/>
				<rect x="107.206" y="314.448" style="fill:#FAFAFA;" width="2.848" height="2.848"/>
				<rect x="107.206" y="319.222" style="fill:#FAFAFA;" width="2.848" height="2.848"/>
				<rect x="107.206" y="323.996" style="fill:#FAFAFA;" width="2.848" height="2.848"/>
				<rect x="107.206" y="328.77" style="fill:#FAFAFA;" width="2.848" height="2.848"/>
				<rect x="107.206" y="333.544" style="fill:#FAFAFA;" width="2.848" height="2.848"/>
				<rect x="107.206" y="338.319" style="fill:#FAFAFA;" width="2.848" height="2.848"/>
				<rect x="107.206" y="343.093" style="fill:#FAFAFA;" width="2.848" height="2.848"/>
				<rect x="107.206" y="347.867" style="fill:#FAFAFA;" width="2.848" height="2.848"/>
				<rect x="107.206" y="352.641" style="fill:#FAFAFA;" width="2.848" height="2.848"/>
				<rect x="134.009" y="280.526" style="fill:#FAFAFA;" width="2.848" height="2.848"/>
				<rect x="134.009" y="285.3" style="fill:#FAFAFA;" width="2.848" height="2.848"/>
				<rect x="134.009" y="290.074" style="fill:#FAFAFA;" width="2.848" height="2.848"/>
				<rect x="134.009" y="294.849" style="fill:#FAFAFA;" width="2.848" height="2.848"/>
				<rect x="134.009" y="299.623" style="fill:#FAFAFA;" width="2.848" height="2.848"/>
				<rect x="134.009" y="304.397" style="fill:#FAFAFA;" width="2.848" height="2.848"/>
				<rect x="134.009" y="309.171" style="fill:#FAFAFA;" width="2.848" height="2.848"/>
				<rect x="134.009" y="313.945" style="fill:#FAFAFA;" width="2.848" height="2.848"/>
				<rect x="134.009" y="318.72" style="fill:#FAFAFA;" width="2.848" height="2.848"/>
				<rect x="134.009" y="323.494" style="fill:#FAFAFA;" width="2.848" height="2.848"/>
				<rect x="129.486" y="280.526" style="fill:#FAFAFA;" width="2.848" height="2.848"/>
				<rect x="129.486" y="285.3" style="fill:#FAFAFA;" width="2.848" height="2.848"/>
				<rect x="129.486" y="290.074" style="fill:#FAFAFA;" width="2.848" height="2.848"/>
				<rect x="129.486" y="294.849" style="fill:#FAFAFA;" width="2.848" height="2.848"/>
				<rect x="129.486" y="299.623" style="fill:#FAFAFA;" width="2.848" height="2.848"/>
				<rect x="129.486" y="304.397" style="fill:#FAFAFA;" width="2.848" height="2.848"/>
				<rect x="129.486" y="309.171" style="fill:#FAFAFA;" width="2.848" height="2.848"/>
				<rect x="129.486" y="313.945" style="fill:#FAFAFA;" width="2.848" height="2.848"/>
				<rect x="129.486" y="318.72" style="fill:#FAFAFA;" width="2.848" height="2.848"/>
			</g>
		</g>
	</g>
</g>
<g id="Background_Simple" style="display:none;">
	<g style="display:inline;">
		<path style="fill:#407BFF;" d="M104.556,101.625c27.919-59.449,127.059-51.062,165.317-9.255
			c38.258,41.806,50.696,68.599,85.208,52.983c34.512-15.616,78.518-11.44,81.043,38.164s-37.913,108.263-102.09,125.615
			c-64.177,17.352-64.161,78.759-149.1,66.368c-46.31-6.756-47.365-56.86-40.825-98.301S72.177,170.569,104.556,101.625z"/>
		<path style="opacity:0.9;fill:#FFFFFF;" d="M104.556,101.625c27.919-59.449,127.059-51.062,165.317-9.255
			c38.258,41.806,50.696,68.599,85.208,52.983c34.512-15.616,78.518-11.44,81.043,38.164s-37.913,108.263-102.09,125.615
			c-64.177,17.352-64.161,78.759-149.1,66.368c-46.31-6.756-47.365-56.86-40.825-98.301S72.177,170.569,104.556,101.625z"/>
	</g>
</g>
<g id="Shadow_1_">
	<ellipse id="_x3C_Path_x3E__359_" style="fill:#F5F5F5;" cx="250" cy="416.238" rx="193.889" ry="11.323"/>
</g>
<g id="Sun">
	<g>
		<path style="fill:#407BFF;" d="M306.267,78.868c0,0,0.359,18.198,8.376,19.78c8.017,1.582,19.026-19.78,19.026-19.78
			s-6.711,21.205-4.509,24.449s30.684-9.416,30.684-9.416s-17.235,20.298-15.342,23.797c1.893,3.499,15.342,1.917,15.342,1.917
			s-14.005,1.978-14.518,8.703c-0.513,6.725,29.553,15.824,29.553,15.824s-28.314-1.583-30.377,3.165
			c-2.063,4.747,6.641,15.57,6.641,15.57s-7.789-9.151-15.33-7.658c-7.541,1.494,1.999,35.589,1.999,35.589
			s-17.835-22.443-22.032-22.489c-4.198-0.046-5.515,18.217-5.515,18.217s-1.699-17.955-5.135-17.911
			c-3.437,0.044-8.376,22.183-8.376,22.183s3.369-23.592,0-25.041s-26.243,27.531-26.243,27.531s12.696-31.801,11.258-34.347
			c-1.438-2.546-23.18,6.753-23.18,6.753s17.39-13.651,15.808-19.189c-1.582-5.538-36-5.934-36-5.934s29.021-5.143,32.115-8.308
			c3.094-3.165-17.126-21.758-17.126-21.758s21.741,5.934,24.343,4.352c2.602-1.582-7.582-24.527-11.391-30.066
			c0,0,16.762,19.623,21.905,18.515s4.405-20.097,4.405-20.097s5.881,11.472,9.837,11.472
			C306.44,94.692,306.267,78.868,306.267,78.868z"/>
		<path style="opacity:0.8;fill:#FFFFFF;" d="M306.267,78.868c0,0,0.359,18.198,8.376,19.78c8.017,1.582,19.026-19.78,19.026-19.78
			s-6.711,21.205-4.509,24.449s30.684-9.416,30.684-9.416s-17.235,20.298-15.342,23.797c1.893,3.499,15.342,1.917,15.342,1.917
			s-14.005,1.978-14.518,8.703c-0.513,6.725,29.553,15.824,29.553,15.824s-28.314-1.583-30.377,3.165
			c-2.063,4.747,6.641,15.57,6.641,15.57s-7.789-9.151-15.33-7.658c-7.541,1.494,1.999,35.589,1.999,35.589
			s-17.835-22.443-22.032-22.489c-4.198-0.046-5.515,18.217-5.515,18.217s-1.699-17.955-5.135-17.911
			c-3.437,0.044-8.376,22.183-8.376,22.183s3.369-23.592,0-25.041s-26.243,27.531-26.243,27.531s12.696-31.801,11.258-34.347
			c-1.438-2.546-23.18,6.753-23.18,6.753s17.39-13.651,15.808-19.189c-1.582-5.538-36-5.934-36-5.934s29.021-5.143,32.115-8.308
			c3.094-3.165-17.126-21.758-17.126-21.758s21.741,5.934,24.343,4.352c2.602-1.582-7.582-24.527-11.391-30.066
			c0,0,16.762,19.623,21.905,18.515s4.405-20.097,4.405-20.097s5.881,11.472,9.837,11.472
			C306.44,94.692,306.267,78.868,306.267,78.868z"/>
		
			<ellipse transform="matrix(0.2298 -0.9732 0.9732 0.2298 110.1186 403.9486)" style="opacity:0.4;fill:#FFFFFF;" cx="310.265" cy="132.404" rx="30.473" ry="30.473"/>
	</g>
</g>
<g id="Wall">
	<g>
		<rect x="49.753" y="351.437" style="fill:#263238;" width="394.137" height="51.486"/>
		<rect x="49.753" y="351.437" style="opacity:0.6;fill:#FFFFFF;" width="394.137" height="51.486"/>
		<rect x="56.111" y="358.119" style="opacity:0.2;fill:#FFFFFF;" width="35.967" height="11.123"/>
		<rect x="93.777" y="358.119" style="opacity:0.2;fill:#FFFFFF;" width="35.967" height="11.123"/>
		<rect x="182.467" y="375.069" style="opacity:0.2;fill:#FFFFFF;" width="35.967" height="11.123"/>
		<rect x="249.353" y="356.766" style="opacity:0.2;fill:#FFFFFF;" width="35.967" height="11.123"/>
		<rect x="269.12" y="370.256" style="opacity:0.2;fill:#FFFFFF;" width="35.967" height="11.123"/>
		<rect x="400.46" y="388.437" style="opacity:0.2;fill:#FFFFFF;" width="35.967" height="11.123"/>
		<rect x="361.887" y="388.62" style="opacity:0.2;fill:#FFFFFF;" width="35.967" height="11.123"/>
		<rect x="379.871" y="375.069" style="opacity:0.2;fill:#FFFFFF;" width="35.967" height="11.123"/>
		<rect x="74.095" y="370.256" style="opacity:0.2;fill:#FFFFFF;" width="35.967" height="11.123"/>
		<rect x="167.046" y="388.437" style="opacity:0.2;fill:#FFFFFF;" width="35.967" height="11.123"/>
		<rect x="47.923" y="344.107" style="fill:#263238;" width="397.978" height="10.658"/>
		<rect x="47.923" y="344.107" style="opacity:0.7;fill:#FFFFFF;" width="397.978" height="10.658"/>
	</g>
</g>
<g id="Solar_panel">
	<g>
		<g>
			<rect x="139.132" y="399.124" style="fill:#407BFF;" width="2.875" height="14.004"/>
			<rect x="217.856" y="399.124" style="fill:#407BFF;" width="2.875" height="14.004"/>
			<rect x="241.023" y="303.066" style="fill:#407BFF;" width="13.361" height="110.105"/>
			<rect x="139.132" y="399.124" style="opacity:0.6;fill:#FFFFFF;" width="2.875" height="14.004"/>
			<rect x="217.856" y="399.124" style="opacity:0.6;fill:#FFFFFF;" width="2.875" height="14.004"/>
			<rect x="241.023" y="303.066" style="opacity:0.6;fill:#FFFFFF;" width="13.361" height="110.105"/>
		</g>
		<g>
			<polygon style="fill:#407BFF;" points="272.578,415.56 122.986,415.56 127.232,410.695 268.332,410.695 			"/>
			<polygon style="opacity:0.2;fill:#FFFFFF;" points="272.578,415.56 229.152,415.56 233.398,410.695 268.332,410.695 			"/>
		</g>
		<g>
			<path style="fill:#407BFF;" d="M182.352,295.113l-46.6,107.186c-0.676,1.556,0.464,3.294,2.16,3.294h79.875
				c1.195,0,2.276-0.709,2.752-1.804l46.6-107.186c0.676-1.556-0.464-3.294-2.16-3.294h-79.875
				C183.909,293.309,182.828,294.017,182.352,295.113z"/>
			<path style="opacity:0.7;fill:#FFFFFF;" d="M182.352,295.113l-46.6,107.186c-0.676,1.556,0.464,3.294,2.16,3.294h79.875
				c1.195,0,2.276-0.709,2.752-1.804l46.6-107.186c0.676-1.556-0.464-3.294-2.16-3.294h-79.875
				C183.909,293.309,182.828,294.017,182.352,295.113z"/>
			<polygon style="opacity:0.2;enable-background:new    ;" points="209.738,362.327 223.842,329.888 192.929,329.888 
				178.825,362.327 			"/>
			<g>
				<path style="opacity:0.2;enable-background:new    ;" d="M140.73,400.516c-0.665,0-1.203,0.539-1.203,1.203
					c0,0.664,0.539,1.203,1.203,1.203c0.664,0,1.203-0.539,1.203-1.203C141.933,401.055,141.395,400.516,140.73,400.516z"/>
				<path style="opacity:0.2;enable-background:new    ;" d="M215.204,400.516c-0.665,0-1.203,0.539-1.203,1.203
					c0,0.664,0.539,1.203,1.203,1.203c0.664,0,1.203-0.539,1.203-1.203C216.407,401.055,215.869,400.516,215.204,400.516z"/>
				<path style="opacity:0.2;enable-background:new    ;" d="M186.317,296.317c-0.664,0-1.203,0.539-1.203,1.203
					s0.539,1.203,1.203,1.203s1.203-0.539,1.203-1.203S186.981,296.317,186.317,296.317z"/>
				<path style="opacity:0.2;enable-background:new    ;" d="M260.791,296.317c-0.664,0-1.203,0.539-1.203,1.203
					s0.539,1.203,1.203,1.203s1.203-0.539,1.203-1.203S261.455,296.317,260.791,296.317z"/>
			</g>
		</g>
	</g>
	<g>
		<g>
			<rect x="270.475" y="399.124" style="fill:#407BFF;" width="2.875" height="14.004"/>
			<rect x="349.2" y="399.124" style="fill:#407BFF;" width="2.875" height="14.004"/>
			<rect x="372.366" y="303.066" style="fill:#407BFF;" width="13.361" height="110.105"/>
			<rect x="270.475" y="399.124" style="opacity:0.6;fill:#FFFFFF;" width="2.875" height="14.004"/>
			<rect x="349.2" y="399.124" style="opacity:0.6;fill:#FFFFFF;" width="2.875" height="14.004"/>
			<rect x="372.366" y="303.066" style="opacity:0.6;fill:#FFFFFF;" width="13.361" height="110.105"/>
		</g>
		<g>
			<polygon style="fill:#263238;" points="415.977,254.404 349.837,406.534 251.987,406.534 318.128,254.404 			"/>
			<polygon style="opacity:0.6;fill:#FFFFFF;" points="415.977,254.404 349.837,406.534 251.987,406.534 318.128,254.404 			"/>
			<g>
				<polygon style="fill:#263238;" points="375.362,342.42 353.312,342.42 344.678,362.278 366.729,362.278 				"/>
				<polygon style="fill:#263238;" points="335.165,384.159 357.216,384.159 365.849,364.301 343.799,364.301 				"/>
				<polygon style="fill:#263238;" points="351.331,342.42 329.281,342.42 320.647,362.278 342.698,362.278 				"/>
				<polygon style="fill:#263238;" points="403.902,276.776 381.852,276.776 373.218,296.633 395.268,296.633 				"/>
				<polygon style="fill:#263238;" points="311.134,384.159 333.185,384.159 341.818,364.301 319.767,364.301 				"/>
				<polygon style="fill:#263238;" points="384.875,320.538 362.825,320.538 354.191,340.397 376.242,340.397 				"/>
				<polygon style="fill:#263238;" points="394.388,298.657 372.338,298.657 363.705,318.514 385.755,318.514 				"/>
				<polygon style="fill:#263238;" points="304.148,340.397 312.782,320.538 291.359,320.538 282.725,340.397 				"/>
				<polygon style="fill:#263238;" points="294.635,362.278 303.269,342.42 281.845,342.42 273.212,362.278 				"/>
				<polygon style="fill:#263238;" points="331.809,276.776 310.385,276.776 301.751,296.633 323.175,296.633 				"/>
				<polygon style="fill:#263238;" points="285.122,384.159 293.756,364.301 272.332,364.301 263.699,384.159 				"/>
				<polygon style="fill:#263238;" points="313.662,318.514 322.295,298.657 300.872,298.657 292.238,318.514 				"/>
				<polygon style="fill:#263238;" points="412.749,256.427 390.698,256.427 382.731,274.752 404.782,274.752 				"/>
				<polygon style="fill:#263238;" points="356.336,386.182 334.285,386.182 326.318,404.508 348.369,404.508 				"/>
				<polygon style="fill:#263238;" points="284.242,386.182 262.819,386.182 254.852,404.508 276.275,404.508 				"/>
				<polygon style="fill:#263238;" points="332.688,274.752 340.655,256.427 319.232,256.427 311.265,274.752 				"/>
				<polygon style="fill:#263238;" points="336.813,320.538 314.763,320.538 306.129,340.397 328.18,340.397 				"/>
				<polygon style="fill:#263238;" points="327.3,342.42 305.25,342.42 296.616,362.278 318.667,362.278 				"/>
				<polygon style="fill:#263238;" points="388.718,256.427 366.667,256.427 358.7,274.752 380.75,274.752 				"/>
				<polygon style="fill:#263238;" points="332.305,386.182 310.254,386.182 302.287,404.508 324.337,404.508 				"/>
				<polygon style="fill:#263238;" points="379.871,276.776 357.82,276.776 349.187,296.633 371.237,296.633 				"/>
				<polygon style="fill:#263238;" points="370.357,298.657 348.307,298.657 339.674,318.514 361.724,318.514 				"/>
				<polygon style="fill:#263238;" points="287.103,384.159 309.153,384.159 317.787,364.301 295.736,364.301 				"/>
				<polygon style="fill:#263238;" points="300.306,404.508 308.274,386.182 286.223,386.182 278.256,404.508 				"/>
				<polygon style="fill:#263238;" points="364.686,256.427 342.636,256.427 334.669,274.752 356.719,274.752 				"/>
				<polygon style="fill:#263238;" points="360.844,320.538 338.794,320.538 330.16,340.397 352.211,340.397 				"/>
				<polygon style="fill:#263238;" points="355.84,276.776 333.789,276.776 325.156,296.633 347.206,296.633 				"/>
				<polygon style="fill:#263238;" points="346.326,298.657 324.276,298.657 315.643,318.514 337.693,318.514 				"/>
			</g>
			<g style="opacity:0.1;">
				<polygon style="fill:#FFFFFF;" points="381.264,254.399 293.647,310.726 318.135,254.399 				"/>
				<polygon style="fill:#FFFFFF;" points="409.303,254.399 282.768,335.747 288.729,322.037 393.941,254.399 				"/>
				<polygon style="fill:#FFFFFF;" points="410.298,267.467 407.313,274.334 271.51,361.629 274.496,354.762 				"/>
			</g>
			<g style="opacity:0.1;">
				<polygon style="fill:#FFFFFF;" points="354.896,394.898 349.837,406.534 336.803,406.534 				"/>
				<polygon style="fill:#FFFFFF;" points="363.488,375.135 358.778,385.969 326.797,406.534 314.655,406.534 				"/>
				<polygon style="fill:#FFFFFF;" points="372.361,354.726 370.012,360.131 297.833,406.534 291.768,406.534 				"/>
			</g>
		</g>
		<g>
			<polygon style="fill:#407BFF;" points="407.977,415.56 258.385,415.56 262.631,410.695 403.73,410.695 			"/>
			<polygon style="opacity:0.2;fill:#FFFFFF;" points="407.977,415.56 364.551,415.56 368.797,410.695 403.73,410.695 			"/>
		</g>
	</g>
</g>
<g id="Tool_box">
	<g>
		<polygon style="fill:#263238;" points="222.121,389.912 199.703,389.912 199.703,391.56 202.396,391.56 207.945,398.451 
			208.935,398.451 203.385,391.56 222.121,391.56 		"/>
		<polygon style="opacity:0.2;fill:#FFFFFF;" points="222.121,389.912 199.703,389.912 199.703,391.56 202.396,391.56 
			207.945,398.451 208.935,398.451 203.385,391.56 222.121,391.56 		"/>
		<path style="fill:#263238;" d="M252.175,383.87c-1.964-5.828-6.887-8.028-6.887-8.028h-33.693l0,0l-4.265,2.018l6.56,19.47h33.693
			l4.265-2.018C251.848,395.312,254.285,390.133,252.175,383.87z"/>
		<rect x="193.472" y="397.33" style="fill:#263238;" width="54.231" height="21.988"/>
		<rect x="214.001" y="397.33" style="opacity:0.2;fill:#FFFFFF;" width="33.702" height="21.988"/>
		<path style="opacity:0.2;fill:#FFFFFF;" d="M251.85,395.31h-33.69c0,0,2.43-5.18,0.32-11.44c-1.96-5.83-6.89-8.03-6.89-8.03h33.7
			c0,0,4.92,2.2,6.88,8.03C254.28,390.13,251.85,395.31,251.85,395.31z"/>
		<polygon style="opacity:0.1;fill:#FFFFFF;" points="251.85,395.31 247.58,397.33 213.89,397.33 218.16,395.31 		"/>
		<path style="opacity:0.2;enable-background:new    ;" d="M228.055,384.159c0,0,5.077,2.556,10.484,2.753
			c5.407,0.198,6.989-2.753,6.989-2.753l-0.745-2.31c0,0-1.299,2.119-5.189,2.536c-3.89,0.417-12.198-2.616-12.198-2.616
			L228.055,384.159z"/>
		<path style="fill:#263238;" d="M227.396,381.769c0,0,5.341-2.637,10.154-2.176c4.813,0.461,7.233,2.256,7.233,2.256l0.745,2.31
			c0,0-7.238-4.481-17.473,0L227.396,381.769z"/>
	</g>
</g>
<g id="Character">
	<g>
		<g>
			
				<rect x="95.415" y="191.861" transform="matrix(0.0127 -0.9999 0.9999 0.0127 -73.0593 407.5753)" style="fill:#263238;" width="148.915" height="97.85"/>
			
				<rect x="95.415" y="191.861" transform="matrix(0.0127 -0.9999 0.9999 0.0127 -73.0593 407.5753)" style="opacity:0.6;fill:#FFFFFF;" width="148.915" height="97.85"/>
			<g>
				
					<rect x="195.428" y="251.629" transform="matrix(0.0127 -0.9999 0.9999 0.0127 -60.1016 464.4364)" style="fill:#263238;" width="19.438" height="22.05"/>
				
					<rect x="195.155" y="273.046" transform="matrix(0.0127 -0.9999 0.9999 0.0127 -81.7863 485.3073)" style="fill:#263238;" width="19.438" height="22.05"/>
				
					<rect x="171.399" y="251.323" transform="matrix(0.0127 -0.9999 0.9999 0.0127 -83.5181 440.1068)" style="fill:#263238;" width="19.438" height="22.05"/>
				
					<rect x="196.247" y="187.377" transform="matrix(0.0127 -0.9999 0.9999 0.0127 4.9538 401.8225)" style="fill:#263238;" width="19.438" height="22.05"/>
				
					<rect x="171.126" y="272.74" transform="matrix(0.0127 -0.9999 0.9999 0.0127 -105.2029 460.9777)" style="fill:#263238;" width="19.438" height="22.05"/>
				
					<rect x="195.7" y="230.212" transform="matrix(0.0127 -0.9999 0.9999 0.0127 -38.4164 443.565)" style="fill:#263238;" width="19.439" height="22.05"/>
				
					<rect x="195.974" y="208.795" transform="matrix(0.0127 -0.9999 0.9999 0.0127 -16.7302 422.6946)" style="fill:#263238;" width="19.438" height="22.05"/>
				
					<rect x="123.926" y="229.61" transform="matrix(0.0127 -0.9999 0.9999 0.0127 -108.3605 370.8935)" style="fill:#263238;" width="19.439" height="21.424"/>
				
					<rect x="123.654" y="251.028" transform="matrix(0.0127 -0.9999 0.9999 0.0127 -130.0458 391.7648)" style="fill:#263238;" width="19.438" height="21.424"/>
				
					<rect x="124.473" y="186.776" transform="matrix(0.0127 -0.9999 0.9999 0.0127 -64.9902 329.151)" style="fill:#263238;" width="19.438" height="21.424"/>
				
					<rect x="123.381" y="272.445" transform="matrix(0.0127 -0.9999 0.9999 0.0127 -151.7305 412.6357)" style="fill:#263238;" width="19.438" height="21.423"/>
				
					<rect x="124.2" y="208.193" transform="matrix(0.0127 -0.9999 0.9999 0.0127 -86.6746 350.0232)" style="fill:#263238;" width="19.438" height="21.423"/>
				
					<rect x="197.26" y="166.71" transform="matrix(0.0127 -0.9999 0.9999 0.0127 25.8796 381.6822)" style="fill:#263238;" width="17.938" height="22.05"/>
				
					<rect x="195.641" y="293.714" transform="matrix(0.0127 -0.9999 0.9999 0.0127 -102.7119 505.4475)" style="fill:#263238;" width="17.938" height="22.05"/>
				
					<rect x="123.867" y="293.112" transform="matrix(0.0127 -0.9999 0.9999 0.0127 -172.656 432.7761)" style="fill:#263238;" width="17.938" height="21.423"/>
				
					<rect x="125.486" y="166.109" transform="matrix(0.0127 -0.9999 0.9999 0.0127 -44.0648 309.0103)" style="fill:#263238;" width="17.938" height="21.424"/>
				
					<rect x="147.642" y="229.599" transform="matrix(0.0127 -0.9999 0.9999 0.0127 -85.2494 394.9058)" style="fill:#263238;" width="19.439" height="22.05"/>
				
					<rect x="147.37" y="251.017" transform="matrix(0.0127 -0.9999 0.9999 0.0127 -106.9346 415.7771)" style="fill:#263238;" width="19.438" height="22.05"/>
				
					<rect x="173.231" y="166.404" transform="matrix(0.0127 -0.9999 0.9999 0.0127 2.4631 357.3526)" style="fill:#263238;" width="17.938" height="22.05"/>
				
					<rect x="171.612" y="293.407" transform="matrix(0.0127 -0.9999 0.9999 0.0127 -126.1284 481.1179)" style="fill:#263238;" width="17.938" height="22.05"/>
				
					<rect x="172.218" y="187.071" transform="matrix(0.0127 -0.9999 0.9999 0.0127 -18.4627 377.4929)" style="fill:#263238;" width="19.438" height="22.05"/>
				
					<rect x="171.945" y="208.488" transform="matrix(0.0127 -0.9999 0.9999 0.0127 -40.1477 398.364)" style="fill:#263238;" width="19.438" height="22.05"/>
				
					<rect x="147.097" y="272.434" transform="matrix(0.0127 -0.9999 0.9999 0.0127 -128.6194 436.6481)" style="fill:#263238;" width="19.438" height="22.05"/>
				
					<rect x="147.583" y="293.101" transform="matrix(0.0127 -0.9999 0.9999 0.0127 -149.5443 456.7896)" style="fill:#263238;" width="17.938" height="22.05"/>
				
					<rect x="149.202" y="166.097" transform="matrix(0.0127 -0.9999 0.9999 0.0127 -20.9528 333.0237)" style="fill:#263238;" width="17.938" height="22.05"/>
				
					<rect x="171.671" y="229.906" transform="matrix(0.0127 -0.9999 0.9999 0.0127 -61.8321 419.2365)" style="fill:#263238;" width="19.439" height="22.05"/>
				
					<rect x="148.189" y="186.765" transform="matrix(0.0127 -0.9999 0.9999 0.0127 -41.8792 353.1633)" style="fill:#263238;" width="19.438" height="22.05"/>
				
					<rect x="147.916" y="208.182" transform="matrix(0.0127 -0.9999 0.9999 0.0127 -63.5642 374.0344)" style="fill:#263238;" width="19.438" height="22.05"/>
			</g>
			<g style="opacity:0.1;">
				<polygon style="fill:#FFFFFF;" points="185.03,166.51 121.203,220.837 121.906,165.706 				"/>
				<polygon style="fill:#FFFFFF;" points="213.066,166.868 120.891,245.328 121.062,231.909 197.706,166.672 				"/>
				<polygon style="fill:#FFFFFF;" points="219.58,179.744 219.494,186.465 120.563,270.661 120.648,263.939 				"/>
			</g>
			<g style="opacity:0.1;">
				<polygon style="fill:#FFFFFF;" points="217.99,304.471 217.844,315.861 204.812,315.695 				"/>
				<polygon style="fill:#FFFFFF;" points="218.236,285.128 218.101,295.732 194.806,315.568 182.665,315.413 				"/>
				<polygon style="fill:#FFFFFF;" points="218.491,265.152 218.423,270.442 165.844,315.198 159.78,315.121 				"/>
			</g>
		</g>
		<g id="_x3C_Group_x3E__65_">
			<path style="fill:#E4897B;" d="M115.843,212.363c0,0-12.074,5.344-15.976,0.556c-3.902-4.789,17.456-30.066,17.456-30.066
				s0.345-7.431,1.405-8.738c1.06-1.307,3.448-2.551,3.448-2.551l0.793,14.611l-2.215,0.203c0,0-11.446,15.4-11.237,16.728
				c0.209,1.328,6.341-1.458,6.341-1.458L115.843,212.363z"/>
			<g>
				<path style="fill:#407BFF;" d="M143.834,250.742c0,0,10.007-21.33,9.255-26.375s-17.557,16.832-17.557,16.832l-1.354,7.49
					L143.834,250.742z"/>
				<path style="opacity:0.4;fill:#FFFFFF;" d="M143.834,250.742c0,0,10.007-21.33,9.255-26.375s-17.557,16.832-17.557,16.832
					l-1.354,7.49L143.834,250.742z"/>
				<path style="opacity:0.2;enable-background:new    ;" d="M143.145,250.178c0,0,10.007-21.33,9.255-26.375
					s-17.557,16.832-17.557,16.832l-1.354,7.49L143.145,250.178z"/>
			</g>
			<polygon style="fill:#E4897B;" points="160.103,412.349 167.956,413.172 168.353,408.621 169.428,396.236 161.575,395.403 
				160.384,409.086 			"/>
			<polygon style="fill:#E4897B;" points="91.856,411.352 99.467,411.352 99.844,409.635 99.892,409.423 102.26,398.433 
				102.31,398.211 103.225,393.999 95.604,393.999 			"/>
			<polygon style="opacity:0.2;enable-background:new    ;" points="161.575,395.403 160.384,409.086 168.353,408.621 
				169.428,396.236 			"/>
			<polygon style="opacity:0.2;enable-background:new    ;" points="92.078,410.388 92.088,410.388 99.882,409.423 99.892,409.423 
				102.201,398.819 102.191,398.819 94.452,399.426 92.148,410.055 			"/>
			<path style="fill:#263238;" d="M100.522,410.893h-9.248c-0.312,0.002-0.581,0.219-0.649,0.523l-1.501,6.778
				c-0.128,0.607,0.259,1.203,0.866,1.331c0.081,0.017,0.164,0.025,0.247,0.024c2.992-0.048,5.171-0.232,8.928-0.232
				c2.314,0,9.296,0.242,12.491,0.242c3.196,0,3.612-3.157,2.305-3.447c-5.868-1.278-10.284-3.05-12.162-4.735
				C101.452,411.058,100.994,410.885,100.522,410.893z"/>
			<path style="fill:#263238;" d="M168.789,410.651h-9.247c-0.312,0.002-0.581,0.219-0.649,0.523l-1.501,6.778
				c-0.128,0.607,0.26,1.203,0.867,1.331c0.081,0.017,0.164,0.025,0.247,0.024c2.992-0.048,5.171-0.232,8.928-0.232
				c2.314,0,9.296,0.242,12.491,0.242c3.195,0,3.612-3.157,2.305-3.447c-5.868-1.278-10.284-3.05-12.162-4.735
				C169.719,410.816,169.261,410.643,168.789,410.651z"/>
			<g>
				<path style="fill:#407BFF;" d="M170.145,405.542l-11.233,0.363c4.086-75.103,5.994-78.934-30.459-114.408
					c-0.852,10.729-1.811,21.862-2.75,31.139c-0.59,5.742-0.765,10.757-1.724,14.432c-6.487,24.875-22.101,68.902-22.101,68.902
					l-10.962,0.489c0,0,13.72-60.334,15.132-79.999c1.852-25.799-14.192-55.521,1.413-83.454l36.392,7.087l-0.264,8.946
					C178.322,309.86,184.676,320.842,170.145,405.542z"/>
				<path style="opacity:0.4;fill:#FFFFFF;" d="M170.145,405.542l-11.233,0.363c4.086-75.103,5.994-78.934-30.459-114.408
					c-0.852,10.729-1.811,21.862-2.75,31.139c-0.59,5.742-0.765,10.757-1.724,14.432c-6.487,24.875-22.101,68.902-22.101,68.902
					l-10.962,0.489c0,0,13.72-60.334,15.132-79.999c1.852-25.799-14.192-55.521,1.413-83.454l36.392,7.087l-0.264,8.946
					C178.322,309.86,184.676,320.842,170.145,405.542z"/>
			</g>
			<path style="fill:#E4897B;" d="M162.964,223.149c0,0,20.691,3.739,24.643,3.098c3.952-0.642,24.893-17.152,24.893-17.152
				s6.896-0.38,7.262-2.717c0.366-2.337,1.3-6.524-0.679-6.389c-1.979,0.135-7.762,2.707-7.762,2.707l-0.751,1.922
				c0,0-23.049,13.907-23.907,14.215c-0.858,0.308-20.723-5.122-20.723-5.122L162.964,223.149z"/>
			<path style="fill:#407BFF;" d="M125.526,196.001c-6.799,0-12.644,4.385-18.865,7.514l4.475,11.155l14.287-0.899L125.526,196.001z
				"/>
			<g>
				<path style="fill:#E4897B;" d="M159.789,194.356c-0.223,0.261-0.451,0.512-0.692,0.74c-1.43,1.394-3.202,2.25-5.03,2.563
					c-0.48,0.085-0.966,0.132-1.451,0.143c-2.559,0.051-5.083-0.942-6.808-2.971c-0.711-0.819-1.294-1.828-1.681-3.006
					c-1.557-4.623,0.286-8.176,2.921-14.43c0.547-1.356,1.397-2.567,2.497-3.522c3.848-3.386,9.714-3.002,13.091,0.843
					C167.41,180.074,163.792,189.526,159.789,194.356z"/>
				<path style="opacity:0.2;enable-background:new    ;" d="M154.067,197.66c-0.48,0.085-0.966,0.132-1.451,0.143
					c-2.559,0.051-5.083-0.942-6.808-2.971c1.004-0.966,2.099-1.532,2.099-1.532S151.816,194.521,154.067,197.66z"/>
				<g>
					<path style="fill:#263238;" d="M166.096,177.941c-0.355-0.002-3.138,2.366-3.313,3.248c-0.469,2.37-3.164,5.727-5.517,6.801
						c-2.353,1.074-5.956,6.152-5.956,6.152s-3.918-3.29-8.029-3.362c0,0-4.845-8.834-0.076-19.218L166.096,177.941z"/>
					<path style="opacity:0.2;fill:#FFFFFF;" d="M166.096,177.941c-0.355-0.002-3.138,2.366-3.313,3.248
						c-0.469,2.37-3.164,5.727-5.517,6.801c-2.353,1.074-5.956,6.152-5.956,6.152s-3.918-3.29-8.029-3.362
						c0,0-4.845-8.834-0.076-19.218L166.096,177.941z"/>
				</g>
				<path style="fill:#E4897B;" d="M155.525,185.936c-0.285,1.502-0.033,2.831,0.7,3.695c0.982,1.133,2.65-0.214,3.368-2.131
					c0.625-1.704,0.904-4.398-0.57-4.746C157.549,182.407,155.895,184.089,155.525,185.936z"/>
				<path style="fill:#263238;" d="M161.133,180.063c0,0,0.725,16.154-11.706,16.292v0.667c0,0,11.158,1.006,13.759-15.712
					L161.133,180.063z"/>
				<path style="fill:#FFFFFF;" d="M141.692,175.972c0,0,0.685,1.764,3.081,2.654c2.396,0.89,13.828-2.079,13.828-2.079l2.054,1.532
					c0,0-11.5,3.79-15.881,3.162c-4.381-0.629-3.68-3.883-3.68-3.883L141.692,175.972z"/>
				<path style="fill:#E4897B;" d="M135.531,197.804c1.662,4.192,13.896,5.301,13.896,5.301s-0.206-1.353,0.044-3.23
					c0.147-1.092,0.618-2.172,1.237-3.217c0.319-0.552,0.689-1.089,1.07-1.61l-8.001-4.239
					C141.898,194.142,140.042,196.026,135.531,197.804z"/>
				<g>
					<path style="fill:#407BFF;" d="M168.562,182.712c0,0,0.612,1.339-0.416,2.243c-1.028,0.893-3.239,0-3.239,0
						s-7.641-12.137-22.893-11.732c0,0-1.121-1.568-0.893-2.637c0.229-1.059,2.429-1.786,2.429-1.786s1.443-1.516,3.956-3.032
						c2.004-1.204,4.703-2.409,7.901-2.814c7.195-0.924,14.649,6.728,14.971,8.607c0.322,1.879-1.423,4.205-1.423,4.205
						S169.589,179.472,168.562,182.712z"/>
					<path style="opacity:0.2;enable-background:new    ;" d="M168.562,182.712c-7.288-12.417-25.011-13.912-25.011-13.912
						s1.443-1.516,3.956-3.032c0.145,1.547,1.91,2.17,3.343,2.315c1.973,0.197,10.143-2.056,14.057,0.716
						c3.914,2.772,4.049,6.966,4.049,6.966S169.589,179.472,168.562,182.712z"/>
				</g>
			</g>
			<path style="opacity:0.2;enable-background:new    ;" d="M128.454,291.454c-0.852,10.729-1.811,21.884-2.75,31.161
				c-1.375-13.392-3.06-22.94-3.06-22.94s-1.578-1.298-5.917-8.221c-4.338-6.933,0-19.851,0-19.851
				C116.591,283.61,128.454,291.454,128.454,291.454z"/>
			<polygon style="fill:#407BFF;" points="171.401,404.331 170.857,407.478 157.663,407.478 157.663,404.573 			"/>
			<polygon style="fill:#407BFF;" points="103.178,405.542 101.912,408.447 89.896,408.447 90.122,405.542 			"/>
			<path style="fill:#407BFF;" d="M161.676,207.768c6.423,3.856,11.503,7.534,11.503,7.534l-4.631,9.865l-18.492-3.232
				c0,0,1.621-4.098,4.835-9.152C158.106,207.729,161.676,207.768,161.676,207.768z"/>
			<polygon style="opacity:0.4;fill:#FFFFFF;" points="171.401,404.331 170.857,407.478 157.663,407.478 157.663,404.573 			"/>
			<polygon style="opacity:0.4;fill:#FFFFFF;" points="103.178,405.542 101.912,408.447 89.896,408.447 90.122,405.542 			"/>
			<g>
				<polygon style="fill:#263238;" points="106.165,244.039 118.727,246.417 117.959,249.552 104.794,246.925 				"/>
				<polygon style="fill:#263238;" points="120.814,246.811 136.263,249.749 135.982,253.134 120.129,249.978 				"/>
				<polygon style="fill:#263238;" points="144.558,251.317 144.516,254.836 138.184,253.57 138.37,250.144 				"/>
			</g>
			<path style="fill:#407BFF;" d="M107.461,243.006c0,0,8.089-38.283,16.353-46.58c0,0,21.018-3.805,37.862,11.342
				c0,0-14.293,24.528-17.823,42.325L107.461,243.006z"/>
			<g>
				<path style="fill:none;stroke:#FFFFFF;stroke-width:0.5;stroke-linecap:round;stroke-linejoin:round;stroke-miterlimit:10;" d="
					M118.679,246.993l2.02,0.455c0.363,0.082,0.683-0.252,0.586-0.611l-0.572-2.12c-0.103-0.382-0.591-0.495-0.851-0.196
					l-1.448,1.665C118.169,246.468,118.314,246.911,118.679,246.993z"/>
				<path style="fill:none;stroke:#FFFFFF;stroke-width:0.5;stroke-linecap:round;stroke-linejoin:round;stroke-miterlimit:10;" d="
					M131.435,210.18l1.892,0.84c0.34,0.151,0.719-0.114,0.695-0.485l-0.146-2.191c-0.026-0.395-0.483-0.601-0.796-0.358l-1.745,1.35
					C131.037,209.565,131.093,210.028,131.435,210.18z"/>
				<path style="fill:#263238;" d="M131.618,209.692c0,0-5.893,10.948-12.132,33.416l2.409,0.711c0,0,6.301-23.399,11.594-33.263
					L131.618,209.692z"/>
				
					<line style="fill:none;stroke:#FFFFFF;stroke-width:0.5;stroke-linecap:round;stroke-linejoin:round;stroke-miterlimit:10;" x1="120.129" y1="245.069" x2="120.429" y2="243.657"/>
				
					<line style="fill:none;stroke:#FFFFFF;stroke-width:0.5;stroke-linecap:round;stroke-linejoin:round;stroke-miterlimit:10;" x1="119.485" y1="243.108" x2="122.02" y2="243.82"/>
				<path style="fill:#263238;" d="M133.489,208.472c0,0,7.108-5.819,17.856-8.078l2.723,1.438c0,0-7.235,1.112-20.418,8.574
					L133.489,208.472z"/>
				<path style="fill:#263238;" d="M131.618,209.473l1.492-1.035c0,0,0.16-10.153,1.155-12.501l-1.683,0.065
					C132.582,196.001,131.24,202.737,131.618,209.473z"/>
			</g>
			<path style="fill:#407BFF;" d="M209.159,204.75l2.858,5.757l0.791-0.702c0,0,7.083-0.313,7.529-1.149
				c0.445-0.835,2.17-9.155,1.017-9.611c-1.153-0.457-10.077,2.622-10.408,2.708c-0.331,0.086-0.765,2.385-0.765,2.385
				L209.159,204.75z"/>
			<path style="fill:#407BFF;" d="M116.257,182.852l4.146,4.878l0.616-0.958l1.949-0.598l-0.793-14.611c0,0-3.826,2.284-4.031,2.551
				c-0.205,0.268-1.164,8.595-1.164,8.595L116.257,182.852z"/>
		</g>
	</g>
</g>
</svg>
