<?xml version="1.0" encoding="utf-8"?>
<!-- Generator: Adobe Illustrator 27.5.0, SVG Export Plug-In . SVG Version: 6.00 Build 0)  -->
<svg version="1.1" xmlns="http://www.w3.org/2000/svg" xmlns:xlink="http://www.w3.org/1999/xlink" x="0px" y="0px"
	 viewBox="0 0 500 500" style="enable-background:new 0 0 500 500;" xml:space="preserve">
<g id="Background_Complete">
	<g>
		<rect y="382.398" style="fill:#EBEBEB;" width="500" height="0.25"/>
		<rect x="416.779" y="398.494" style="fill:#EBEBEB;" width="33.122" height="0.25"/>
		<rect x="322.527" y="401.208" style="fill:#EBEBEB;" width="8.693" height="0.25"/>
		<rect x="396.586" y="389.208" style="fill:#EBEBEB;" width="19.192" height="0.25"/>
		<rect x="52.459" y="390.888" style="fill:#EBEBEB;" width="43.193" height="0.25"/>
		<rect x="104.556" y="390.888" style="fill:#EBEBEB;" width="6.333" height="0.25"/>
		<rect x="131.471" y="395.111" style="fill:#EBEBEB;" width="93.676" height="0.25"/>
		<path style="fill:#EBEBEB;" d="M237.014,337.8H43.915c-3.147,0-5.708-2.561-5.708-5.708V60.66c0-3.147,2.561-5.708,5.708-5.708
			h193.099c3.146,0,5.707,2.561,5.707,5.708v271.432C242.721,335.239,240.16,337.8,237.014,337.8z M43.915,55.203
			c-3.01,0-5.458,2.448-5.458,5.458v271.432c0,3.01,2.448,5.458,5.458,5.458h193.099c3.009,0,5.457-2.448,5.457-5.458V60.66
			c0-3.009-2.448-5.458-5.457-5.458H43.915z"/>
		<path style="fill:#EBEBEB;" d="M453.31,337.8H260.212c-3.147,0-5.707-2.561-5.707-5.708V60.66c0-3.147,2.561-5.708,5.707-5.708
			H453.31c3.148,0,5.708,2.561,5.708,5.708v271.432C459.019,335.239,456.458,337.8,453.31,337.8z M260.212,55.203
			c-3.009,0-5.457,2.448-5.457,5.458v271.432c0,3.01,2.448,5.458,5.457,5.458H453.31c3.01,0,5.458-2.448,5.458-5.458V60.66
			c0-3.009-2.448-5.458-5.458-5.458H260.212z"/>
	</g>
	<g>
		<g>
			
				<rect x="348.677" y="93.954" transform="matrix(-1 -1.224647e-16 1.224647e-16 -1 705.2627 476.3528)" style="fill:#EBEBEB;" width="7.909" height="288.444"/>
			<polygon style="fill:#F0F0F0;" points="297.2,129.779 394.513,125.573 393.817,109.471 296.504,113.676 283.141,122.32 			"/>
			<polygon style="fill:#F0F0F0;" points="290.014,180.114 386.506,193.409 388.706,177.443 292.214,164.148 277.519,170.258 			"/>
			<polygon style="fill:#F5F5F5;" points="342.423,210.124 409.375,205.588 423.612,212.701 410.464,221.668 343.893,226.178 			"/>
			<polygon style="fill:#F5F5F5;" points="428.305,142.953 330.911,141.602 330.687,157.717 428.082,159.068 441.916,151.201 			"/>
		</g>
		<g>
			<g>
				<rect x="93.045" y="312.809" style="fill:#E6E6E6;" width="7.057" height="69.589"/>
				<rect x="168.956" y="312.809" style="fill:#E6E6E6;" width="7.057" height="69.589"/>
			</g>
			<path style="fill:#F0F0F0;" d="M189.535,322.725H79.523c-2.141,0-3.876-1.735-3.876-3.876v-90.443
				c0-2.141,1.735-3.876,3.876-3.876h110.011c2.141,0,3.876,1.735,3.876,3.876v90.443
				C193.411,320.99,191.675,322.725,189.535,322.725z"/>
			<path style="fill:#FAFAFA;" d="M187.326,319.078H81.732c-1.345,0-2.44-1.094-2.44-2.439v-86.025c0-1.345,1.095-2.439,2.44-2.439
				h105.593c1.345,0,2.439,1.094,2.439,2.439v86.025C189.765,317.984,188.671,319.078,187.326,319.078z M81.732,229.217
				c-0.771,0-1.398,0.627-1.398,1.397v86.025c0,0.771,0.627,1.398,1.398,1.398h105.593c0.771,0,1.397-0.627,1.397-1.398v-86.025
				c0-0.771-0.627-1.397-1.397-1.397H81.732z"/>
			<g>
				<polygon style="fill:#FAFAFA;" points="101.206,238.12 96.376,231.972 91.547,238.12 93.878,238.12 93.878,250.427 
					98.875,250.427 98.875,238.12 				"/>
				<polygon style="fill:#FAFAFA;" points="99.456,267.008 105.604,262.178 99.456,257.349 99.456,259.68 87.149,259.68 
					87.149,264.677 99.456,264.677 				"/>
				<polygon style="fill:#FAFAFA;" points="93.297,278.327 87.149,283.157 93.297,287.986 93.297,285.655 105.604,285.655 
					105.604,280.658 93.297,280.658 				"/>
				<polygon style="fill:#FAFAFA;" points="91.547,307.215 96.376,313.362 101.206,307.215 98.875,307.215 98.875,294.908 
					93.877,294.908 93.877,307.215 				"/>
				<g>
					<rect x="112.632" y="237.372" style="fill:#FAFAFA;" width="69.277" height="2.383"/>
					<rect x="112.632" y="242.644" style="fill:#FAFAFA;" width="54.979" height="2.383"/>
				</g>
				<g>
					<rect x="112.632" y="258.351" style="fill:#FAFAFA;" width="69.277" height="2.383"/>
					<rect x="112.632" y="263.622" style="fill:#FAFAFA;" width="54.979" height="2.383"/>
				</g>
				<g>
					<rect x="112.632" y="279.329" style="fill:#FAFAFA;" width="69.277" height="2.383"/>
					<rect x="112.632" y="284.601" style="fill:#FAFAFA;" width="54.979" height="2.383"/>
				</g>
				<g>
					<rect x="112.632" y="300.308" style="fill:#FAFAFA;" width="69.277" height="2.383"/>
					<rect x="112.632" y="305.579" style="fill:#FAFAFA;" width="54.979" height="2.383"/>
				</g>
			</g>
		</g>
		<path style="fill:#F0F0F0;" d="M144.775,125.968c0-8.103-4.648-10.79-8.227-11.275c-5.865-0.795-10.055,3.669-10.055,3.669
			s-3.188-10.749-14.711-10.749c-11.523,0-15.069,11.741-15.069,11.741s-4.481-3.559-10.934-2.48
			c-4.524,0.756-7.217,4.091-10.132,9.095H144.775z"/>
		<path style="fill:#F0F0F0;" d="M276.34,98.477c0-10.463-6.001-13.933-10.624-14.56c-7.573-1.027-12.984,4.737-12.984,4.737
			s-4.117-13.88-18.995-13.88c-14.879,0-19.458,15.161-19.458,15.161s-5.787-4.595-14.119-3.203
			c-5.842,0.976-9.32,5.283-13.083,11.744H276.34z"/>
		<path style="fill:#F0F0F0;" d="M152.441,168.092c0,0,2.567-6.352,8.924-7.046c6.357-0.695,9.413,3.523,9.413,3.523
			s4.977-8.858,14.67-7.592c10.636,1.389,10.025,11.115,10.025,11.115H152.441z"/>
	</g>
</g>
<g id="Background_Simple" style="display:none;">
	<g style="display:inline;">
		<path style="fill:#407BFF;" d="M246.812,88.508c-76.739,34.526-7.076,96.062-51.385,129.575
			c-44.309,33.513-164.779-5.23-118.855,81.796c53.945,102.224,290.176,88.029,341.11-37.355
			C468.616,137.138,323.551,53.981,246.812,88.508z"/>
		<path style="opacity:0.9;fill:#FFFFFF;" d="M246.812,88.508c-76.739,34.526-7.076,96.062-51.385,129.575
			c-44.309,33.513-164.779-5.23-118.855,81.796c53.945,102.224,290.176,88.029,341.11-37.355
			C468.616,137.138,323.551,53.981,246.812,88.508z"/>
	</g>
</g>
<g id="Shadow_1_">
	<ellipse id="_x3C_Path_x3E__359_" style="fill:#F5F5F5;" cx="250" cy="420.204" rx="151.423" ry="11.323"/>
</g>
<g id="Character">
	<g>
		<g>
			<path style="fill:#407BFF;" d="M227.898,141.499c-11.479-10.48-36.108-27.574-72.067-24.297
				c-40.843,3.719-73.336,33.813-82.781,76.667c-8.701,39.48,3.067,93.724,60.628,130.924l-4.687,7.629l22.945-0.523l-9.903-20.705
				l-4.166,6.781c-53.993-35.003-65.109-85.612-57.005-122.384c8.68-39.383,38.392-67.025,75.694-70.422
				c32.902-2.999,55.443,12.646,65.947,22.238c12.777,11.666,21.033,26.62,21.033,38.095h8
				C251.537,171.673,242.479,154.811,227.898,141.499z"/>
			<path style="opacity:0.7;fill:#FFFFFF;" d="M227.898,141.499c-11.479-10.48-36.108-27.574-72.067-24.297
				c-40.843,3.719-73.336,33.813-82.781,76.667c-8.701,39.48,3.067,93.724,60.628,130.924l-4.687,7.629l22.945-0.523l-9.903-20.705
				l-4.166,6.781c-53.993-35.003-65.109-85.612-57.005-122.384c8.68-39.383,38.392-67.025,75.694-70.422
				c32.902-2.999,55.443,12.646,65.947,22.238c12.777,11.666,21.033,26.62,21.033,38.095h8
				C251.537,171.673,242.479,154.811,227.898,141.499z"/>
		</g>
		<g>
			<g>
				<path style="fill:#263238;" d="M413.932,259.818c-4.31,31.69-24.09,60.83-53.34,74.27c-13.98,6.42-29.64,9.74-45.39,9.74
					c-5.87,0-11.75-0.46-17.55-1.39c-22.79-3.66-42.46-14.51-55.39-30.56c-29.01-36.03-18.17-84.73,1.65-118.3l6.89,4.07
					c-18.46,31.26-28.76,76.36-2.31,109.21c26.7,33.15,75.97,35.02,108.76,19.96c26.1-12,43.95-37.68,48.47-65.87
					c0.91-5.69,1.28-11.48,1.06-17.29c-0.23-6.53-1.22-13.08-3-19.51c-3.96-14.29-16.8-26.99-31.46-23.51
					c-10.94,2.61-18.29,13.44-16.74,24.67c1.35,9.76,9.66,16.96,16.98,20.45l-3.44,7.23c-11.92-5.69-19.95-15.62-21.46-26.59
					c-2.11-15.26,7.91-29.99,22.81-33.54c19.35-4.61,36.05,11.21,41.02,29.15c1.62,5.83,2.63,11.76,3.07,17.69
					C415.072,246.438,414.842,253.188,413.932,259.818z"/>
			</g>
			<g style="opacity:0.8;">
				<path style="fill:#FFFFFF;" d="M413.932,259.818c-4.31,31.69-24.09,60.83-53.34,74.27c-13.98,6.42-29.64,9.74-45.39,9.74
					c-5.87,0-11.75-0.46-17.55-1.39c-22.79-3.66-42.46-14.51-55.39-30.56c-29.01-36.03-18.17-84.73,1.65-118.3l6.89,4.07
					c-18.46,31.26-28.76,76.36-2.31,109.21c26.7,33.15,75.97,35.02,108.76,19.96c26.1-12,43.95-37.68,48.47-65.87
					c0.91-5.69,1.28-11.48,1.06-17.29c-0.23-6.53-1.22-13.08-3-19.51c-3.96-14.29-16.8-26.99-31.46-23.51
					c-10.94,2.61-18.29,13.44-16.74,24.67c1.35,9.76,9.66,16.96,16.98,20.45l-3.44,7.23c-11.92-5.69-19.95-15.62-21.46-26.59
					c-2.11-15.26,7.91-29.99,22.81-33.54c19.35-4.61,36.05,11.21,41.02,29.15c1.62,5.83,2.63,11.76,3.07,17.69
					C415.072,246.438,414.842,253.188,413.932,259.818z"/>
			</g>
			<path style="opacity:0.2;" d="M413.932,259.818c-2.96,0.64-5.75,0.98-8.21,1.13c0.91-5.69,1.28-11.48,1.06-17.29
				c2.99-1.27,5.58-2.64,7.78-3.96C415.072,246.438,414.842,253.188,413.932,259.818z"/>
			<path style="fill:#263238;" d="M438.369,233.737l-22.938-0.775l4.32,7.208c-9.948,5.416-29.945,13.806-47.185,5.591
				c-7.326-3.489-15.634-10.695-16.981-20.453l-7.925,1.094c1.514,10.963,9.539,20.899,21.465,26.581
				c6.355,3.027,12.934,4.203,19.322,4.203c14.363,0,27.739-5.941,35.418-10.153l4.374,7.298L438.369,233.737z"/>
			<path style="opacity:0.8;fill:#FFFFFF;" d="M438.369,233.737l-22.938-0.775l4.32,7.208c-9.948,5.416-29.945,13.806-47.185,5.591
				c-7.326-3.489-15.634-10.695-16.981-20.453l-7.925,1.094c1.514,10.963,9.539,20.899,21.465,26.581
				c6.355,3.027,12.934,4.203,19.322,4.203c14.363,0,27.739-5.941,35.418-10.153l4.374,7.298L438.369,233.737z"/>
		</g>
		<g>
			<path style="fill:#407BFF;" d="M419.939,122.637l-13.471-18.582l-11.407,19.916l8.483-0.455
				c0.664,14.963-19.017,19.875-23.108,20.729c-6.781,1.417-13.812,2.073-21.254,2.768c-16.521,1.541-33.605,3.135-47.824,13.614
				c-11.013,8.116-18.541,21.485-19.646,34.89c-1.108,13.439,4.79,26.42,15.027,33.072c4.697,3.052,9.954,4.603,15.154,4.603
				c3.798,0,7.567-0.827,11.066-2.501c8.19-3.916,13.661-11.897,14.633-21.35c1.1-10.695-4.116-22.66-13.287-30.482l-5.191,6.087
				c7.119,6.071,11.347,15.546,10.521,23.577c-0.695,6.756-4.386,12.206-10.126,14.951c-5.843,2.794-12.553,2.212-18.41-1.593
				c-7.683-4.992-12.27-15.323-11.414-25.707c0.921-11.169,7.213-22.322,16.42-29.107c12.43-9.16,27.678-10.583,43.821-12.089
				c7.337-0.684,14.924-1.393,22.148-2.902c14.425-3.015,30.292-12.378,29.461-28.989L419.939,122.637z"/>
			<path style="opacity:0.5;fill:#FFFFFF;" d="M411.529,123.091c0.83,16.61-15.03,25.97-29.46,28.99
				c-7.22,1.51-14.81,2.21-22.15,2.9c-16.09,1.5-31.29,2.92-43.7,12c-0.04,0.03-0.08,0.06-0.12,0.09
				c-4.76,3.51-8.74,8.18-11.6,13.42c-2.68,4.89-4.38,10.28-4.82,15.68c-0.85,10.39,3.73,20.72,11.42,25.71
				c5.85,3.81,12.56,4.39,18.41,1.59c5.74-2.74,9.43-8.19,10.12-14.95c0.62-6.04-1.61-12.88-5.79-18.49
				c3.16-1.29,5.73-3.2,5.51-5.97c5.98,7.4,9.12,16.75,8.24,25.28c-0.97,9.45-6.44,17.43-14.63,21.35c-3.5,1.67-7.27,2.5-11.07,2.5
				c-5.2,0-10.45-1.55-15.15-4.6c-10.24-6.65-16.14-19.64-15.03-33.07c0.47-5.71,2.1-11.41,4.68-16.7
				c2.64-5.45,6.28-10.46,10.67-14.59c1.36-1.29,2.8-2.5,4.3-3.6c14.22-10.48,31.3-12.08,47.82-13.62
				c7.44-0.69,14.47-1.35,21.26-2.77c4.09-0.85,23.77-5.76,23.1-20.73l-8.48,0.46l11.41-19.92l13.47,18.59L411.529,123.091z"/>
			<path style="opacity:0.2;" d="M316.219,166.981c-0.04,0.03-0.08,0.06-0.12,0.09c-4.76,3.51-8.74,8.18-11.6,13.42
				c-2.44-0.75-5.14-1.34-8.11-1.67c2.64-5.45,6.28-10.46,10.67-14.59C309.809,164.861,312.909,165.751,316.219,166.981z"/>
			<g>
				<path style="fill:#407BFF;" d="M347.591,209.342l-7.958-0.818c0.826-8.031-3.402-17.505-10.521-23.577
					c-19.977-17.039-55.818-11.781-75.49,3.598l-4.927-6.303c22.571-17.645,62.356-23.213,85.608-3.382
					C343.475,186.683,348.691,198.648,347.591,209.342z"/>
			</g>
			<g style="opacity:0.5;">
				<path style="fill:#FFFFFF;" d="M347.591,209.342l-7.958-0.818c0.826-8.031-3.402-17.505-10.521-23.577
					c-19.977-17.039-55.818-11.781-75.49,3.598l-4.927-6.303c22.571-17.645,62.356-23.213,85.608-3.382
					C343.475,186.683,348.691,198.648,347.591,209.342z"/>
			</g>
		</g>
		<g>
			<g>
				<path style="fill:#263238;" d="M286.736,392.542c-37.385,0-74.72-16.078-98.94-44.095
					c-19.318-22.346-30.287-52.741-30.093-83.393c0.071-11.341,1.646-22.46,4.682-33.05c3.41-11.893,8.911-19.361,16.122-26.917
					c15.98-16.745,39.249-24.95,62.244-21.948l-1.035,7.933c-20.476-2.671-41.195,4.632-55.422,19.539
					c-7.766,8.137-11.62,14.533-14.218,23.599c-2.835,9.889-4.306,20.283-4.373,30.895c-0.181,28.741,10.077,57.211,28.145,78.11
					c28.706,33.207,77.087,48.523,120.389,38.112c21.815-5.244,41.283-16.507,54.815-31.713
					c14.699-16.516,22.476-37.733,21.338-58.214c-1.517-27.288-19.969-53.777-45.914-65.915
					c-24.855-11.629-56.259-10.481-81.958,2.995c-3.323,1.742-6.665,3.733-9.898,5.659c-7.326,4.364-14.902,8.878-23.455,11.324
					l-2.2-7.691c7.553-2.16,14.357-6.214,21.562-10.506c3.324-1.98,6.762-4.028,10.277-5.872
					c27.866-14.612,61.993-15.821,89.063-3.156c28.536,13.35,48.835,42.574,50.511,72.718c1.255,22.574-7.255,45.893-23.349,63.976
					c-14.608,16.415-35.534,28.551-58.921,34.174C306.473,391.422,296.602,392.542,286.736,392.542z"/>
			</g>
			<g style="opacity:0.5;">
				<path style="fill:#FFFFFF;" d="M375.031,354.933c-14.61,16.42-35.54,28.55-58.93,34.17c-9.63,2.32-19.5,3.44-29.37,3.44
					c-37.38,0-74.72-16.08-98.94-44.1c-19.31-22.34-30.28-52.74-30.09-83.39c0.07-10.6,1.45-21.01,4.11-30.98
					c0.18-0.69,0.37-1.38,0.57-2.07c1.91-6.67,4.48-11.95,7.64-16.63c2.48-3.67,5.31-6.97,8.48-10.29
					c15.98-16.74,39.25-24.95,62.25-21.94l-1.04,7.93c-20.47-2.67-41.19,4.63-55.42,19.54c-3.52,3.69-6.23,7.02-8.39,10.4
					c-2.61,4.08-4.41,8.24-5.83,13.2c-0.63,2.21-1.2,4.44-1.69,6.7c-1.73,7.84-2.63,15.95-2.68,24.19
					c-0.18,28.74,10.08,57.21,28.15,78.11c28.7,33.21,77.08,48.53,120.38,38.11c21.82-5.24,41.29-16.5,54.82-31.71
					c14.7-16.51,22.48-37.73,21.34-58.21c-1.52-27.29-19.97-53.78-45.92-65.92c-24.85-11.63-56.25-10.48-81.95,3
					c-3.33,1.74-6.67,3.73-9.9,5.66c-7.33,4.36-14.9,8.88-23.46,11.32l-2.2-7.69c7.56-2.16,14.36-6.21,21.56-10.51
					c3.33-1.98,6.77-4.02,10.28-5.87c27.87-14.61,61.99-15.82,89.06-3.15c28.54,13.35,48.84,42.57,50.52,72.71
					C399.632,313.533,391.121,336.853,375.031,354.933z"/>
			</g>
			<path style="opacity:0.2;" d="M175.902,221.013c-2.61,4.08-4.41,8.24-5.83,13.2c-0.63,2.21-1.2,4.44-1.69,6.7
				c-2.2-2.05-4.44-4.34-6.57-6.84c0.18-0.69,0.37-1.38,0.57-2.07c1.91-6.67,4.48-11.95,7.64-16.63
				C171.741,217.193,173.721,219.133,175.902,221.013z"/>
			<path style="fill:#263238;" d="M258.803,221.395c-3.516,1.843-6.953,3.891-10.277,5.872c-7.204,4.292-14.008,8.346-21.562,10.506
				c-15.538,4.444-34.542-0.056-49.596-11.74c-12.398-9.623-22.866-23.933-32.002-43.748c-4.208-9.126-7.875-18.73-11.421-28.018
				c-2.085-5.46-4.241-11.106-6.495-16.629c-5.079-12.442-13.085-20.864-22.975-24.413l3.717-7.609l-22.788,2.731l11.852,19.654
				l3.682-7.536c10.733,3.43,16.491,13.789,19.105,20.195c2.22,5.438,4.359,11.041,6.429,16.46
				c3.593,9.411,7.31,19.143,11.63,28.514c9.686,21.008,20.926,36.29,34.361,46.719c12.741,9.89,27.603,15.152,41.832,15.152
				c5.079,0,10.078-0.671,14.87-2.041c8.554-2.446,16.129-6.96,23.455-11.324c3.232-1.926,6.575-3.917,9.898-5.659L258.803,221.395z
				"/>
			<path style="opacity:0.5;fill:#FFFFFF;" d="M258.803,221.395c-3.516,1.843-6.953,3.891-10.277,5.872
				c-7.204,4.292-14.008,8.346-21.562,10.506c-15.538,4.444-34.542-0.056-49.596-11.74c-12.398-9.623-22.866-23.933-32.002-43.748
				c-4.208-9.126-7.875-18.73-11.421-28.018c-2.085-5.46-4.241-11.106-6.495-16.629c-5.079-12.442-13.085-20.864-22.975-24.413
				l3.717-7.609l-22.788,2.731l11.852,19.654l3.682-7.536c10.733,3.43,16.491,13.789,19.105,20.195
				c2.22,5.438,4.359,11.041,6.429,16.46c3.593,9.411,7.31,19.143,11.63,28.514c9.686,21.008,20.926,36.29,34.361,46.719
				c12.741,9.89,27.603,15.152,41.832,15.152c5.079,0,10.078-0.671,14.87-2.041c8.554-2.446,16.129-6.96,23.455-11.324
				c3.232-1.926,6.575-3.917,9.898-5.659L258.803,221.395z"/>
		</g>
		
			<ellipse transform="matrix(0.2298 -0.9732 0.9732 0.2298 7.9819 386.3424)" style="fill:#407BFF;" cx="248.073" cy="188.128" rx="14.612" ry="14.612"/>
		
			<ellipse transform="matrix(0.2298 -0.9732 0.9732 0.2298 7.9819 386.3424)" style="opacity:0.5;fill:#FFFFFF;" cx="248.073" cy="188.128" rx="14.612" ry="14.612"/>
	</g>
	<g>
		<g>
			<g>
				<g>
					<path style="fill:#407BFF;" d="M406.81,369.04c-7.36,0.52-15.04,0.9-22.75,0.9c-32.77,0-66.52-6.69-82.54-36.47
						c-5.93-11.03-9.34-23.83-10.01-36.78c-0.32-6.04-0.04-12.11,0.85-18.05c0.38-2.52,0.87-5.01,1.47-7.47
						c2.02-8.27,5.83-15.14,11.02-19.87c5.33-4.87,12.48-7.21,20.11-6.59c8.17,0.66,15.99,4.77,20.9,10.98l-6.27,4.97
						c-3.57-4.51-9.28-7.49-15.27-7.98c-5.41-0.43-10.4,1.17-14.08,4.53c-4.01,3.65-7,9.14-8.64,15.87
						c-0.71,2.9-1.25,5.85-1.61,8.84c-0.74,5.93-0.81,11.98-0.24,17.95c1,10.53,3.98,20.82,8.82,29.81
						c17.62,32.75,61.45,33.98,97.67,31.38L406.81,369.04z"/>
				</g>
				<g>
					<path style="fill:#407BFF;" d="M242.66,178.91l-7.63,2.39c-1.39-4.43-4.38-7.57-8.89-9.3c-8.37-3.23-19.5-0.94-26.18,2.99
						c-7.02,4.12-11.97,10.86-14.14,18.65c-1.17,4.19-1.53,8.69-0.96,13.25c0.18,1.42,0.45,2.83,0.81,4.25
						c1.13,4.54,3.06,9.11,5.09,13.88c4.84,11.42,10.33,24.36,3.25,38.01c-7.18,13.83-22.84,18.59-35.37,18.59
						c-1.13,0-2.23-0.04-3.3-0.11c-19.04-1.32-41.53-14.81-52.29-31.39c-7.46-11.48-9.18-23.6-5.01-35.07l7.52,2.74
						c-4.15,11.39-0.01,21.5,4.2,27.97c9.52,14.67,29.36,26.61,46.13,27.77c10.53,0.73,24.97-2.55,31.02-14.19
						c5.35-10.3,1.24-19.99-3.52-31.2c-2.75-6.49-5.6-13.2-6.47-20.26c-0.05-0.39-0.09-0.79-0.13-1.18
						c-0.51-5.31-0.01-10.55,1.4-15.45c2.74-9.65,8.95-18,17.71-23.16c8.08-4.75,21.89-7.89,33.12-3.56
						C235.82,167.15,240.54,172.13,242.66,178.91z"/>
				</g>
				<g>
					<polygon style="fill:#407BFF;" points="419.465,365.008 399.608,353.499 400.814,378.384 					"/>
				</g>
				<path style="opacity:0.2;" d="M184.86,206.89c0.18,1.42,0.45,2.83,0.81,4.25c-2.54-1.55-5.54-3.14-8.88-4.44
					c-0.51-5.31-0.01-10.55,1.4-15.45c2.44,0.64,5.04,1.43,7.63,2.39C184.65,197.83,184.29,202.33,184.86,206.89z"/>
				<path style="opacity:0.2;" d="M299.75,299.87c-2.54-0.75-5.35-1.77-8.24-3.18c-0.32-6.04-0.04-12.11,0.85-18.05
					c2.08,1.06,4.61,2.19,7.63,3.28C299.25,287.85,299.18,293.9,299.75,299.87z"/>
			</g>
		</g>
		<g>
			<g>
				<path style="fill:#263238;" d="M238.516,352.372c-10.766,0-20.791-2.157-29.242-6.394c-16.257-8.15-30.073-27.178-25.025-47.773
					c2.812-11.475,11.33-21.285,22.228-25.605l2.948,7.438c-8.531,3.381-15.2,11.072-17.406,20.072
					c-4.051,16.528,7.418,31.988,20.84,38.717c11.458,5.744,26.441,7.083,42.186,3.771c27.423-5.77,59.24-25.721,58.663-62.962
					c-0.211-13.561-4.675-27.827-12.912-41.259c-9.023-14.714-24.636-34.078-47.769-42.769l2.813-7.489
					c25.257,9.489,42.096,30.294,51.775,46.077c8.986,14.653,13.859,30.323,14.091,45.315c0.28,18.078-6.429,34.459-19.402,47.371
					c-11.458,11.405-27.658,19.767-45.612,23.544C250.505,351.727,244.4,352.371,238.516,352.372z"/>
			</g>
			<g style="opacity:0.2;">
				<path style="fill:#FFFFFF;" d="M321.71,279.51c0.28,18.08-6.43,34.46-19.4,47.37c-9.87,9.83-23.25,17.39-38.25,21.71
					c-2.42,0.7-4.88,1.31-7.37,1.83c-6.18,1.31-12.29,1.95-18.17,1.95c-4.78,0-9.41-0.43-13.83-1.27
					c-5.53-1.06-10.72-2.77-15.42-5.12c-16.25-8.15-30.07-27.18-25.02-47.77c2.81-11.48,11.33-21.29,22.23-25.61l2.95,7.44
					c-8.54,3.38-15.2,11.07-17.41,20.07c-4.05,16.53,7.42,31.99,20.84,38.72c5.59,2.8,12.02,4.55,18.96,5.23
					c7.29,0.71,15.16,0.24,23.23-1.46c4.67-0.98,9.46-2.38,14.2-4.19c23.11-8.87,44.94-27.87,44.46-58.78
					c-0.21-13.56-4.68-27.82-12.91-41.25c-9.03-14.72-24.64-34.08-47.77-42.77l2.81-7.49c25.26,9.49,42.1,30.29,51.78,46.07
					C316.6,248.85,321.48,264.52,321.71,279.51z"/>
			</g>
			<path style="opacity:0.2;" d="M269.25,338.41c-1,3.44-2.89,6.9-5.19,10.18c-2.42,0.7-4.88,1.31-7.37,1.83
				c-6.18,1.31-12.29,1.95-18.17,1.95c-4.78,0-9.41-0.43-13.83-1.27c3.1-2.4,5.41-4.77,7.13-7.04c7.29,0.71,15.16,0.24,23.23-1.46
				C259.72,341.62,264.51,340.22,269.25,338.41z"/>
		</g>
		<g>
			<g>
				<g>
					<path style="fill:#407BFF;" d="M250.77,410.336c-0.213,0.011-0.519-0.069-0.765-0.51c-0.119-0.214-0.137-0.451-0.052-0.703
						c0.159-0.477,0.692-0.966,1.271-1.383c-0.761,0.186-1.513,0.26-1.834-0.041c-0.209-0.196-0.232-0.489-0.069-0.871
						c0.153-0.357,0.421-0.604,0.795-0.734c1.177-0.406,3.044,0.538,3.128,0.581c0.031,0.016,0.058,0.038,0.079,0.067l0,0l0,0
						c0.009,0.013,0.017,0.027,0.023,0.042l0,0c0,0.001,0,0.001,0,0.001c0.012,0.029,0.017,0.059,0.016,0.089
						c-0.001,0.022-0.005,0.043-0.013,0.064c-0.001,0-0.001,0-0.001,0v0.001c-0.001,0.003-0.002,0.005-0.003,0.008
						c-0.19,0.447-1.015,2.308-1.903,3.066C251.219,410.204,250.992,410.325,250.77,410.336z M250.382,409.254
						c-0.047,0.14-0.04,0.26,0.02,0.368c0.162,0.292,0.3,0.285,0.345,0.283c0.517-0.025,1.356-1.368,1.927-2.557
						C251.825,407.816,250.597,408.606,250.382,409.254z M249.738,406.992c-0.049,0.114-0.118,0.318-0.033,0.398
						c0.275,0.257,1.622-0.061,2.878-0.537c-0.591-0.243-1.634-0.589-2.314-0.354c-0.115,0.04-0.214,0.095-0.296,0.166
						C249.872,406.751,249.794,406.859,249.738,406.992z"/>
				</g>
				<path style="fill:#407BFF;" d="M259.719,400.136c-0.48-0.481-6.412,5.414-6.412,5.414s-0.279,7.17-3.236,11.312
					c-2.956,4.142,1.208,4.468,5.415,0.788c4.207-3.681,7.417-6.489,10.407-9.104C268.882,405.931,264.691,405.123,259.719,400.136z
					"/>
				<path style="opacity:0.3;fill:#FFFFFF;" d="M259.719,400.136c-0.48-0.481-6.412,5.414-6.412,5.414s-0.279,7.17-3.236,11.312
					c-2.956,4.142,1.208,4.468,5.415,0.788c4.207-3.681,7.417-6.489,10.407-9.104C268.882,405.931,264.691,405.123,259.719,400.136z
					"/>
				<path style="opacity:0.2;" d="M259.719,400.136c-0.48-0.481-6.412,5.414-6.412,5.414s-0.279,7.17-3.236,11.312
					c-2.956,4.142,1.208,4.468,5.415,0.788c4.207-3.681,7.417-6.489,10.407-9.104C268.882,405.931,264.691,405.123,259.719,400.136z
					"/>
			</g>
			<g>
				<g>
					<path style="fill:#407BFF;" d="M253.584,415.314c-0.167-0.128-0.34-0.383-0.218-0.869c0.06-0.236,0.211-0.424,0.449-0.558
						c0.449-0.255,1.186-0.28,1.908-0.223c-0.697-0.346-1.31-0.771-1.341-1.2c-0.02-0.28,0.166-0.513,0.552-0.694
						c0.362-0.169,0.733-0.183,1.102-0.041c1.161,0.448,1.9,2.342,1.933,2.428c0.012,0.032,0.017,0.066,0.012,0.101v0v0.001
						c-0.002,0.016-0.006,0.031-0.012,0.046l0,0c0,0,0,0,0,0.001c-0.011,0.029-0.028,0.055-0.05,0.076
						c-0.016,0.016-0.034,0.029-0.054,0.04c0,0,0,0,0,0l0,0c-0.003,0.001-0.005,0.003-0.008,0.004
						c-0.452,0.213-2.359,1.076-3.548,1.076C254.011,415.502,253.758,415.447,253.584,415.314z M254.044,414.258
						c-0.132,0.075-0.21,0.169-0.24,0.288c-0.081,0.322,0.026,0.404,0.061,0.432c0.404,0.311,1.962-0.157,3.212-0.681
						C256.119,414.104,254.654,413.911,254.044,414.258z M255.132,412.158c-0.116,0.054-0.309,0.162-0.301,0.276
						c0.027,0.367,1.253,0.989,2.521,1.434c-0.273-0.558-0.812-1.482-1.483-1.74c-0.114-0.044-0.225-0.065-0.336-0.065
						C255.4,412.063,255.266,412.094,255.132,412.158z"/>
				</g>
				<path style="fill:#407BFF;" d="M267.34,413.403c-0.025-0.665-8.543-0.046-8.543-0.046s-5.18,5.176-10.261,6.384
					c-5.08,1.208-2.196,4.107,3.498,4.041c5.694-0.066,10.039-0.116,14.085-0.162C270.165,423.574,267.595,420.298,267.34,413.403z"
					/>
				<path style="opacity:0.3;fill:#FFFFFF;" d="M267.34,413.403c-0.025-0.665-8.543-0.046-8.543-0.046s-5.18,5.176-10.261,6.384
					c-5.08,1.208-2.196,4.107,3.498,4.041c5.694-0.066,10.039-0.116,14.085-0.162C270.165,423.574,267.595,420.298,267.34,413.403z"
					/>
			</g>
			<g>
				<path style="fill:#263238;" d="M225.672,346.778c3.109,5.939,6.242,12.339,9.238,18.734c3.946,8.441,7.656,16.894,10.808,24.458
					c2.256,5.397,5.193,12.211,6.738,16.329c4.829-0.49,7.088-2.23,9.004-3.663c-1.152-7.418-4.243-26.667-10.078-43.609
					c-3.069-8.912-6.895-17.706-11.607-24.867c22.04-54.505,17.772-75.32,17.772-75.32l-23.38-1.718c0,0-4.219,20.424-7.753,41.395
					c0,0,0,0,0,0.009c-1.842,10.994-3.494,22.135-4.253,30.564l-0.003,0.084C221.614,335.246,222.821,341.334,225.672,346.778z"/>
				<path style="opacity:0.2;" d="M245.948,317.935c3.274-9.278,5.68-17.327,7.419-24.24c-1.316-5.488-3.287-10.213-6.084-13.103
					C247.282,280.593,242.622,295.629,245.948,317.935z"/>
				<path style="opacity:0.2;" d="M245.718,389.97c2.256,5.397,5.193,12.211,6.738,16.329c4.829-0.49,7.088-2.23,9.004-3.663
					c-1.152-7.418-4.243-26.667-10.078-43.609C249.369,368.102,247.071,379.58,245.718,389.97z"/>
			</g>
			<g>
				<path style="fill:#263238;" d="M243.593,254.933c0,0,6.818,50.6,10.726,74.951c4.104,25.574,4.625,66.61,3.599,83.333
					c1.494,0.832,6.939,1.839,9.881,0.957c0,0,13.906-51.722,4.669-81.764c8.411-59.173-3.761-73.663-3.761-73.663L243.593,254.933z
					"/>
			</g>
			<path style="fill:#E8BCBD;" d="M242.48,213.171c-9.322,2.235-24.998,5.696-33.977,1.564c-10.598-5.984-1.736-17.095,4.152-22.613
				c4.169-4.014,8.56-7.452,13.282-10.633c1.242-0.837,2.927-0.508,3.763,0.734c0.74,1.097,0.566,2.541-0.336,3.438
				c-3.681,3.886-7.364,7.931-10.626,12.008c-2.13,2.771-4.505,5.723-5.41,8.803c-0.14,0.626,0.055,0.58-0.056,0.1
				c-0.057-0.26-0.309-0.708-0.476-0.852c-0.008-0.035-0.01-0.028,0.085-0.005c3.58,0.878,7.572,0.262,11.433-0.177
				c5.094-0.71,10.424-1.775,15.464-2.929C246.811,201.085,249.387,211.122,242.48,213.171L242.48,213.171z"/>
			<path style="fill:#407BFF;" d="M245.164,202.145c-5.446-0.134-27.797,3.32-27.797,3.32l2.156,12.035l15.91-0.629L245.164,202.145
				z"/>
			<path style="opacity:0.7;fill:#FFFFFF;" d="M245.167,202.15l-7.165,10.838l-2.564,3.884l-4.559,0.211l-11.355,0.422
				l-2.153-12.041C217.37,205.464,239.722,202.013,245.167,202.15z"/>
			<path style="opacity:0.2;" d="M238.002,212.988l-2.564,3.884l-4.559,0.211c1.71-6.089,7.62-7.257,7.62-7.257
				C238.625,210.237,237.917,212.576,238.002,212.988z"/>
			<path style="fill:#E8BCBD;" d="M224.926,183.472l1.107-8.665l4.087-5.995l3.245,5.422l-1.112,3.728c0,0,1.222,4.905-2.746,7.569
				L224.926,183.472z"/>
			<path style="fill:#407BFF;" d="M233.71,246.07c-0.355-7.337-0.507-12.493-0.532-17.705c-0.184-7.687,0.302-10.12,0.511-13.331
				c0.374-5.754,4.884-12.254,10.681-12.858c1.606-0.167,3.285-0.313,4.904-0.404c4.884-0.275,9.372,0.054,14.844,0.506
				c1.408,0.116,2.778,0.273,4.068,0.448c4.829,0.657,7.707,5.375,6.182,10.132c-4.693,14.64-6.765,24.156-7.443,31.761
				c0.833,2.33,5.23,14.925,3.431,16.354c-1.983,1.575-35.034,2.757-37.594,0C230.775,258.834,232.733,249.944,233.71,246.07z"/>
			<path style="opacity:0.7;fill:#FFFFFF;" d="M274.367,212.861c-0.844,2.659-1.615,5.15-2.3,7.492
				c-0.085,0.296-0.169,0.591-0.264,0.876c-0.327,1.161-0.644,2.279-0.939,3.356c-0.739,2.691-1.351,5.171-1.868,7.461
				c-1.108,4.865-1.741,8.938-2.079,12.579c0.844,2.332,5.245,14.922,3.44,16.357c-1.984,1.572-35.036,2.744-37.6,0
				c-1.984-2.142-0.021-11.038,0.96-14.911c-0.359-7.345-0.517-12.495-0.538-17.708c-0.179-7.683,0.306-10.12,0.517-13.328
				c0.369-5.751,4.876-12.252,10.68-12.854c1.604-0.179,3.282-0.327,4.896-0.411c4.886-0.274,9.382,0.053,14.837,0.507
				c1.414,0.116,2.786,0.274,4.073,0.443C273.016,203.385,275.886,208.102,274.367,212.861z"/>
			<path style="opacity:0.2;" d="M271.802,221.23c-0.327,1.161-0.644,2.279-0.939,3.356c-3.145-1.699-1.784-6.722-1.784-6.722
				c0.717-1.71,0-2.638,1.319-2.396C270.853,218.001,271.328,219.657,271.802,221.23z"/>
			<path style="fill:#E8BCBD;" d="M272.178,250.166l2.011,8.501l-1.718,7.049l-4.945-3.935l-0.27-3.881c0,0-2.868-4.162-0.091-8.051
				L272.178,250.166z"/>
			<path style="fill:#E8BCBD;" d="M274.45,205.251c7.5,5.028,23.862,16.624,19.937,27.194c-3.636,8.965-15.665,16.42-23.793,20.995
				c-1.318,0.713-2.964,0.223-3.677-1.094c-0.627-1.156-0.323-2.566,0.646-3.375c5.897-5.432,12.279-10.774,16.661-17.429
				c0.508-0.909,1.018-1.857,0.945-2.381c-0.031,0.093-0.043,0.015-0.143-0.18c-1.211-2.26-3.445-4.307-5.615-6.252
				c-3.397-2.951-7.33-5.849-11.012-8.416C262.777,210.1,268.406,201.684,274.45,205.251L274.45,205.251z"/>
			<path style="fill:#407BFF;" d="M268.186,202.726c7.803,1.028,19.369,9.295,23.86,16.3l-9.7,8.263c0,0-8.347-5.389-16.253-7.814
				c0,0-2.956-4.85-2.512-10.508C264.025,203.31,268.186,202.726,268.186,202.726z"/>
			<path style="opacity:0.7;fill:#FFFFFF;" d="M268.186,202.726c7.803,1.028,19.369,9.295,23.86,16.3l-9.7,8.263
				c0,0-8.347-5.389-16.253-7.814c0,0-2.956-4.85-2.512-10.508C264.025,203.31,268.186,202.726,268.186,202.726z"/>
			<path style="fill:#407BFF;" d="M239.349,210.585c0,0,0.207-8.891,11.117-10.171c10.91-1.28,12.257,2.627,11.449,7.814
				c0,0-2.694-1.212-5.321-1.819c-2.627-0.606-9.94,7.814-9.94,7.814s-3.335-6.442-3.905-7.027
				C242.178,206.61,239.349,210.585,239.349,210.585z"/>
			<path style="fill:#263238;" d="M231.061,181.1c2.102,4.744,4.935,6.642,4.536,13.557c-0.399,6.915,1.128,8.805,14.108,6.639
				c12.981-2.165,16.536-5.948,16.383-11.776c-0.153-5.828-2.933-7.041-5.496-10.454c-2.563-3.412-3.152-11.758-13.865-11.114
				C236.015,168.596,227.801,173.742,231.061,181.1z"/>
			<g>
				<path style="fill:#E8BCBD;" d="M251.186,187.336c0.665,4.906,2.604,13.591,6.704,15.323c0,0-4.435,1.132-10.982,10.342
					c-2.272-3.427-3.114-7.671-3.114-7.671c4.504-3.28,3.522-3.885,1.48-7.054L251.186,187.336z"/>
				<path style="opacity:0.2;" d="M248.777,191.799l-3.5,6.472c0.486,0.749,0.931,1.528,1.265,2.328
					c1.782-1.071,3.644-4.281,3.162-6.391C249.463,193.156,249.095,192.202,248.777,191.799z"/>
			</g>
			<g>
				<path style="fill:#E8BCBD;" d="M253.393,178.648c0.377,7.843,0.7,11.146-2.726,15.766c-5.154,6.95-14.689,6.193-17.357-1.259
					c-2.402-6.707-2.614-18.406,4.531-22.726C244.881,166.172,253.016,170.805,253.393,178.648z"/>
				<path style="fill:#D4827D;" d="M238.598,184.282c0,0-0.816,3.001-1.873,4.557c0.91,0.674,2.297,0.075,2.297,0.075
					L238.598,184.282z"/>
				<path style="fill:#E8BCBD;" d="M256.621,184.63c-0.692,1.716-2.038,2.922-3.353,3.455c-1.978,0.801-3.131-1.101-2.719-3.252
					c0.37-1.937,1.846-4.688,3.897-4.564C256.466,180.39,257.412,182.668,256.621,184.63z"/>
				<path style="fill:#263238;" d="M235.743,179.291c0.091-0.027,0.19-0.02,0.276,0.027c0.178,0.099,0.235,0.333,0.128,0.523
					c-1.073,1.909-2.805,2.111-2.88,2.119c-0.207,0.022-0.381-0.133-0.388-0.347c-0.007-0.213,0.154-0.403,0.361-0.426
					c0.068-0.007,1.41-0.184,2.263-1.702C235.558,179.387,235.646,179.32,235.743,179.291z"/>
				<path style="fill:#263238;" d="M241.117,178.635c-0.095,0.007-0.185,0.048-0.249,0.123c-0.131,0.155-0.102,0.394,0.065,0.535
					c1.677,1.408,3.37,0.986,3.442,0.967c0.202-0.053,0.31-0.259,0.241-0.462c-0.068-0.202-0.287-0.323-0.488-0.271
					c-0.066,0.017-1.384,0.325-2.718-0.795C241.323,178.66,241.217,178.628,241.117,178.635z"/>
				<g>
					<path style="fill:#263238;" d="M244.342,182.412c0.031,0.068,0.052,0.142,0.065,0.221c0.147,0.644-0.059,1.264-0.46,1.381
						c-0.395,0.126-0.842-0.302-0.99-0.946c-0.037-0.176-0.054-0.341-0.042-0.499l0.009-0.006c0.012-0.433,0.199-0.789,0.493-0.876
						C243.777,181.583,244.151,181.896,244.342,182.412z"/>
					<path style="fill:#263238;" d="M243.68,181.744l-1.576,0C242.104,181.745,243.136,182.722,243.68,181.744z"/>
				</g>
				<g>
					<path style="fill:#263238;" d="M245.712,192.071c-1.148,0.535-4.391,1.221-4.282,1.492c-0.001,0.001-0.089-0.236-0.298-0.517
						c-0.001-0.003-0.002-0.007-0.003-0.01c-0.336-0.49-1.033-1.159-2.011-0.949c-0.612-0.245,4.171-4.898,6.552-1.258
						C246.034,191.441,245.969,191.833,245.712,192.071z"/>
					<path style="fill:#A02724;" d="M245.712,192.071c-1.148,0.535-4.391,1.221-4.282,1.492c-0.001,0.001-0.089-0.236-0.298-0.517
						c-0.001-0.003-0.002-0.007-0.003-0.01C241.644,191.761,243.702,190.322,245.712,192.071z"/>
				</g>
				<path style="opacity:0.2;" d="M244.285,184.958c-1.117,0-1.654-1.32-1.66-1.335c-0.027-0.067,0.006-0.144,0.074-0.171
					c0.069-0.025,0.145,0.006,0.171,0.074c0.022,0.056,0.566,1.382,1.679,1.139c0.069-0.017,0.142,0.03,0.157,0.101
					c0.015,0.071-0.03,0.142-0.101,0.157C244.494,184.947,244.387,184.958,244.285,184.958z"/>
				<g>
					<path style="fill:#263238;" d="M235.433,183.974l-1.688-0.232C233.745,183.742,234.706,184.942,235.433,183.974z"/>
					<path style="fill:#263238;" d="M234.539,183.852c0,0,1.409-1.725,3.139-0.4c0,0-1.451-0.466-2.479,0.757L234.539,183.852z"/>
				</g>
				<path style="opacity:0.2;" d="M235.914,185.692c-0.054,0-0.105-0.033-0.124-0.086c-0.025-0.068,0.01-0.145,0.079-0.17
					c1.362-0.497,1.679-1.582,1.683-1.593c0.02-0.07,0.092-0.111,0.162-0.092c0.07,0.02,0.111,0.092,0.092,0.162
					c-0.014,0.05-0.352,1.225-1.846,1.771C235.944,185.69,235.929,185.692,235.914,185.692z"/>
			</g>
			<path style="fill:#263238;" d="M241.291,171.826c0,0,3.027,11.215,10.252,13.673c7.225,2.458,6.879,10.124,4.24,11.699
				c0,0,5.962,0.986,7.477-4.654c1.514-5.64-2.77-10.713-3.843-18.651c-1.073-7.938-12.621-8.852-19.515-7.13
				c-6.894,1.722-11.671,5.755-8.841,14.336C231.061,181.1,232.159,172.461,241.291,171.826z"/>
		</g>
		<g>
			<path style="fill:#407BFF;" d="M319.947,295.767c-5.8,0-11.482-0.977-16.637-1.985c-17.244-3.378-30.936-7.535-43.091-13.084
				c-15.027-6.858-27.43-15.867-36.863-26.776c-5.23-6.05-8.9-12.898-12.45-19.521c-5.053-9.43-9.826-18.337-18.625-24.36
				c-16.803-11.502-37.671-12.639-52.22-11.568c-6.619,0.487-28.667,3.322-34.5,19.322l-7.516-2.74
				c5.045-13.84,20.532-23.021,41.428-24.561c15.821-1.167,38.612,0.134,57.327,12.945c10.41,7.126,15.874,17.322,21.158,27.183
				c3.497,6.526,6.8,12.69,11.45,18.068c8.675,10.033,20.16,18.353,34.133,24.731c11.57,5.281,24.695,9.257,41.307,12.51
				c7.261,1.422,15.637,2.783,23.165,0.937c6.518-1.6,12.044-6.465,14.078-12.396c1.163-3.39,1.673-8.538-2.501-13.814l6.274-4.963
				c5.004,6.326,6.352,13.917,3.793,21.373c-2.939,8.57-10.503,15.303-19.738,17.569
				C326.609,295.448,323.259,295.767,319.947,295.767z"/>
		</g>
		<g>
			<path style="fill:#263238;" d="M265.532,307.618c-2.124-17.281-16.763-32.691-34.809-36.641
				c-8.493-1.859-16.876-1.298-24.246,1.622l2.947,7.438c5.799-2.299,12.755-2.742,19.588-1.245
				c14.837,3.247,26.856,15.781,28.579,29.802c1.044,8.497-1.36,17.672-6.769,25.834c-9.438,14.24-25.715,22.411-37.138,27.318
				c-41.595,17.869-84.338,21.143-115.797,9.127l2.986-7.663l-22.484,4.607l13.438,18.606l3.152-8.088
				c13.373,5.107,28.6,7.64,44.847,7.639c24.33,0,50.942-5.677,77.016-16.878c12.364-5.311,30.029-14.226,40.649-30.248
				C263.952,329.097,266.808,318.006,265.532,307.618z"/>
			<path style="opacity:0.2;fill:#FFFFFF;" d="M265.532,307.618c-2.124-17.281-16.763-32.691-34.809-36.641
				c-8.493-1.859-16.876-1.298-24.246,1.622l2.947,7.438c5.799-2.299,12.755-2.742,19.588-1.245
				c14.837,3.247,26.856,15.781,28.579,29.802c1.044,8.497-1.36,17.672-6.769,25.834c-9.438,14.24-25.715,22.411-37.138,27.318
				c-41.595,17.869-84.338,21.143-115.797,9.127l2.986-7.663l-22.484,4.607l13.438,18.606l3.152-8.088
				c13.373,5.107,28.6,7.64,44.847,7.639c24.33,0,50.942-5.677,77.016-16.878c12.364-5.311,30.029-14.226,40.649-30.248
				C263.952,329.097,266.808,318.006,265.532,307.618z"/>
		</g>
	</g>
</g>
<g id="Lines">
	<g>
		<polygon style="fill:#407BFF;" points="253.224,157.378 249.848,132.17 256.599,132.17 253.224,157.378 		"/>
		<polygon style="fill:#407BFF;" points="257.892,158.829 269,129.596 275.014,132.661 257.892,158.829 		"/>
		<polygon style="fill:#407BFF;" points="261.394,162.243 278.37,145.737 282.338,151.198 261.394,162.243 		"/>
	</g>
</g>
</svg>
